<?xml version="1.0" encoding="UTF-8" standalone="no"?>
<svg
   xmlns:dc="http://purl.org/dc/elements/1.1/"
   xmlns:cc="http://creativecommons.org/ns#"
   xmlns:rdf="http://www.w3.org/1999/02/22-rdf-syntax-ns#"
   xmlns:svg="http://www.w3.org/2000/svg"
   xmlns="http://www.w3.org/2000/svg"
   version="1.1"
   regionID="hoenn"
   id="svg2"
   viewBox="0 0 600 399.99999"
   width="600"
   height="400">
  <defs
     id="defs4" />
  <metadata
     id="metadata7">
    <rdf:RDF>
      <cc:Work
         rdf:about="">
        <dc:format>image/svg+xml</dc:format>
        <dc:type
           rdf:resource="http://purl.org/dc/dcmitype/StillImage" />
        <dc:title></dc:title>
      </cc:Work>
    </rdf:RDF>
  </metadata>
  <path
     style="display:inline;fill:#94ca90;fill-opacity:1;fill-rule:evenodd;stroke:#94ca90;stroke-width:0.98688012;stroke-linecap:butt;stroke-linejoin:miter;stroke-miterlimit:4;stroke-dasharray:none;stroke-opacity:1"
     d="M 121.34597,2.1637419 C 117.64879,2.1419367 113.8835,2.4408695 110.341,3.2153409 96.092243,6.3132278 91.398454,6.7780191 91.398454,6.7780191 91.398454,6.7780191 77.413951,5.1147142 73.91081,8.2027038 70.328947,11.300591 70.064028,13.439434 65.104525,13.439434 60.135182,13.439434 44.30295,24.14796 41.455172,43.893277 38.607394,63.648493 37.483295,53.414811 36.75413,68.874553 36.025949,84.344193 34.170764,82.196688 37.217316,87.669952 37.217316,87.669952 35.297769,98.378619 39.337205,101.95159 43.377625,105.51466 31.286393,114.66898 37.102,119.46922 42.916624,124.25956 43.010014,122.81524 43.010014,126.61584 43.010014,130.42634 40.99251,132.15901 34.369015,131.20886 27.746504,130.25871 28.673812,143.3416 32.714233,144.05421 36.753669,144.76682 38.608209,145.24297 36.952089,147.14329 35.296954,149.05349 36.952735,155.23905 34.834122,155.23905 34.834122,155.23905 26.951532,153.00223 24.236598,155.23905 21.52068,157.47586 20.395766,164.75053 22.31659,165.46314 24.237413,166.18565 26.554447,166.89881 26.554447,170.22434 26.554447,173.55976 27.15106,185.71246 25.230237,185.94999 23.376327,186.19743 14.76614,195.68022 10.262243,200.91595 5.7593292,206.15167 7.6789372,225.65853 9.5338311,230.89426 11.454654,236.12998 14.500041,239.45705 18.27477,240.64474 22.050487,241.84233 22.579894,242.79124 22.579894,247.78943 22.579894,252.77772 30.594344,253.4901 30.594343,253.4901 30.594343,253.4901 30.130805,257.53791 31.785941,259.43821 33.44206,261.33851 26.951994,265.4276 33.442645,271.33635 39.933296,277.2451 45.495823,275.37388 51.654856,274.9087 51.654856,274.9087 55.696384,278.47138 58.742935,278.47138 61.788503,278.47138 66.561579,283.70702 60.401561,286.55747 54.239576,289.41782 47.614375,289.18067 58.012602,301.55243 68.409846,313.92418 82.383986,306.07631 86.428342,306.30395 90.462858,306.55139 92.589128,305.59002 91.398454,309.16298 90.197939,312.73595 88.01232,322.42698 91.525301,324.27779 94.9694,326.11871 99.672751,326.77062 101.78841,330.10604 103.9139,333.43157 111.26598,330.57138 115.50715,331.99661 119.73847,333.43173 122.38389,322.01129 126.89074,321.06114 131.32871,320.11098 122.85768,309.16383 125.43583,299.88997 128.02383,290.60621 125.30653,286.31971 129.67562,286.31971 134.0447,286.31971 129.94107,294.4167 135.8354,299.64253 135.8354,299.64253 135.50099,305.12632 138.94509,305.72016 142.3203,306.30411 142.58607,310.82583 148.61816,307.26276 154.64042,303.6898 152.38807,302.85803 154.64149,301.67034 156.89491,300.47276 153.38178,298.81123 158.42,294.77309 163.51727,290.72505 157.7607,274.07716 156.69795,272.52327 155.56632,270.97927 157.22864,267.04962 157.95682,263.96163 158.685,260.87364 159.01027,260.16165 160.47647,260.38929 161.86395,260.62682 163.18147,269.19727 162.32536,281.45026 161.5283,293.69334 162.12856,294.65347 165.76946,294.89101 169.41037,295.12855 167.75744,316.29976 175.10813,323.56449 182.45882,330.81928 186.82844,328.31484 189.68212,324.15793 192.52596,319.99113 200.67303,307.01548 200.53526,293.81235 200.40734,280.60922 200.074,281.9258 200.074,281.9258 L 194.97704,281.32268 194.24863,273.23658 183.71838,273.48402 184.11237,270.26736 188.49245,270.1475 188.6193,272.05739 197.76192,271.80996 197.56396,263.36817 188.2253,263.60594 188.15611,265.50617 183.38395,265.62408 183.65111,261.94349 195.84191,261.82364 195.84191,257.18229 193.12622,256.82661 193.12622,252.42111 194.77908,252.54095 194.77908,245.404 198.02714,244.9304 197.95795,233.86348 189.41689,234.17083 189.54374,223.52146 186.23802,223.40355 181.85987,219.79061 194.77908,219.71135 194.77908,211.37782 193.58941,210.91194 193.32226,204.96383 195.4383,204.7164 194.97704,185.21929 179.67463,185.17869 179.93985,179.15133 191.53294,178.96382 191.86736,168.18493 C 192.66442,169.08559 193.45018,169.8272 193.32226,170.93571 193.12545,172.84591 192.39888,179.26979 194.97704,177.59713 197.56503,175.93437 199.48343,170.22387 200.40842,169.7488 201.40229,169.27372 200.86975,164.03707 205.3766,162.61184 209.87361,161.18661 210.80991,160.23794 210.80991,155.95236 210.80991,151.66679 214.11516,153.57652 214.38085,149.29095 214.64653,145.00537 206.1064,137.63258 213.91958,129.5464 221.73277,121.45033 222.92299,119.78725 226.23917,118.8371 229.5455,117.88695 231.20766,115.7396 233.98262,115.02699 236.8363,114.31438 235.43983,105.51527 238.29351,98.379251 241.13735,91.243224 236.16747,76.258634 232.32976,71.735521 228.55109,67.212408 229.54519,40.806293 227.89202,36.758256 226.23885,32.720116 227.16331,30.333373 233.98262,31.045986 240.87082,31.758599 230.67667,40.329904 231.67054,45.555732 232.59553,50.791458 234.51461,69.825322 237.56509,71.488086 240.60574,73.160747 242.26906,78.147569 242.06241,84.580881 241.80656,91.004292 240.40978,99.803943 241.13796,103.84215 241.8071,107.90008 245.84023,111.70076 245.37774,114.31367 244.91525,116.93649 240.87097,118.59933 237.83032,118.59933 234.71095,118.59933 210.80998,128.11004 216.30086,142.62953 221.7327,157.13912 222.40061,151.66702 221.92827,156.19013 221.46578,160.71324 225.04841,158.80134 226.89839,162.61184 228.81724,166.41244 238.48992,167.37427 240.60559,166.41422 240.60559,166.41422 247.49487,168.32365 250.81104,167.84858 254.11738,167.3735 252.46274,173.32137 257.43209,173.55891 262.40143,173.78655 268.10042,172.84676 269.75359,174.03445 271.40675,175.22214 273.99352,171.89591 275.381,173.0737 276.83736,174.27129 271.40621,178.30989 270.67803,179.73512 269.94985,181.17024 268.75864,178.78489 266.43633,181.88278 264.05498,184.97076 263.32665,187.59312 263.32665,187.59312 263.32665,187.59312 267.37224,190.44419 269.75359,190.20665 272.06605,189.96911 276.11033,188.54366 277.30101,189.96888 278.49168,191.39411 286.51036,189.25743 289.1574,184.97185 291.73555,180.69618 291.00791,179.50772 293.3991,180.22033 295.78045,180.93294 294.58907,185.21767 299.08608,183.30747 303.52405,181.40717 304.72595,177.12159 305.91663,177.12159 307.1073,177.12159 310.1468,176.88436 310.1468,175.45913 310.1468,174.03391 313.26601,174.98537 315.64736,172.84754 317.96967,170.6998 355.1175,170.69933 356.78051,172.12456 358.43368,173.55968 366.24571,174.50953 367.89888,173.78702 369.56189,173.0744 363.8659,171.18315 365.78475,170.93571 367.64457,170.69818 383.73266,171.41118 384.92334,173.55891 386.11401,175.69675 389.16427,173.32129 391.08313,175.45913 392.94294,177.59697 396.51511,181.4081 399.35895,178.07267 402.21264,174.74714 406.18803,172.60984 407.64439,170.4621 409.03187,168.32426 407.37941,163.5623 408.10759,160.94938 408.83577,158.32657 406.45472,156.18881 406.45472,152.61585 406.45472,149.05278 403.40377,149.76687 406.71995,145.95637 410.02628,142.14587 418.97134,135.25542 418.76469,131.68246 418.50884,128.1095 413.07616,113.83783 403.13748,115.50059 393.19879,117.16335 387.30384,119.31086 388.23867,121.4487 389.16365,123.59644 389.62738,132.63354 387.7774,132.88097 385.84871,133.10861 371.67816,135.4833 369.7593,138.10611 367.89949,140.71902 357.97003,139.05657 355.84453,136.44365 353.72887,133.82084 340.68112,132.396 332.20863,132.63354 323.65743,132.88097 322.80163,134.85001 317.7634,134.05822 312.72518,133.26643 303.06256,127.64594 303.06256,120.97509 303.06256,114.31414 300.02053,105.99042 309.02439,102.41746 317.9692,98.854431 323.40258,94.578571 331.01895,94.093599 338.56645,93.618523 341.87179,92.667908 349.42913,93.618059 357.04551,94.578107 375.45721,93.618136 378.76356,91.717835 382.07973,89.807636 386.11355,91.955218 385.18856,95.518283 384.19469,99.091245 384.196,101.95159 387.51218,101.95159 390.81851,101.95159 401.75006,104.32743 400.7562,102.1797 399.83121,100.04183 398.63116,94.577566 402.21302,95.042744 405.726,95.517819 405.98124,95.755307 405.51875,103.12884 405.51875,103.12884 405.72578,105.75157 413.53896,105.2765 421.35215,104.80142 437.18447,107.17755 438.1685,103.84215 439.10333,100.51655 440.49111,95.291184 436.51564,94.093599 432.48112,92.90591 425.13066,90.291604 430.35585,86.481104 430.35585,86.481104 433.20977,81.473095 431.08426,71.961693 428.9686,62.440392 426.1838,60.90753 424.19607,59.125999 422.20833,57.334568 423.93076,45.556196 408.10759,40.09283 392.27457,34.619567 383.73236,34.144877 379.688,30.09684 375.72237,26.0587 366.70905,32.007271 358.43337,24.148734 350.1577,16.300093 339.02749,11.301674 325.58566,11.539211 L 294.78673,12.488356 C 294.78673,12.488356 292.46404,7.491096 280.61633,7.2535583 268.75879,7.0259181 259.08557,6.7784057 255.77923,9.4012173 255.77923,9.4012173 245.84085,9.1637593 241.334,13.439434 241.334,13.439434 240.87051,15.112095 236.3735,13.686869 231.86665,12.251746 217.9641,14.863423 215.30722,14.398245 212.72907,13.913273 210.34679,12.251746 196.89513,13.439434 196.89513,13.439434 187.89211,9.6376776 175.37527,12.250586 162.78955,14.8635 147.42764,8.915858 144.83964,6.7780191 142.90603,5.1746399 132.4375,2.2291576 121.34597,2.1637419 Z M 75.042826,18.295347 C 76.673853,18.337411 78.014131,18.674233 78.014131,18.674233 78.014131,18.674233 78.210706,22.297764 79.007769,24.485091 80.395249,27.315748 91.457188,26.007898 94.773364,28.007173 96.692219,28.343685 95.364011,32.106322 92.057676,33.877957 86.094464,37.055023 77.552483,34.164827 71.992723,34.214314 66.423123,34.263801 64.306924,33.145318 64.306924,33.145318 64.306924,33.145318 63.647778,30.453302 63.972508,28.770743 64.307077,27.088185 68.016249,27.759738 68.016249,27.759738 68.016249,27.759738 72.317683,25.404389 70.999085,23.048807 69.670647,20.693226 68.017787,22.040818 70.330254,19.685237 71.491407,18.507446 73.411799,18.253283 75.042826,18.295347 Z M 313.61012,35.053274 C 314.43793,35.05946 315.38268,35.177997 316.17974,35.093869 317.83291,34.915715 318.02971,38.34068 319.62384,38.786063 320.88339,39.132472 322.07361,37.380787 323.33316,37.707401 323.99246,37.875658 324.78967,38.478858 324.72079,39.132086 324.65191,40.052545 323.33232,40.399263 322.46637,40.686287 319.75045,41.586951 316.24731,42.617595 313.85612,41.043908 312.27184,39.994783 310.74813,37.332228 311.742,35.689259 312.07165,35.154799 312.7823,35.047088 313.61012,35.053274 Z M 545.25461,68.429943 C 542.85004,68.340008 540.56218,69.343674 538.18575,71.370167 532.76375,76.012049 526.46582,77.318661 523.02172,76.724817 519.57762,76.140869 505.86995,78.515706 502.69154,78.396937 499.51313,78.278168 496.79698,85.058198 500.24108,88.8588 503.61629,92.6693 503.54817,95.756439 501.7671,95.162595 499.97617,94.578648 497.25979,91.600458 495.14412,93.144453 493.01862,94.688447 492.16176,96.588671 493.6181,98.261332 495.00559,99.924096 494.08191,103.97213 496.92575,104.4472 499.71055,104.92228 499.31594,104.7439 500.5755,104.20944 501.8941,103.67498 503.2918,103.24977 506.13564,103.61598 508.97948,103.97228 516.66528,103.49729 517.26554,104.68498 517.85596,105.87267 518.91886,118.8371 522.09727,118.8371 525.27568,118.8371 526.14032,122.05453 530.10595,120.61941 534.15031,119.19418 537.7923,120.73826 536.86731,115.50252 535.94232,110.27669 534.15146,109.20631 541.37424,109.79026 548.58717,110.394 553.6845,112.05738 555.47543,109.43457 555.47543,109.43457 555.80931,106.94151 556.7343,106.5852 557.65929,106.22889 561.24115,106.58498 560.1784,103.13077 559.11565,99.686486 562.56075,81.247543 555.54463,74.349054 551.63127,70.468654 548.34619,68.545573 545.25461,68.429943 Z M 175.70969,114.90713 C 178.35673,118.27225 174.71444,118.60807 174.0453,120.62714 173.386,122.64621 177.02813,121.97396 177.02813,123.64662 177.02813,125.33907 175.37382,125.6667 173.38608,125.6667 171.32946,125.6667 167.03002,122.64667 168.02389,119.61807 169.01776,116.57957 175.70969,114.90713 175.70969,114.90713 Z M 143.73838,133.69867 C 144.37502,133.76934 143.83094,134.51551 145.56806,135.84052 148.28398,137.85959 148.2842,142.5696 146.29647,142.5696 144.24969,142.5696 142.58761,140.55239 140.59987,138.53332 138.55309,136.51425 141.2687,134.15681 141.2687,134.15681 142.34375,133.90442 142.98491,133.75759 143.38282,133.71027 143.53204,133.69252 143.64743,133.68857 143.73838,133.69867 Z M 311.46524,135.14462 C 312.68174,135.12359 313.85612,135.37465 313.85612,135.37465 315.71594,136.21593 315.5199,137.56229 315.38213,138.90833 315.18533,140.25438 312.66614,140.08551 310.87521,140.25377 309.02523,140.42202 308.49378,138.74117 308.82835,136.55384 308.99071,135.46018 310.24873,135.16565 311.46524,135.14462 Z M 141.16875,147.10076 C 143.4233,147.1879 146.21767,150.24009 146.21767,150.24009 145.54853,152.59567 142.90111,152.30895 139.9195,151.29942 136.86901,150.28988 137.86296,148.27074 140.24431,147.26121 140.5346,147.13501 140.84668,147.08831 141.16875,147.10076 Z M 168.243,165.93868 C 168.96933,165.93203 169.41153,165.94835 169.41153,165.94835 L 168.09308,191.45349 175.83654,191.44382 175.6405,197.46152 173.45527,197.52145 173.12085,205.55729 176.63414,205.67714 176.4381,213.45588 172.994,213.49454 C 172.994,213.49454 174.84305,212.47643 172.78643,209.89321 171.86144,208.73521 168.82118,208.08128 168.7523,204.47862 168.48661,195.67983 161.66729,193.06754 161.8641,188.78197 162.12979,184.50629 158.08605,181.16955 157.82036,179.02181 157.62356,176.88397 150.73451,180.93286 149.08135,182.12055 147.42818,183.30824 145.56813,191.16585 143.18678,193.54122 140.80543,195.9166 140.13622,200.6781 138.67986,202.82584 137.29238,204.96368 133.24795,209.00283 134.91095,214.00101 136.56412,218.9992 135.83671,218.99811 133.9769,223.28369 132.05804,227.55937 126.36029,230.41067 126.36029,226.13499 126.36029,221.84942 125.8971,220.18627 125.8971,217.32592 125.8971,214.47547 131.33032,191.39456 133.71167,190.44442 136.10286,189.49427 137.7551,188.78057 139.40827,187.35535 141.06144,185.93012 141.06144,184.97123 144.57442,182.35832 148.15628,179.7355 145.76571,176.40906 148.1569,175.22137 150.53825,174.03368 154.3163,169.5111 158.35081,167.6108 161.33242,166.17815 166.06398,165.95864 168.243,165.93868 Z M 188.01965,167.50255 187.89088,174.38048 176.69372,174.55831 176.10176,185.23862 174.18367,185.21929 174.64686,167.6108 188.01965,167.50255 Z M 179.4094,191.35491 188.35407,191.40517 188.15611,213.67432 181.20064,213.8425 181.26791,205.55729 183.71838,205.55729 183.84715,197.46152 179.28063,197.46152 179.4094,191.35491 Z M 51.084043,210.66644 C 52.334005,210.7085 53.244293,211.12992 53.244293,212.13945 53.244293,214.15852 53.245169,219.20573 53.576787,221.56131 53.974334,223.907 42.913394,220.21557 39.204591,220.8886 35.561718,221.56162 30.196858,221.56255 28.541722,218.87046 28.541722,218.87046 29.204727,213.14913 33.840485,211.80309 38.543156,210.45704 44.237543,212.47627 46.886547,211.46673 48.244506,210.96197 49.834081,210.62438 51.084043,210.66644 Z M 176.17096,219.80994 176.17096,223.6993 179.93985,223.997 185.63838,227.91537 185.63838,234.16117 170.47435,234.45887 170.6012,219.94912 176.17096,219.80994 Z M 74.395136,241.68087 C 75.582005,241.6718 74.205249,242.58309 75.367632,243.76088 76.686232,245.10693 75.033294,247.79941 72.651945,247.12638 70.329639,246.45336 73.714773,241.74273 73.714773,241.74273 74.003831,241.7019 74.225584,241.68217 74.395136,241.68087 Z M 62.786677,254.62675 C 63.529983,254.69248 64.306924,255.87553 64.306924,255.87553 64.631653,257.22157 65.300562,260.58646 65.300562,260.58646 65.300562,260.58646 68.677163,262.26986 69.671031,262.9429 70.6649,263.61591 67.682141,268.66429 64.306924,265.63568 60.990748,262.60708 60.991286,259.577 61.660426,256.21188 61.907663,254.94996 62.340693,254.58732 62.786677,254.62675 Z M 124.66898,335.11081 C 123.88204,335.10079 123.19932,335.14946 122.66057,335.27318 118.95078,336.15405 120.0123,346.72448 121.39978,347.64493 122.86599,348.56539 129.48965,348.2387 137.83421,347.81312 142.73467,347.56568 145.84397,344.52764 145.71605,342.84508 145.5094,341.16252 144.78006,340.33067 143.05801,339.40033 140.80213,338.18789 130.17767,335.1809 124.66898,335.11081 Z M 275.05042,344.3065 C 274.65791,344.31831 274.26382,344.34222 273.86652,344.37995 267.44082,344.97379 264.19336,347.53661 262.14659,350.92152 260.08997,354.30643 259.16498,360.40416 262.14659,362.75974 265.12819,365.10543 267.44058,363.29242 269.694,366.38041 271.94743,369.4684 277.77311,369.36069 279.03267,367.56926 280.36111,365.78772 282.34754,362.80807 285.3193,362.80807 288.30091,362.80807 291.81427,361.03605 291.61747,357.46309 291.35178,353.89012 291.47932,349.97098 288.7634,348.29832 286.21723,346.73948 280.93823,344.12937 275.05042,344.3065 Z"
     class="LAND"
     id="path4158" />
  <path
     id="path4724"
     d="M 217.17588,218.03903 C 218.95697,218.57348 223.12925,217.32641 223.79839,219.83046 224.52657,222.3246 226.05182,226.96648 229.7616,227.08525 233.40251,227.20402 244.72867,229.9456 246.64753,224.82864 248.56638,219.71169 250.41636,218.40523 253.53573,218.8803 256.57637,219.35538 257.44232,215.90119 260.74865,215.66365 264.06483,215.42611 268.43392,215.0797 269.49667,211.74428 270.29373,209.3788 270.42165,204.00451 267.24324,201.27283 264.06483,198.54114 249.68818,198.3036 247.23795,195.08695 244.72867,191.88019 240.34975,189.25738 238.49977,188.426 236.58092,187.59462 236.11843,188.18846 232.21183,183.30904 228.2954,178.43952 222.14522,181.28997 221.54497,187.35708 221.01359,193.42419 221.93858,199.37252 217.107,201.86667 212.20654,204.37071 207.37496,209.71531 210.55337,213.76335 213.79082,217.81138 215.31607,217.51446 217.17588,218.03903 Z"
     style="display:inline;fill:#94ca90;fill-opacity:1;fill-rule:evenodd;stroke:#94ca90;stroke-width:0.98688012;stroke-linecap:butt;stroke-linejoin:miter;stroke-miterlimit:4;stroke-dasharray:none;stroke-opacity:1"
     class="LAND" />
  <path
     style="display:inline;fill:#986749;fill-opacity:1;fill-rule:evenodd;stroke:#986749;stroke-width:0.98688012;stroke-linecap:butt;stroke-linejoin:miter;stroke-miterlimit:4;stroke-dasharray:none;stroke-opacity:1"
     d="M 462.95371,58.977151 C 461.36328,58.888074 460.59996,59.125458 460.36871,60.550683 459.90622,63.401135 458.45032,64.114753 460.10349,65.787414 460.10349,65.787414 460.36833,67.212563 463.41881,67.687638 466.52834,68.162713 463.68504,75.298895 468.64455,76.011508 473.61389,76.724121 472.42221,80.296233 475.73839,79.346082 479.04472,78.395931 479.50753,73.16036 480.23571,75.298199 480.96389,77.436038 477.85551,85.533119 481.17169,86.720807 484.47802,87.908495 488.05027,88.620954 488.05027,84.582814 488.05027,80.534776 487.79266,76.258401 490.174,77.436193 492.55536,78.633778 492.55636,74.11082 495.87253,73.635745 499.17887,73.16067 491.56156,64.828139 487.79273,64.6005 484.01407,64.362961 480.69897,67.213181 478.31762,64.115294 476.00516,61.027305 477.65886,59.126231 470.50497,59.363768 466.96247,59.482537 464.54415,59.066228 462.95371,58.977151 Z M 491.12344,108.64974 C 488.72347,108.63363 487.52198,109.01895 485.20582,109.01895 482.55879,109.01895 483.21801,109.69306 480.69889,110.87085 478.18962,112.04864 479.37922,116.25504 479.84171,119.28365 480.37309,122.30235 476.98957,123.14209 476.98957,123.14209 473.48643,124.99289 473.48643,129.37784 470.83939,130.71399 468.12347,132.06003 470.50474,140.13662 471.49861,142.66046 472.49248,145.1843 474.67664,144.00728 475.53274,145.18507 476.32981,146.36286 476.98925,146.86655 479.38045,147.53957 481.69291,148.21259 480.83612,150.73743 482.36136,153.76604 483.87676,156.79464 482.68594,155.95321 483.67981,158.30879 484.67368,160.66438 485.73605,159.31825 486.7299,158.47697 487.72378,157.63569 488.58111,153.09155 489.71275,152.75504 490.90342,152.41853 493.08751,148.54996 493.42207,145.6896 493.7468,142.82926 493.21604,144.00573 496.26653,144.34224 499.24813,144.67876 498.91264,141.31503 501.96313,141.31503 504.94473,141.31503 507.59255,142.15538 508.6553,139.12678 509.64915,136.09817 510.30792,138.79127 511.30179,136.94045 512.29566,135.08964 509.77701,134.75166 507.59247,131.22819 505.47681,127.68492 505.93914,129.03088 507.92688,127.68484 509.97366,126.33879 509.64915,124.31988 508.6553,123.14209 507.59255,121.97418 509.64962,122.14369 511.83416,120.45122 513.94982,118.77857 514.60751,121.97504 514.60751,117.08572 514.60751,112.2162 511.96071,114.5622 508.44773,111.71175 504.94458,108.8514 504.74877,109.35539 502.0919,109.18714 499.44486,109.01888 495.41081,108.85085 492.23239,108.6826 491.83386,108.66157 491.4663,108.65203 491.12344,108.64974 Z M 439.0449,126.56751 C 437.18508,126.56751 433.74076,129.78317 433.15034,130.73332 432.55008,131.68347 429.04624,132.39724 429.24305,135.13882 429.50874,137.8705 426.86317,137.27635 426.0661,139.7705 425.20016,142.27454 427.59073,142.03723 429.37182,143.22492 431.16275,144.41261 429.63743,147.62849 430.76906,147.38105 431.95973,147.14352 435.40423,150.12286 439.77331,150.83548 444.14239,151.54809 445.59883,150.47995 444.28023,149.64856 442.95179,148.80728 443.94582,146.54983 443.94582,146.54983 445.59899,144.41199 447.12308,143.69961 448.91401,140.60172 450.63606,137.51373 448.04845,136.68243 447.58596,135.48484 447.12346,134.30705 445.93371,131.68385 445.33346,130.13986 444.74304,128.59586 440.96375,126.56751 439.0449,126.56751 Z M 436.3465,134.96677 C 436.51272,134.95724 436.70498,134.97319 436.92885,135.01897 438.70994,135.37528 438.84832,136.91919 439.77331,136.91919 440.69829,136.91919 439.43897,138.58319 440.50172,139.17704 441.56447,139.77088 441.56417,141.56246 438.71048,141.31503 435.86664,141.08739 436.45674,141.20623 434.21316,139.4148 434.21316,139.4148 433.27918,138.34574 434.34193,137.27681 435.27184,136.34151 435.18305,135.03348 436.3465,134.96677 Z M 377.25868,237.19998 C 375.00909,237.21483 373.06441,237.52381 372.21937,238.15106 370.03483,239.81383 368.44109,245.8807 369.16928,250.28504 369.89746,254.67949 375.32929,253.72848 381.22363,253.61961 387.11795,253.49095 388.57308,250.3933 388.57308,250.3933 389.30127,249.33427 390.36509,250.61042 391.89034,250.99641 393.41558,251.38241 395.92447,251.23581 397.64652,252.89858 399.43745,254.56134 403.48142,255.045 407.58482,255.51017 411.7571,255.99515 409.16887,252.77911 405.13435,252.18526 401.09,251.59142 401.09054,248.13777 397.32171,247.79136 393.54304,247.42516 397.7842,244.45524 400.76581,246.83062 403.67853,249.21589 406.66044,247.54392 410.42927,247.54392 414.20794,247.54392 418.71395,249.81012 420.6328,249.45382 422.48277,249.09751 415.27016,245.76247 412.09175,245.6437 408.91334,245.52493 409.37575,242.90174 407.58482,243.26794 405.86277,243.62425 403.01862,243.86193 400.62743,242.43671 398.24609,241.00159 396.25858,241.4762 394.46764,241.96118 392.68655,242.43625 390.23709,241.8431 387.38341,239.45783 385.60601,237.96703 381.00798,237.17524 377.25868,237.19998 Z M 8.6804941,248.8101 C 5.5020827,248.97835 3.6482964,250.15629 7.1583253,252.68013 7.1583253,252.68013 9.5423951,253.85777 10.735038,253.01649 11.860766,252.17522 11.85989,248.64184 8.6804941,248.8101 Z M 426.0661,249.8095 C 421.43133,249.69073 422.48354,250.58251 422.15881,251.82958 422.02105,252.37394 423.81175,253.96587 424.8745,254.20341 425.92741,254.44095 424.54009,258.13399 427.98419,257.77768 431.35941,257.42137 435.26546,256.58968 432.35274,253.25426 429.37113,249.92873 430.63199,249.92827 426.0661,249.8095 Z M 414.97849,253.36638 C 413.49168,253.39856 412.32929,253.76189 411.29606,253.61961 409.6429,253.37218 410.69466,258.3706 412.82016,256.82661 412.82016,256.82661 416.12726,256.35115 417.05225,257.42007 418.04611,258.48899 420.17046,256.82661 422.02044,256.82661 423.93929,256.82661 421.09638,254.91664 418.04589,253.84772 416.87981,253.44687 415.87057,253.34707 414.97849,253.36638 Z M 9.9335931,255.17961 C 9.7991541,255.19571 9.6657521,255.30975 9.5415191,255.5411 9.5415191,255.5411 7.1586175,265.80394 7.5561649,269.84208 7.8877825,273.88022 10.005873,272.03026 9.8740131,267.99212 9.6752391,263.95398 9.6740711,264.12122 10.865729,261.76564 11.909291,259.70451 10.874666,255.0669 9.9335931,255.17961 Z M 407.74434,273.32937 C 403.37598,273.21326 399.55146,274.43618 398.97457,275.9777 398.31527,277.74933 391.48673,281.11583 391.48673,281.11583 388.44608,278.33466 389.1738,280.02697 386.5858,277.2458 384.00765,274.46463 377.97517,274.38429 372.41541,275.80952 366.78677,277.24464 365.19387,281.45142 363.3439,287.58781 361.48409,293.7341 363.80601,313.83642 375.00425,315.76641 386.19266,317.6964 378.57559,316.69707 389.3015,319.30009 399.96836,321.91301 408.51019,317.78424 411.42292,322.66366 414.40452,327.54308 425.99637,332.16501 428.64341,331.41281 431.35933,330.65071 437.51881,330.4042 438.1781,329.14723 438.84724,327.88037 442.02704,325.69373 443.2866,323.67466 444.54616,321.65559 442.29296,311.8959 440.57091,308.20417 438.77998,304.49265 432.35381,301.72192 425.33769,303.06796 418.31172,304.41401 415.27054,302.39401 414.20779,301.12714 413.14504,299.87017 419.97335,300.7911 420.2292,299.6232 420.49489,298.44541 419.7092,296.75319 419.83713,295.15971 419.90601,293.55633 426.19403,294.06032 424.34405,292.6351 422.48424,291.20987 422.42528,286.49863 421.22476,284.39049 420.03409,282.28234 416.85452,283.55037 417.5827,281.37294 418.25184,279.17571 415.73334,277.82951 414.27698,277.75033 412.87966,277.66125 414.73855,274.04862 409.64128,273.46468 409.00289,273.39045 408.36839,273.34595 407.74434,273.32937 Z M 49.804038,279.94246 C 48.825974,279.974 48.155022,280.85781 48.155022,282.87688 48.155022,285.56897 49.081684,286.24122 50.340256,284.55866 50.340256,284.55866 52.327071,280.85712 50.870709,280.18409 50.48989,280.01584 50.130058,279.93194 49.804038,279.94246 Z M 46.35225,287.25725 C 45.695028,287.14823 44.933021,287.56732 44.974227,289.34885 45.041141,292.2092 45.505202,296.92191 44.047857,298.60446 42.59051,300.29692 44.842367,306.34339 45.835252,304.66083 46.82912,302.97827 45.901873,298.44472 47.159462,297.42529 48.418034,296.41575 47.557362,288.55752 47.226729,287.84491 47.102372,287.57768 46.746585,287.32266 46.35225,287.25725 Z M 17.700113,291.40372 C 16.298632,291.42035 14.906548,292.19319 14.575054,294.40774 14.045647,297.94111 14.707437,300.45444 16.562331,300.45444 18.41624,300.45444 23.715001,299.62312 22.722117,296.07985 21.728249,292.54648 21.728479,293.07097 20.00643,292.04165 19.385754,291.65565 18.541002,291.39375 17.700113,291.40372 Z"
     id="path4728"
     class="LAND" />
  <path
     style="display:inline;fill:#f2efec;fill-opacity:1;fill-rule:evenodd;stroke:#f2efec;stroke-width:0.98688012;stroke-linecap:butt;stroke-linejoin:miter;stroke-miterlimit:4;stroke-dasharray:none;stroke-opacity:1"
     d="M 527.19423,151.24143 C 527.19423,151.24143 523.81932,152.92406 525.54137,155.27965 527.19454,157.63523 524.88177,161.84201 520.30603,158.64515 515.80902,155.44829 514.14525,157.80325 515.33592,159.99057 516.46756,162.1779 517.65838,162.85015 517.46157,165.87875 517.32381,168.89746 520.50253,171.09647 523.68095,170.42344 526.8692,169.75042 532.233,164.70127 534.88003,169.41244 537.52707,174.11371 537.93067,176.9855 539.71176,174.46166 541.57157,171.93783 541.76753,170.42166 539.58299,165.87875 537.39845,161.33585 537.93052,155.61515 534.88003,153.25957 531.89843,150.90399 529.71334,151.91445 527.19423,151.24143 Z M 456.12702,152.98314 C 449.77019,153.00294 443.87686,156.79395 442.88299,159.48604 441.03302,166.55279 437.18447,170.42344 437.18447,170.42344 432.68746,178.15332 437.85446,190.27593 443.21741,190.94895 448.58036,191.62198 448.91363,193.96782 451.22609,195.31387 453.61728,196.65991 455.2713,195.65022 458.98108,195.65022 462.62199,195.65022 467.12799,192.28541 470.16864,190.27624 473.15025,188.25717 474.6764,184.20906 474.80433,182.5265 475.01097,180.84394 479.18303,178.49857 477.52002,177.15252 475.86685,175.80647 473.81054,169.74934 468.97896,160.15876 466.79442,155.86329 461.23412,152.96335 456.12702,152.98314 Z M 455.71956,171.76887 C 456.95373,171.69773 458.18463,172.76789 458.8427,174.62984 459.90545,177.59906 460.70313,179.02374 460.70313,179.02374 460.70313,179.02374 454.93595,180.81409 452.28891,179.15133 452.28891,179.15133 451.95589,175.69736 453.6189,173.20322 454.23883,172.2642 454.97906,171.81155 455.71956,171.76887 Z M 525.54714,173.39846 C 525.37937,173.38603 525.19966,173.40017 525.009,173.44099 525.009,173.44099 523.8184,176.80727 524.34977,179.33111 524.88115,181.85494 522.02785,182.52774 521.29967,184.04203 520.64037,185.56623 519.3114,187.07041 520.50207,188.75297 521.70259,190.43553 523.15856,193.46305 521.83013,195.31387 520.50169,197.16468 522.36189,200.52964 520.50207,199.85662 518.6521,199.18359 518.31768,196.66006 519.18362,194.9775 519.98068,193.29495 520.30634,192.11701 518.65317,191.10747 517,190.09794 512.63015,193.79956 511.96101,195.31387 511.30171,196.82817 509.44228,201.2029 514.81508,203.55848 520.17803,205.91405 524.15304,208.43852 529.84073,206.41945 535.53825,204.40038 535.73614,203.89538 540.04618,202.71759 544.41527,201.5398 541.43335,200.36246 543.42109,197.50211 545.40882,194.64176 539.90711,192.2865 537.72257,192.62301 535.53802,192.95952 535.5394,191.62198 534.2208,191.44382 532.89237,191.27557 530.8346,192.45429 529.84073,193.63208 528.84686,194.80987 527.33261,195.31479 527.33261,193.29572 527.33261,191.27665 527.33161,189.08816 528.52229,186.91073 529.71296,184.71351 527.33261,181.51712 527.33261,177.98374 527.33261,174.9007 526.7215,173.48547 525.54714,173.39846 Z M 504.21947,210.60844 C 504.01686,210.59925 503.81525,210.60481 503.61599,210.62584 502.0317,210.7941 498.58822,211.29871 498.58822,215.16859 498.58822,219.03847 499.24791,221.0584 502.42632,221.73142 505.60473,222.40444 509.44297,222.24555 510.11211,218.70228 510.77141,215.16891 509.97297,213.6536 508.44773,212.4758 507.12175,211.44524 505.63774,210.67285 504.21947,210.60844 Z M 504.06572,214.47075 C 504.17348,214.46518 504.28936,214.47361 504.41359,214.49588 505.40746,214.66414 506.93355,216.51534 506.26441,217.86139 505.60511,219.20743 502.95677,219.03956 502.95677,217.02049 502.95677,215.25381 503.31138,214.50972 504.06572,214.47075 Z M 226.74078,253.57708 C 225.52405,253.56761 225.98354,255.75761 225.98354,255.75761 227.04629,257.77668 226.90853,255.99553 227.70559,258.13337 228.5617,260.28111 231.73865,258.60883 232.60459,260.50913 233.40166,262.41933 233.26451,262.17159 244.0593,262.41903 254.79505,262.65656 253.00496,258.49037 253.53634,255.87746 253.99883,253.25465 248.29992,253.84834 245.72176,256.70869 243.06489,259.55914 238.49938,260.16218 235.78346,258.9646 233.06754,257.77691 232.21221,256.35153 230.42129,256.82661 228.69923,257.30168 229.35892,254.56118 227.37118,253.7298 227.12271,253.62588 226.9146,253.57844 226.74078,253.57708 Z M 259.78069,253.83226 C 258.80383,253.81453 258.2978,255.76457 258.70249,257.53991 259.16498,259.55898 256.91125,260.50913 256.91125,260.50913 254.12645,263.13195 262.2742,264.91279 263.79945,263.01248 265.32469,261.11218 268.30537,261.58726 269.49605,259.79583 270.68672,258.0143 277.64372,258.37075 277.04347,255.99538 276.45305,253.62 265.45153,254.67964 262.94226,255.63969 260.48219,256.58984 261.54518,254.67825 260.22658,253.96564 260.06913,253.87656 259.92024,253.83479 259.78069,253.83226 Z M 339.51389,256.71062 C 337.80399,256.8498 337.92868,258.60837 336.78475,260.03359 335.25951,261.94379 336.98094,263.48825 339.10644,263.72579 339.10644,263.72579 342.55047,264.20009 344.93182,261.94349 347.31316,259.67698 346.31998,258.72629 341.9509,257.18229 340.85863,256.79629 340.08385,256.66422 339.51389,256.71062 Z M 283.6722,258.75969 C 281.13066,258.71037 278.72062,259.42452 277.04347,260.62705 274.06186,262.77479 272.80345,267.40762 275.51937,266.94245 275.51937,266.94245 278.69817,263.96248 283.53959,263.84371 288.37117,263.72494 291.4794,267.65374 293.27033,266.33739 294.99238,265.03093 293.87104,262.88343 289.56099,260.38929 287.70549,259.2981 285.64896,258.79805 283.6722,258.75969 Z M 338.34728,267.48951 C 337.19649,267.41667 336.07794,267.55253 335.25874,268.0907 333.00531,269.51593 331.55018,269.86149 331.35338,271.17784 331.08769,272.4843 330.1617,273.31591 330.821,274.38483 330.821,274.38483 334.06914,277.60079 338.57599,276.88818 343.01395,276.17556 345.99594,275.33544 342.41408,274.86037 338.9011,274.38529 333.00592,273.07922 337.11916,271.29769 341.29144,269.51616 344.59693,269.26834 343.14057,268.67449 342.27339,268.30953 340.26527,267.61091 338.34728,267.48951 Z M 290.55464,269.19836 C 284.99488,269.31713 280.48756,274.66126 280.48756,274.66126 279.89715,275.97762 280.95036,275.265 282.2788,274.9087 283.53836,274.54249 283.40021,275.85985 284.59088,276.92877 285.7914,277.99769 291.35224,276.33447 294.79634,276.45324 298.24044,276.57201 297.51202,274.07863 297.51202,272.04966 297.51202,270.03059 296.05536,269.07959 290.55464,269.19836 Z M 10.967591,305.55585 C 10.680547,305.5624 10.360676,305.65003 10.004704,305.83808 7.1569262,307.35238 8.6808478,313.74688 7.0257121,316.77548 5.3695925,319.80409 6.6943253,320.47695 5.1710494,321.31823 3.6477735,322.15951 5.8322549,324.68444 6.3626462,327.37653 6.8261235,330.06862 6.694848,332.42258 8.0193501,335.11467 9.3438523,337.80677 8.2178318,339.82684 10.204585,341.34114 12.191338,342.85544 10.536787,338.14405 12.722314,337.63928 14.90784,337.13452 16.893487,337.29295 18.549606,333.26471 20.204742,329.22657 21.727372,332.25455 22.389623,330.40374 22.655311,329.63174 24.707994,327.187 23.250648,325.62321 21.99306,324.26727 20.668158,322.83261 19.741204,325.35645 18.814249,327.88029 17.754219,331.59096 15.568692,331.41281 13.383166,331.24455 13.715137,330.75069 13.052886,329.22649 12.191861,327.45486 12.522371,325.52486 13.71403,325.0201 14.906671,324.51533 17.225396,319.9718 16.364372,317.95273 15.569277,315.93366 13.383458,313.57916 13.383458,311.39184 13.383458,309.47793 12.9769,305.50997 10.967591,305.55585 Z M 190.84873,331.64478 C 190.35506,331.61114 189.79413,331.78242 189.16128,332.25563 185.84511,334.77947 190.01723,336.79707 190.47972,339.65742 191.0111,342.50788 193.86424,339.99572 193.86424,335.78932 193.86424,335.78932 192.98799,331.79056 190.84873,331.64478 Z M 171.72553,347.07275 C 170.62259,347.08533 169.74263,347.49246 169.61717,348.56509 169.29244,351.43533 169.2929,352.94113 171.074,353.4558 172.93381,353.96057 172.47101,352.43536 173.46488,351.43572 173.46488,351.43572 177.63761,350.59576 176.64374,349.07156 176.02258,348.1313 173.56375,347.05177 171.72553,347.07275 Z M 32.104981,349.70367 C 30.495726,349.75069 29.063657,349.8973 27.623039,350.0903 21.861553,350.8524 16.0324,359.16598 13.71403,367.91528 10.734392,381.43513 46.630516,395.33094 61.531657,397.69642 72.06076,399.04246 78.359617,390.37249 79.609333,388.94726 84.312988,383.56307 75.111017,373.13176 69.413492,375.15083 55.505236,381.17834 73.714865,357.6325 56.36743,353.4558 43.353163,350.32327 36.932747,349.56264 32.104981,349.70367 Z M 190.96982,354.85728 C 187.74494,354.66206 188.5232,359.07102 187.96968,360.1752 185.7753,364.3915 188.82556,364.0454 191.6694,363.21401 194.52309,362.37273 194.85889,362.36269 194.65224,359.34398 194.52432,356.30548 193.5981,355.38533 191.6694,354.95974 191.41725,354.90344 191.18481,354.8703 190.96982,354.85728 Z M 175.16386,362.53937 C 174.45409,362.54923 173.46833,363.03501 173.25923,365.55885 172.9345,369.59699 174.58712,369.59745 176.64374,368.75617 178.63148,367.91489 180.81649,368.75741 179.82262,366.06532 178.82875,363.37322 178.29668,364.21412 175.91534,362.69981 175.91534,362.69981 175.58972,362.53345 175.16386,362.53937 Z"
     id="path4734"
     class="LAND" />
  <path
     style="display:inline;fill:#c9b293;fill-opacity:1;fill-rule:evenodd;stroke:#c9b293;stroke-width:0.98688012;stroke-linecap:butt;stroke-linejoin:miter;stroke-miterlimit:4;stroke-dasharray:none;stroke-opacity:1"
     d="M 535.72568,35.880634 C 535.50043,35.902947 535.28333,35.95587 535.07606,36.044947 531.76973,37.470173 532.29073,38.420092 530.83437,41.993054 530.83437,41.993054 521.83051,47.705478 525.66822,49.843317 529.44689,51.991054 531.30709,48.65416 533.68844,50.316924 536.06978,51.989585 538.39308,51.990358 539.38695,49.130009 540.31194,46.279557 540.04495,44.132053 542.2295,43.181901 544.21292,42.291136 539.10443,35.545945 535.72568,35.880634 Z M 518.5244,48.952165 C 518.5244,48.952165 517.99249,49.970515 516.00475,50.811794 513.94813,51.643176 512.62985,54.345475 515.33592,54.345475 517.9928,54.345475 518.31753,51.64449 520.50207,52.159155 522.69646,52.663923 521.29936,49.130318 518.5244,48.952165 Z M 529.51592,54.513654 C 528.18748,54.513654 523.68025,56.365242 526.66185,57.533135 529.71234,58.710926 534.01331,57.533445 533.35401,56.365551 532.69471,55.18776 530.9034,54.513654 529.51592,54.513654 Z M 505.80122,54.840346 C 503.41987,55.077883 498.6478,58.166647 498.6478,59.839308 498.6478,61.502071 497.52493,61.739222 496.06857,63.649421 494.68109,65.539824 494.6817,67.450487 498.91302,70.310837 498.91302,70.310837 502.69139,75.773816 506.47005,73.873514 510.23888,71.973213 509.57989,66.975102 510.96737,65.539979 512.42373,64.114753 508.12353,54.602808 505.80122,54.840346 Z M 438.53366,60.158266 C 438.37708,60.161471 438.2167,60.181928 438.05126,60.223991 435.33535,60.897014 433.21953,62.422453 433.21953,65.945927 433.21953,65.945927 434.53873,67.459534 436.06398,67.459534 437.52034,67.459534 442.22377,68.133175 442.22377,66.114105 442.22377,64.221227 440.88232,60.110206 438.53366,60.158266 Z M 562.35403,132.158 C 560.44416,132.22149 558.69582,132.70893 557.60109,133.82239 554.01923,137.39535 557.33425,140.96746 554.94306,143.34283 552.6306,145.71821 553.82127,149.29141 554.94306,149.76649 556.13374,150.24156 554.48164,152.61694 553.09416,155.95236 551.6378,159.28779 555.20875,163.32569 554.94306,168.08634 554.74626,172.84699 554.28384,191.64309 554.28384,193.78093 554.28384,195.91877 552.43418,197.82765 552.63098,202.5784 552.63098,202.5784 557.33433,206.15244 559.44999,205.91491 561.56565,205.67737 558.26047,209.71536 561.37,209.71536 564.42049,209.71536 559.45137,204.7164 567.26455,204.7164 575.07774,204.7164 574.34856,207.3396 575.34243,207.3396 576.27726,207.3396 573.42457,214.71316 579.3189,219.71135 585.28211,224.70954 586.66844,222.08618 591.17529,221.13603 595.68214,220.18588 590.25093,218.76236 594.01975,214.71432 597.79842,210.66628 592.36612,204.48961 592.56293,201.62926 592.82862,198.76891 586.6689,199.72864 585.74392,197.10583 584.75005,194.49292 583.36157,191.64285 580.04539,187.35728 576.73905,183.0717 577.46847,175.69775 579.58413,172.36233 581.69979,169.0368 578.85472,157.13959 580.04539,155.47682 581.23606,153.80416 577.39859,142.39307 573.88561,139.53272 573.88561,139.53272 572.69601,138.34519 572.03671,135.73228 571.53608,133.92909 566.55574,132.01832 562.35403,132.158 Z M 457.20714,234.97306 C 456.65019,234.96829 456.04868,234.98211 455.3986,235.01365 445.0663,235.52833 445.40095,233.16253 437.51888,239.3979 429.7057,245.61347 428.18122,242.59437 426.99055,244.94006 425.86876,247.30554 425.33746,246.95983 426.33133,247.63284 426.33133,247.63284 428.97836,248.30564 431.49748,248.13738 434.00675,247.97902 433.68186,247.79994 434.53797,250.15552 435.33503,252.521 433.5448,258.40037 441.88936,257.89561 450.23392,257.39084 450.23314,258.40153 452.41768,259.57932 454.61207,260.75711 451.89615,256.88699 457.58383,255.87746 463.28136,254.86792 465.46552,257.22196 465.80008,255.03463 466.13465,252.84731 464.80599,251.17473 466.79373,250.66006 468.85035,250.15529 467.12937,248.30487 471.83302,245.61277 471.83302,245.61277 473.02271,245.10855 471.30066,243.94066 469.63765,242.76286 465.14117,242.59414 464.47203,240.74333 463.85394,238.99891 465.56148,235.04457 457.20714,234.97306 Z M 526.30054,237.44355 C 525.87575,237.43166 525.40368,237.46188 524.88215,237.546 520.64099,238.20913 521.17167,240.74302 522.69692,241.41605 524.15328,242.08907 523.35622,244.09901 520.97487,244.43553 518.65256,244.77204 517.78715,246.29662 519.31239,247.30616 519.31239,247.30616 521.29936,248.64199 524.67458,248.47374 528.05964,248.30548 529.71272,250.99688 529.51592,254.19374 529.37816,257.3906 532.55618,258.23173 533.55005,258.7365 534.54392,259.24126 532.23207,260.9239 535.41049,262.77471 538.5889,264.62552 533.35486,268.49688 534.2208,272.19851 535.07691,275.90014 535.53856,276.40483 533.35401,276.57308 531.16947,276.74134 532.03565,271.18742 522.02808,271.35569 511.96147,271.52394 510.11126,269.84184 505.80122,274.553 501.43213,279.26417 497.91893,284.4808 499.90666,286.15346 501.96328,287.84592 502.76012,287.8456 502.62236,290.5377 502.42555,293.22979 506.47021,295.2392 511.30179,294.73443 516.13337,294.22966 515.13996,295.58576 519.64681,293.9032 524.15366,292.21074 524.67558,292.21005 525.20696,295.91168 525.66945,299.6232 529.05473,300.45497 534.54561,299.27718 540.04633,298.09939 537.06373,298.27739 540.90144,295.40715 544.74899,292.5567 539.38558,294.06086 544.61077,287.00402 544.61077,287.00402 544.74822,284.48064 543.55754,277.58215 542.42592,270.68366 543.88259,263.28002 544.61077,261.59746 545.27991,259.9149 542.76202,257.72711 540.7054,254.19374 538.71767,250.66037 539.90734,251.50173 536.72893,249.81917 533.55051,248.13661 533.55013,246.28549 531.16878,246.28549 528.84647,246.28549 528.38444,242.59422 529.18151,241.07002 529.93921,239.74501 529.27403,237.52677 526.30054,237.44355 Z M 441.03217,245.73262 C 441.79356,245.65839 442.58778,246.07756 442.88299,246.45367 443.48325,247.21577 443.74917,248.30495 447.05551,249.65099 450.44056,250.99704 450.2336,252.34331 449.44638,253.35285 448.58044,254.36238 446.85816,253.02615 443.55182,253.02615 440.16677,253.02615 439.04474,251.17573 439.37931,247.97887 439.54167,246.37549 440.27078,245.80685 441.03217,245.73262 Z M 525.60864,276.82439 C 526.05514,276.82439 526.66839,277.07716 527.33261,278.08669 528.72009,280.10576 528.18848,280.61068 530.0483,281.95673 531.89827,283.30277 524.4787,284.64805 517.99395,283.63851 511.49936,282.62898 512.62961,284.80695 509.44136,282.95614 509.44136,282.95614 507.46507,277.41382 511.83416,277.75033 516.13436,278.08684 515.67164,279.93704 517.99395,279.59063 520.30642,279.26402 524.88215,277.07761 524.88215,277.07761 524.88215,277.07761 525.16214,276.82439 525.60864,276.82439 Z"
     id="path4738"
     class="LAND" />
  <path
     id="path4806"
     d="M 357.11455,107.40586 C 357.11455,107.40586 350.49204,112.65149 352.21409,116.50157 354.00502,120.33187 357.78369,121.7373 361.28683,121.03458 364.73093,120.33187 368.17503,122.08371 371.02871,119.98546 373.80367,117.88721 374.79754,111.25595 371.35344,108.10858 367.8503,104.9612 360.89322,105.66392 357.11455,107.40586 Z"
     style="fill:#94ca90;fill-opacity:1;fill-rule:evenodd;stroke:#94ca90;stroke-width:0.98688012;stroke-linecap:butt;stroke-linejoin:miter;stroke-miterlimit:4;stroke-dasharray:none;stroke-opacity:1"
     class="LAND" />
  <path
     style="display:inline;fill:none;fill-opacity:1;fill-rule:evenodd;stroke:#000000;stroke-width:1.97376025;stroke-linecap:butt;stroke-linejoin:miter;stroke-miterlimit:4;stroke-dasharray:none;stroke-opacity:1"
     d="M 111.46046,252.79479 111.46046,290.33564"
     areaid="[393]"
     id="hoenn-route-101"
     class="ROUTE" />
  <path
     areaid="[394]"
     id="hoenn-route-102"
     d="M 110.44691,253.5272 43.227934,253.5272 M 43.227934,233.77199 43.227934,253.56679"
     style="display:inline;fill:none;fill-opacity:1;fill-rule:evenodd;stroke:#000000;stroke-width:1.97376025;stroke-linecap:butt;stroke-linejoin:miter;stroke-miterlimit:4;stroke-dasharray:none;stroke-opacity:1"
     class="ROUTE" />
  <path
     areaid="[395]"
     style="display:inline;fill:none;fill-opacity:1;fill-rule:evenodd;stroke:#000000;stroke-width:1.97376025;stroke-linecap:butt;stroke-linejoin:miter;stroke-miterlimit:4;stroke-dasharray:none;stroke-opacity:1"
     d="M 162.60041,217.20373 111.46046,217.18394 111.46046,252.72551"
     id="hoenn-route-103"
     class="ROUTE" />
  <path
     areaid="[396]"
     style="display:inline;fill:none;fill-opacity:1;fill-rule:evenodd;stroke:#000000;stroke-width:1.97376025;stroke-linecap:butt;stroke-linejoin:miter;stroke-miterlimit:4;stroke-dasharray:none;stroke-opacity:1"
     d="M 43.227934,187.71937 43.227934,233.77199"
     id="hoenn-route-104"
     class="ROUTE" />
  <path
     areaid="[397]"
     style="display:inline;fill:none;fill-opacity:1;fill-rule:evenodd;stroke:#000000;stroke-width:1.97376025;stroke-linecap:butt;stroke-linejoin:miter;stroke-miterlimit:4;stroke-dasharray:none;stroke-opacity:1"
     d="M 43.227934,254.60602 43.227934,343.40551"
     id="hoenn-route-105"
     class="ROUTE" />
  <path
     areaid="[398]"
     style="display:inline;fill:none;fill-opacity:1;fill-rule:evenodd;stroke:#000000;stroke-width:1.97376025;stroke-linecap:butt;stroke-linejoin:miter;stroke-miterlimit:4;stroke-dasharray:none;stroke-opacity:1"
     d="M 59.267596,367.58486 59.267596,343.40551 43.227934,343.40551"
     id="hoenn-route-106"
     class="ROUTE" />
  <path
     areaid="[399]"
     style="display:inline;fill:none;fill-opacity:1;fill-rule:evenodd;stroke:#000000;stroke-width:1.97376025;stroke-linecap:butt;stroke-linejoin:miter;stroke-miterlimit:4;stroke-dasharray:none;stroke-opacity:1"
     d="M 59.267596,366.72379 104.25737,366.65451 104.25737,361.15155 114.65855,361.22084"
     id="hoenn-route-107"
     class="ROUTE" />
  <path
     areaid="[400]"
     style="display:inline;fill:none;fill-opacity:1;fill-rule:evenodd;stroke:#000000;stroke-width:1.97376025;stroke-linecap:butt;stroke-linejoin:miter;stroke-miterlimit:4;stroke-dasharray:none;stroke-opacity:1"
     d="M 114.16654,361.22084 174.43827,361.22084"
     id="hoenn-route-108"
     class="ROUTE" />
  <path
     areaid="[401]"
     style="display:inline;fill:none;fill-opacity:1;fill-rule:evenodd;stroke:#000000;stroke-width:1.97376025;stroke-linecap:butt;stroke-linejoin:miter;stroke-miterlimit:4;stroke-dasharray:none;stroke-opacity:1"
     d="M 174.43827,267.60131 174.43827,361.22084"
     id="hoenn-route-109"
     class="ROUTE" />
  <path
     areaid="[402]"
     style="display:inline;fill:none;fill-opacity:1;fill-rule:evenodd;stroke:#000000;stroke-width:1.97376025;stroke-linecap:butt;stroke-linejoin:miter;stroke-miterlimit:4;stroke-dasharray:none;stroke-opacity:1"
     d="M 174.53667,266.28495 174.42843,252.17126 162.62993,252.13167 162.62993,217.06517"
     id="hoenn-route-110"
     class="ROUTE" />
  <path
     areaid="[403]"
     style="display:inline;fill:none;fill-opacity:1;fill-rule:evenodd;stroke:#000000;stroke-width:1.97376025;stroke-linecap:butt;stroke-linejoin:miter;stroke-miterlimit:4;stroke-dasharray:none;stroke-opacity:1"
     d="M 182.79267,143.33942 182.79267,23.39281"
     id="hoenn-route-111"
     class="ROUTE" />
  <path
     id="hoenn-route-112"
     d="M 128.85808,78.570827 182.79267,78.570827 M 158.37893,78.897442 158.37893,65.288514 182.75331,65.288514"
     style="display:inline;fill:none;fill-opacity:1;fill-rule:evenodd;stroke:#000000;stroke-width:1.97376025;stroke-linecap:butt;stroke-linejoin:miter;stroke-miterlimit:4;stroke-dasharray:none;stroke-opacity:1"
     class="ROUTE" />
  <path
     areaid="[404]"
     style="display:inline;fill:none;fill-opacity:1;fill-rule:evenodd;stroke:#000000;stroke-width:1.97376025;stroke-linecap:butt;stroke-linejoin:miter;stroke-miterlimit:4;stroke-dasharray:none;stroke-opacity:1"
     d="M 103.27334,23.39281 182.79267,23.39281"
     id="hoenn-route-113"
     class="ROUTE" />
  <path
     areaid="[405]"
     id="hoenn-route-114"
     d="M 83.799422,23.39281 102.10235,23.39281 M 83.73054,23.462091 83.73054,59.023458 M 63.442336,59.023458 83.73054,59.023458"
     style="display:inline;fill:none;fill-opacity:1;fill-rule:evenodd;stroke:#000000;stroke-width:1.97376025;stroke-linecap:butt;stroke-linejoin:miter;stroke-miterlimit:4;stroke-dasharray:none;stroke-opacity:1"
     class="ROUTE" />
  <path
     areaid="[406]"
     id="hoenn-route-115"
     d="M 43.154132,186.88799 43.154132,59.023458 M 43.154132,59.023458 63.442336,59.023458"
     style="display:inline;fill:none;fill-opacity:1;fill-rule:evenodd;stroke:#000000;stroke-width:1.97376025;stroke-linecap:butt;stroke-linejoin:miter;stroke-miterlimit:4;stroke-dasharray:none;stroke-opacity:1"
     class="ROUTE" />
  <path
     areaid="[407]"
     style="display:inline;fill:none;fill-opacity:1;fill-rule:evenodd;stroke:#000000;stroke-width:1.97376025;stroke-linecap:butt;stroke-linejoin:miter;stroke-miterlimit:4;stroke-dasharray:none;stroke-opacity:1"
     d="M 111.94263,143.84419 83.799422,144.02234 83.799422,185.7102 43.154132,185.7102"
     id="hoenn-route-116"
     class="ROUTE" />
  <path
     areaid="[408]"
     style="display:inline;fill:none;fill-opacity:1;fill-rule:evenodd;stroke:#000000;stroke-width:1.97376025;stroke-linecap:butt;stroke-linejoin:miter;stroke-miterlimit:4;stroke-dasharray:none;stroke-opacity:1"
     d="M 113.11362,143.84419 182.79267,143.84419"
     id="hoenn-route-117"
     class="ROUTE" />
  <path
     areaid="[409]"
     id="hoenn-route-118"
     d="M 185.93172,143.84419 255.61077,143.84419"
     style="display:inline;fill:none;fill-opacity:1;fill-rule:evenodd;stroke:#000000;stroke-width:1.97376025;stroke-linecap:butt;stroke-linejoin:miter;stroke-miterlimit:4;stroke-dasharray:none;stroke-opacity:1"
     class="ROUTE" />
  <path
     areaid="[410]"
     id="hoenn-route-119"
     d="M 246.94148,143.33942 246.94148,26.084903 267.41911,26.084903"
     style="display:inline;fill:none;fill-opacity:1;fill-rule:evenodd;stroke:#000000;stroke-width:1.97376025;stroke-linecap:butt;stroke-linejoin:miter;stroke-miterlimit:4;stroke-dasharray:none;stroke-opacity:1"
     class="ROUTE" />
  <path
     areaid="[411]"
     id="hoenn-route-120"
     d="M 268.5901,26.084903 281.68752,26.015621 281.68752,86.053264"
     style="display:inline;fill:none;fill-opacity:1;fill-rule:evenodd;stroke:#000000;stroke-width:1.97376025;stroke-linecap:butt;stroke-linejoin:miter;stroke-miterlimit:4;stroke-dasharray:none;stroke-opacity:1"
     class="ROUTE" />
  <path
     areaid="[412]"
     style="display:inline;fill:none;fill-opacity:1;fill-rule:evenodd;stroke:#000000;stroke-width:1.97376025;stroke-linecap:butt;stroke-linejoin:miter;stroke-miterlimit:4;stroke-dasharray:none;stroke-opacity:1"
     d="M 281.68752,86.053264 408.28276,86.053264"
     id="hoenn-route-121"
     class="ROUTE" />
  <path
     areaid="[413]"
     id="hoenn-route-122"
     d="M 346.13153,86.053264 346.13153,128.50321 361.87599,128.50321 361.87599,144.33906"
     style="display:inline;fill:none;fill-opacity:1;fill-rule:evenodd;stroke:#000000;stroke-width:1.97376025;stroke-linecap:butt;stroke-linejoin:miter;stroke-miterlimit:4;stroke-dasharray:none;stroke-opacity:1"
     class="ROUTE" />
  <path
     areaid="[414]"
     id="hoenn-route-123"
     d="M 255.61077,143.84419 361.87599,143.84419"
     style="display:inline;fill:none;fill-opacity:1;fill-rule:evenodd;stroke:#000000;stroke-width:1.97376025;stroke-linecap:butt;stroke-linejoin:miter;stroke-miterlimit:4;stroke-dasharray:none;stroke-opacity:1"
     class="ROUTE" />
  <path
     areaid="[415]"
     style="display:inline;fill:none;fill-opacity:1;fill-rule:evenodd;stroke:#000000;stroke-width:1.97376025;stroke-linecap:butt;stroke-linejoin:miter;stroke-miterlimit:4;stroke-dasharray:none;stroke-opacity:1"
     d="M 454.79778,171.6163 454.79778,86.053264 M 513.61316,91.02176 470.31591,91.02176 470.31591,86.053264 452.6034,86.053264 408.18436,86.053264"
     id="hoenn-route-124"
     class="ROUTE" />
  <path
     areaid="[416]"
     style="display:inline;fill:none;fill-opacity:1;fill-rule:evenodd;stroke:#000000;stroke-width:1.97376025;stroke-linecap:butt;stroke-linejoin:miter;stroke-miterlimit:4;stroke-dasharray:none;stroke-opacity:1"
     d="M 513.61316,91.02176 513.61316,56.380851 523.45344,56.380851"
     id="hoenn-route-125"
     class="ROUTE" />
  <path
     areaid="[417]"
     style="display:inline;fill:none;fill-opacity:1;fill-rule:evenodd;stroke:#000000;stroke-width:1.97376025;stroke-linecap:butt;stroke-linejoin:miter;stroke-miterlimit:4;stroke-dasharray:none;stroke-opacity:1"
     d="M 456.11638,173.92239 513.61316,173.92239"
     id="hoenn-route-126"
     class="ROUTE" />
  <path
     areaid="[418]"
     style="display:inline;fill:none;fill-opacity:1;fill-rule:evenodd;stroke:#000000;stroke-width:1.97376025;stroke-linecap:butt;stroke-linejoin:miter;stroke-miterlimit:4;stroke-dasharray:none;stroke-opacity:1"
     d="M 513.61316,91.734373 513.61316,185.75969"
     id="hoenn-route-127"
     class="ROUTE" />
  <path
     areaid="[419]"
     style="display:inline;fill:none;fill-opacity:1;fill-rule:evenodd;stroke:#000000;stroke-width:1.97376025;stroke-linecap:butt;stroke-linejoin:miter;stroke-miterlimit:4;stroke-dasharray:none;stroke-opacity:1"
     d="M 513.61316,217.7085 568.81714,217.7085 M 568.81714,194.94448 568.81714,217.7085 M 513.61316,185.75969 513.61316,217.7085 513.61316,248.67747"
     id="hoenn-route-128"
     class="ROUTE" />
  <path
     areaid="[420]"
     style="display:inline;fill:none;fill-opacity:1;fill-rule:evenodd;stroke:#000000;stroke-width:1.97376025;stroke-linecap:butt;stroke-linejoin:miter;stroke-miterlimit:4;stroke-dasharray:none;stroke-opacity:1"
     d="M 483.53141,266.31464 513.61316,266.31464 M 513.61316,248.67747 513.61316,266.31464"
     id="hoenn-route-129"
     class="ROUTE" />
  <path
     areaid="[421]"
     style="display:inline;fill:none;fill-opacity:1;fill-rule:evenodd;stroke:#000000;stroke-width:1.97376025;stroke-linecap:butt;stroke-linejoin:miter;stroke-miterlimit:4;stroke-dasharray:none;stroke-opacity:1"
     d="M 444.17028,266.31464 483.53141,266.31464"
     id="hoenn-route-130"
     class="ROUTE" />
  <path
     areaid="[422]"
     style="display:inline;fill:none;fill-opacity:1;fill-rule:evenodd;stroke:#000000;stroke-width:1.97376025;stroke-linecap:butt;stroke-linejoin:miter;stroke-miterlimit:4;stroke-dasharray:none;stroke-opacity:1"
     d="M 406.91496,266.31464 444.17028,266.31464"
     id="hoenn-route-131"
     class="ROUTE" />
  <path
     areaid="[423]"
     style="display:inline;fill:none;fill-opacity:1;fill-rule:evenodd;stroke:#000000;stroke-width:1.97376025;stroke-linecap:butt;stroke-linejoin:miter;stroke-miterlimit:4;stroke-dasharray:none;stroke-opacity:1"
     d="M 332.82747,266.31464 406.2163,266.31464"
     id="hoenn-route-132"
     class="ROUTE" />
  <path
     areaid="[424]"
     style="display:inline;fill:none;fill-opacity:1;fill-rule:evenodd;stroke:#000000;stroke-width:1.97376025;stroke-linecap:butt;stroke-linejoin:miter;stroke-miterlimit:4;stroke-dasharray:none;stroke-opacity:1"
     d="M 250.13957,266.31464 332.82747,266.31464"
     id="hoenn-route-133"
     class="ROUTE" />
  <path
     areaid="[425]"
     style="display:inline;fill:none;fill-opacity:1;fill-rule:evenodd;stroke:#000000;stroke-width:1.97376025;stroke-linecap:butt;stroke-linejoin:miter;stroke-miterlimit:4;stroke-dasharray:none;stroke-opacity:1"
     d="M 174.26115,266.31464 250.13957,266.31464"
     id="hoenn-route-134"
     class="ROUTE" />
  <path
     style="display:inline;fill:none;fill-opacity:1;fill-rule:evenodd;stroke:#000000;stroke-width:1.97376025;stroke-linecap:butt;stroke-linejoin:miter;stroke-miterlimit:4;stroke-dasharray:none;stroke-opacity:1"
     d="M 568.5121,193.52915 568.81714,180.09837 568.81714,180.09837 564.11349,180.09837 564.11349,157.1265 564.11349,180.09837"
     id="hoenn-victory-road"
     class="ROUTE" />
  <ellipse
     ry="2.7802792"
     rx="2.7642338"
     cy="290.25394"
     cx="111.6935"
     id="littleroot-town"
     style="display:inline;opacity:1;fill:#000000;fill-opacity:1;fill-rule:evenodd;stroke:#000000;stroke-width:0.98688012;stroke-linecap:round;stroke-linejoin:round;stroke-miterlimit:4;stroke-dasharray:none;stroke-dashoffset:0;stroke-opacity:1"
     class="CITY" />
  <ellipse
     ry="2.7802792"
     rx="2.7642338"
     style="display:inline;opacity:1;fill:#000000;fill-opacity:1;fill-rule:evenodd;stroke:#000000;stroke-width:0.98688012;stroke-linecap:round;stroke-linejoin:round;stroke-miterlimit:4;stroke-dasharray:none;stroke-dashoffset:0;stroke-opacity:1"
     id="oldale-town"
     cx="111.6935"
     cy="253.58409"
     class="CITY" />
  <ellipse
     ry="2.7802792"
     rx="2.7642338"
     cy="253.58409"
     cx="70.236389"
     id="petalburg-city"
     style="display:inline;opacity:1;fill:#000000;fill-opacity:1;fill-rule:evenodd;stroke:#000000;stroke-width:0.98688012;stroke-linecap:round;stroke-linejoin:round;stroke-miterlimit:4;stroke-dasharray:none;stroke-dashoffset:0;stroke-opacity:1"
     class="CITY" />
  <ellipse
     ry="2.7802792"
     rx="2.7642338"
     style="display:inline;opacity:1;fill:#000000;fill-opacity:1;fill-rule:evenodd;stroke:#000000;stroke-width:0.98688012;stroke-linecap:round;stroke-linejoin:round;stroke-miterlimit:4;stroke-dasharray:none;stroke-dashoffset:0;stroke-opacity:1"
     id="rustboro-city"
     cx="43.387169"
     cy="186.96469"
     class="CITY" />
  <ellipse
     ry="2.7802792"
     rx="2.7642338"
     style="display:inline;opacity:1;fill:#000000;fill-opacity:1;fill-rule:evenodd;stroke:#000000;stroke-width:0.98688012;stroke-linecap:round;stroke-linejoin:round;stroke-miterlimit:4;stroke-dasharray:none;stroke-dashoffset:0;stroke-opacity:1"
     id="lavaridge-town"
     cx="129.51424"
     cy="78.627724"
     class="CITY" />
  <ellipse
     ry="2.7802792"
     rx="2.7642338"
     style="display:inline;opacity:1;fill:#000000;fill-opacity:1;fill-rule:evenodd;stroke:#000000;stroke-width:0.98688012;stroke-linecap:round;stroke-linejoin:round;stroke-miterlimit:4;stroke-dasharray:none;stroke-dashoffset:0;stroke-opacity:1"
     id="fortree-city"
     cx="268.66568"
     cy="26.141792"
     class="CITY" />
  <ellipse
     ry="2.7802792"
     rx="2.7642338"
     cy="86.110153"
     cx="409.13574"
     id="lilycove-city"
     style="display:inline;opacity:1;fill:#000000;fill-opacity:1;fill-rule:evenodd;stroke:#000000;stroke-width:0.98688012;stroke-linecap:round;stroke-linejoin:round;stroke-miterlimit:4;stroke-dasharray:none;stroke-dashoffset:0;stroke-opacity:1"
     class="CITY" />
  <ellipse
     ry="2.7802792"
     rx="2.7642338"
     style="display:inline;opacity:1;fill:#000000;fill-opacity:1;fill-rule:evenodd;stroke:#000000;stroke-width:0.98688012;stroke-linecap:round;stroke-linejoin:round;stroke-miterlimit:4;stroke-dasharray:none;stroke-dashoffset:0;stroke-opacity:1"
     id="pacificlog-town"
     cx="405.76053"
     cy="266.37149"
     class="CITY" />
  <ellipse
     ry="2.7802792"
     rx="2.7642338"
     cy="90.742134"
     cx="513.84619"
     id="mossdeep-city"
     style="display:inline;opacity:1;fill:#000000;fill-opacity:1;fill-rule:evenodd;stroke:#000000;stroke-width:0.98688012;stroke-linecap:round;stroke-linejoin:round;stroke-miterlimit:4;stroke-dasharray:none;stroke-dashoffset:0;stroke-opacity:1"
     class="CITY" />
  <ellipse
     ry="2.7802792"
     rx="2.7642338"
     style="display:inline;opacity:1;fill:#000000;fill-opacity:1;fill-rule:evenodd;stroke:#000000;stroke-width:0.98688012;stroke-linecap:round;stroke-linejoin:round;stroke-miterlimit:4;stroke-dasharray:none;stroke-dashoffset:0;stroke-opacity:1"
     id="ever-grande-city"
     cx="564.34656"
     cy="156.00562"
     class="CITY" />
  <ellipse
     ry="2.7802792"
     rx="2.7642338"
     cy="194.36792"
     cx="568.90265"
     id="circle4568"
     style="display:inline;opacity:1;fill:#000000;fill-opacity:1;fill-rule:evenodd;stroke:#000000;stroke-width:0.98688012;stroke-linecap:round;stroke-linejoin:round;stroke-miterlimit:4;stroke-dasharray:none;stroke-dashoffset:0;stroke-opacity:1"
     class="CITY" />
  <ellipse
     ry="2.7802792"
     rx="2.7642338"
     cy="173.97929"
     cx="455.03082"
     id="sootopolis-city"
     style="display:inline;opacity:1;fill:#000000;fill-opacity:1;fill-rule:evenodd;stroke:#000000;stroke-width:0.98688012;stroke-linecap:round;stroke-linejoin:round;stroke-miterlimit:4;stroke-dasharray:none;stroke-dashoffset:0;stroke-opacity:1"
     class="CITY" />
  <ellipse
     ry="2.7802792"
     rx="2.7642338"
     cy="366.78064"
     cx="59.500633"
     id="dewford-town"
     style="display:inline;opacity:1;fill:#000000;fill-opacity:1;fill-rule:evenodd;stroke:#000000;stroke-width:0.98688012;stroke-linecap:round;stroke-linejoin:round;stroke-miterlimit:4;stroke-dasharray:none;stroke-dashoffset:0;stroke-opacity:1"
     class="CITY" />
  <ellipse
     ry="2.7802792"
     rx="2.7642338"
     cy="143.90111"
     cx="112.42168"
     id="verdanturf-town"
     style="display:inline;opacity:1;fill:#000000;fill-opacity:1;fill-rule:evenodd;stroke:#000000;stroke-width:0.98688012;stroke-linecap:round;stroke-linejoin:round;stroke-miterlimit:4;stroke-dasharray:none;stroke-dashoffset:0;stroke-opacity:1"
     class="CITY" />
  <ellipse
     ry="2.7802792"
     rx="2.7642338"
     cy="266.37149"
     cx="174.67131"
     id="slateport-city"
     style="display:inline;opacity:1;fill:#000000;fill-opacity:1;fill-rule:evenodd;stroke:#000000;stroke-width:0.98688012;stroke-linecap:round;stroke-linejoin:round;stroke-miterlimit:4;stroke-dasharray:none;stroke-dashoffset:0;stroke-opacity:1"
     class="CITY" />
  <ellipse
     ry="2.7802792"
     rx="2.7642338"
     cy="143.90111"
     cx="183.02571"
     id="mauville-city"
     style="display:inline;opacity:1;fill:#000000;fill-opacity:1;fill-rule:evenodd;stroke:#000000;stroke-width:0.98688012;stroke-linecap:round;stroke-linejoin:round;stroke-miterlimit:4;stroke-dasharray:none;stroke-dashoffset:0;stroke-opacity:1"
     class="CITY" />
  <ellipse
     ry="2.7802792"
     rx="2.7642338"
     cy="23.449697"
     cx="104.07713"
     id="fallarbor-town"
     style="display:inline;opacity:1;fill:#000000;fill-opacity:1;fill-rule:evenodd;stroke:#000000;stroke-width:0.98688012;stroke-linecap:round;stroke-linejoin:round;stroke-miterlimit:4;stroke-dasharray:none;stroke-dashoffset:0;stroke-opacity:1"
     class="CITY" />
</svg>
