<?xml version="1.0" encoding="UTF-8" standalone="no"?>
<svg
   xmlns:dc="http://purl.org/dc/elements/1.1/"
   xmlns:cc="http://creativecommons.org/ns#"
   xmlns:rdf="http://www.w3.org/1999/02/22-rdf-syntax-ns#"
   xmlns:svg="http://www.w3.org/2000/svg"
   xmlns="http://www.w3.org/2000/svg"
   xmlns:sodipodi="http://sodipodi.sourceforge.net/DTD/sodipodi-0.dtd"
   xmlns:inkscape="http://www.inkscape.org/namespaces/inkscape"
   version="1.1"
   regionID="2"
   id="svg2"
   viewBox="0 0 600 399.99999"
   width="600"
   height="400"
   inkscape:version="0.91 r13725"
   sodipodi:docname="johto.svg">
  <sodipodi:namedview
     pagecolor="#ffffff"
     bordercolor="#666666"
     borderopacity="1"
     objecttolerance="10"
     gridtolerance="10"
     guidetolerance="10"
     inkscape:pageopacity="0"
     inkscape:pageshadow="2"
     inkscape:window-width="1920"
     inkscape:window-height="955"
     id="namedview65"
     showgrid="false"
     inkscape:zoom="4.1333334"
     inkscape:cx="544.11761"
     inkscape:cy="258.14295"
     inkscape:window-x="-1"
     inkscape:window-y="23"
     inkscape:window-maximized="0"
     inkscape:current-layer="svg2"
     showguides="false" />
  <defs
     id="defs4">
    <inkscape:perspective
       id="perspective4999"
       inkscape:persp3d-origin="300 : 133.33333 : 1"
       inkscape:vp_z="600 : 200 : 1"
       inkscape:vp_y="0 : 1000 : 0"
       inkscape:vp_x="0 : 200 : 1"
       sodipodi:type="inkscape:persp3d" />
  </defs>
  <metadata
     id="metadata7">
    <rdf:RDF>
      <cc:Work
         rdf:about="">
        <dc:format>image/svg+xml</dc:format>
        <dc:type
           rdf:resource="http://purl.org/dc/dcmitype/StillImage" />
        <dc:title />
      </cc:Work>
    </rdf:RDF>
  </metadata>
  <path
     inkscape:connector-curvature="0"
     style="fill:#94ca90;fill-opacity:1;fill-rule:evenodd;stroke:none;stroke-width:4;stroke-linecap:butt;stroke-linejoin:miter;stroke-opacity:1"
     d="M -5.2325482,-1.952775 -5.2325482,150.56181 C 8.7263466,148.57819 33.713139,144.66838 36.525306,141.66873 40.440917,137.49208 62.630351,138.79835 66.023878,140.62564 69.417406,142.45292 73.593728,135.92628 86.645758,145.58478 99.697788,155.24328 106.48559,164.64061 106.22455,170.3835 105.96351,176.12639 115.09915,186.04596 122.93037,186.307 130.76159,186.56804 149.81827,189.17905 152.68972,178.47638 L 164.95794,178.21561 165.47948,182.91398 161.82569,182.65321 161.56492,187.87313 166.26329,187.87313 166.52406,192.04996 173.57237,192.04996 174.09392,189.43925 169.13477,189.43925 169.39554,177.95334 185.84059,177.69257 C 185.84059,177.69257 185.84145,158.37616 190.80122,156.80992 195.761,155.24367 202.80867,155.76534 202.80867,155.76534 L 202.54791,159.94217 191.8458,160.20294 191.58354,174.29955 200.19797,174.56032 202.28713,177.69257 206.2017,177.69257 C 206.2017,177.69257 202.54791,182.3922 202.54791,185.52468 202.54791,188.65717 194.19511,198.05356 199.15488,199.6198 204.11465,201.18605 206.72503,199.35948 209.33544,203.27509 211.94585,207.19069 212.9895,206.66814 212.72846,209.53959 212.46742,212.41103 210.90156,220.50395 210.90156,220.50395 L 205.68016,219.98091 205.15861,216.32712 193.41193,216.06634 192.62813,230.94528 205.94092,231.20604 205.94092,227.55225 210.90156,227.55225 211.16233,244.77962 215.59994,245.04188 C 215.59994,245.04188 216.64439,248.95645 218.21064,248.95645 219.77688,248.95645 219.51507,256.00475 221.86443,256.00475 224.2138,256.00475 224.73591,260.18158 224.73591,260.18158 L 227.60738,260.18158 227.60738,263.05306 227.86816,266.96911 224.99668,268.27447 225.51971,271.92826 C 225.51971,271.92826 200.98124,296.20572 201.50333,298.81613 202.02541,301.42653 216.38321,309.51826 216.90529,312.38971 217.42737,315.26116 228.3914,319.43801 235.4395,319.43801 242.4876,319.43801 244.05274,323.09224 246.66314,327.00786 249.27354,330.92346 248.49102,329.61847 251.88455,334.05616 255.27807,338.49386 260.7594,340.84274 265.45812,340.32066 270.15685,339.79858 269.89644,335.36151 273.55101,335.36151 277.20558,335.36151 275.89984,330.92415 287.12459,327.79167 298.34933,324.65918 296.26157,312.91148 302.52655,309.779 308.79152,306.64651 320.01656,292.81196 318.18928,288.89635 316.36199,284.98074 297.0441,277.14912 297.30514,264.61919 297.56618,252.08923 293.65134,248.95645 293.65134,248.95645 L 293.39057,240.60428 290.77987,240.34202 291.04064,234.86133 304.87499,234.86133 C 304.87499,234.86133 306.18021,242.17002 307.74646,243.9973 309.3127,245.82459 320.7999,251.82778 325.23759,250.52257 329.67528,249.21737 331.76312,248.17321 331.50208,250.52257 331.24105,252.87194 328.89194,254.96059 331.24131,256.00475 333.59067,257.04891 336.20058,259.13677 334.63433,262.26925 333.06809,265.40174 328.10834,266.18495 337.50581,270.88368 346.90326,275.58241 344.81482,276.8883 352.12396,271.66749 359.4331,266.44668 358.12732,280.80402 362.82606,283.15339 367.52479,285.50275 371.44135,291.50651 376.40112,292.0286 381.3609,292.55067 388.93012,298.0322 388.93012,299.59844 388.93012,301.16469 398.32867,308.21263 406.68202,298.29309 415.03532,288.37355 408.76918,286.28603 412.16271,284.45874 415.55623,282.63146 411.90292,280.80347 415.29644,280.80347 418.68997,280.80347 418.95069,286.80753 422.8663,284.98029 426.7819,283.15301 433.04715,278.71541 435.65755,280.54269 438.26796,282.36998 439.57212,282.89274 439.57212,281.3265 439.57212,279.76025 438.52867,273.49439 443.2274,273.49439 447.92613,273.49439 433.82985,257.04957 434.61297,253.91708 435.39609,250.7846 440.87771,247.12952 437.74522,244.25808 434.61274,241.38664 429.39204,235.90549 423.12706,234.86133 416.86208,233.81716 423.38784,231.20638 410.33581,223.6362 406.43796,221.37544 403.99096,219.13837 402.51412,216.9798 L 406.64923,216.9798 C 409.48805,219.45968 413.07665,221.80823 414.77341,222.85239 418.16693,224.94071 421.82198,227.81279 421.56094,230.94528 421.2999,234.07776 430.69724,233.55509 436.17909,238.7759 441.66095,243.99671 440.87765,248.69609 445.0543,249.74025 449.23095,250.78441 452.88542,254.17786 449.4919,254.17786 446.09837,254.17786 441.39928,250.78433 441.13824,254.17786 440.8772,257.57139 440.61717,262.79202 447.40423,263.05306 454.19127,263.3141 451.05811,255.22125 459.67245,257.83165 468.28679,260.44205 470.89788,258.61545 473.50829,258.61545 476.11869,258.61545 466.19952,250.78441 468.80992,249.74025 471.42033,248.69609 475.33587,248.69517 476.11899,252.0887 476.90212,255.48223 476.90218,259.137 481.86195,259.137 486.82172,259.137 489.69281,256.26564 486.56032,254.6994 485.15663,253.99756 484.91183,252.66579 485.36822,251.22293 L 491.51947,250.91447 491.91137,253.00364 500.37976,252.92466 C 501.869,255.2245 503.48518,257.0255 505.61607,255.22244 509.0096,252.35099 507.70384,250.7843 516.31818,251.30638 519.0747,251.47345 520.51664,251.3455 521.4919,251.14694 521.46554,252.74189 521.56133,255.37382 522.45303,256.26553 523.5903,257.4028 524.43039,257.05279 525.23212,255.99432 L 539.77278,255.8915 C 539.93045,256.81221 540.30212,257.57088 541.11688,257.57088 543.20521,257.57088 546.33901,260.44259 549.99358,257.31011 550.47055,256.90128 550.90153,256.38752 551.30638,255.80955 L 557.36226,255.76633 C 557.89224,256.61557 558.8111,257.18884 560.4349,256.9182 563.56739,256.39611 562.78414,253.91728 562.00103,253.00364 561.87713,252.85909 561.63364,252.726 561.34835,252.6028 L 561.34835,245.93894 C 566.26132,246.88695 561.63818,250.05443 565.39405,251.30638 569.30965,252.61158 564.87172,259.91998 568.52629,257.83165 572.18086,255.74332 575.05282,251.04459 578.1853,244.77962 581.31779,238.51465 587.58339,245.56292 586.27819,235.90442 584.97299,226.24592 578.18572,221.54763 579.22988,213.71641 580.27405,205.88519 572.9639,209.27825 572.9639,206.92888 572.9639,204.57952 570.61579,202.75221 576.09763,204.05741 581.57949,205.36261 571.39825,199.09868 578.1853,200.14284 584.97236,201.18701 586.27822,209.27893 589.14966,207.71269 592.02111,206.14644 601.67816,203.53535 605.07168,206.92888 605.11823,206.97543 605.17978,207.01388 605.23261,207.05703 L 605.23261,-1.952775 -5.2325482,-1.952775 Z M 316.73641,23.671464 C 319.95556,23.714578 322.9283,25.048722 321.5823,25.766584 319.6245,26.810746 321.71339,29.943442 323.93223,32.814889 326.15108,35.686335 336.06958,27.854939 340.89883,28.63806 345.72808,29.421182 340.57308,33.011429 340.37728,34.251371 340.18152,35.491314 339.85501,36.731362 341.29073,37.775524 342.72646,38.819687 342.98806,37.644765 343.64067,40.907773 344.29327,44.17078 342.46507,41.168307 340.89883,44.300795 339.33259,47.433282 338.02835,46.388985 336.33159,50.957196 334.63483,55.525406 333.85081,54.350902 328.49948,55.134024 323.14814,55.917145 319.88528,54.090785 316.7528,52.785582 313.62031,51.480379 317.40628,51.219309 316.62316,49.914106 315.84004,48.608903 317.53662,48.34661 317.5366,46.780367 317.5366,45.214124 317.40501,43.518209 318.57969,43.77925 319.75437,44.04029 321.32084,42.734715 320.53772,40.515869 319.7546,38.297024 322.62611,37.644318 326.28067,36.991717 329.93524,36.339115 332.93742,34.512606 333.32898,33.337924 333.72054,32.163241 329.93485,33.076689 328.10757,34.251371 326.28028,35.426054 325.23625,35.294729 321.45117,35.033689 317.66608,34.772648 319.23325,35.425622 319.10273,38.297069 318.97221,41.168516 316.88298,38.557797 316.36089,40.776642 315.83882,42.995487 314.27312,41.168769 310.74907,43.126574 307.22503,45.084379 313.75057,47.825095 311.92329,49.130299 310.096,50.435502 308.00762,47.95511 306.18034,52.52332 304.35306,57.091531 299.65489,54.87276 295.47824,53.175996 291.30159,51.479233 304.87506,52.131611 305.52766,51.217968 305.95252,50.623176 301.48337,49.061922 299.0158,46.506183 297.69302,45.136134 295.74909,41.654617 294.56479,40.515869 291.17126,37.252862 293.78162,30.597087 296.78359,28.900323 299.78556,27.20356 304.09217,34.511876 307.48569,34.772916 310.87922,35.033957 308.79088,26.811208 312.57597,24.592363 313.75881,23.898973 315.27315,23.651867 316.73641,23.671464 Z M 413.1894,91.692818 C 414.23561,91.65612 415.55722,92.463217 415.55722,92.463217 416.34034,94.029461 415.03472,93.245565 414.51264,96.117009 413.99056,98.988454 415.42611,95.333998 418.29756,99.641161 421.169,103.94833 417.38381,103.81833 414.77341,104.2099 412.163,104.60145 414.90504,100.03368 411.51152,100.1642 408.11799,100.29472 411.64126,103.94938 407.20356,103.68835 402.76587,103.42731 405.115,102.12201 405.24553,100.1642 405.37605,98.206396 406.55091,97.422363 409.42236,97.422363 412.29381,97.422363 411.38019,93.115475 412.29383,92.071315 412.52224,91.810273 412.84067,91.705071 413.1894,91.692818 Z M 253.71741,104.27696 C 254.02089,104.27757 253.81002,104.47101 254.49525,104.86257 255.4089,105.38465 254.36412,106.55998 254.36412,107.86518 254.36412,109.17038 253.58112,110.21321 252.798,109.16905 252.01487,108.12486 251.4927,110.0828 249.27385,107.60292 247.05499,105.12303 252.11946,104.51061 253.1899,104.34103 253.45751,104.29863 253.61624,104.27674 253.71741,104.27696 Z M 368.12942,110.89908 C 370.33195,110.86645 372.81213,110.99751 373.92155,111.65011 376.1404,112.95531 373.79012,117.52323 371.17972,117.00115 368.56931,116.47907 367.52597,113.47727 365.30713,113.21623 363.08828,112.95519 360.86929,111.64914 364.00177,111.12707 364.00177,111.12707 365.92694,110.93171 368.12942,110.89908 Z M 280.37282,112.13142 C 280.59159,112.12531 280.80094,112.13947 280.99121,112.17165 282.51346,112.4291 281.38239,112.43333 282.81812,115.17426 284.25384,117.91519 282.4258,121.43837 281.38163,123.26565 280.33746,125.09294 279.16349,123.00542 277.07516,122.48334 274.98683,121.96125 276.29105,118.82741 276.55213,115.82544 276.78053,113.19872 278.84139,112.17417 280.37282,112.13142 Z M 443.83686,112.68426 C 444.31759,112.67457 444.8093,112.67688 445.31507,112.6932 445.31507,112.6932 432.78631,116.34839 429.65383,120.78608 427.00589,124.53732 417.28959,123.63697 412.44881,125.47253 L 412.29235,122.90951 C 416.16653,122.77482 420.11792,123.09678 425.21473,120.00227 432.06705,115.84194 436.62606,112.82956 443.83686,112.68426 Z M 299.78471,113.8689 C 301.41622,113.91115 301.2218,113.60747 301.35232,115.6958 301.48285,117.78413 298.87126,121.30762 298.87126,121.30762 L 295.34711,121.17798 C 295.34711,121.17798 295.60807,121.04724 294.69443,119.21995 293.78079,117.39267 298.15321,113.82666 299.78471,113.8689 Z M 359.77577,115.59746 C 359.85735,115.59746 360.02019,115.69614 360.34649,116.0877 360.99909,116.87082 360.08572,123.13601 360.08572,123.13601 L 354.21312,123.13601 C 354.21312,123.13601 354.21176,123.00553 355.51699,120.91721 356.82218,118.82889 359.69381,115.6958 359.69381,115.6958 359.69381,115.6958 359.69419,115.59746 359.77577,115.59746 Z M 341.29073,121.83066 C 341.29073,121.83066 347.81715,124.96271 347.42559,125.87635 347.03403,126.79 346.25126,131.2273 342.72721,127.70325 339.20316,124.1792 340.37709,121.83066 341.29073,121.83066 Z M 298.74162,122.61298 C 298.74162,122.61298 297.69746,125.22409 298.74162,126.26826 299.78579,127.31242 297.56645,130.05296 297.04437,128.09516 296.52228,126.13735 295.73901,122.87375 295.73901,122.87375 L 298.74162,122.61298 Z M 410.59658,123.00339 410.59658,126.52606 C 410.505,126.61132 410.41502,126.69739 410.33581,126.78981 407.20332,130.44438 411.11974,135.927 409.55349,136.18804 408.36566,136.38601 405.52899,136.43556 404.22628,137.58578 L 400.47116,137.69009 C 400.50743,136.98317 400.56963,136.43253 400.67829,136.18804 401.72245,133.83867 401.72236,134.36019 405.11589,133.83811 408.50942,133.31603 401.46067,125.48484 407.20356,123.65756 408.3579,123.29027 409.48008,123.10537 410.59658,123.00339 Z M 360.08572,124.70213 C 360.08572,124.70213 362.69639,127.05092 359.82494,127.44248 356.9535,127.83405 353.69008,129.00811 353.69008,127.31135 353.69008,125.61458 354.08199,124.83177 354.08199,124.83177 L 360.08572,124.70213 Z M 400.44285,139.97297 403.57361,139.97297 C 403.60069,141.82053 403.74683,146.8256 404.00277,152.54666 L 401.17599,152.67481 C 400.80668,147.9355 400.49397,143.18962 400.44285,139.97297 Z M 51.822959,149.37418 C 51.291047,149.37004 50.750596,149.37276 50.20319,149.38164 32.154416,149.67417 6.1340997,156.85545 -5.2325482,160.2551 L -5.2325482,197.47849 C 2.83815,200.57074 13.921524,206.89141 16.948006,209.53959 21.124655,213.19416 50.621558,209.27885 55.320289,212.15029 60.01902,215.02174 54.538508,228.33543 54.016427,233.2952 53.811695,235.24016 55.020157,237.79347 56.539214,240.54915 L 48.34202,240.36437 C 46.497402,239.70026 43.300273,241.5044 39.13601,241.12583 33.393116,240.60375 35.22058,244.77959 30.260809,241.90815 25.301037,239.03669 21.646348,237.73281 18.774902,237.73281 15.903456,237.73281 4.6786789,230.42289 2.8513963,228.33457 1.8747101,227.21836 -1.9048455,227.66893 -5.2325482,228.32861 L -5.2325482,265.66377 C 5.4681269,266.44273 17.210164,258.61526 22.951731,258.87623 28.694624,259.13727 26.606657,252.872 31.305388,256.26553 36.004119,259.65906 48.27258,258.09403 53.493392,256.52779 55.605533,255.89415 55.567934,254.18447 54.721258,252.0887 L 61.779994,252.0887 C 61.838019,252.53449 61.864712,252.97014 61.847049,253.39405 61.586009,259.65902 66.02349,257.31076 67.850774,255.22244 68.291044,254.71928 68.560853,253.07745 68.722499,250.82805 L 72.549148,250.87424 C 72.546255,252.76789 72.549148,254.68222 72.549148,255.48321 72.549148,259.65987 84.034815,260.18206 87.167302,253.91708 90.299789,247.65211 96.043517,252.34988 102.30849,253.39405 108.57347,254.43821 108.05073,249.73942 117.44819,247.6511 126.84566,245.56277 123.19114,239.82066 123.19114,230.94528 123.19114,222.06989 119.53675,224.68048 114.31594,222.07007 109.09513,219.45967 117.97135,215.28248 116.4051,209.53959 114.83886,203.79669 81.425364,156.28683 61.586276,150.54393 58.873902,149.75877 55.546341,149.4032 51.822959,149.37418 Z M 298.87126,151.32774 C 298.87126,151.32774 297.95845,153.54594 300.96042,153.41541 L 300.82929,156.41801 297.95782,156.28689 298.08894,159.6814 300.43739,159.55026 300.43739,162.55287 293.91212,162.16097 293.39057,151.58851 298.87126,151.32774 Z M 305.26689,151.32774 311.27061,151.45887 311.00985,161.5083 303.43999,161.9002 303.17922,159.15836 304.74535,159.28949 304.87499,156.15725 303.57113,156.15725 303.83189,153.28577 C 303.83189,153.28577 305.91949,154.19919 305.26689,151.32774 Z M 404.05939,153.86245 C 404.24492,157.80152 404.47296,161.7025 404.73293,164.57051 L 402.17885,164.54815 C 401.93073,161.7559 401.62643,158.29351 401.2803,153.96974 L 404.05939,153.86245 Z M 402.37257,166.76845 404.97582,166.85636 C 405.10401,167.837 405.23805,168.54014 405.37666,168.81737 406.42083,170.9057 406.94317,176.64841 405.11589,177.69257 405.08763,177.70872 405.06169,177.73292 405.03393,177.75069 L 401.50233,177.78347 C 401.72962,176.83707 402.05258,176.00795 402.50519,175.34413 406.4208,169.60124 402.76623,171.95039 402.50519,168.29582 402.48918,168.07179 402.40484,167.15057 402.37257,166.76845 Z M 335.75789,168.76969 C 336.50812,168.78345 337.1139,168.9485 337.1139,168.9485 338.54962,171.16735 337.63572,173.38511 337.37468,175.08187 337.11364,176.77863 333.06759,175.08264 332.93707,171.42807 332.8555,169.14397 334.50749,168.74674 335.75789,168.76969 Z M 592.42795,174.96862 C 593.45579,174.98493 594.50072,175.34413 594.50072,175.34413 595.80592,176.77985 595.15236,177.43161 593.97768,178.34525 592.803,179.25889 590.58405,179.38891 590.45353,176.64799 590.38827,175.27753 591.4001,174.9523 592.42795,174.96862 Z M 401.15811,180.08721 403.59,180.17363 C 403.03203,182.32261 403.08114,185.67157 404.07131,189.96229 404.57614,192.14986 404.91483,194.71691 405.05926,197.29669 L 402.43664,197.33544 C 401.95221,192.03311 400.73445,185.11043 401.15811,180.08721 Z M 232.43689,187.35158 232.69767,193.48644 226.43317,193.3553 226.69394,187.48123 232.43689,187.35158 Z M 402.61248,200.27993 405.13526,200.3604 C 405.10347,204.67424 404.46049,208.60288 403.02673,210.32339 402.146,211.38027 402.82872,212.91449 404.22628,214.56132 L 401.24156,214.60155 C 399.63576,210.46821 401.16624,206.72311 402.24441,203.79663 402.55353,202.95761 402.64082,201.73099 402.61248,200.27993 Z M -5.2325482,201.55548 -5.2325482,224.98774 C -5.142616,224.97015 -5.0706702,224.95984 -4.9792259,224.94155 -1.0636165,224.15843 7.2889069,227.0291 11.726598,228.59534 16.164288,230.16159 19.819929,234.33829 23.735538,234.33829 27.651147,234.33829 31.56622,237.47054 37.309113,237.47054 43.052006,237.47054 48.272938,237.4712 48.795019,235.38287 49.3171,233.29455 48.272819,224.41904 50.361143,223.89697 52.449468,223.37488 50.62272,218.41571 49.839599,216.06634 49.056477,213.71698 17.992287,213.71614 15.381882,213.97719 12.804662,214.23491 1.5840317,204.07509 -5.2325482,201.55548 Z M 408.90082,209.01804 C 410.7281,209.01804 410.20502,209.93191 410.59658,210.97607 410.98814,212.02024 408.77048,212.01962 407.98736,210.84494 407.20424,209.67025 408.90082,209.01804 408.90082,209.01804 Z M 76.986748,221.28626 C 76.986748,221.28626 77.509486,222.85242 74.899079,225.72387 73.372119,227.40352 72.837884,235.85073 72.648986,243.42658 L 68.920687,243.38337 C 68.924692,236.74422 68.634582,229.31063 68.634582,226.50767 68.634582,221.28686 76.986748,221.28626 76.986748,221.28626 Z M 350.34922,221.28626 C 350.89985,221.2702 351.34165,221.4174 351.34165,221.4174 352.90789,223.24468 351.20998,225.20289 351.73206,227.55225 352.25414,229.90162 350.68813,231.07518 348.59981,230.81414 346.51148,230.5531 348.20791,227.94283 348.20791,224.15774 348.20791,221.79206 349.4315,221.31303 350.34922,221.28626 Z M 291.30142,225.855 C 291.30142,225.855 301.35114,225.85449 303.96154,229.24802 306.57195,232.64155 303.57113,231.85872 303.57113,231.85872 L 290.64874,231.72759 290.77987,229.50879 291.56218,229.37915 291.30142,225.855 Z M 287.12459,229.11837 288.95297,229.24802 288.69071,231.85872 285.03692,231.72759 285.03692,229.9007 286.99495,230.42373 287.12459,229.11837 Z M 285.16656,234.59907 288.95297,234.59907 288.82184,236.68823 286.86381,236.949 286.73268,238.7759 288.95297,238.64626 289.08261,242.56082 291.43254,242.69195 290.90951,247.6511 287.38535,247.91336 C 287.38535,247.91336 287.90851,239.55875 286.34227,239.03666 L 284.77614,238.51512 285.16656,234.59907 Z M 353.99854,237.94291 C 354.51451,237.95311 354.86431,237.99358 354.86431,237.99358 355.90847,239.55982 355.25614,241.38621 354.60354,243.21349 353.95093,245.04078 355.64865,244.51873 355.12657,246.08498 354.60449,247.65122 353.03745,247.52157 350.81861,245.95533 348.59977,244.38908 350.55777,243.86729 349.90516,240.60428 349.41571,238.15703 352.45066,237.91233 353.99854,237.94291 Z M 57.613596,242.46247 C 58.948724,244.81255 60.322154,247.23859 61.133278,249.52716 L 53.520215,249.66426 C 52.158308,247.20913 50.438481,244.60238 49.902184,242.63532 L 57.613596,242.46247 Z M 492.40013,245.44869 C 494.43184,245.50231 496.17026,246.98233 497.78545,248.95645 498.2535,249.5285 498.71161,250.24657 499.17127,250.98898 L 493.99904,251.04561 493.73826,249.34835 486.51711,249.05479 C 487.28764,248.0063 488.31439,247.03487 489.43179,246.34724 490.49227,245.69463 491.47663,245.42431 492.40013,245.44869 Z M 558.43515,246.04474 558.67208,252.09466 C 557.54889,252.08795 556.59031,252.35769 556.64998,253.13328 556.67154,253.41355 556.71179,253.72141 556.76472,254.03332 L 552.39715,254.01841 C 554.10111,250.89927 555.5575,247.07078 558.43515,246.04474 Z M 68.902805,246.29955 72.586401,246.38598 C 72.575541,247.13506 72.565273,247.8734 72.559579,248.57199 L 68.840219,248.70611 C 68.8699,247.94551 68.888435,247.1309 68.902805,246.29955 Z M 525.55995,250.52704 C 526.46251,250.58222 527.65723,250.73416 529.37021,251.04561 537.98455,252.61185 539.81153,252.61173 539.81153,252.61173 539.81153,252.61173 539.72325,253.20903 539.68636,253.97371 L 525.6732,253.92603 C 525.42582,252.91473 524.93258,251.75196 525.55995,250.52704 Z"
     id="path4134"
     class="LAND" />
  <path
     style="fill:none;fill-rule:evenodd;stroke:none;stroke-width:4;stroke-linecap:butt;stroke-linejoin:miter;stroke-opacity:1"
     d="M 401.46073,131.48862 410.85819,131.3581 410.98871,133.18539 401.59125,132.6633 Z"
     id="path4158"
     inkscape:connector-curvature="0"
     class="LAND" />
  <path
     style="fill:#c9b293;fill-opacity:1;fill-rule:evenodd;stroke:none;stroke-width:4;stroke-linecap:butt;stroke-linejoin:miter;stroke-opacity:1"
     d="M 136.24347,216.58786 C 136.24347,216.58786 128.02069,212.80277 127.49862,216.8489 126.97653,220.89503 125.93237,223.76648 129.9785,223.89699 134.02463,224.02752 137.54867,221.67815 137.94023,220.24243 138.3318,218.80671 138.72336,218.02358 136.24347,216.58786 Z"
     id="path4214"
     inkscape:connector-curvature="0"
     class="LAND" />
  <path
     style="fill:#c9b293;fill-opacity:1;fill-rule:evenodd;stroke:none;stroke-width:4;stroke-linecap:butt;stroke-linejoin:miter;stroke-opacity:1"
     d="M 152.81955,214.36901 C 152.81955,214.36901 146.0325,211.75861 146.94614,218.28462 147.85978,224.81064 149.16498,224.5496 151.64487,222.20023 154.12476,219.85087 157.38776,219.72035 156.86568,217.89306 156.3436,216.06578 154.12476,215.5437 152.81955,214.36901 Z"
     id="path4216"
     inkscape:connector-curvature="0"
     class="LAND" />
  <path
     style="fill:#c9b293;fill-opacity:1;fill-rule:evenodd;stroke:none;stroke-width:4;stroke-linecap:butt;stroke-linejoin:miter;stroke-opacity:1"
     d="M 134.54671,232.38082 C 134.54671,232.38082 127.36809,234.33862 131.02266,237.73215 134.67723,241.12568 136.63503,242.5614 138.20128,240.34255 139.76752,238.12371 141.07273,237.07955 138.3318,234.33862 135.59087,231.59769 134.54671,232.38082 134.54671,232.38082 Z"
     id="path4218"
     class="LAND"
     inkscape:connector-curvature="0" />
  <path
     style="fill:#c9b293;fill-opacity:1;fill-rule:evenodd;stroke:none;stroke-width:4;stroke-linecap:butt;stroke-linejoin:miter;stroke-opacity:1"
     d="M 151.38383,231.72822 C 151.38383,231.72822 146.42406,233.5555 147.59874,237.34059 148.77343,241.12568 150.86175,242.16984 154.3858,240.99516 157.90984,239.82048 156.73516,238.90683 159.47609,237.73215 162.21701,236.55746 156.60464,231.46718 151.38383,231.72822 Z"
     id="path4220"
     inkscape:connector-curvature="0"
     class="LAND" />
  <path
     inkscape:connector-curvature="0"
     style="fill:#679363;fill-opacity:1;fill-rule:evenodd;stroke:none;stroke-width:4;stroke-linecap:butt;stroke-linejoin:miter;stroke-opacity:1"
     d="M 245.95682,-1.952775 C 240.11314,4.0231038 235.78169,8.4349343 235.58106,8.585409 234.84272,9.1391598 265.29868,61.192884 265.29868,61.192884 L 295.75391,69.683633 304.98377,87.034682 C 304.98377,87.034682 321.41204,97.371406 321.04288,94.233487 320.6737,91.095569 319.19704,83.527209 321.04288,80.943039 322.88871,78.358869 328.6108,78.542683 326.76497,74.481844 324.91913,70.421005 329.16403,65.992058 333.40944,66.914975 337.65487,67.837892 336.36288,73.374295 342.08497,73.005128 347.80706,72.63596 415.54909,72.635768 417.7641,72.820352 419.9791,73.004935 427.36273,40.518994 426.6244,39.226909 426.21981,38.518876 434.09872,17.23294 441.33196,-1.952775 L 245.95682,-1.952775 Z M 316.73641,23.671464 C 319.95556,23.714578 322.9283,25.048722 321.5823,25.766584 319.6245,26.810746 321.71339,29.943442 323.93223,32.814889 326.15108,35.686335 336.06958,27.854939 340.89883,28.63806 345.72808,29.421182 340.57307,33.011429 340.37728,34.251371 340.18152,35.491314 339.85501,36.731362 341.29073,37.775524 342.72646,38.819687 342.98806,37.644765 343.64067,40.907773 344.29327,44.17078 342.46507,41.168307 340.89883,44.300795 339.33259,47.433282 338.02835,46.388985 336.33159,50.957196 334.63483,55.525406 333.85081,54.350902 328.49948,55.134024 323.14814,55.917145 319.88528,54.090785 316.7528,52.785582 313.62031,51.480379 317.40628,51.219309 316.62316,49.914106 315.84004,48.608903 317.53661,48.34661 317.5366,46.780367 317.5366,45.214124 317.40501,43.518209 318.57969,43.77925 319.75437,44.04029 321.32084,42.734715 320.53772,40.515869 319.7546,38.297024 322.62611,37.644318 326.28067,36.991717 329.93524,36.339115 332.93742,34.512606 333.32898,33.337924 333.72054,32.163241 329.93485,33.076689 328.10757,34.251371 326.28028,35.426054 325.23625,35.294729 321.45117,35.033689 317.66608,34.772648 319.23325,35.425622 319.10273,38.297069 318.97221,41.168516 316.88298,38.557797 316.36089,40.776642 315.83882,42.995487 314.27312,41.168769 310.74907,43.126574 307.22503,45.084379 313.75057,47.825095 311.92329,49.130299 310.096,50.435502 308.00762,47.95511 306.18034,52.52332 304.35306,57.091531 299.65489,54.87276 295.47824,53.175996 291.30159,51.479233 304.87506,52.131611 305.52766,51.217968 305.95252,50.623176 301.48337,49.061922 299.0158,46.506183 297.69302,45.136134 295.74909,41.654617 294.56479,40.515869 291.17126,37.252862 293.78162,30.597087 296.78359,28.900323 299.78556,27.20356 304.09217,34.511876 307.48569,34.772916 310.87922,35.033957 308.79088,26.811208 312.57597,24.592363 313.75881,23.898973 315.27315,23.651867 316.73641,23.671464 Z"
     id="path4234"
     class="LAND" />
  <path
     inkscape:connector-curvature="0"
     style="fill:#f4ed92;fill-opacity:1;fill-rule:evenodd;stroke:none;stroke-width:4;stroke-linecap:butt;stroke-linejoin:miter;stroke-opacity:1"
     d="M 156.23026,-1.952775 164.33059,56.208406 C 164.33059,56.208406 166.17691,78.542731 173.37567,81.680652 180.57443,84.818573 192.20388,76.328306 205.49389,82.23498 218.78391,88.141655 223.02812,96.63202 237.24106,90.356176 251.45399,84.080339 254.03875,70.605349 266.40585,72.820352 278.77295,75.035354 276.55794,65.25305 289.29421,69.129305 302.03048,73.00556 312.73561,79.282171 312.92018,75.5905 313.10477,71.898828 271.75925,57.869899 275.45093,52.147808 279.1426,46.425717 291.69423,44.948712 285.41839,36.0887 279.14254,27.228688 272.8669,16.522503 279.88107,14.3075 286.89525,12.092497 300.92322,19.10701 308.12197,13.200335 310.49857,11.250316 309.26429,5.229126 306.55734,-1.952775 L 156.23026,-1.952775 Z"
     id="path4230"
     class="LAND" />
  <path
     inkscape:connector-curvature="0"
     style="fill:#986749;fill-opacity:1;fill-rule:evenodd;stroke:none;stroke-width:4;stroke-linecap:butt;stroke-linejoin:miter;stroke-opacity:1"
     d="M -5.2325482,-1.952775 -5.2325482,81.76708 C 8.1908992,82.645228 20.652908,84.531553 21.647869,88.511399 23.862872,97.371406 68.901747,79.65 105.08013,91.463339 141.25851,103.27669 162.66997,104.01565 166.36164,87.772295 169.34859,74.629715 158.32247,22.824328 168.08125,-1.952775 L -5.2325482,-1.952775 Z M 395.74001,-1.952775 C 389.39295,8.124222 385.56856,18.714921 391.55275,25.014069 405.5811,39.780755 421.82498,60.453829 407.79663,61.930497 393.76828,63.407166 358.32866,56.762782 352.42198,58.239451 346.51531,59.71612 333.22554,65.622794 336.91721,81.127815 340.60888,96.632837 333.96368,104.01627 331.01034,106.96961 328.057,109.92295 336.91731,118.04343 339.87064,115.82842 342.82398,113.61342 348.73042,105.4929 356.85214,105.4929 364.97381,105.4929 376.78712,102.53966 378.26379,108.44633 379.74046,114.35301 381.95574,118.78176 387.12409,115.82842 392.29242,112.87508 395.24572,122.47367 385.64737,123.212 381.73306,123.51311 371.86003,124.39857 360.65196,125.32799 361.21474,126.0528 361.74537,127.1806 359.82494,127.44248 356.9535,127.83405 353.69008,129.00811 353.69008,127.31135 353.69008,126.71139 353.74452,126.26555 353.80781,125.88828 351.62249,126.06284 349.43804,126.22399 347.24826,126.39045 346.79773,127.77019 345.86322,130.83926 342.72721,127.70325 342.41177,127.38781 342.14539,127.08558 341.90168,126.78981 331.56375,127.53262 322.05675,128.08001 316.7975,128.01171 312.40627,127.95468 305.8841,127.64689 298.97855,127.31433 298.74367,128.41996 297.43069,129.54388 297.04437,128.09516 296.97542,127.83662 296.89649,127.50505 296.82084,127.21151 281.94058,126.49458 265.89724,125.75168 264.55957,127.08932 262.52916,129.11974 266.22127,135.02565 272.12794,137.7944 278.03462,140.56316 285.41734,133.36463 292.98526,133.7338 300.55319,134.10297 314.39748,134.28669 320.67332,141.48545 326.94917,148.68421 326.58058,150.16131 338.39393,149.05381 350.20728,147.9463 356.85233,156.62168 351.31482,159.02127 345.77732,161.42086 343.37687,173.4198 353.34438,172.86605 363.31189,172.3123 364.23539,180.06366 365.34289,188.92367 366.45039,197.78368 372.91111,211.99676 385.64737,210.52009 398.38364,209.04342 399.67577,212.55142 398.56827,204.24516 397.46077,195.9389 394.32227,180.4331 398.01394,174.8956 401.70562,169.35809 393.39858,134.47266 397.27484,132.81141 400.04239,131.62532 403.8119,131.10296 405.76111,130.89808 405.39937,129.61552 404.86808,128.10659 404.86108,126.77043 402.4754,125.59613 397.04065,122.28195 399.67543,117.30514 402.99794,111.0293 406.50469,108.44513 406.50469,105.86096 406.50469,104.81743 406.2949,104.11291 406.06808,103.57361 403.23711,103.15207 405.12827,101.92304 405.24553,100.1642 405.37605,98.206396 406.55091,97.422363 409.42236,97.422363 412.29381,97.422363 411.38019,93.115475 412.29383,92.071315 413.20748,91.027156 415.55722,92.463217 415.55722,92.463217 416.34034,94.029461 415.03472,93.245565 414.51264,96.117009 413.99056,98.988454 415.42611,95.333998 418.29756,99.641161 420.02827,102.23723 419.33538,103.21865 417.9444,103.67643 418.51104,104.34477 419.21244,105.10445 419.79514,105.4929 420.90263,106.23124 414.44217,111.03007 418.31842,112.32215 422.19468,113.61424 426.25566,99.955533 428.47067,98.478867 430.68566,97.002194 432.16244,101.80064 431.4241,104.93857 430.68576,108.07648 427.54736,106.78422 428.10111,110.47589 428.5446,113.43245 428.91224,116.38327 429.07119,117.67916 434.38731,114.5299 438.73894,112.48106 445.31507,112.6932 445.31507,112.6932 432.78631,116.34839 429.65383,120.78608 427.50517,123.83001 420.68965,123.80387 415.60937,124.66638 415.19911,125.65661 414.55035,127.50237 414.81066,128.93409 415.17983,130.96452 409.08881,133.17962 410.75007,137.60962 412.41132,142.03963 413.51828,150.53133 411.67245,152.74634 409.82661,154.96134 407.24236,156.80651 408.71902,160.68277 410.19569,164.55902 408.35101,172.49678 409.82767,175.6347 411.30435,178.77262 413.33414,180.43359 413.51872,183.94068 413.70331,187.44777 413.70418,198.70674 411.48917,199.07591 409.27417,199.44507 405.02812,206.09071 409.45813,206.82904 413.88813,207.56738 410.38128,213.10502 411.11961,216.98128 411.41848,218.55036 411.89651,220.04476 412.36238,221.28478 413.30891,221.92131 414.17838,222.48622 414.77341,222.85239 418.16693,224.94071 421.82198,227.81279 421.56094,230.94528 421.2999,234.07776 430.69724,233.55509 436.17909,238.7759 436.46245,239.04576 436.71893,239.31393 436.97035,239.58057 439.31768,238.88129 443.7914,237.78875 445.26738,239.13054 447.2978,240.97638 448.59051,249.83706 453.02052,249.83712 457.45052,249.83712 472.77044,242.82241 476.83128,245.03741 480.89212,247.25241 487.35303,243.37669 491.59845,244.11503 492.83691,244.33041 493.80571,245.14799 494.69791,246.14011 495.79546,246.76738 496.81406,247.76919 497.78545,248.95645 498.12237,249.36823 498.45305,249.85766 498.78384,250.37207 499.7917,250.93934 500.9707,251.13118 502.48829,250.57473 508.02581,248.54431 509.50291,243.19208 515.77875,244.11503 522.0546,245.03794 520.76241,245.03712 524.2695,247.6213 525.95588,248.86389 526.91995,250.0173 528.18109,250.84295 528.55437,250.90298 528.93489,250.96646 529.37021,251.04561 531.78767,251.48515 533.56867,251.77929 535.02673,252.00674 541.06938,251.44326 541.55438,246.70336 546.60353,246.88368 551.77187,247.06827 548.81921,239.31566 550.1113,238.20816 551.40338,237.10065 551.40218,221.59581 553.24801,221.22666 555.09385,220.85749 557.49358,221.96532 557.67816,220.11949 557.86275,218.27365 557.12451,213.47314 554.90951,213.10397 552.69451,212.7348 550.84947,210.88954 551.40324,202.21411 551.95696,193.53868 549.00317,190.95471 553.80234,190.95471 558.60152,190.95471 565.43092,189.66195 565.06175,193.16904 564.69258,196.67612 563.95444,199.99873 565.24653,201.84457 566.53861,203.6904 568.01494,205.35238 572.07578,201.10695 576.13662,196.86153 569.12345,191.69299 574.47637,189.47799 579.8293,187.26299 584.2592,184.49471 582.96713,181.3568 581.67504,178.21887 573.55221,173.0501 570.41428,173.78844 567.27637,174.52677 562.47734,172.86595 563.40025,169.91261 564.32317,166.95927 563.95449,164.0057 566.72324,164.00575 569.492,164.00575 564.6931,156.0687 569.86145,154.03828 575.02978,152.00786 594.78028,144.43998 594.22653,138.34873 593.67278,132.25747 597.73356,115.45983 592.74981,110.66066 587.76605,105.86148 572.44547,101.43224 582.59757,94.233487 588.27368,90.20863 597.87104,92.932086 605.23261,92.504943 L 605.23261,-1.952775 395.74001,-1.952775 Z M 290.55784,72.526797 C 290.10215,72.532565 289.52436,72.590921 288.73988,72.637066 288.73988,72.637066 283.01852,75.774362 276.55809,76.328113 270.09766,76.881863 265.48279,76.327921 267.69779,81.865429 269.9128,87.402936 273.23568,95.524521 268.06734,96.078267 262.899,96.63202 262.5296,100.69271 266.40585,103.0923 270.28211,105.49188 263.08338,109.73813 267.88256,111.03021 272.09075,112.16319 274.45338,115.70566 276.58938,115.56616 276.9793,112.77604 279.51483,111.92195 280.99121,112.17165 282.51346,112.4291 281.38239,112.43333 282.81812,115.17426 283.25888,116.01572 283.38944,116.93022 283.33221,117.84755 L 294.84344,117.68214 C 295.72278,115.89174 298.54342,113.83676 299.78471,113.8689 301.17642,113.90494 301.2414,113.7812 301.3106,115.01332 301.86205,114.64287 302.67399,114.3517 303.8766,114.3517 307.1991,114.3517 315.69029,114.16789 319.93571,109.36872 324.18114,104.56954 326.39522,96.816508 320.48855,93.124836 314.58187,89.433164 312.36745,82.604627 311.07541,79.835874 309.78332,77.06712 295.75478,79.097588 293.72436,75.5905 292.20155,72.960184 291.92491,72.509492 290.55784,72.526797 Z M 534.58566,163.09975 C 542.94058,163.14842 550.29607,164.14351 550.29607,166.22008 550.29607,169.54258 542.17435,179.51057 537.37517,180.98725 532.576,182.46391 511.53351,190.58597 504.51934,187.07889 497.50516,183.57179 484.5835,184.67801 485.13725,181.54009 485.691,178.40216 485.50666,176.0963 486.79874,174.34276 488.09082,172.58922 490.67494,171.20461 491.04411,166.95918 491.41329,162.71376 508.21058,165.667 519.83935,164.00575 524.20014,163.38278 529.57269,163.07055 534.58566,163.09975 Z"
     id="path4222"
     class="LAND" />
  <path
     inkscape:connector-curvature="0"
     style="fill:#deeff0;fill-opacity:1;fill-rule:evenodd;stroke:none;stroke-width:4;stroke-linecap:butt;stroke-linejoin:miter;stroke-opacity:1"
     d="M 542.76944,91.405226 C 535.04248,91.666824 532.59772,100.06969 524.63756,107.33767 516.14671,115.09018 491.96651,124.13588 491.96651,124.13588 486.429,134.65715 520.94613,152.00734 532.02114,149.23858 543.09616,146.46983 558.23249,141.85504 575.39877,143.33171 582.43348,143.93685 589.06195,138.74346 594.43962,132.4046 595.10475,124.86452 596.5352,114.30585 592.74981,110.66066 592.23039,110.16047 591.58017,109.66476 590.87673,109.16905 583.6643,107.8108 575.49922,105.95081 569.4919,103.64662 556.01729,98.478287 553.4338,92.386251 544.38921,91.463339 543.82392,91.405661 543.28457,91.387785 542.76944,91.405226 Z"
     id="path4226"
     class="LAND" />
  <path
     style="fill:none;fill-rule:evenodd;stroke:none;stroke-width:4;stroke-linecap:butt;stroke-linejoin:miter;stroke-opacity:1"
     d="M 486.7986,174.34205 C 488.09067,172.5885 490.67484,171.20413 491.04401,166.9587 491.41319,162.71328 508.21029,165.66662 519.83906,164.00536 531.46782,162.34411 550.29534,162.89786 550.29534,166.22037 550.29534,169.54287 542.17367,179.51038 537.3745,180.98706 532.57532,182.46372 511.53279,190.5854 504.51862,187.07831 497.50444,183.57122 484.58359,184.67873 485.13734,181.5408 485.6911,178.40288 485.50652,176.09558 486.7986,174.34205 Z"
     id="path4228"
     inkscape:connector-curvature="0"
     sodipodi:nodetypes="zzsssszz"
     class="LAND" />
  <path
     inkscape:connector-curvature="0"
     style="fill:#c9b293;fill-opacity:1;fill-rule:evenodd;stroke:none;stroke-width:4;stroke-linecap:butt;stroke-linejoin:miter;stroke-opacity:1"
     d="M 151.04163,174.15799 137.19686,174.71082 C 137.19686,174.71082 137.19796,177.11137 136.8288,181.3568 136.60803,183.89554 131.18078,185.57017 126.84643,186.51115 135.71085,187.0307 149.85105,187.6526 152.58094,178.80719 L 152.55858,178.47638 151.04163,174.15799 Z"
     id="path4236"
     class="LAND" />
  <path
     inkscape:connector-curvature="0"
     style="fill:#c9b293;fill-opacity:1;fill-rule:evenodd;stroke:none;stroke-width:4;stroke-linecap:butt;stroke-linejoin:miter;stroke-opacity:1"
     d="M 116.11006,213.26044 C 112.02873,213.63218 105.12009,214.67972 107.65954,217.50134 111.18359,221.41694 111.9664,222.46064 110.13911,223.76584 108.31183,225.07104 104.00524,230.81398 107.39877,234.59907 110.7923,238.38415 111.57531,240.34263 116.92665,240.47315 119.72567,240.54142 122.15735,240.75074 123.88405,240.93658 123.91951,238.26455 123.19114,234.92208 123.19114,230.94528 123.19114,222.06989 119.53675,224.68048 114.31594,222.07007 110.29939,220.0618 114.61352,217.12275 116.11006,213.26044 Z"
     id="path4238"
     class="LAND" />
  <circle
     class="CITY"
     style="opacity:1;fill:#000000;fill-opacity:1;stroke:#000000;stroke-width:0.16445337;stroke-opacity:1"
     id="circle5291"
     cx="267.65704"
     cy="314.99878"
     r="5" />
  <circle
     r="5"
     cy="220.71983"
     cx="233.59761"
     id="circle5359"
     style="opacity:1;fill:#000000;fill-opacity:1;stroke:#000000;stroke-width:0.16445337;stroke-opacity:1"
     class="CITY" />
  <g
     id="g5542">
    <circle
       r="5"
       cy="293.93961"
       cx="233.59761"
       id="circle5361"
       style="opacity:1;fill:#000000;fill-opacity:1;stroke:#000000;stroke-width:0.16445337;stroke-opacity:1"
       class="CITY" />
  </g>
  <circle
     r="5"
     cy="293.93961"
     cx="286.28848"
     id="circle5363"
     style="opacity:1;fill:#000000;fill-opacity:1;stroke:#000000;stroke-width:0.16445337;stroke-opacity:1"
     class="CITY" />
  <circle
     class="CITY"
     style="opacity:1;fill:#000000;fill-opacity:1;stroke:#000000;stroke-width:0.16445337;stroke-opacity:1"
     id="circle5365"
     cx="286.28848"
     cy="176.24054"
     r="5" />
  <circle
     r="5"
     cy="198.50499"
     cx="268.49677"
     id="circle5367"
     style="opacity:1;fill:#000000;fill-opacity:1;stroke:#000000;stroke-width:0.16445337;stroke-opacity:1"
     class="CITY" />
  <circle
     r="5"
     cy="176.92484"
     cx="347.19092"
     id="circle5371"
     style="opacity:1;fill:#000000;fill-opacity:1;stroke:#000000;stroke-width:0.16445337;stroke-opacity:1"
     class="CITY" />
  <circle
     class="CITY"
     style="opacity:1;fill:#000000;fill-opacity:1;stroke:#000000;stroke-width:0.16445337;stroke-opacity:1"
     id="circle5373"
     cx="347.19092"
     cy="250.48112"
     r="5" />
  <circle
     r="5"
     cy="116.36455"
     cx="413.56772"
     id="circle5375"
     style="opacity:1;fill:#000000;fill-opacity:1;stroke:#000000;stroke-width:0.16445337;stroke-opacity:1"
     class="CITY" />
  <circle
     r="5"
     cy="130.39265"
     cx="406.38681"
     id="circle5379"
     style="opacity:1;fill:#000000;fill-opacity:1;stroke:#000000;stroke-width:0.16445337;stroke-opacity:1"
     class="CITY" />
  <circle
     class="CITY"
     style="opacity:1;fill:#000000;fill-opacity:1;stroke:#000000;stroke-width:0.16445337;stroke-opacity:1"
     id="circle5381"
     cx="553.84863"
     cy="118.41746"
     r="5" />
  <circle
     r="5"
     cy="250.48112"
     cx="413.56772"
     id="circle5383"
     style="opacity:1;fill:#000000;fill-opacity:1;stroke:#000000;stroke-width:0.16445337;stroke-opacity:1"
     class="CITY" />
  <circle
     r="5"
     cy="174.87195"
     cx="523.0553"
     id="circle5453"
     style="opacity:1;fill:#000000;fill-opacity:1;stroke:#000000;stroke-width:0.16445337;stroke-opacity:1"
     class="CITY" />
  <circle
     class="CITY"
     style="opacity:1;fill:#000000;fill-opacity:1;stroke:#000000;stroke-width:0.16445337;stroke-opacity:1"
     id="circle5461"
     cx="112.47706"
     cy="228.2471"
     r="5" />
  <circle
     r="5"
     cy="228.2471"
     cx="142.97023"
     id="circle5463"
     style="opacity:1;fill:#000000;fill-opacity:1;stroke:#000000;stroke-width:0.16445337;stroke-opacity:1"
     class="CITY" />
  <circle
     class="CITY"
     style="opacity:1;fill:#000000;fill-opacity:1;stroke:#000000;stroke-width:0.16445337;stroke-opacity:1"
     id="circle5465"
     cx="164.23125"
     cy="166.24054"
     r="5" />
  <circle
     r="5"
     cy="142.70998"
     cx="128.55803"
     id="circle5467"
     style="opacity:1;fill:#000000;fill-opacity:1;stroke:#000000;stroke-width:0.16445337;stroke-opacity:1"
     class="CITY" />
  <circle
     class="CITY"
     style="opacity:1;fill:#000000;fill-opacity:1;stroke:#000000;stroke-width:0.16445337;stroke-opacity:1"
     id="circle5469"
     cx="233.59761"
     cy="152.97443"
     r="5" />
  <circle
     r="5"
     cy="116.36455"
     cx="244.29399"
     id="circle5471"
     style="opacity:1;fill:#000000;fill-opacity:1;stroke:#000000;stroke-width:0.16445337;stroke-opacity:1"
     class="CITY" />
  <circle
     class="CITY"
     style="opacity:1;fill:#000000;fill-opacity:1;stroke:#000000;stroke-width:0.16445337;stroke-opacity:1"
     id="circle5473"
     cx="231.20258"
     cy="95.83564"
     r="5" />
  <circle
     r="5"
     cy="95.83564"
     cx="248.65215"
     id="circle5475"
     style="opacity:1;fill:#000000;fill-opacity:1;stroke:#000000;stroke-width:0.16445337;stroke-opacity:1"
     class="CITY" />
  <circle
     class="CITY"
     style="opacity:1;fill:#000000;fill-opacity:1;stroke:#000000;stroke-width:0.16445337;stroke-opacity:1"
     id="circle5477"
     cx="325.2934"
     cy="41.776184"
     r="5" />
  <circle
     r="5"
     cy="116.36455"
     cx="325.2934"
     id="circle5479"
     style="opacity:1;fill:#000000;fill-opacity:1;stroke:#000000;stroke-width:0.16445337;stroke-opacity:1"
     class="CITY" />
  <circle
     r="5"
     cy="108.15298"
     cx="292.44714"
     id="circle5481"
     style="opacity:1;fill:#000000;fill-opacity:1;stroke:#000000;stroke-width:0.16445337;stroke-opacity:1"
     class="CITY" />
  <circle
     class="CITY"
     style="opacity:1;fill:#000000;fill-opacity:1;stroke:#000000;stroke-width:0.16445337;stroke-opacity:1"
     id="circle5483"
     cx="419.04205"
     cy="87.281921"
     r="5" />
  <circle
     r="5"
     cy="185.1364"
     cx="45.847893"
     id="circle5498"
     style="opacity:1;fill:#000000;fill-opacity:1;stroke:#000000;stroke-width:0.16445337;stroke-opacity:1"
     class="CITY" />
  <path
     style="fill:none;fill-rule:evenodd;stroke:#000000;stroke-width:4;stroke-linecap:butt;stroke-linejoin:miter;stroke-opacity:1"
     d="M 45.847891,185.81508 45.847891,228.199"
     id="path5500"
     class="ROUTE"
     inkscape:connector-curvature="0"
     sodipodi:nodetypes="cc" />
  <path
     style="fill:none;fill-rule:evenodd;stroke:#000000;stroke-width:4;stroke-linecap:butt;stroke-linejoin:miter;stroke-opacity:1"
     d="M 111.54039,228.2471 45.847891,228.2471"
     id="path5502"
     class="ROUTE"
     inkscape:connector-curvature="0"
     sodipodi:nodetypes="cc" />
  <path
     style="fill:none;fill-rule:evenodd;stroke:#000000;stroke-width:4;stroke-linecap:butt;stroke-linejoin:miter;stroke-opacity:1"
     d="M 143.70235,228.2471 112.90899,228.2471"
     id="path5504"
     class="ROUTE"
     inkscape:connector-curvature="0"
     sodipodi:nodetypes="cc" />
  <path
     style="fill:none;fill-rule:evenodd;stroke:#000000;stroke-width:4;stroke-linecap:butt;stroke-linejoin:miter;stroke-opacity:1"
     d="M 143.01805,226.87289 143.01805,166.106 164.321,166.106"
     id="path5506"
     class="ROUTE"
     inkscape:connector-curvature="0"
     sodipodi:nodetypes="ccc" />
  <path
     style="fill:none;fill-rule:evenodd;stroke:#000000;stroke-width:4;stroke-linecap:butt;stroke-linejoin:miter;stroke-opacity:1"
     d="M 164.23125,116.62652 164.23125,163.843"
     id="path5508"
     class="ROUTE"
     inkscape:connector-curvature="0"
     sodipodi:nodetypes="cc" />
  <path
     style="fill:none;fill-rule:evenodd;stroke:#000000;stroke-width:4;stroke-linecap:butt;stroke-linejoin:miter;stroke-opacity:1"
     d="M 243.89895,116.36455 164.063,116.36455"
     id="path5510"
     class="ROUTE"
     inkscape:connector-curvature="0"
     sodipodi:nodetypes="cc" />
  <path
     style="fill:none;fill-rule:evenodd;stroke:#000000;stroke-width:4;stroke-linecap:butt;stroke-linejoin:miter;stroke-opacity:1"
     d="M 322.30383,116.36455 243.89895,116.36455"
     id="path5512"
     class="ROUTE"
     inkscape:connector-curvature="0"
     sodipodi:nodetypes="cc" />
  <path
     style="fill:none;fill-rule:evenodd;stroke:#000000;stroke-width:4;stroke-linecap:butt;stroke-linejoin:miter;stroke-opacity:1"
     d="M 327.77821,116.36455 412.63102,116.36455"
     id="path5514"
     class="ROUTE"
     inkscape:connector-curvature="0"
     sodipodi:nodetypes="cc" />
  <path
     style="fill:none;fill-rule:evenodd;stroke:#000000;stroke-width:4;stroke-linecap:butt;stroke-linejoin:miter;stroke-opacity:1"
     d="M 411.94672,250.48113 345.56992,250.48113"
     id="path5516"
     class="ROUTE"
     inkscape:connector-curvature="0"
     sodipodi:nodetypes="cc" />
  <path
     style="fill:none;fill-rule:evenodd;stroke:#000000;stroke-width:4;stroke-linecap:butt;stroke-linejoin:miter;stroke-opacity:1"
     d="M 406.3868,214.89769 391.41782,214.89769 391.41782,250.82328"
     id="path5520"
     class="ROUTE"
     inkscape:connector-curvature="0"
     sodipodi:nodetypes="ccc" />
  <path
     style="fill:none;fill-rule:evenodd;stroke:#000000;stroke-width:4;stroke-linecap:butt;stroke-linejoin:miter;stroke-opacity:1"
     d="M 406.3868,128.33414 406.3868,214.89769"
     id="path5522"
     class="ROUTE"
     inkscape:connector-curvature="0"
     sodipodi:nodetypes="cc" />
  <path
     style="fill:none;fill-rule:evenodd;stroke:#000000;stroke-width:4;stroke-linecap:butt;stroke-linejoin:miter;stroke-opacity:1"
     d="M 622.71016,174.87195 525.54,174.87195"
     id="path5524"
     class="ROUTE"
     inkscape:connector-curvature="0"
     sodipodi:nodetypes="cc" />
  <path
     style="fill:none;fill-rule:evenodd;stroke:#000000;stroke-width:4;stroke-linecap:butt;stroke-linejoin:miter;stroke-opacity:1"
     d="M 244.29399,116.59531 244.29399,153.02172"
     id="path5526"
     class="ROUTE"
     inkscape:connector-curvature="0"
     sodipodi:nodetypes="cc" />
  <path
     style="fill:none;fill-rule:evenodd;stroke:#000000;stroke-width:4;stroke-linecap:butt;stroke-linejoin:miter;stroke-opacity:1"
     d="M 233.476,152.97443 286.28848,152.97443 286.28848,175.1807"
     id="path5528"
     class="ROUTE"
     inkscape:connector-curvature="0"
     sodipodi:nodetypes="ccc" />
  <path
     style="fill:none;fill-rule:evenodd;stroke:#000000;stroke-width:4;stroke-linecap:butt;stroke-linejoin:miter;stroke-opacity:1"
     d="M 285.77279,176.24054 346.20134,176.24054"
     id="path5530"
     class="ROUTE"
     inkscape:connector-curvature="0"
     sodipodi:nodetypes="cc" />
  <path
     style="fill:none;fill-rule:evenodd;stroke:#000000;stroke-width:4;stroke-linecap:butt;stroke-linejoin:miter;stroke-opacity:1"
     d="M 286.28848,175.1807 286.28848,293.964"
     id="path5532"
     class="ROUTE"
     inkscape:connector-curvature="0"
     sodipodi:nodetypes="cc" />
  <path
     style="fill:none;fill-rule:evenodd;stroke:#000000;stroke-width:4;stroke-linecap:butt;stroke-linejoin:miter;stroke-opacity:1"
     d="M 286.01,294.27613 257.97993,294.27613"
     id="path5538"
     class="ROUTE"
     inkscape:connector-curvature="0"
     sodipodi:nodetypes="cc" />
  <path
     style="fill:none;fill-rule:evenodd;stroke:#000000;stroke-width:4;stroke-linecap:butt;stroke-linejoin:miter;stroke-opacity:1"
     d="M 267.65704,294.38655 267.65704,315.59976"
     id="path5540"
     class="ROUTE"
     inkscape:connector-curvature="0"
     sodipodi:nodetypes="cc" />
  <g
     id="g5545"
     transform="translate(23.266094,0)">
    <circle
       class="CITY"
       style="opacity:1;fill:#000000;fill-opacity:1;stroke:#000000;stroke-width:0.16445337;stroke-opacity:1"
       id="circle5547"
       cx="233.59761"
       cy="293.93961"
       r="5" />
  </g>
  <path
     style="fill:none;fill-rule:evenodd;stroke:#000000;stroke-width:4;stroke-linecap:butt;stroke-linejoin:miter;stroke-opacity:1"
     d="M 230.60805,294.27613 258.66422,294.27613"
     id="path5549"
     class="ROUTE"
     inkscape:connector-curvature="0"
     sodipodi:nodetypes="cc" />
  <path
     style="fill:none;fill-rule:evenodd;stroke:#000000;stroke-width:4;stroke-linecap:butt;stroke-linejoin:miter;stroke-opacity:1"
     d="M 233.59761,221.39851 233.59761,293.93398"
     id="path5551"
     class="ROUTE"
     inkscape:connector-curvature="0"
     sodipodi:nodetypes="cc" />
  <path
     style="fill:none;fill-rule:evenodd;stroke:#000000;stroke-width:4;stroke-linecap:butt;stroke-linejoin:miter;stroke-opacity:1"
     d="M 233.59761,150.23164 233.59761,221.39851"
     id="path5553"
     class="ROUTE"
     inkscape:connector-curvature="0"
     sodipodi:nodetypes="cc" />
  <path
     style="fill:none;fill-rule:evenodd;stroke:#000000;stroke-width:4;stroke-linecap:butt;stroke-linejoin:miter;stroke-opacity:1"
     d="M 325.04102,46.218512 325.04102,115.3325"
     id="path5555"
     class="ROUTE"
     inkscape:connector-curvature="0"
     sodipodi:nodetypes="cc" />
  <path
     style="fill:none;fill-rule:evenodd;stroke:#000000;stroke-width:4;stroke-linecap:butt;stroke-linejoin:miter;stroke-opacity:1"
     d="M 346.57258,251.69355 346.57258,175.96774"
     id="path5559"
     class="ROUTE"
     inkscape:connector-curvature="0"
     sodipodi:nodetypes="cc" />
</svg>
