<?xml version="1.0" encoding="UTF-8" standalone="no"?>
<svg
   xmlns:dc="http://purl.org/dc/elements/1.1/"
   xmlns:cc="http://creativecommons.org/ns#"
   xmlns:rdf="http://www.w3.org/1999/02/22-rdf-syntax-ns#"
   xmlns:svg="http://www.w3.org/2000/svg"
   xmlns="http://www.w3.org/2000/svg"
   xmlns:sodipodi="http://sodipodi.sourceforge.net/DTD/sodipodi-0.dtd"
   xmlns:inkscape="http://www.inkscape.org/namespaces/inkscape"
   version="1.1"
   regionID="1"
   id="svg2"
   viewBox="0 0 600 399.99999"
   width="600"
   height="400"
   inkscape:version="0.91 r13725"
   sodipodi:docname="kanto.svg">
  <sodipodi:namedview
     pagecolor="#ffffff"
     bordercolor="#666666"
     borderopacity="1"
     objecttolerance="10"
     gridtolerance="10"
     guidetolerance="10"
     inkscape:pageopacity="0"
     inkscape:pageshadow="2"
     inkscape:window-width="1920"
     inkscape:window-height="957"
     id="namedview65"
     showgrid="false"
     inkscape:zoom="0.73067701"
     inkscape:cx="204.33286"
     inkscape:cy="155.74646"
     inkscape:window-x="0"
     inkscape:window-y="1"
     inkscape:window-maximized="1"
     inkscape:current-layer="svg2" />
  <defs
     id="defs4">
    <inkscape:perspective
       locationid=""
       sodipodi:type="inkscape:persp3d"
       inkscape:vp_x="0 : 200 : 1"
       inkscape:vp_y="0 : 1000 : 0"
       inkscape:vp_z="600 : 200 : 1"
       inkscape:persp3d-origin="300 : 133.33333 : 1"
       id="perspective4999" />
    <inkscape:perspective
       locationid=""
       sodipodi:type="inkscape:persp3d"
       inkscape:vp_x="0 : 200 : 1"
       inkscape:vp_y="0 : 1000 : 0"
       inkscape:vp_z="600 : 200 : 1"
       inkscape:persp3d-origin="300 : 133.33333 : 1"
       id="perspective4999-9" />
  </defs>
  <metadata
     id="metadata7">
    <rdf:RDF>
      <cc:Work
         rdf:about="">
        <dc:format>image/svg+xml</dc:format>
        <dc:type
           rdf:resource="http://purl.org/dc/dcmitype/StillImage" />
        <dc:title></dc:title>
      </cc:Work>
    </rdf:RDF>
  </metadata>
  <path
     style="fill:#94ca90;fill-opacity:1;fill-rule:evenodd;stroke:none;stroke-width:1px;stroke-linecap:butt;stroke-linejoin:miter;stroke-opacity:1"
     d="M 540.54039,-49.129202 C 540.51835,-49.128589 540.49361,-49.119763 540.465,-49.102589 538.63374,-48.003834 -26.127337,-46.539116 -26.127337,-46.539116 L -25.39407,129.9935 -5.6165491,328.86858 C -5.6165491,328.86858 3.5390319,333.99606 6.4690559,327.40352 9.3990729,320.81098 18.556281,324.47456 11.597491,314.2195 4.6387009,303.96445 -1.5874891,302.8651 3.1737879,296.63883 7.9350659,290.41253 -4.8847601,278.693 -4.8847591,278.693 -4.8847591,278.693 5.7369349,279.79089 6.8356889,286.38343 7.9344449,292.97597 8.6668549,295.54006 15.259392,296.63883 21.851931,297.73758 19.655229,302.86453 17.457716,301.76578 15.260203,300.66703 12.696581,296.63854 10.499069,299.2023 8.3015559,301.76607 3.5391819,306.16143 10.864224,309.4577 18.189266,312.75397 18.921867,306.16166 25.148152,305.42915 31.374438,304.69666 42.72854,308.72471 45.292304,306.16095 47.856069,303.59718 36.135475,297.0047 40.530502,296.27219 44.925526,295.53968 46.390726,288.21488 46.390726,292.24366 46.390726,296.27243 47.489626,301.40024 50.785895,301.03398 54.082163,300.66774 47.490103,305.79546 54.08264,306.89421 60.675179,307.99298 68.366807,305.06243 64.338034,302.13242 60.30926,299.2024 57.001291,297.97131 63.238132,297.92056 65.968197,297.89835 68.963826,297.92056 68.963826,297.92056 L 68.963826,300.85068 78.987116,300.85068 C 78.987116,300.85068 83.38238,304.32954 86.312396,301.76578 89.242414,299.20201 89.608475,296.27262 91.805988,298.10388 94.0035,299.93515 96.201633,303.5978 99.497902,302.49904 102.79417,301.40029 94.369991,298.47013 99.131268,298.10388 103.89255,297.73763 103.89307,298.10388 103.89307,298.10388 103.89307,298.10388 102.42706,304.69589 107.18834,304.69589 107.89617,304.69589 109.88783,303.79113 109.88783,303.79113 L 126.60069,303.79113 C 126.60069,303.79113 128.79797,306.52754 130.62923,305.06253 132.46048,303.59751 129.16431,308.35923 133.55934,306.89421 137.95436,305.42921 139.05293,303.23084 139.05293,303.23084 L 148.57506,303.23084 C 148.57506,303.23084 154.43603,305.7957 155.16855,302.86568 155.90105,299.93568 152.23844,298.47051 152.23844,298.47051 L 152.60359,292.24366 C 152.60359,292.24366 155.5337,291.14461 155.5337,294.80713 155.5337,298.46965 159.92889,295.17353 159.92887,299.2023 159.92887,303.23107 163.22538,307.99202 167.25415,300.30072 171.28293,292.60942 169.81815,290.77821 174.57943,290.41197 179.34071,290.04571 186.66531,281.62254 182.6365,275.39625 178.60772,269.16996 173.48029,266.24024 174.2128,261.47896 174.9453,256.71768 165.0574,247.92739 167.98742,242.79986 170.91744,237.67233 167.98618,233.27744 175.31122,235.84122 182.63626,238.40498 183.73583,245.36325 188.86336,242.43322 193.99089,239.50321 195.45552,243.1664 199.85054,240.23638 204.24557,237.30636 206.44375,244.63037 209.00751,242.06659 211.57127,239.50283 202.04896,263.30931 216.33279,279.05815 218.50768,283.79435 236.79616,304.21037 236.99881,296.43185 236.97707,291.20739 236.84211,279.42478 236.84211,279.42478 L 240.87063,279.42478 240.87063,295.90704 246.73086,294.80713 C 246.73086,294.80713 241.96992,300.30077 245.63243,301.76578 249.29496,303.23079 250.02709,302.49885 256.61962,296.63883 263.21215,290.77878 263.9447,292.97564 269.43849,287.48186 274.93227,281.98808 274.56554,281.62218 277.49556,275.02961 280.42557,268.43708 254.05566,239.50421 273.46702,239.13796 292.8784,238.7717 264.31158,224.85382 277.13041,218.99381 289.94923,213.13378 263.21244,197.01786 276.76377,194.08785 290.31509,191.15784 298.73809,204.71016 297.27308,213.50021 295.80807,222.29026 306.06313,228.88256 308.62689,228.88256 L 308.62689,238.40469 306.06342,238.40469 306.06342,328.50342 325.84093,328.86858 326.20757,334.36216 336.09632,335.09543 C 336.09632,335.09543 333.16601,342.05408 338.6598,342.05408 344.15358,342.05408 344.52003,342.42072 344.52003,342.42072 344.52003,342.42072 343.42218,350.11159 349.64847,351.94284 355.87474,353.77411 358.43798,355.97138 367.59429,355.97138 376.75059,355.97138 376.01781,362.19744 381.51159,359.99992 387.00537,357.80241 389.56918,362.92993 394.33046,359.99992 399.09174,357.0699 399.45875,354.14084 406.41754,355.23959 413.37633,356.33833 417.4044,344.98423 429.85696,346.44925 442.30954,347.91426 448.16961,345.71612 454.02964,350.11115 459.88968,354.50617 454.76291,346.81479 466.11673,347.18104 477.47054,347.54729 489.55639,345.71661 485.52761,342.05408 481.49884,338.39156 474.90674,327.40458 476.00549,325.57332 477.10425,323.74206 476.37064,290.04681 476.37064,290.04681 L 519.22242,289.68017 518.85579,283.81995 528.3794,284.18658 528.3794,255.98537 524.82541,255.98537 524.82541,246.92005 527.64614,246.92005 527.64614,243.64696 518.84545,243.64696 518.84545,240.1876 527.39924,240.1876 527.39924,225.58582 524.82541,225.58582 524.82541,230.98776 523.69003,230.98776 523.69003,221.14482 521.23743,221.14482 521.23743,217.43709 524.52235,217.43709 524.52235,215.05693 518.84545,215.05693 518.84545,212.49197 523.69003,212.49197 523.69003,208.41761 527.39924,208.41761 527.39924,205.89997 523.69003,205.89997 523.69003,202.1464 521.23743,202.05475 521.23743,198.48302 C 521.23743,198.48302 526.91401,200.22367 528.01276,199.3996 529.11152,198.57553 530.8515,196.56102 531.12619,197.84289 531.40088,199.12477 532.31551,202.51265 534.42146,202.1464 536.52741,201.78014 535.88641,199.30704 538.63331,199.85641 541.3802,200.40579 539.09246,195.46116 542.75498,195.36959 546.4175,195.27803 545.40907,192.98975 547.24033,191.891 549.07159,190.79225 547.88247,190.79173 549.80529,189.96766 551.72811,189.14359 544.40188,183.55825 547.24033,181.4523 550.07878,179.34635 550.90366,170.46555 546.6002,166.6199 542.29674,162.77426 544.49439,160.66721 542.48001,158.46969 540.46562,156.27218 544.49344,155.6319 544.40188,153.43438 544.31032,151.23688 546.1428,150.50405 545.59343,148.85591 545.04405,147.20778 543.0291,145.83491 545.04349,143.72895 547.05787,141.623 549.71306,139.33392 549.16367,135.21358 548.6143,131.09325 547.88237,123.31068 549.71363,121.2963 551.54489,119.28191 550.5365,114.0622 552.82558,110.76592 555.11466,107.46966 546.60053,102.25061 551.17869,98.038715 555.75684,93.826817 556.39763,91.994888 552.46042,88.881745 548.52321,85.768603 549.25453,86.317981 547.05701,83.204838 544.85951,80.091696 538.81711,76.978742 536.43647,77.711247 534.05583,78.443751 527.92101,82.290209 527.82944,85.586478 527.73789,88.882746 523.15987,87.874934 523.70926,92.086833 524.25863,96.298733 521.60327,107.01242 525.08265,108.47743 528.56205,109.94244 530.30179,107.74368 529.38616,115.80123 528.47052,123.85877 529.02049,134.29734 529.93611,138.87549 530.85175,143.45364 529.29521,147.75795 525.72426,148.21578 522.15329,148.67359 518.12314,151.23607 514.46062,148.39761 510.7981,145.55917 506.22024,143.08733 506.22024,143.08733 506.22024,143.08733 511.98938,143.36166 515.37721,145.55917 518.76505,147.75668 525.99795,146.20115 526.18108,143.72895 526.3642,141.25674 526.2734,117.54107 526.91434,114.51949 527.55528,111.49791 521.51184,111.95601 520.96246,109.11755 520.41309,106.2791 517.66575,93.093645 519.13077,88.881745 520.59578,84.669847 524.62487,77.161868 526.5477,74.872793 528.47052,72.583717 521.78695,64.892471 522.79415,62.14558 523.80134,59.39869 520.77948,52.165878 514.00381,51.433374 507.22815,50.700869 485.34448,50.426276 479.8507,51.525032 474.35692,52.623788 470.14531,51.066787 468.77186,49.693343 467.39843,48.319897 457.87581,50.975128 455.95299,52.440138 454.03016,53.905146 452.9313,54.912482 453.02288,56.835306 453.11444,58.75813 453.2062,81.923098 453.2062,81.923098 L 451.19119,81.923098 451.19119,54.455144 452.83957,54.546802 452.93122,45.756466 C 452.93122,45.756466 469.0465,45.023962 470.14526,45.756466 471.24402,46.48897 471.79288,49.510311 473.89882,49.785 476.00477,50.059689 479.1174,50.792527 480.49083,48.686578 481.86428,46.580629 482.04774,46.396596 485.06933,46.396596 488.0909,46.396596 513.0878,45.389308 513.63717,46.304938 514.18655,47.220568 519.22248,48.870038 520.68748,47.588156 522.15249,46.306273 521.51126,44.932732 523.25096,44.658043 524.99067,44.383354 523.70849,39.163975 525.81444,38.70616 527.92039,38.248345 535.33762,33.486114 536.3448,29.274215 537.352,25.062316 536.71077,21.766237 533.23138,15.265262 529.75198,8.7642883 530.48458,-16.872838 530.48458,-16.872838 530.48458,-16.872838 541.92949,-49.168024 540.54039,-49.129202 Z M 444.7825,54.8203 447.48347,54.911957 447.48347,82.014757 444.96433,82.198074 C 444.96433,82.198074 444.96539,85.951634 443.13412,85.951634 441.30287,85.951634 430.40576,84.67037 429.30701,87.966639 428.20826,91.262909 428.30025,92.636783 428.30025,92.636783 L 410.99455,92.820101 411.26952,90.255143 425.46179,90.164963 C 425.46179,90.164963 424.72905,85.860404 426.65187,84.853211 428.57469,83.846017 427.65888,82.839777 432.14546,82.931341 436.63205,83.022903 442.85924,82.83992 442.9508,78.811148 443.04236,74.782374 442.7675,69.654178 442.7675,69.654178 442.7675,69.654178 445.78926,69.836636 445.78926,69.012569 445.78926,68.188501 444.7825,54.8203 444.7825,54.8203 Z M 515.37721,198.80383 518.84545,198.80383 518.84545,202.41989 515.37721,202.32824 515.37721,198.80383 Z M 518.84545,204.48074 521.23743,204.48074 521.23743,209.92849 515.37721,209.83684 515.37721,207.77748 518.84545,207.77748 518.84545,204.48074 Z M 189.55524,205.71221 C 189.73921,205.70775 189.91557,205.71201 190.07414,205.7196 190.49701,205.73984 190.79703,205.78908 190.79706,205.78908 192.35094,205.91857 193.51664,207.47282 193.38715,209.0267 193.25765,210.58057 189.37292,211.74589 187.68954,208.37917 186.58483,206.16975 188.26737,205.74343 189.55524,205.71221 Z M 423.61975,208.24907 432.42487,208.24907 432.68359,211.22797 423.35956,210.70906 423.61975,208.24907 Z M 515.37721,217.34543 518.84545,217.34543 518.84545,223.84578 520.93437,223.84578 520.93437,228.37844 515.37721,228.37844 515.37721,217.34543 Z M 412.02053,217.91904 C 412.32526,217.88897 412.54051,217.97783 412.61336,218.22062 413.00183,219.51552 419.54095,219.12686 419.54095,219.12686 L 419.54095,226.05446 431.2274,226.05446 431.2274,229.74445 420.25205,229.74445 420.25205,244.11855 431.2274,244.11855 431.2274,241.2047 434.23734,241.2047 434.23734,244.11855 446.47374,244.11855 446.47374,248.58468 434.23734,248.58468 434.23734,264.05869 440.06504,264.05869 440.06504,253.11734 450.94135,253.11734 450.94135,239.52086 454.82648,239.52086 C 455.08546,259.46226 463.50223,254.47771 462.07785,262.1176 460.65346,269.75749 435.14311,285.94363 428.40965,287.36802 421.67618,288.79241 402.38322,273.12391 395.77925,269.62768 389.17527,266.13147 359.13274,268.59127 351.36336,272.99391 343.59397,277.39656 345.40805,285.29609 338.67459,291.77058 331.94112,298.24506 340.87475,299.92814 336.21312,302.12946 331.55149,304.33078 324.30049,319.02713 324.30049,319.02713 L 317.89031,319.02713 317.89031,228.4494 C 317.89031,228.4494 324.81815,227.80204 329.60928,224.04685 334.4004,220.29164 339.32179,221.19906 346.83219,222.36447 354.34259,223.52988 366.3841,234.92456 371.56368,234.2771 376.74327,233.62965 382.8299,225.47184 384.64275,224.17694 386.45561,222.88205 393.83678,228.19077 397.33302,228.83821 400.82923,229.48566 398.62801,225.21205 400.82933,224.95308 403.03067,224.6941 406.26742,223.918 407.04436,221.97566 407.67563,220.39751 410.70006,218.04931 412.02053,217.91904 Z M 515.37721,231.44605 521.23743,231.44605 521.23743,233.46106 524.52235,233.46106 524.52235,237.26044 515.37721,237.26044 515.37721,231.44605 Z M 515.37721,246.92005 521.23743,246.92005 521.23743,250.17097 515.37721,250.17097 515.37721,246.92005 Z M 515.37721,253.23857 521.23743,253.23857 521.23743,258.6405 524.53269,258.6405 524.71602,264.13409 515.37721,263.76746 515.37721,253.23857 Z M 386.35766,275.37703 C 387.58946,275.37274 390.5075,275.51056 394.14714,276.67799 398.99998,278.23456 395.42874,284.00389 393.87217,286.01827 392.31559,288.03266 390.76011,283.17882 390.66856,280.79818 390.57699,278.41755 384.16701,279.88227 381.60325,277.68475 379.03948,275.48724 385.72344,275.39625 385.72344,275.39625 385.72344,275.39625 385.94705,275.37846 386.35766,275.37703 Z M 355.73487,287.35915 C 355.93087,287.34484 356.05717,287.39168 356.05717,287.39168 356.05717,287.39168 367.13644,287.11702 368.96769,288.85673 370.79895,290.59643 370.5243,295.44846 370.43274,298.01222 370.34118,300.57599 366.3116,300.21021 362.55752,301.30897 358.80344,302.40771 358.43761,301.39953 355.87384,298.92732 353.31008,296.45512 353.12752,297.27933 353.58534,291.96868 353.92871,287.98568 355.14688,287.40207 355.73487,287.35915 Z M 66.775851,289.11397 C 67.728088,289.02232 68.761526,291.81025 72.443889,292.54672 76.976027,293.45314 77.752685,297.53323 77.752685,297.53323 L 71.407557,297.53323 71.407557,294.29563 62.472342,294.29563 62.472342,292.93554 C 62.472341,292.93552 64.803865,291.76974 66.098762,289.69792 66.341555,289.30945 66.556105,289.13511 66.775851,289.11397 Z M 389.34542,291.12454 C 390.74247,291.12454 390.70171,291.5462 390.94206,294.35032 391.21674,297.55503 398.35871,300.66717 400.92247,303.32249 403.48623,305.97782 397.99366,306.06938 394.97207,306.16095 391.9505,306.25251 396.16123,303.78084 393.87217,302.40739 391.58308,301.03395 391.6746,298.10397 389.56865,295.35708 387.46271,292.61019 386.73101,298.46998 383.25162,299.38562 379.77222,300.30125 380.32154,298.83667 381.78656,295.5404 383.25156,292.24413 388.65355,291.14523 388.65355,291.14523 388.91679,291.13379 389.14584,291.12454 389.34542,291.12454 Z M 148.9062,292.93554 148.9062,300.12184 140.81366,300.12184 C 139.76968,300.12184 145.34543,297.4677 145.47493,295.78433 145.60442,294.10097 148.9062,292.93554 148.9062,292.93554 Z M 491.7116,296.39489 C 486.70854,296.4427 481.50111,298.60126 483.83193,308.21588 487.9756,325.3085 491.34194,331.52329 498.59337,330.48738 505.84479,329.45146 507.65765,328.67406 511.54235,323.75345 515.42702,318.83285 527.08154,325.56748 528.37644,321.16484 529.67133,316.76219 536.66376,303.81222 525.52764,301.99936 514.39153,300.1865 502.99671,300.1866 499.37099,297.5968 499.37099,297.5968 495.60287,296.35772 491.7116,296.39489 Z M 109.60694,296.82066 C 109.60694,296.82066 110.12424,297.20886 111.67812,297.07937 113.232,296.94988 113.74991,298.11491 113.8794,298.89185 114.00889,299.66879 126.24588,298.37441 126.24588,298.37441 L 126.24588,300.44561 110.12437,300.44561 C 110.12437,300.44561 110.08247,299.72216 110.18054,298.86819 110.29286,297.89009 109.60694,296.82066 109.60694,296.82066 Z"
       class="LAND"
     id="path6156"
     inkscape:connector-curvature="0" />
  <path
     style="fill:#679363;fill-opacity:1;fill-rule:evenodd;stroke:none;stroke-width:1px;stroke-linecap:butt;stroke-linejoin:miter;stroke-opacity:1"
     d="M 201.80346,90.154614 C 197.91878,90.154614 153.63253,99.996065 153.63253,99.996065 L 153.37382,175.61868 C 153.37382,175.61868 143.53364,195.30065 168.13673,194.78268 192.73976,194.26473 208.53698,191.67407 220.45003,176.91225 232.36308,162.15042 245.57108,152.56849 239.0966,140.65544 232.62211,128.74239 235.98888,120.71421 228.99643,105.95238 222.00399,91.190561 205.68815,90.154614 201.80346,90.154614 Z M 255.67051,94.815887 C 250.49093,94.815887 246.34838,95.463632 247.38429,97.405977 249.45613,101.29067 259.29679,99.996013 258.00188,107.24743 256.70699,114.49885 254.11773,129.26126 257.48446,138.32554 260.8512,147.38982 260.59233,162.15037 255.93071,171.21464 251.26907,180.27892 255.67059,203.58768 251.26795,205.14155 246.8653,206.69543 239.09598,207.73212 244.01658,214.46559 248.9372,221.19904 249.19661,222.75216 247.90172,231.03949 246.60682,239.32684 255.41271,233.11148 253.0819,242.4347 250.75109,251.75796 259.29619,263.6703 252.8217,264.70621 246.34722,265.74213 251.00951,270.66304 250.75053,280.24527 250.58211,286.47686 246.37237,291.49524 244.01068,295.31716 L 246.73086,294.80713 C 246.73086,294.80713 241.96992,300.30077 245.63243,301.76578 249.29496,303.23079 250.02709,302.49885 256.61962,296.63883 263.21215,290.77878 263.9447,292.97564 269.43849,287.48186 274.93227,281.98808 274.56554,281.62218 277.49556,275.02961 280.42557,268.43708 254.05566,239.50421 273.46702,239.13796 292.8784,238.7717 264.31158,224.85382 277.13041,218.99381 289.94923,213.13378 263.21244,197.01786 276.76377,194.08785 290.31509,191.15784 298.73809,204.71016 297.27308,213.50021 296.00329,221.11898 303.5313,227.07855 307.23132,228.53367 308.26921,227.89538 308.76143,227.41456 308.76143,227.41456 308.76143,227.41456 310.05738,218.8674 307.72657,212.39292 305.39575,205.91843 306.68935,203.58701 311.86894,204.36395 317.04852,205.14088 322.74608,208.24916 324.8179,203.84652 326.88974,199.44386 324.8179,191.67516 337.76687,191.67516 350.71584,191.67516 355.89679,194.26384 352.27108,187.01241 348.64537,179.76099 343.46453,172.76852 349.16208,171.21464 354.85963,169.66077 357.70887,170.69748 368.84498,170.4385 379.9811,170.17953 378.42778,164.74149 384.12534,169.92108 389.82287,175.10067 397.33343,175.35872 398.36934,172.25098 399.40526,169.14322 405.6202,173.54644 408.98693,174.58235 412.35366,175.61827 414.684,177.94875 415.20197,169.14346 415.71992,160.33816 411.05818,146.6127 416.75572,147.13066 422.45326,147.64862 431.51766,150.23758 428.15093,145.058 424.7842,139.87841 418.3103,142.46812 420.38215,136.51159 422.45397,130.55506 424.52578,122.5271 417.53334,121.75015 410.5409,120.97322 418.05047,114.75735 402.51171,113.46246 386.97296,112.16756 272.50461,108.02504 272.50461,108.02504 L 268.87967,103.36229 C 268.87967,103.36229 276.39021,97.405829 270.17471,96.110932 267.06697,95.463484 260.85009,94.815887 255.67051,94.815887 Z M 388.83834,189.67938 C 388.71925,189.67765 388.59613,189.68124 388.47023,189.69268 384.44146,190.05894 389.20269,200.31442 387.00518,202.87818 384.80766,205.44196 374.18717,205.44243 366.49587,206.17493 358.80457,206.90744 350.74612,208.00567 350.01361,201.41313 349.28111,194.82059 345.61902,197.01896 340.49149,205.07652 337.89654,209.15429 335.96339,215.94021 334.68153,221.66077 334.68642,221.65975 334.69143,221.65882 334.69631,221.65782 335.9617,221.39566 337.28745,221.31904 338.70563,221.36953 338.70966,221.36967 338.71343,221.36939 338.71745,221.36953 338.72337,221.36974 338.72928,221.37079 338.7352,221.37101 339.07723,221.38359 339.43278,221.41003 339.78631,221.43606 340.28797,221.47253 340.80243,221.51882 341.32972,221.57799 341.54348,221.60216 341.76043,221.62606 341.97873,221.65338 342.52704,221.72153 343.10119,221.80128 343.68032,221.88548 344.68482,222.03219 345.72258,222.19229 346.83219,222.36447 354.34259,223.52988 366.3841,234.92456 371.56368,234.2771 376.74327,233.62965 382.8299,225.47184 384.64275,224.17694 386.45561,222.88205 393.83678,228.19077 397.33302,228.83821 400.82923,229.48566 398.62801,225.21205 400.82933,224.95308 403.03067,224.6941 406.26742,223.918 407.04436,221.97566 407.08936,221.86317 407.1495,221.746 407.21733,221.62676 407.23843,221.5897 407.2637,221.552 407.28682,221.51441 407.33028,221.4437 407.3771,221.37225 407.42726,221.30005 407.55566,221.11529 407.70101,220.92773 407.86634,220.73827 407.90595,220.69284 407.94914,220.6492 407.99051,220.60374 408.09852,220.48519 408.21513,220.3693 408.3335,220.25189 408.51187,220.07478 408.69732,219.90541 408.89232,219.73594 408.9749,219.66417 409.05174,219.59268 409.13625,219.52306 409.39248,219.31181 409.65321,219.11318 409.91534,218.93024 409.93881,218.91387 409.96139,218.89458 409.98483,218.87849 410.27695,218.67787 410.56218,218.50357 410.83636,218.35664 411.02778,218.254 411.21082,218.16702 411.38336,218.09792 411.47178,218.06255 411.55881,218.03157 411.64059,218.00626 411.66221,217.99955 411.68454,217.99153 411.70564,217.98556 411.81799,217.95383 411.9246,217.9285 412.02053,217.91904 412.11372,217.90985 412.19543,217.91534 412.27037,217.92938 412.28955,217.93293 412.30575,217.9405 412.32359,217.94565 412.3759,217.96086 412.42242,217.98264 412.46257,218.01217 412.47733,218.02303 412.49243,218.0333 412.50544,218.04617 412.55226,218.09248 412.59126,218.14697 412.61336,218.22062 413.00183,219.51552 419.54095,219.12686 419.54095,219.12686 L 419.54095,220.64957 C 421.66534,218.56234 423.67501,216.62018 424.73001,215.69706 425.68435,214.862 425.42364,213.04709 424.55112,210.77559 L 423.35956,210.70906 423.58723,208.55954 C 421.47136,204.13691 417.98775,198.76083 416.30629,195.18775 413.37629,188.96146 408.98001,195.91954 400.92247,195.91954 393.11672,195.91954 392.53021,189.73308 388.83834,189.67938 Z M 451.87715,190.75267 C 448.99936,190.77251 446.68229,191.39862 446.06424,193.08108 444.41611,197.56768 434.70994,205.80883 439.92904,213.40856 445.14813,221.00828 449.17694,217.62007 452.74791,221.55728 456.31887,225.49449 456.40991,231.07979 462.17837,225.76914 467.94685,220.45849 466.8478,219.45062 481.77258,219.45062 496.69735,219.45062 494.13473,217.16193 499.9032,222.65571 505.67167,228.1495 514.00342,235.20008 499.4449,235.65789 484.88639,236.11572 461.53772,233.00266 459.6149,241.42646 458.74934,245.21841 457.71462,248.48923 456.64043,251.41279 456.6419,251.41648 456.6434,251.41946 456.64486,251.42314 456.79258,251.79499 456.94598,252.13908 457.10316,252.46242 457.11293,252.48253 457.12292,252.50311 457.13273,252.52304 457.32189,252.90757 457.51709,253.25265 457.7152,253.57711 457.88981,253.86301 458.06643,254.12887 458.24446,254.37543 458.33565,254.5018 458.42651,254.62168 458.51795,254.7391 458.65056,254.90924 458.78366,255.07179 458.91563,255.22548 459.0085,255.33374 459.10159,255.44794 459.19357,255.54925 459.36913,255.74262 459.54265,255.92442 459.71248,256.09772 459.96928,256.3598 460.20557,256.59365 460.43981,256.82951 460.45212,256.84186 460.46604,256.85563 460.47825,256.86794 460.48014,256.86985 460.4823,256.87195 460.48418,256.87386 460.88225,257.27624 461.24164,257.67111 461.52642,258.09499 461.59435,258.19592 461.6606,258.29909 461.72008,258.40544 461.73726,258.4362 461.75688,258.4658 461.77331,258.4971 461.85232,258.64738 461.92124,258.80487 461.98175,258.97018 461.99869,259.01648 462.01221,259.06587 462.02758,259.11358 462.07125,259.2489 462.10801,259.39132 462.13846,259.53934 462.14934,259.59233 462.16189,259.64421 462.17098,259.69901 462.20272,259.88994 462.22428,260.09093 462.23307,260.30661 462.23519,260.35855 462.23235,260.4157 462.23307,260.46924 462.23559,260.65711 462.22941,260.85596 462.21385,261.06501 462.20897,261.1306 462.20434,261.19675 462.19759,261.26459 462.17096,261.53254 462.13491,261.81154 462.07785,262.1176 460.65346,269.75749 435.14311,285.94363 428.40965,287.36802 428.21553,287.40908 428.00907,287.43311 427.79465,287.44637 427.71225,287.4515 427.62417,287.44815 427.53889,287.44933 427.40171,287.45116 427.26342,287.45157 427.11904,287.44342 427.01736,287.43775 426.91222,287.42727 426.8071,287.4168 426.66418,287.40246 426.51858,287.38508 426.3695,287.3621 426.2634,287.34585 426.15635,287.3279 426.04722,287.30741 425.90279,287.28014 425.75472,287.24875 425.60519,287.21427 425.46887,287.18297 425.33312,287.15084 425.19273,287.11374 425.07777,287.08323 424.95847,287.0475 424.84088,287.01322 424.67987,286.96644 424.52172,286.92196 424.35598,286.86833 424.35512,286.86805 424.35389,286.86861 424.35302,286.86833 424.35162,286.86788 424.34999,286.86731 424.34858,286.86685 423.81683,286.69455 423.25951,286.48459 422.68395,286.24742 422.15142,286.02799 421.59656,285.77319 421.03262,285.50529 420.77544,285.38287 420.50895,285.24644 420.24613,285.11499 418.58313,284.28472 416.8247,283.29497 415.01718,282.19672 411.32787,282.6332 407.89616,282.72524 406.87435,282.07992 406.08725,281.58281 405.83595,278.92226 405.7848,276.16647 405.77565,276.16024 405.76882,276.15498 405.75967,276.14873 404.319,275.16641 403.04178,274.3005 401.75183,273.42707 400.91414,272.85913 400.0981,272.31054 399.35541,271.82305 398.93153,271.54507 398.51404,271.27287 398.12689,271.02769 397.87452,270.86774 397.61564,270.70188 397.38033,270.55757 397.24991,270.47763 397.12226,270.40025 396.99742,270.32547 396.56035,270.06359 396.14339,269.82046 395.77925,269.62768 389.17527,266.13147 359.13274,268.59127 351.36336,272.99391 343.59397,277.39656 345.40805,285.29609 338.67459,291.77058 331.94112,298.24506 340.87475,299.92814 336.21312,302.12946 336.07276,302.19574 335.92917,302.27485 335.78439,302.36303 335.75747,302.3793 335.73012,302.3993 335.70308,302.41627 335.58376,302.49176 335.46426,302.57252 335.34236,302.66167 335.14249,302.8062 334.93818,302.97545 334.73327,303.15248 334.6102,303.26007 334.48701,303.36944 334.36221,303.48807 331.19027,306.50311 327.5193,312.93812 325.61031,316.50652 325.56551,316.59124 325.50172,316.70709 325.45952,316.78741 325.16368,317.3503 324.92954,317.80698 324.77651,318.10906 329.55543,318.70422 351.78186,321.39318 354.40878,320.07972 357.3388,318.6147 349.6479,310.19087 354.77542,307.26085 359.90295,304.33085 362.83244,302.49837 372.72125,304.69589 382.61006,306.8934 385.54012,302.86549 385.54012,308.35927 385.54012,313.85305 383.70958,318.61466 396.16214,318.61466 408.61472,318.61466 456.59327,327.40414 460.9883,323.74162 465.38331,320.0791 458.05914,278.69261 464.65168,278.32636 471.24421,277.96011 505.30465,277.22823 513.36221,274.66446 521.41975,272.10069 525.08227,276.49557 524.71602,270.26929 524.57163,267.81456 523.62889,265.70777 522.54134,264.04835 L 515.37721,263.76746 515.37721,257.18283 C 513.78838,255.46077 512.31824,253.02135 512.63042,250.03348 513.27135,243.89876 512.72189,227.3251 512.53876,220.91568 512.35563,214.50627 515.92607,210.29556 513.45387,209.28836 510.98166,208.28118 494.95883,208.92216 492.8529,205.07652 490.74695,201.23086 485.71097,201.32213 478.66063,201.96308 471.61027,202.60402 469.87033,195.64542 465.65843,193.63103 463.026,192.37205 456.67348,190.71958 451.87715,190.75267 Z M 233.96077,204.08749 C 232.76224,204.09767 230.90599,204.94706 227.96011,205.40027 221.22664,206.43618 222.00414,217.3143 217.34252,221.71695 212.68089,226.11959 208.53763,217.57325 205.42988,218.86815 202.32212,220.16304 189.37177,217.31425 177.97671,216.01934 166.58161,214.72445 168.65439,219.12708 165.54664,226.11951 164.46598,228.55099 164.74747,230.88385 165.67379,233.02936 164.49176,233.31467 163.44259,234.47513 162.69784,236.99581 159.33111,248.3909 158.03539,254.08922 160.62518,259.2688 163.21498,264.44839 165.8057,269.62706 161.14408,274.54768 157.15923,278.7539 153.94345,285.98579 154.2224,292.20374 154.90006,292.43713 155.5337,293.10461 155.5337,294.80713 155.5337,298.46965 159.92889,295.17353 159.92887,299.2023 159.92887,303.23107 163.22538,307.99202 167.25415,300.30072 171.28293,292.60942 169.81815,290.77821 174.57943,290.41197 179.34071,290.04571 186.66531,281.62254 182.6365,275.39625 178.60772,269.16996 173.48029,266.24024 174.2128,261.47896 174.9453,256.71768 165.0574,247.92739 167.98742,242.79986 170.91744,237.67233 167.98618,233.27744 175.31122,235.84122 182.63626,238.40498 183.73583,245.36325 188.86336,242.43322 193.99089,239.50321 195.45552,243.1664 199.85054,240.23638 204.24557,237.30636 206.44375,244.63037 209.00751,242.06659 211.57127,239.50283 202.04896,263.30931 216.33279,279.05815 218.50768,283.79435 236.79616,304.21037 236.99881,296.43185 236.98227,292.45715 236.91294,286.04615 236.87463,282.55595 235.32986,281.16204 233.54126,279.14683 234.17513,271.69887 235.21105,259.52683 236.766,255.38385 233.14028,246.57854 229.51457,237.77325 236.50672,233.37032 230.55019,231.03949 224.59367,228.70868 236.76575,220.4214 236.2478,210.83917 235.95645,205.44915 235.50176,204.0744 233.96077,204.08749 Z M 386.35766,275.37703 C 387.58946,275.37274 390.5075,275.51056 394.14714,276.67799 398.99998,278.23456 395.42874,284.00389 393.87217,286.01827 392.31559,288.03266 390.76011,283.17882 390.66856,280.79818 390.57699,278.41755 384.16701,279.88227 381.60325,277.68475 379.03948,275.48724 385.72344,275.39625 385.72344,275.39625 385.72344,275.39625 385.94705,275.37846 386.35766,275.37703 Z M 355.73487,287.35915 C 355.83288,287.352 355.91386,287.35958 355.96993,287.36949 356.02601,287.37941 356.05717,287.39168 356.05717,287.39168 356.05717,287.39168 367.13644,287.11702 368.96769,288.85673 370.79895,290.59643 370.5243,295.44846 370.43274,298.01222 370.34118,300.57599 366.3116,300.21021 362.55752,301.30897 358.80344,302.40771 358.43761,301.39953 355.87384,298.92732 353.31008,296.45512 353.12752,297.27933 353.58534,291.96868 353.92871,287.98568 355.14688,287.40207 355.73487,287.35915 Z M 389.34542,291.12454 C 390.74247,291.12454 390.70171,291.5462 390.94206,294.35032 391.21674,297.55503 398.35871,300.66717 400.92247,303.32249 403.48623,305.97782 397.99366,306.06938 394.97207,306.16095 391.9505,306.25251 396.16123,303.78084 393.87217,302.40739 391.58308,301.03395 391.6746,298.10397 389.56865,295.35708 387.46271,292.61019 386.73101,298.46998 383.25162,299.38562 379.77222,300.30125 380.32154,298.83667 381.78656,295.5404 383.25156,292.24413 388.65355,291.14523 388.65355,291.14523 388.91679,291.13379 389.14584,291.12454 389.34542,291.12454 Z M 491.7116,296.39489 C 486.70854,296.4427 481.50111,298.60126 483.83193,308.21588 487.9756,325.3085 491.34194,331.52329 498.59337,330.48738 505.84479,329.45146 507.65765,328.67406 511.54235,323.75345 515.42702,318.83285 527.08154,325.56748 528.37644,321.16484 529.67133,316.76219 536.66376,303.81222 525.52764,301.99936 514.39153,300.1865 502.99671,300.1866 499.37099,297.5968 499.37099,297.5968 495.60287,296.35772 491.7116,296.39489 Z M 474.46504,326.26518 C 458.44723,326.07634 428.57455,330.88301 413.74134,330.33363 393.96373,329.60112 386.63888,331.43306 374.18631,339.4906 366.83442,344.24771 368.29847,351.28561 370.72546,356.26705 376.65655,357.47048 376.74142,361.90798 381.51159,359.99992 387.00537,357.80241 389.56918,362.92993 394.33046,359.99992 399.09174,357.0699 399.45875,354.14084 406.41754,355.23959 413.37633,356.33833 417.4044,344.98423 429.85696,346.44925 442.30954,347.91426 448.16961,345.71612 454.02964,350.11115 459.88968,354.50617 454.76291,346.81479 466.11673,347.18104 477.47054,347.54729 489.55639,345.71661 485.52761,342.05408 481.86222,338.72191 476.0946,329.3489 475.90792,326.30214 475.43621,326.28622 474.96457,326.27108 474.46504,326.26518 Z"
       class="LAND"
     id="path6439"
     inkscape:connector-curvature="0" />
  <path
     style="fill:#986749;fill-opacity:1;fill-rule:evenodd;stroke:none;stroke-width:4;stroke-linecap:butt;stroke-linejoin:miter;stroke-opacity:1"
     d="M 69.142708,-46.806696 C 22.695082,-46.670518 0.07621495,-46.610812 -10.288167,-46.583464 -13.080978,-45.401184 -15.896603,-44.049368 -18.760656,-42.49432 -21.27019,-41.131756 -23.713834,-39.71576 -26.093329,-38.248462 L -25.39407,129.9935 -12.207083,262.60251 C -5.4889921,269.31161 1.6362469,275.83575 9.1685439,282.13461 11.735611,284.46833 13.369203,295.67042 18.970079,295.6705 24.570944,295.6705 43.941297,286.80286 49.075431,289.6033 54.209564,292.40373 62.378158,287.50339 67.745656,288.43687 69.311446,288.70918 70.535303,289.74306 71.663314,290.9974 72.613856,291.54065 73.514986,292.31768 74.384977,293.22824 76.215356,294.18111 77.076779,295.68957 77.461447,296.64769 78.594492,297.11229 79.901949,297.1943 81.513636,296.60335 88.514741,294.03627 90.382125,287.26998 98.316692,288.43687 106.25127,289.60371 104.61705,289.60329 109.05107,292.87048 111.18317,294.44148 112.40173,295.8995 113.99619,296.94337 114.46813,297.01927 114.9493,297.09906 115.49969,297.19913 118.55609,297.75484 120.80857,298.12678 122.65199,298.41434 130.29173,297.70193 130.90411,291.70966 137.28777,291.93764 143.82211,292.17102 140.08926,282.36841 141.72285,280.9682 143.35643,279.56796 143.35563,259.96614 145.68929,259.49943 148.02301,259.03269 151.05596,260.43311 151.28932,258.09942 151.5227,255.76572 150.59048,249.696 147.79005,249.22925 144.98959,248.7625 142.65631,246.42964 143.35644,235.46127 144.05651,224.4929 140.3224,221.22613 146.39004,221.22613 152.45766,221.22613 161.09192,219.59213 160.62518,224.02615 160.15844,228.46016 159.22517,232.66041 160.85876,234.99411 162.49234,237.32779 164.35826,239.42877 169.49239,234.06126 174.62653,228.69377 165.75975,222.15939 172.52747,219.35896 179.29519,216.55854 184.89689,213.05901 183.26333,209.09174 181.62973,205.12444 171.35893,198.58882 167.39164,199.52231 163.42437,200.45578 157.35759,198.35694 158.52443,194.62302 159.69127,190.8891 159.2254,187.15427 162.72593,187.15433 166.22648,187.15433 160.15948,177.11984 166.69384,174.55278 173.22819,171.98571 198.19858,162.41731 197.49847,154.71613 196.79836,147.01493 201.93227,125.77762 195.63129,119.71001 189.33031,113.6424 169.96083,108.04192 182.79616,98.940516 189.97249,93.851876 202.22441,99.420138 211.41281,96.755497 220.97221,93.983258 234.79535,92.242057 237.78382,82.748024 239.2035,78.237838 232.15886,74.771384 231.32633,70.116905 230.61382,66.133378 226.58901,63.182169 232.7633,58.062346 238.93759,52.942523 261.83806,53.567037 268.66531,60.492772 275.49254,67.418507 265.62922,78.851942 269.85686,82.826377 274.08451,86.800813 280.58162,84.762741 282.30615,82.721414 284.03067,80.680087 282.06388,81.126955 284.45569,78.275981 286.84749,75.425007 296.78689,76.3465 300.47816,78.895414 304.16944,81.444327 301.15214,85.222076 303.256,86.579936 305.35985,87.937798 308.53218,84.689578 310.08899,86.047727 311.64582,87.405875 308.66019,89.933292 310.41276,91.579755 312.16531,93.226218 319.2977,91.544274 319.2977,91.544274 319.2977,91.544274 321.71047,94.945983 322.35791,94.945983 323.00536,94.945983 328.7027,96.369882 328.31423,93.26213 327.92575,90.154378 326.24368,83.032742 329.22195,82.903252 332.2002,82.773762 339.58029,81.479014 340.09824,84.198297 340.61621,86.91758 338.67386,89.118726 340.09824,93.003417 341.52263,96.888106 345.148,101.16196 339.70944,101.67992 334.27087,102.19787 317.30747,103.10328 316.91902,100.51349 316.53055,97.923693 313.03514,92.356338 311.0928,96.241028 309.15045,100.12572 312.2588,103.88106 303.32402,102.58615 294.38922,101.29125 285.7123,99.607598 280.6622,99.996065 275.61211,100.38453 283.25186,88.859763 279.36717,87.953334 275.48248,87.046907 267.97256,84.975516 268.10205,91.838468 268.23154,98.701423 260.20277,108.80097 267.06572,114.75751 273.92866,120.71402 300.86365,137.28891 323.52434,134.69912 346.18503,132.10932 388.91547,140.78529 393.70659,130.94408 398.4977,121.10287 421.93515,120.58459 420.51076,112.55623 419.08638,104.52786 419.34582,100.25553 414.29573,101.67992 409.24563,103.10431 406.26698,105.69379 403.15923,104.13991 400.05147,102.58604 398.10989,103.49261 391.63541,105.43495 385.16092,107.3773 384.90248,99.348465 378.16902,98.70102 371.43555,98.053575 351.49399,100.51467 350.97603,97.924883 350.45808,95.335088 349.68037,89.895901 352.3997,89.895901 355.11898,89.895901 359.00388,91.450044 359.39235,89.637189 359.78082,87.824334 357.19074,86.917343 364.70114,87.305812 372.21154,87.694281 388.39751,86.917992 393.70659,85.234627 399.01566,83.551262 408.7275,82.903548 410.15188,85.493341 411.26218,87.512048 410.49105,89.290932 411.25917,90.346802 L 411.26952,90.255143 425.46179,90.164963 C 425.46179,90.164963 424.72905,85.860404 426.65187,84.853211 428.57469,83.846017 427.65888,82.839777 432.14546,82.931341 436.63205,83.022903 442.85924,82.83992 442.9508,78.811148 443.04236,74.782374 442.7675,69.654178 442.7675,69.654178 442.7675,69.654178 442.9244,69.659462 443.01437,69.663048 L 439.93495,37.063701 470.75286,37.193797 C 470.75286,37.193797 473.21328,37.194181 474.24919,35.381325 475.28511,33.56847 478.13394,33.82677 479.9468,34.603707 481.75966,35.380646 482.01838,33.697546 488.1044,34.344994 494.19041,34.992443 506.23376,33.178641 513.22619,33.826088 517.8168,34.251146 524.80315,35.947166 529.10231,37.071092 532.02965,35.224543 535.65992,32.138304 536.3448,29.274215 537.352,25.062316 536.71077,21.766237 533.23138,15.265262 529.75198,8.7642883 530.48458,-16.872838 530.48458,-16.872838 530.48458,-16.872838 532.44726,-22.428971 534.64174,-28.894871 L 325.16089,-30.818215 211.41281,-22.668015 C 144.90845,-29.765096 101.50434,-40.189184 69.142708,-46.806696 Z M 467.24324,49.311925 C 465.8573,49.295415 463.81385,49.679942 461.81914,50.204855 459.01442,52.417548 455.36133,55.807001 455.60262,58.300362 455.99109,62.314542 456.12123,76.429538 458.58152,79.27831 461.04182,82.127083 457.28663,86.658733 458.58152,90.543423 459.87641,94.428113 461.8186,95.981162 462.33656,101.41973 462.85452,106.8583 467.25682,101.55033 466.99784,111.13256 466.99784,111.13256 468.55167,113.85097 469.19911,111.26118 469.84657,108.67138 469.97673,106.98872 469.97673,106.98872 469.97673,106.98872 477.48681,106.21091 477.48681,107.11733 477.48681,108.02376 478.65191,110.48503 479.9468,110.48503 481.2417,110.48503 480.46525,113.72238 481.63065,113.98136 482.79606,114.24034 482.92506,110.48417 484.99688,110.61365 487.06871,110.74314 489.27082,110.09693 489.27082,105.82376 489.27082,101.55061 492.50784,102.58516 492.37834,104.26853 492.24886,105.9519 494.44952,105.04542 494.44952,106.46981 494.44952,107.8942 493.93285,111.13242 495.35724,109.83752 496.78163,108.54262 496.00349,107.37745 497.94585,106.73 499.88818,106.08255 499.11227,104.00982 499.11227,104.00982 L 514.13243,103.7511 C 514.13243,103.7511 513.61514,110.22519 514.91004,110.61365 516.20493,111.00212 517.24009,107.11854 518.53499,107.37753 519.30039,107.5306 520.07537,107.41305 520.61061,107.2903 519.74224,102.84045 517.84343,92.582838 519.13077,88.881745 520.59578,84.669847 524.62487,77.161868 526.5477,74.872793 528.47052,72.583717 521.78695,64.892471 522.79415,62.14558 523.80134,59.39869 520.77948,52.165878 514.00381,51.433374 507.22815,50.700869 485.34448,50.426276 479.8507,51.525032 474.35692,52.623788 470.14531,51.066787 468.77186,49.693343 468.51435,49.435821 467.96994,49.320581 467.24324,49.311925 Z M 537.48611,77.609239 C 537.08875,77.588143 536.73405,77.619684 536.43647,77.711247 534.05583,78.443751 527.92101,82.290209 527.82944,85.586478 527.73789,88.882746 523.15987,87.874934 523.70926,92.086833 524.25863,96.298733 521.60327,107.01242 525.08265,108.47743 528.56205,109.94244 530.30179,107.74368 529.38616,115.80123 528.47052,123.85877 529.02049,134.29734 529.93611,138.87549 530.85175,143.45364 529.29521,147.75795 525.72426,148.21578 522.15329,148.67359 518.12314,151.23607 514.46062,148.39761 510.7981,145.55917 506.22024,143.08733 506.22024,143.08733 506.22024,143.08733 511.98938,143.36166 515.37721,145.55917 518.76505,147.75668 525.99795,146.20115 526.18108,143.72895 526.2407,142.92395 526.27491,139.62106 526.31117,135.75911 524.84878,134.27239 522.35552,132.48501 518.53499,131.98041 511.67203,131.07399 512.19001,129.39011 513.4849,127.44776 514.7798,125.50541 518.0179,127.70712 518.40637,125.63529 518.79484,123.56345 519.05337,116.57085 516.72252,116.44136 514.3917,116.31186 513.22679,120.19635 513.35629,122.39768 513.35629,122.39768 493.28401,123.69284 490.9532,122.13896 488.62239,120.58508 487.32888,116.0528 482.40827,120.84392 477.48767,125.63504 469.97718,122.65605 468.81178,122.26758 467.64637,121.87911 469.97704,119.16044 467.51674,117.34759 465.05643,115.53474 460.39426,113.33353 460.13528,115.79383 459.8763,118.25414 454.17902,124.59837 459.87657,127.31766 465.57411,130.03694 473.21419,143.37575 471.9193,149.72074 470.6244,156.06575 473.861,166.81205 468.9404,169.01336 464.01979,171.21469 460.91292,176.78325 463.7617,178.5961 466.61047,180.40896 467.77452,173.41634 475.15543,174.45225 482.53634,175.48817 500.27701,178.98542 506.23354,175.61868 512.19006,172.25195 514.52059,173.41658 516.59242,171.34474 518.66426,169.2729 516.46396,167.33118 512.70876,166.42475 508.95356,165.51833 509.21126,158.6555 511.80105,159.8209 514.39084,160.98632 510.89485,163.70491 513.74362,164.09337 516.59239,164.48185 525.52702,164.87104 525.39755,162.66971 525.26806,160.46839 523.19664,157.10167 526.43387,157.61963 529.67112,158.13759 530.5775,164.22271 528.63515,167.84842 526.69281,171.47413 530.57794,185.19956 532.52029,187.01241 534.46264,188.82527 524.75006,193.09958 522.54874,194.52397 520.40821,195.90902 519.50055,198.15035 521.23743,200.05895 L 521.23743,198.48302 C 521.23743,198.48302 526.91401,200.22367 528.01276,199.3996 529.11152,198.57553 530.8515,196.56102 531.12619,197.84289 531.40088,199.12477 532.31551,202.51265 534.42146,202.1464 536.52741,201.78014 535.88641,199.30704 538.63331,199.85641 541.3802,200.40579 539.09246,195.46116 542.75498,195.36959 546.4175,195.27803 545.40907,192.98975 547.24033,191.891 549.07159,190.79225 547.88247,190.79173 549.80529,189.96766 551.72811,189.14359 544.40188,183.55825 547.24033,181.4523 550.07878,179.34635 550.90366,170.46555 546.6002,166.6199 542.29674,162.77426 544.49439,160.66721 542.48001,158.46969 540.46562,156.27218 544.49344,155.6319 544.40188,153.43438 544.31032,151.23688 546.1428,150.50405 545.59343,148.85591 545.04405,147.20778 543.0291,145.83491 545.04349,143.72895 547.05787,141.623 549.71306,139.33392 549.16367,135.21358 548.6143,131.09325 547.88237,123.31068 549.71363,121.2963 551.54489,119.28191 550.5365,114.0622 552.82558,110.76592 555.11466,107.46966 546.60053,102.25061 551.17869,98.038715 555.75684,93.826817 556.39763,91.994888 552.46042,88.881745 548.52321,85.768603 549.25453,86.317981 547.05701,83.204838 545.13419,80.480838 540.26754,77.75692 537.48611,77.609239 Z M 122.09317,186.00861 C 132.65632,186.07015 141.95643,187.32894 141.95643,189.95435 141.95643,194.155 131.68816,206.75761 125.62053,208.62458 119.55293,210.49153 92.949589,220.75937 84.08155,216.32536 75.213497,211.89132 58.876124,213.28965 59.576231,209.32236 60.276339,205.35507 60.043401,202.44006 61.676983,200.22305 63.310562,198.00605 66.576692,196.2562 67.043435,190.88868 67.51019,185.52118 88.747268,189.25465 103.44956,187.15433 108.96293,186.3667 115.75526,185.97169 122.09317,186.00861 Z M 214.33405,196.79177 C 211.72698,196.92472 211.12601,198.92654 211.12601,198.92654 211.12601,198.92654 205.94692,199.44413 207.75977,203.5878 209.57263,207.73147 206.98376,210.06158 205.42988,212.91035 203.876,215.75913 204.91099,223.52863 207.75977,224.30556 210.60854,225.08249 217.85971,232.33392 220.96745,224.30556 224.07521,216.2772 219.15442,212.13363 216.82361,206.95403 214.4928,201.77443 219.15575,197.37183 215.53004,196.85386 215.30344,196.8215 215.08738,196.80126 214.88252,196.79177 214.69046,196.78288 214.50785,196.7829 214.33405,196.79177 Z M 390.21322,269.89083 C 384.12063,269.906 377.94249,270.4037 373.76646,271.95758 362.63033,276.10124 367.54997,278.17412 370.39874,281.02289 373.24752,283.87167 364.18389,283.87173 368.32756,286.7205 372.47123,289.56927 372.47014,286.97854 379.46257,286.20159 383.47336,285.75595 385.69857,288.54788 388.03708,291.30341 388.32629,291.22772 388.65355,291.14523 388.65355,291.14523 388.91679,291.13379 389.14584,291.12454 389.34542,291.12454 389.53956,291.12454 389.70041,291.13699 389.84363,291.15854 389.85938,291.16094 389.87131,291.16615 389.88651,291.16888 390.00589,291.19014 390.11138,291.22239 390.19992,291.26794 390.26419,291.30116 390.32506,291.33867 390.37584,291.38768 390.39543,291.40667 390.41274,291.43109 390.43055,291.45273 390.45987,291.48832 390.48393,291.53515 390.50889,291.57839 390.55023,291.6504 390.58832,291.73544 390.61977,291.83119 390.63596,291.88024 390.65296,291.93352 390.66708,291.98938 390.69516,292.1016 390.72193,292.23452 390.74396,292.3767 390.75159,292.42591 390.76046,292.47888 390.76761,292.53193 390.82677,292.97493 390.8732,293.54985 390.93762,294.30449 391.89981,295.09392 392.96359,295.72757 394.2255,296.04304 400.44101,297.59691 398.88698,291.12219 405.87941,299.15055 412.87186,307.17892 431.77685,310.5468 435.14358,306.66211 438.51031,302.77742 442.65475,296.04381 431.51864,292.4181 425.84469,290.57077 421.99373,287.38209 419.40199,284.69515 419.40138,284.69483 419.40111,284.69398 419.4005,284.69366 419.0836,284.528 418.75826,284.34815 418.43514,284.1718 418.10864,283.99367 417.78084,283.81264 417.44907,283.6248 417.12593,283.44173 416.80517,283.2603 416.47779,283.06894 416.33216,282.9839 416.18356,282.8938 416.03723,282.80728 415.16596,282.29158 414.28687,281.75357 413.39985,281.19586 413.21744,281.08132 413.03695,280.9687 412.85433,280.85288 411.95323,280.28072 411.0534,279.69891 410.15631,279.10694 410.0512,279.03766 409.94634,278.97084 409.84143,278.90144 408.91943,278.29089 408.00983,277.68074 407.11237,277.07271 405.19654,275.77634 403.40798,274.54942 401.73705,273.4182 401.2009,273.05475 400.7013,272.72307 400.20251,272.39075 398.80269,271.45889 397.52284,270.62947 396.50364,270.0431 396.50055,270.04132 396.49787,270.03896 396.49478,270.03719 394.465,269.94811 392.35515,269.8855 390.21322,269.89083 Z M 386.35766,275.37703 C 387.58946,275.37274 390.5075,275.51056 394.14714,276.67799 398.99998,278.23456 395.42874,284.00389 393.87217,286.01827 393.38574,286.64777 392.89894,286.60629 392.45738,286.17941 392.36905,286.09404 392.28304,285.99325 392.19866,285.87931 391.35489,284.73984 390.72578,282.28608 390.66856,280.79818 390.57699,278.41755 384.16701,279.88227 381.60325,277.68475 379.03948,275.48724 385.72344,275.39625 385.72344,275.39625 385.72344,275.39625 385.94705,275.37846 386.35766,275.37703 Z"
       class="LAND"
     id="path4222"
     inkscape:connector-curvature="0" />
  <path
     inkscape:connector-curvature="0"
     style="fill:#deeff0;fill-opacity:1;fill-rule:evenodd;stroke:none;stroke-width:4;stroke-linecap:butt;stroke-linejoin:miter;stroke-opacity:1"
     d="M 132.44063,95.365236 C 122.67141,95.695976 119.58049,106.31974 109.51643,115.50868 98.781426,125.31021 68.210317,136.74671 68.210317,136.74671 61.209224,150.04879 104.84935,171.98469 118.85152,168.48414 132.8537,164.98361 151.99061,159.14911 173.69399,161.01607 182.58801,161.78115 190.96841,155.21512 197.7674,147.20088 198.60834,137.66794 200.41686,124.31858 195.63098,119.70995 194.97427,119.07755 194.1522,118.45083 193.26284,117.8241 184.14414,116.10685 173.821,113.75527 166.22593,110.84208 149.18993,104.30773 145.92361,96.60555 134.4885,95.438709 133.77381,95.365787 133.09191,95.343186 132.44063,95.365236 Z"
     id="path4226"
     class="LAND"
     sodipodi:nodetypes="sscsscscsss" />
  <path
     style="fill:#c9b293;fill-opacity:1;fill-rule:evenodd;stroke:none;stroke-width:1px;stroke-linecap:butt;stroke-linejoin:miter;stroke-opacity:1"
     d="M 245.05292,308.99201 C 243.61809,309.06627 241.89226,311.44515 242.72154,312.61843 243.59172,313.84958 246.63203,313.00717 247.1241,311.5821 247.48494,310.53712 246.15696,308.93488 245.05292,308.99201 Z M 236.03935,314.40724 C 235.93701,314.40224 235.83442,314.40924 235.73037,314.4309 234.3546,314.7174 232.63736,316.15451 232.88157,317.53842 233.30428,319.93392 236.97537,321.40761 239.35531,320.90465 240.43694,320.67606 241.53493,319.41636 241.42797,318.31603 241.28575,316.85284 239.30561,316.24842 238.06027,315.46723 237.43006,315.07191 236.75577,314.44229 236.03935,314.40724 Z M 239.87274,325.5674 C 238.90781,325.54643 237.43873,325.90975 237.28413,326.86244 237.14724,327.70599 239.28168,327.84061 239.0966,328.67491 238.87776,329.66136 236.62182,328.77259 236.2478,329.71124 235.67617,331.1458 237.00536,333.04175 238.31899,333.85362 239.71422,334.71592 241.61078,334.03921 243.24045,333.85362 244.38479,333.72329 246.38156,334.207 246.60667,333.07747 246.89698,331.62091 243.79668,331.72905 242.98173,330.48738 242.30352,329.45407 242.93967,327.85575 242.20412,326.86244 241.67519,326.14817 240.76131,325.58671 239.87274,325.5674 Z M 247.38429,326.34354 C 246.71456,326.2658 245.963,327.23499 246.08924,327.8973 246.29178,328.95983 248.15966,330.20213 248.93805,329.45106 249.77151,328.64684 248.53476,326.47706 247.38429,326.34354 Z M 235.51601,335.057 C 234.15402,335.03181 232.84439,335.36608 232.62138,336.4437 232.34475,337.78031 234.65569,338.48329 235.98908,338.77508 237.44486,339.09365 239.94363,339.41875 240.39165,337.99746 240.75868,336.8331 238.97001,335.76263 237.80156,335.40885 237.16961,335.21751 236.33321,335.07211 235.51601,335.057 Z M 238.62353,343.42156 C 237.47028,343.48205 236.04191,344.20077 235.98908,345.24883 235.92998,346.4215 237.66487,347.26963 238.83788,347.32149 239.84363,347.36595 241.30497,346.76691 241.42797,345.76772 241.56223,344.67721 240.18627,343.57735 239.0966,343.43635 238.94793,343.41712 238.78828,343.41293 238.62353,343.42156 Z M 234.43533,351.98276 C 233.22036,351.81183 231.48446,353.09146 231.58653,354.31414 231.70233,355.70128 233.82032,356.43323 235.21147,356.38532 235.83361,356.3639 236.64849,355.96046 236.76522,355.34899 237.02116,354.00827 235.78696,352.17291 234.43533,351.98276 Z M 297.88955,365.4181 C 297.62899,365.41957 297.36773,365.42909 297.1075,365.44916 294.60108,365.64246 292.26618,366.80683 289.85614,367.52182 288.73046,367.85577 287.45789,367.89354 286.48991,368.55814 285.22282,369.42811 283.18666,370.71482 283.6411,372.18309 284.57753,375.20863 289.55931,374.66343 292.70494,375.03189 295.11179,375.31382 298.30431,372.74153 299.9563,374.51446 300.78857,375.40766 298.69785,377.1692 299.43887,378.13941 301.55118,380.90493 306.80048,381.20258 309.79775,379.43445 310.99896,378.72584 310.70224,376.78362 311.35152,375.54932 311.93113,374.44745 312.28628,372.94704 313.42418,372.4418 315.5777,371.48563 319.74515,375.73706 320.41535,373.47814 321.71187,369.10825 312.22544,369.45327 307.98529,367.78053 306.46164,367.17944 304.92137,366.58909 303.32402,366.22677 301.54231,365.82263 299.71349,365.4079 297.88955,365.4181 Z M 234.21357,369.95816 C 232.21032,370.00675 230.4525,370.58147 229.77257,372.18309 228.42321,375.36159 232.92431,378.87992 235.98908,380.47078 238.51868,381.78385 241.73886,381.27886 244.53549,380.7295 246.20404,380.40173 248.95072,380.34085 249.19676,378.65832 249.77257,374.72073 243.94377,372.03412 240.13293,370.88805 238.46669,370.38694 236.21682,369.90956 234.21357,369.95816 Z M 272.14241,371.87706 C 271.83104,371.87512 271.51915,371.89039 271.20956,371.92437 270.05828,372.05075 269.08036,372.85821 268.10205,373.47814 265.50547,375.1235 263.49448,377.60735 260.85069,379.17573 259.71983,379.8466 257.12072,379.41882 257.22574,380.7295 257.33945,382.14868 259.98415,382.1 261.36812,381.76583 262.26015,381.55044 262.56464,380.22628 263.44078,379.95336 265.59791,379.2814 267.92741,380.49616 270.17471,380.7295 275.77966,381.31148 282.84364,386.08031 287.00734,382.28325 287.6452,381.70157 287.54588,380.36785 287.00734,379.69316 285.79232,378.17102 283.16391,378.99412 281.30973,378.39812 279.61543,377.85352 276.26712,378.10237 276.38974,376.32694 276.48208,374.98997 279.97718,376.59727 280.27488,375.2906 280.45168,374.51461 279.16805,374.10212 278.46093,373.73685 276.52399,372.73631 274.32207,371.89072 272.14241,371.87706 Z M 360.8914,376.88428 C 358.73459,376.92123 356.84913,377.45143 356.67364,379.17573 356.42689,381.60032 360.99031,381.70291 363.4061,382.02453 365.30608,382.27749 367.84323,382.69093 369.10369,381.24693 369.50107,380.79167 369.39847,379.96196 369.10369,379.43445 368.46091,378.28414 367.03457,377.59546 365.73747,377.36327 364.41051,377.12574 362.56893,376.85554 360.8914,376.88428 Z"
       class="LAND"
     id="path6449"
     inkscape:connector-curvature="0" />
  <circle
     class="LANDMARK"
     style="opacity:1;fill:#000000;fill-opacity:1;stroke:#000000;stroke-width:0.20791896;stroke-opacity:1"
     id="mt-silver"
     cx="146.44809"
     cy="129.51689"
     locationid="82"
     r="6.3215175" />
</svg>
