<?xml version="1.0" encoding="UTF-8" standalone="no"?>
<!-- Created with Inkscape (http://www.inkscape.org/) -->

<svg
   xmlns:dc="http://purl.org/dc/elements/1.1/"
   xmlns:cc="http://creativecommons.org/ns#"
   xmlns:rdf="http://www.w3.org/1999/02/22-rdf-syntax-ns#"
   xmlns:svg="http://www.w3.org/2000/svg"
   xmlns="http://www.w3.org/2000/svg"
   xmlns:sodipodi="http://sodipodi.sourceforge.net/DTD/sodipodi-0.dtd"
   xmlns:inkscape="http://www.inkscape.org/namespaces/inkscape"
   width="790"
   height="790"
   viewBox="0 0 0 783.99994"
   id="svg14635"
   version="1.1"
   inkscape:version="0.91 r13725"
   sodipodi:docname="network.svg">
  <defs
     id="defs14637" />
  <sodipodi:namedview
     id="base"
     pagecolor="#ffffff"
     bordercolor="#666666"
     borderopacity="1.0"
     inkscape:pageopacity="0.0"
     inkscape:pageshadow="2"
     inkscape:zoom="0.68018013"
     inkscape:cx="573.43578"
     inkscape:cy="355.69475"
     inkscape:document-units="px"
     inkscape:current-layer="svg14635"
     showgrid="false"
     inkscape:window-width="1920"
     inkscape:window-height="957"
     inkscape:window-x="-4"
     inkscape:window-y="124"
     inkscape:window-maximized="0"
     fit-margin-top="0"
     fit-margin-left="0"
     fit-margin-right="0"
     fit-margin-bottom="0"
     units="px" />
  <metadata
     id="metadata14640">
    <rdf:RDF>
      <cc:Work
         rdf:about="">
        <dc:format>image/svg+xml</dc:format>
        <dc:type
           rdf:resource="http://purl.org/dc/dcmitype/StillImage" />
        <dc:title></dc:title>
      </cc:Work>
    </rdf:RDF>
  </metadata>
  <path
     style="opacity:1;fill:#ffffff;fill-opacity:1;stroke:none;stroke-width:5.25;stroke-miterlimit:4;stroke-dasharray:none;stroke-opacity:1"
     d="M 130,132.50001 130,147.50001 205,275.00001 130,162.50001 130,177.50001 205,290.00001 130,192.50001 130,207.50001 205,305.00001 130,222.50001 130,237.50001 205,320.00001 130,252.50001 130,267.50001 205,335.00001 130,282.50001 130,297.50001 205,350.00001 130,312.50001 130,327.50001 205,365.00001 130,342.50001 130,357.50001 205,380.00001 130,372.50001 130,387.50001 205,395.00001 130,402.50001 130,417.50001 205,410.00001 130,432.50001 130,447.50001 205,425.00001 130,462.50001 130,477.50001 205,440.00001 130,492.50001 130,507.50001 205,455.00001 130,522.50001 130,537.50001 205,470.00001 130,552.50001 130,567.50001 205,485.00001 130,582.50001 130,597.50001 205,500.00001 130,612.49998 130,627.49998 205,515.00001 130,642.49998 130,657.49998 280,402.50001 380,402.50001 380,387.50001 280,387.50001 Z"
     class="connection"
     id="path4211"
     inkscape:connector-curvature="0"
     sodipodi:nodetypes="cccccccccccccccccccccccccccccccccccccccccccccccccccccccccc" />
  <path
     style="opacity:1;fill:#a8a878;fill-opacity:1;stroke:none;stroke-width:5.25;stroke-miterlimit:4;stroke-dasharray:none;stroke-opacity:1"
     d="M 35,132.50088 130,132.50088 130,147.50088 35,147.50088 C 32.23,147.50088 30,145.27088 30,142.50088 L 30,137.50088 C 30,134.73088 32.23,132.50088 35,132.50088 Z"
     id="1-attack"
     class="bar"
     inkscape:connector-curvature="0"
     sodipodi:nodetypes="sccssss" />
  <path
     style="opacity:1;fill:#c03028;fill-opacity:1;stroke:none;stroke-width:5.25;stroke-miterlimit:4;stroke-dasharray:none;stroke-opacity:1"
     d="M 35,162.50087 130,162.50087 130,177.50087 35,177.50087 C 32.23,177.50087 30,175.27087 30,172.50087 L 30,167.50087 C 30,164.73087 32.23,162.50087 35,162.50087 Z"
     id="2-attack"
     class="bar"
     inkscape:connector-curvature="0"
     sodipodi:nodetypes="sccssss" />
  <path
     sodipodi:nodetypes="sccssss"
     inkscape:connector-curvature="0"
     id="3-attack"
     class="bar"
     d="M 35,192.50088 130,192.50088 130,207.50088 35,207.50088 C 32.23,207.50088 30,205.27088 30,202.50088 L 30,197.50088 C 30,194.73088 32.23,192.50088 35,192.50088 Z"
     style="opacity:1;fill:#a890f0;fill-opacity:1;stroke:none;stroke-width:5.25;stroke-miterlimit:4;stroke-dasharray:none;stroke-opacity:1" />
  <path
     style="opacity:1;fill:#a040a0;fill-opacity:1;stroke:none;stroke-width:5.25;stroke-miterlimit:4;stroke-dasharray:none;stroke-opacity:1"
     d="M 35,222.50088 130,222.50088 130,237.50088 35,237.50088 C 32.23,237.50088 30,235.27088 30,232.50088 L 30,227.50088 C 30,224.73088 32.23,222.50088 35,222.50088 Z"
     id="4-attack"
     class="bar"
     inkscape:connector-curvature="0"
     sodipodi:nodetypes="sccssss" />
  <path
     sodipodi:nodetypes="sccssss"
     inkscape:connector-curvature="0"
     id="5-attack"
     class="bar"
     d="M 35,252.50088 130,252.50088 130,267.50088 35,267.50088 C 32.23,267.50088 30,265.27088 30,262.50088 L 30,257.50088 C 30,254.73088 32.23,252.50088 35,252.50088 Z"
     style="opacity:1;fill:#e0c068;fill-opacity:1;stroke:none;stroke-width:5.25;stroke-miterlimit:4;stroke-dasharray:none;stroke-opacity:1" />
  <path
     style="opacity:1;fill:#b8a038;fill-opacity:1;stroke:none;stroke-width:5.25;stroke-miterlimit:4;stroke-dasharray:none;stroke-opacity:1"
     d="M 35,282.50088 130,282.50088 130,297.50088 35,297.50088 C 32.23,297.50088 30,295.27088 30,292.50088 L 30,287.50088 C 30,284.73088 32.23,282.50088 35,282.50088 Z"
     id="6-attack"
     class="bar"
     inkscape:connector-curvature="0"
     sodipodi:nodetypes="sccssss" />
  <path
     sodipodi:nodetypes="sccssss"
     inkscape:connector-curvature="0"
     id="7-attack"
     class="bar"
     d="M 35,312.50088 130,312.50088 130,327.50088 35,327.50088 C 32.23,327.50088 30,325.27088 30,322.50088 L 30,317.50088 C 30,314.73088 32.23,312.50088 35,312.50088 Z"
     style="opacity:1;fill:#a8b820;fill-opacity:1;stroke:none;stroke-width:5.25;stroke-miterlimit:4;stroke-dasharray:none;stroke-opacity:1" />
  <path
     style="opacity:1;fill:#705898;fill-opacity:1;stroke:none;stroke-width:5.25;stroke-miterlimit:4;stroke-dasharray:none;stroke-opacity:1"
     d="M 35,342.50088 130,342.50088 130,357.50088 35,357.50088 C 32.23,357.50088 30,355.27088 30,352.50088 L 30,347.50088 C 30,344.73088 32.23,342.50088 35,342.50088 Z"
     id="8-attack"
     class="bar"
     inkscape:connector-curvature="0"
     sodipodi:nodetypes="sccssss" />
  <path
     sodipodi:nodetypes="sccssss"
     inkscape:connector-curvature="0"
     id="9-attack"
     class="bar"
     d="M 35,372.50088 130,372.50088 130,387.50088 35,387.50088 C 32.23,387.50088 30,385.27088 30,382.50088 L 30,377.50088 C 30,374.73088 32.23,372.50088 35,372.50088 Z"
     style="opacity:1;fill:#b8b8d0;fill-opacity:1;stroke:none;stroke-width:5.25;stroke-miterlimit:4;stroke-dasharray:none;stroke-opacity:1" />
  <path
     style="opacity:1;fill:#f08030;fill-opacity:1;stroke:none;stroke-width:5.25;stroke-miterlimit:4;stroke-dasharray:none;stroke-opacity:1"
     d="M 35,402.50088 130,402.50088 130,417.50088 35,417.50088 C 32.23,417.50088 30,415.27088 30,412.50088 L 30,407.50088 C 30,404.73088 32.23,402.50088 35,402.50088 Z"
     id="10-attack"
     class="bar"
     inkscape:connector-curvature="0"
     sodipodi:nodetypes="sccssss" />
  <path
     sodipodi:nodetypes="sccssss"
     inkscape:connector-curvature="0"
     id="11-attack"
     class="bar"
     d="M 35,432.50088 130,432.50088 130,447.50088 35,447.50088 C 32.23,447.50088 30,445.27088 30,442.50088 L 30,437.50088 C 30,434.73088 32.23,432.50088 35,432.50088 Z"
     style="opacity:1;fill:#6890f0;fill-opacity:1;stroke:none;stroke-width:5.25;stroke-miterlimit:4;stroke-dasharray:none;stroke-opacity:1" />
  <path
     style="opacity:1;fill:#78c850;fill-opacity:1;stroke:none;stroke-width:5.25;stroke-miterlimit:4;stroke-dasharray:none;stroke-opacity:1"
     d="M 35,462.50088 130,462.50088 130,477.50088 35,477.50088 C 32.23,477.50088 30,475.27088 30,472.50088 L 30,467.50088 C 30,464.73088 32.23,462.50088 35,462.50088 Z"
     id="12-attack"
     class="bar"
     inkscape:connector-curvature="0"
     sodipodi:nodetypes="sccssss" />
  <path
     sodipodi:nodetypes="sccssss"
     inkscape:connector-curvature="0"
     id="13-attack"
     class="bar"
     d="M 35,492.50088 130,492.50088 130,507.50088 35,507.50088 C 32.23,507.50088 30,505.27088 30,502.50088 L 30,497.50088 C 30,494.73088 32.23,492.50088 35,492.50088 Z"
     style="opacity:1;fill:#f8d030;fill-opacity:1;stroke:none;stroke-width:5.25;stroke-miterlimit:4;stroke-dasharray:none;stroke-opacity:1" />
  <path
     style="opacity:1;fill:#f85888;fill-opacity:1;stroke:none;stroke-width:5.25;stroke-miterlimit:4;stroke-dasharray:none;stroke-opacity:1"
     d="M 35,522.50088 130,522.50088 130,537.50088 35,537.50088 C 32.23,537.50088 30,535.27088 30,532.50088 L 30,527.50088 C 30,524.73088 32.23,522.50088 35,522.50088 Z"
     id="14-attack"
     class="bar"
     inkscape:connector-curvature="0"
     sodipodi:nodetypes="sccssss" />
  <path
     sodipodi:nodetypes="sccssss"
     inkscape:connector-curvature="0"
     id="15-attack"
     class="bar"
     d="M 35,552.50088 130,552.50088 130,567.50088 35,567.50088 C 32.23,567.50088 30,565.27088 30,562.50088 L 30,557.50088 C 30,554.73088 32.23,552.50088 35,552.50088 Z"
     style="opacity:1;fill:#98d8d8;fill-opacity:1;stroke:none;stroke-width:5.25;stroke-miterlimit:4;stroke-dasharray:none;stroke-opacity:1" />
  <path
     style="opacity:1;fill:#7038f8;fill-opacity:1;stroke:none;stroke-width:5.25;stroke-miterlimit:4;stroke-dasharray:none;stroke-opacity:1"
     d="M 35,582.50087 130,582.50087 130,597.50087 35,597.50087 C 32.23,597.50087 30,595.27087 30,592.50087 L 30,587.50087 C 30,584.73087 32.23,582.50087 35,582.50087 Z"
     id="16-attack"
     class="bar"
     inkscape:connector-curvature="0"
     sodipodi:nodetypes="sccssss" />
  <path
     sodipodi:nodetypes="sccssss"
     inkscape:connector-curvature="0"
     id="17-attack"
     class="bar"
     d="M 35,612.50088 130,612.50088 130,627.50088 35,627.50088 C 32.23,627.50088 30,625.27088 30,622.50088 L 30,617.50088 C 30,614.73088 32.23,612.50088 35,612.50088 Z"
     style="opacity:1;fill:#705848;fill-opacity:1;stroke:none;stroke-width:5.25;stroke-miterlimit:4;stroke-dasharray:none;stroke-opacity:1" />
  <path
     sodipodi:nodetypes="sccssss"
     inkscape:connector-curvature="0"
     id="18-attack"
     class="bar"
     d="M 35,642.50088 130,642.50088 130,657.50088 35,657.50088 C 32.23,657.50088 30,655.27088 30,652.50088 L 30,647.50088 C 30,644.73088 32.23,642.50088 35,642.50088 Z"
     style="opacity:1;fill:#ee99ac;fill-opacity:1;stroke:none;stroke-width:5.25;stroke-miterlimit:4;stroke-dasharray:none;stroke-opacity:1" />
  <path
     style="opacity:1;fill:#ffffff;fill-opacity:1;stroke:none;stroke-width:5.25;stroke-miterlimit:4;stroke-dasharray:none;stroke-opacity:1"
     d="M 630,132.50001 630,147.50001 555,275.00001 630,162.50001 630,177.50001 555,290.00001 630,192.50001 630,207.50001 555,305.00001 630,222.50001 630,237.50001 555,320.00001 630,252.50001 630,267.50001 555,335.00001 630,282.50001 630,297.50001 555,350.00001 630,312.50001 630,327.50001 555,365.00001 630,342.50001 630,357.50001 555,380.00001 630,372.50001 630,387.50001 555,395.00001 630,402.50001 630,417.50001 555,410.00001 630,432.50001 630,447.50001 555,425.00001 630,462.50001 630,477.50001 555,440.00001 630,492.50001 630,507.50001 555,455.00001 630,522.50001 630,537.50001 555,470.00001 630,552.50001 630,567.50001 555,485.00001 630,582.50001 630,597.50001 555,500.00001 630,612.49998 630,627.49998 555,515.00001 630,642.49998 630,657.49998 480,402.50001 380,402.50001 380,387.50001 480,387.50001 Z"
     class="connection"
     id="rect15187"
     inkscape:connector-curvature="0"
     sodipodi:nodetypes="cccccccccccccccccccccccccccccccccccccccccccccccccccccccccc" />
  <path
     style="opacity:1;fill:#a8a878;fill-opacity:1;stroke:none;stroke-width:5.25;stroke-miterlimit:4;stroke-dasharray:none;stroke-opacity:1"
     d="M 725,132.50088 630,132.50088 630,147.50088 725,147.50088 C 727.77,147.50088 730,145.27088 730,142.50088 L 730,137.50088 C 730,134.73088 727.77,132.50088 725,132.50088 Z"
     id="1-defend"
     class="bar"
     inkscape:connector-curvature="0"
     sodipodi:nodetypes="sccssss" />
  <path
     style="opacity:1;fill:#c03028;fill-opacity:1;stroke:none;stroke-width:5.25;stroke-miterlimit:4;stroke-dasharray:none;stroke-opacity:1"
     d="M 725,162.50087 630,162.50087 630,177.50087 725,177.50087 C 727.77,177.50087 730,175.27087 730,172.50087 L 730,167.50087 C 730,164.73087 727.77,162.50087 725,162.50087 Z"
     id="2-defend"
     class="bar"
     inkscape:connector-curvature="0"
     sodipodi:nodetypes="sccssss" />
  <path
     sodipodi:nodetypes="sccssss"
     inkscape:connector-curvature="0"
     id="3-defend"
     class="bar"
     d="M 725,192.50088 630,192.50088 630,207.50088 725,207.50088 C 727.77,207.50088 730,205.27088 730,202.50088 L 730,197.50088 C 730,194.73088 727.77,192.50088 725,192.50088 Z"
     style="opacity:1;fill:#a890f0;fill-opacity:1;stroke:none;stroke-width:5.25;stroke-miterlimit:4;stroke-dasharray:none;stroke-opacity:1" />
  <path
     style="opacity:1;fill:#a040a0;fill-opacity:1;stroke:none;stroke-width:5.25;stroke-miterlimit:4;stroke-dasharray:none;stroke-opacity:1"
     d="M 725,222.50088 630,222.50088 630,237.50088 725,237.50088 C 727.77,237.50088 730,235.27088 730,232.50088 L 730,227.50088 C 730,224.73088 727.77,222.50088 725,222.50088 Z"
     id="4-defend"
     class="bar"
     inkscape:connector-curvature="0"
     sodipodi:nodetypes="sccssss" />
  <path
     sodipodi:nodetypes="sccssss"
     inkscape:connector-curvature="0"
     id="5-defend"
     class="bar"
     d="M 725,252.50088 630,252.50088 630,267.50088 725,267.50088 C 727.77,267.50088 730,265.27088 730,262.50088 L 730,257.50088 C 730,254.73088 727.77,252.50088 725,252.50088 Z"
     style="opacity:1;fill:#e0c068;fill-opacity:1;stroke:none;stroke-width:5.25;stroke-miterlimit:4;stroke-dasharray:none;stroke-opacity:1" />
  <path
     style="opacity:1;fill:#b8a038;fill-opacity:1;stroke:none;stroke-width:5.25;stroke-miterlimit:4;stroke-dasharray:none;stroke-opacity:1"
     d="M 725,282.50088 630,282.50088 630,297.50088 725,297.50088 C 727.77,297.50088 730,295.27088 730,292.50088 L 730,287.50088 C 730,284.73088 727.77,282.50088 725,282.50088 Z"
     id="6-defend"
     class="bar"
     inkscape:connector-curvature="0"
     sodipodi:nodetypes="sccssss" />
  <path
     sodipodi:nodetypes="sccssss"
     inkscape:connector-curvature="0"
     id="7-defend"
     class="bar"
     d="M 725,312.50088 630,312.50088 630,327.50088 725,327.50088 C 727.77,327.50088 730,325.27088 730,322.50088 L 730,317.50088 C 730,314.73088 727.77,312.50088 725,312.50088 Z"
     style="opacity:1;fill:#a8b820;fill-opacity:1;stroke:none;stroke-width:5.25;stroke-miterlimit:4;stroke-dasharray:none;stroke-opacity:1" />
  <path
     style="opacity:1;fill:#705898;fill-opacity:1;stroke:none;stroke-width:5.25;stroke-miterlimit:4;stroke-dasharray:none;stroke-opacity:1"
     d="M 725,342.50088 630,342.50088 630,357.50088 725,357.50088 C 727.77,357.50088 730,355.27088 730,352.50088 L 730,347.50088 C 730,344.73088 727.77,342.50088 725,342.50088 Z"
     id="8-defend"
     class="bar"
     inkscape:connector-curvature="0"
     sodipodi:nodetypes="sccssss" />
  <path
     sodipodi:nodetypes="sccssss"
     inkscape:connector-curvature="0"
     id="9-defend"
     class="bar"
     d="M 725,372.50088 630,372.50088 630,387.50088 725,387.50088 C 727.77,387.50088 730,385.27088 730,382.50088 L 730,377.50088 C 730,374.73088 727.77,372.50088 725,372.50088 Z"
     style="opacity:1;fill:#b8b8d0;fill-opacity:1;stroke:none;stroke-width:5.25;stroke-miterlimit:4;stroke-dasharray:none;stroke-opacity:1" />
  <path
     style="opacity:1;fill:#f08030;fill-opacity:1;stroke:none;stroke-width:5.25;stroke-miterlimit:4;stroke-dasharray:none;stroke-opacity:1"
     d="M 725,402.50088 630,402.50088 630,417.50088 725,417.50088 C 727.77,417.50088 730,415.27088 730,412.50088 L 730,407.50088 C 730,404.73088 727.77,402.50088 725,402.50088 Z"
     id="10-defend"
     class="bar"
     inkscape:connector-curvature="0"
     sodipodi:nodetypes="sccssss" />
  <path
     sodipodi:nodetypes="sccssss"
     inkscape:connector-curvature="0"
     id="11-defend"
     class="bar"
     d="M 725,432.50088 630,432.50088 630,447.50088 725,447.50088 C 727.77,447.50088 730,445.27088 730,442.50088 L 730,437.50088 C 730,434.73088 727.77,432.50088 725,432.50088 Z"
     style="opacity:1;fill:#6890f0;fill-opacity:1;stroke:none;stroke-width:5.25;stroke-miterlimit:4;stroke-dasharray:none;stroke-opacity:1" />
  <path
     style="opacity:1;fill:#78c850;fill-opacity:1;stroke:none;stroke-width:5.25;stroke-miterlimit:4;stroke-dasharray:none;stroke-opacity:1"
     d="M 725,462.50088 630,462.50088 630,477.50088 725,477.50088 C 727.77,477.50088 730,475.27088 730,472.50088 L 730,467.50088 C 730,464.73088 727.77,462.50088 725,462.50088 Z"
     id="12-defend"
     class="bar"
     inkscape:connector-curvature="0"
     sodipodi:nodetypes="sccssss" />
  <path
     sodipodi:nodetypes="sccssss"
     inkscape:connector-curvature="0"
     id="13-defend"
     class="bar"
     d="M 725,492.50088 630,492.50088 630,507.50088 725,507.50088 C 727.77,507.50088 730,505.27088 730,502.50088 L 730,497.50088 C 730,494.73088 727.77,492.50088 725,492.50088 Z"
     style="opacity:1;fill:#f8d030;fill-opacity:1;stroke:none;stroke-width:5.25;stroke-miterlimit:4;stroke-dasharray:none;stroke-opacity:1" />
  <path
     style="opacity:1;fill:#f85888;fill-opacity:1;stroke:none;stroke-width:5.25;stroke-miterlimit:4;stroke-dasharray:none;stroke-opacity:1"
     d="M 725,522.50088 630,522.50088 630,537.50088 725,537.50088 C 727.77,537.50088 730,535.27088 730,532.50088 L 730,527.50088 C 730,524.73088 727.77,522.50088 725,522.50088 Z"
     id="14-defend"
     class="bar"
     inkscape:connector-curvature="0"
     sodipodi:nodetypes="sccssss" />
  <path
     sodipodi:nodetypes="sccssss"
     inkscape:connector-curvature="0"
     id="15-defend"
     class="bar"
     d="M 725,552.50088 630,552.50088 630,567.50088 725,567.50088 C 727.77,567.50088 730,565.27088 730,562.50088 L 730,557.50088 C 730,554.73088 727.77,552.50088 725,552.50088 Z"
     style="opacity:1;fill:#98d8d8;fill-opacity:1;stroke:none;stroke-width:5.25;stroke-miterlimit:4;stroke-dasharray:none;stroke-opacity:1" />
  <path
     style="opacity:1;fill:#7038f8;fill-opacity:1;stroke:none;stroke-width:5.25;stroke-miterlimit:4;stroke-dasharray:none;stroke-opacity:1"
     d="M 725,582.50087 630,582.50087 630,597.50087 725,597.50087 C 727.77,597.50087 730,595.27087 730,592.50087 L 730,587.50087 C 730,584.73087 727.77,582.50087 725,582.50087 Z"
     id="16-defend"
     class="bar"
     inkscape:connector-curvature="0"
     sodipodi:nodetypes="sccssss" />
  <path
     sodipodi:nodetypes="sccssss"
     inkscape:connector-curvature="0"
     id="17-defend"
     class="bar"
     d="M 725,612.50088 630,612.50088 630,627.50088 725,627.50088 C 727.77,627.50088 730,625.27088 730,622.50088 L 730,617.50088 C 730,614.73088 727.77,612.50088 725,612.50088 Z"
     style="opacity:1;fill:#705848;fill-opacity:1;stroke:none;stroke-width:5.25;stroke-miterlimit:4;stroke-dasharray:none;stroke-opacity:1" />
  <path
     sodipodi:nodetypes="sccssss"
     inkscape:connector-curvature="0"
     id="18-defend"
     class="bar"
     d="M 725,642.50088 630,642.50088 630,657.50088 725,657.50088 C 727.77,657.50088 730,655.27088 730,652.50088 L 730,647.50088 C 730,644.73088 727.77,642.50088 725,642.50088 Z"
     style="opacity:1;fill:#ee99ac;fill-opacity:1;stroke:none;stroke-width:5.25;stroke-miterlimit:4;stroke-dasharray:none;stroke-opacity:1" />
  <path
     style="opacity:1;fill:#ffffff;fill-opacity:1;stroke:none;stroke-width:5.25;stroke-miterlimit:4;stroke-dasharray:none;stroke-opacity:1"
     d="M 660,3.00001 555,181.50001 450,387.50001 380,387.50001 380,402.50001 450,402.50001 555,608.49998 660,786.99998 660,776.49998 607.5,687.24998 660,765.99998 660,755.49998 607.5,676.74998 660,744.99998 660,734.49998 607.5,666.24998 660,723.99998 660,713.49998 607.5,655.74998 660,702.99998 660,692.49998 607.5,645.24998 660,681.99998 660,671.49998 607.5,634.74998 660,660.99998 660,650.49998 607.5,624.24998 660,639.99998 660,629.49998 607.5,613.74998 660,618.99998 660,608.49998 607.5,603.25001 660,598.00001 660,587.50001 607.5,592.75001 660,577.00001 660,566.50001 607.5,582.25001 660,556.00001 660,545.50001 607.5,571.75001 660,535.00001 660,524.50001 607.5,561.25001 660,514.00001 660,503.50001 607.5,550.75001 660,493.00001 660,482.50001 607.5,540.25001 660,472.00001 660,461.50001 607.5,529.75001 660,451.00001 660,440.50001 607.49609,519.25587 660,430.00001 660,419.50001 575.66406,562.8711 455.375,395.00001 575.66406,227.12891 660,370.49988 660,360.00001 607.49609,270.74415 660,349.50001 660,339.00001 607.5,260.25001 660,328.50001 660,318.00001 607.5,249.75001 660,307.50001 660,297.00001 607.5,239.25001 660,286.50001 660,276.00001 607.5,228.75001 660,265.50001 660,255.00001 607.5,218.25001 660,244.50001 660,234.00001 607.5,207.75001 660,223.50001 660,213.00001 607.5,197.25001 660,202.50001 660,192.00001 607.5,186.75001 660,181.50001 660,171.00001 607.5,176.25001 660,160.50001 660,150.00001 607.5,165.75001 660,139.50001 660,129.00001 607.5,155.25001 660,118.50001 660,108.00001 607.5,144.75001 660,97.50001 660,87.00001 607.5,134.25001 660,76.50001 660,66.00001 607.5,123.75001 660,55.50001 660,45.00001 607.5,113.25001 660,34.50001 660,24.00001 607.5,102.75001 660,13.50001 Z"
     class="connection"
     id="path16463"
     inkscape:connector-curvature="0"
     sodipodi:nodetypes="cccccccccccccccccccccccccccccccccccccccccccccccccccccccccccccccccccccccccccccccccccccccccccccccccccccccccccccccccccc" />
  <path
     style="opacity:1;fill:#a8a878;fill-opacity:1;stroke:none;stroke-width:5.25;stroke-miterlimit:4;stroke-dasharray:none;stroke-opacity:1"
     d="M 756.49998,419.49834 660,419.49834 660,429.99839 756.49998,429.99839 C 758.43899,429.99839 760,428.43738 760,426.49837 L 760,422.99835 C 760,421.05934 758.43899,419.49834 756.49998,419.49834 Z"
     id="1-attack-second"
     class="bar"
     inkscape:connector-curvature="0"
     sodipodi:nodetypes="sccssss" />
  <path
     style="opacity:1;fill:#c03028;fill-opacity:1;stroke:none;stroke-width:5.25;stroke-miterlimit:4;stroke-dasharray:none;stroke-opacity:1"
     d="M 756.49998,440.49842 660,440.49842 660,450.99848 756.49998,450.99848 C 758.43899,450.99848 760,449.43747 760,447.49845 L 760,443.99844 C 760,442.05943 758.43899,440.49842 756.49998,440.49842 Z"
     id="2-attack-second"
     class="bar"
     inkscape:connector-curvature="0"
     sodipodi:nodetypes="sccssss" />
  <path
     sodipodi:nodetypes="sccssss"
     inkscape:connector-curvature="0"
     id="3-attack-second"
     class="bar"
     d="M 756.49998,461.49853 660,461.49853 660,471.99857 756.49998,471.99857 C 758.43899,471.99857 760,470.43757 760,468.49856 L 760,464.99854 C 760,463.05954 758.43899,461.49853 756.49998,461.49853 Z"
     style="opacity:1;fill:#a890f0;fill-opacity:1;stroke:none;stroke-width:5.25;stroke-miterlimit:4;stroke-dasharray:none;stroke-opacity:1" />
  <path
     style="opacity:1;fill:#a040a0;fill-opacity:1;stroke:none;stroke-width:5.25;stroke-miterlimit:4;stroke-dasharray:none;stroke-opacity:1"
     d="M 756.49998,482.49862 660,482.49862 660,492.99867 756.49998,492.99867 C 758.43899,492.99867 760,491.43766 760,489.49865 L 760,485.99864 C 760,484.05963 758.43899,482.49862 756.49998,482.49862 Z"
     id="4-attack-second"
     class="bar"
     inkscape:connector-curvature="0"
     sodipodi:nodetypes="sccssss" />
  <path
     sodipodi:nodetypes="sccssss"
     inkscape:connector-curvature="0"
     id="5-attack-second"
     class="bar"
     d="M 756.49998,503.49872 660,503.49872 660,513.99876 756.49998,513.99876 C 758.43899,513.99876 760,512.43775 760,510.49875 L 760,506.99873 C 760,505.05973 758.43899,503.49872 756.49998,503.49872 Z"
     style="opacity:1;fill:#e0c068;fill-opacity:1;stroke:none;stroke-width:5.25;stroke-miterlimit:4;stroke-dasharray:none;stroke-opacity:1" />
  <path
     style="opacity:1;fill:#b8a038;fill-opacity:1;stroke:none;stroke-width:5.25;stroke-miterlimit:4;stroke-dasharray:none;stroke-opacity:1"
     d="M 756.49998,524.49882 660,524.49882 660,534.99886 756.49998,534.99886 C 758.43899,534.99886 760,533.43785 760,531.49884 L 760,527.99883 C 760,526.05981 758.43899,524.49882 756.49998,524.49882 Z"
     id="6-attack-second"
     class="bar"
     inkscape:connector-curvature="0"
     sodipodi:nodetypes="sccssss" />
  <path
     sodipodi:nodetypes="sccssss"
     inkscape:connector-curvature="0"
     id="7-attack-second"
     class="bar"
     d="M 756.49998,545.4989 660,545.4989 660,555.99895 756.49998,555.99895 C 758.43899,555.99895 760,554.43795 760,552.49894 L 760,548.99893 C 760,547.05991 758.43899,545.4989 756.49998,545.4989 Z"
     style="opacity:1;fill:#a8b820;fill-opacity:1;stroke:none;stroke-width:5.25;stroke-miterlimit:4;stroke-dasharray:none;stroke-opacity:1" />
  <path
     style="opacity:1;fill:#705898;fill-opacity:1;stroke:none;stroke-width:5.25;stroke-miterlimit:4;stroke-dasharray:none;stroke-opacity:1"
     d="M 756.49998,566.499 660,566.499 660,576.99905 756.49998,576.99905 C 758.43899,576.99905 760,575.43804 760,573.49904 L 760,569.99901 C 760,568.06001 758.43899,566.499 756.49998,566.499 Z"
     id="8-attack-second"
     class="bar"
     inkscape:connector-curvature="0"
     sodipodi:nodetypes="sccssss" />
  <path
     sodipodi:nodetypes="sccssss"
     inkscape:connector-curvature="0"
     id="9-attack-second"
     class="bar"
     d="M 756.49998,587.49909 660,587.49909 660,597.99915 756.49998,597.99915 C 758.43899,597.99915 760,596.43814 760,594.49912 L 760,590.99911 C 760,589.0601 758.43899,587.49909 756.49998,587.49909 Z"
     style="opacity:1;fill:#b8b8d0;fill-opacity:1;stroke:none;stroke-width:5.25;stroke-miterlimit:4;stroke-dasharray:none;stroke-opacity:1" />
  <path
     style="opacity:1;fill:#f08030;fill-opacity:1;stroke:none;stroke-width:5.25;stroke-miterlimit:4;stroke-dasharray:none;stroke-opacity:1"
     d="M 756.49998,608.49918 660,608.49918 660,618.99918 756.49998,618.99918 C 758.43899,618.99918 760,617.43828 760,615.49918 L 760,611.99918 C 760,610.06018 758.43899,608.49918 756.49998,608.49918 Z"
     id="10-attack-second"
     class="bar"
     inkscape:connector-curvature="0"
     sodipodi:nodetypes="sccssss" />
  <path
     sodipodi:nodetypes="sccssss"
     inkscape:connector-curvature="0"
     id="11-attack-second"
     class="bar"
     d="M 756.49998,629.49928 660,629.49928 660,639.99938 756.49998,639.99938 C 758.43899,639.99938 760,638.43828 760,636.49928 L 760,632.99928 C 760,631.06028 758.43899,629.49928 756.49998,629.49928 Z"
     style="opacity:1;fill:#6890f0;fill-opacity:1;stroke:none;stroke-width:5.25;stroke-miterlimit:4;stroke-dasharray:none;stroke-opacity:1" />
  <path
     style="opacity:1;fill:#78c850;fill-opacity:1;stroke:none;stroke-width:5.25;stroke-miterlimit:4;stroke-dasharray:none;stroke-opacity:1"
     d="M 756.49998,650.49938 660,650.49938 660,660.99938 756.49998,660.99938 C 758.43899,660.99938 760,659.43838 760,657.49938 L 760,653.99938 C 760,652.06038 758.43899,650.49938 756.49998,650.49938 Z"
     id="12-attack-second"
     class="bar"
     inkscape:connector-curvature="0"
     sodipodi:nodetypes="sccssss" />
  <path
     sodipodi:nodetypes="sccssss"
     inkscape:connector-curvature="0"
     id="13-attack-second"
     class="bar"
     d="M 756.49998,671.49948 660,671.49948 660,681.99948 756.49998,681.99948 C 758.43899,681.99948 760,680.43848 760,678.49948 L 760,674.99948 C 760,673.06048 758.43899,671.49948 756.49998,671.49948 Z"
     style="opacity:1;fill:#f8d030;fill-opacity:1;stroke:none;stroke-width:5.25;stroke-miterlimit:4;stroke-dasharray:none;stroke-opacity:1" />
  <path
     style="opacity:1;fill:#f85888;fill-opacity:1;stroke:none;stroke-width:5.25;stroke-miterlimit:4;stroke-dasharray:none;stroke-opacity:1"
     d="M 756.49998,692.49958 660,692.49958 660,702.99958 756.49998,702.99958 C 758.43899,702.99958 760,701.43858 760,699.49958 L 760,695.99958 C 760,694.06058 758.43899,692.49958 756.49998,692.49958 Z"
     id="14-attack-second"
     class="bar"
     inkscape:connector-curvature="0"
     sodipodi:nodetypes="sccssss" />
  <path
     sodipodi:nodetypes="sccssss"
     inkscape:connector-curvature="0"
     id="15-attack-second"
     class="bar"
     d="M 756.49998,713.49968 660,713.49968 660,723.99968 756.49998,723.99968 C 758.43899,723.99968 760,722.43868 760,720.49968 L 760,716.99968 C 760,715.06068 758.43899,713.49968 756.49998,713.49968 Z"
     style="opacity:1;fill:#98d8d8;fill-opacity:1;stroke:none;stroke-width:5.25;stroke-miterlimit:4;stroke-dasharray:none;stroke-opacity:1" />
  <path
     style="opacity:1;fill:#7038f8;fill-opacity:1;stroke:none;stroke-width:5.25;stroke-miterlimit:4;stroke-dasharray:none;stroke-opacity:1"
     d="M 756.49998,734.49978 660,734.49978 660,744.99978 756.49998,744.99978 C 758.43899,744.99978 760,743.43878 760,741.49978 L 760,737.99978 C 760,736.06078 758.43899,734.49978 756.49998,734.49978 Z"
     id="16-attack-second"
     class="bar"
     inkscape:connector-curvature="0"
     sodipodi:nodetypes="sccssss" />
  <path
     sodipodi:nodetypes="sccssss"
     inkscape:connector-curvature="0"
     id="17-attack-second"
     class="bar"
     d="M 756.49998,755.49988 660,755.49988 660,765.99988 756.49998,765.99988 C 758.43899,765.99988 760,764.43888 760,762.49988 L 760,758.99988 C 760,757.06088 758.43899,755.49988 756.49998,755.49988 Z"
     style="opacity:1;fill:#705848;fill-opacity:1;stroke:none;stroke-width:5.25;stroke-miterlimit:4;stroke-dasharray:none;stroke-opacity:1" />
  <path
     sodipodi:nodetypes="sccssss"
     inkscape:connector-curvature="0"
     id="18-attack-second"
     class="bar"
     d="M 756.49998,776.49998 660,776.49998 660,786.99998 756.49998,786.99998 C 758.43899,786.99998 760,785.43898 760,783.49998 L 760,779.99998 C 760,778.06098 758.43899,776.49998 756.49998,776.49998 Z"
     style="opacity:1;fill:#ee99ac;fill-opacity:1;stroke:none;stroke-width:5.25;stroke-miterlimit:4;stroke-dasharray:none;stroke-opacity:1" />
  <path
     sodipodi:nodetypes="sccssss"
     inkscape:connector-curvature="0"
     id="1-attack-first"
     class="bar"
     d="M 756.49998,3.00001 660,3.00001 660,13.50006 756.49998,13.50006 C 758.43899,13.50006 760,11.93905 760,10.00004 L 760,6.50002 C 760,4.56101 758.43899,3.00001 756.49998,3.00001 Z"
     style="opacity:1;fill:#a8a878;fill-opacity:1;stroke:none;stroke-width:5.25;stroke-miterlimit:4;stroke-dasharray:none;stroke-opacity:1" />
  <path
     sodipodi:nodetypes="sccssss"
     inkscape:connector-curvature="0"
     id="2-attack-first"
     class="bar"
     d="M 756.49998,24.00009 660,24.00009 660,34.50015 756.49998,34.50015 C 758.43899,34.50015 760,32.93914 760,31.00012 L 760,27.50011 C 760,25.5611 758.43899,24.00009 756.49998,24.00009 Z"
     style="opacity:1;fill:#c03028;fill-opacity:1;stroke:none;stroke-width:5.25;stroke-miterlimit:4;stroke-dasharray:none;stroke-opacity:1" />
  <path
     style="opacity:1;fill:#a890f0;fill-opacity:1;stroke:none;stroke-width:5.25;stroke-miterlimit:4;stroke-dasharray:none;stroke-opacity:1"
     d="M 756.49998,45.0002 660,45.0002 660,55.50024 756.49998,55.50024 C 758.43899,55.50024 760,53.93924 760,52.00023 L 760,48.50021 C 760,46.56121 758.43899,45.0002 756.49998,45.0002 Z"
     id="3-attack-first"
     class="bar"
     inkscape:connector-curvature="0"
     sodipodi:nodetypes="sccssss" />
  <path
     sodipodi:nodetypes="sccssss"
     inkscape:connector-curvature="0"
     id="4-attack-first"
     class="bar"
     d="M 756.49998,66.00029 660,66.00029 660,76.50034 756.49998,76.50034 C 758.43899,76.50034 760,74.93933 760,73.00032 L 760,69.50031 C 760,67.5613 758.43899,66.00029 756.49998,66.00029 Z"
     style="opacity:1;fill:#a040a0;fill-opacity:1;stroke:none;stroke-width:5.25;stroke-miterlimit:4;stroke-dasharray:none;stroke-opacity:1" />
  <path
     style="opacity:1;fill:#e0c068;fill-opacity:1;stroke:none;stroke-width:5.25;stroke-miterlimit:4;stroke-dasharray:none;stroke-opacity:1"
     d="M 756.49998,87.00039 660,87.00039 660,97.50043 756.49998,97.50043 C 758.43899,97.50043 760,95.93942 760,94.00042 L 760,90.5004 C 760,88.5614 758.43899,87.00039 756.49998,87.00039 Z"
     id="5-attack-first"
     class="bar"
     inkscape:connector-curvature="0"
     sodipodi:nodetypes="sccssss" />
  <path
     sodipodi:nodetypes="sccssss"
     inkscape:connector-curvature="0"
     id="6-attack-first"
     class="bar"
     d="M 756.49998,108.00049 660,108.00049 660,118.50053 756.49998,118.50053 C 758.43899,118.50053 760,116.93952 760,115.00051 L 760,111.5005 C 760,109.56148 758.43899,108.00049 756.49998,108.00049 Z"
     style="opacity:1;fill:#b8a038;fill-opacity:1;stroke:none;stroke-width:5.25;stroke-miterlimit:4;stroke-dasharray:none;stroke-opacity:1" />
  <path
     style="opacity:1;fill:#a8b820;fill-opacity:1;stroke:none;stroke-width:5.25;stroke-miterlimit:4;stroke-dasharray:none;stroke-opacity:1"
     d="M 756.49998,129.00057 660,129.00057 660,139.50062 756.49998,139.50062 C 758.43899,139.50062 760,137.93962 760,136.00061 L 760,132.5006 C 760,130.56158 758.43899,129.00057 756.49998,129.00057 Z"
     id="7-attack-first"
     class="bar"
     inkscape:connector-curvature="0"
     sodipodi:nodetypes="sccssss" />
  <path
     sodipodi:nodetypes="sccssss"
     inkscape:connector-curvature="0"
     id="8-attack-first"
     class="bar"
     d="M 756.49998,150.00067 660,150.00067 660,160.50072 756.49998,160.50072 C 758.43899,160.50072 760,158.93971 760,157.00071 L 760,153.50068 C 760,151.56168 758.43899,150.00067 756.49998,150.00067 Z"
     style="opacity:1;fill:#705898;fill-opacity:1;stroke:none;stroke-width:5.25;stroke-miterlimit:4;stroke-dasharray:none;stroke-opacity:1" />
  <path
     style="opacity:1;fill:#b8b8d0;fill-opacity:1;stroke:none;stroke-width:5.25;stroke-miterlimit:4;stroke-dasharray:none;stroke-opacity:1"
     d="M 756.49998,171.00076 660,171.00076 660,181.50082 756.49998,181.50082 C 758.43899,181.50082 760,179.93981 760,178.00079 L 760,174.50078 C 760,172.56177 758.43899,171.00076 756.49998,171.00076 Z"
     id="9-attack-first"
     class="bar"
     inkscape:connector-curvature="0"
     sodipodi:nodetypes="sccssss" />
  <path
     sodipodi:nodetypes="sccssss"
     inkscape:connector-curvature="0"
     id="10-attack-first"
     class="bar"
     d="M 756.49998,192.00086 660,192.00086 660,202.5009 756.49998,202.5009 C 758.43899,202.5009 760,200.9399 760,199.00089 L 760,195.50087 C 760,193.56187 758.43899,192.00086 756.49998,192.00086 Z"
     style="opacity:1;fill:#f08030;fill-opacity:1;stroke:none;stroke-width:5.25;stroke-miterlimit:4;stroke-dasharray:none;stroke-opacity:1" />
  <path
     style="opacity:1;fill:#6890f0;fill-opacity:1;stroke:none;stroke-width:5.25;stroke-miterlimit:4;stroke-dasharray:none;stroke-opacity:1"
     d="M 756.49998,213.00095 660,213.00095 660,223.501 756.49998,223.501 C 758.43899,223.501 760,221.93999 760,220.00098 L 760,216.50097 C 760,214.56196 758.43899,213.00095 756.49998,213.00095 Z"
     id="11-attack-first"
     class="bar"
     inkscape:connector-curvature="0"
     sodipodi:nodetypes="sccssss" />
  <path
     sodipodi:nodetypes="sccssss"
     inkscape:connector-curvature="0"
     id="12-attack-first"
     class="bar"
     d="M 756.49998,234.00105 660,234.00105 660,244.50109 756.49998,244.50109 C 758.43899,244.50109 760,242.94008 760,241.00108 L 760,237.50106 C 760,235.56206 758.43899,234.00105 756.49998,234.00105 Z"
     style="opacity:1;fill:#78c850;fill-opacity:1;stroke:none;stroke-width:5.25;stroke-miterlimit:4;stroke-dasharray:none;stroke-opacity:1" />
  <path
     style="opacity:1;fill:#f8d030;fill-opacity:1;stroke:none;stroke-width:5.25;stroke-miterlimit:4;stroke-dasharray:none;stroke-opacity:1"
     d="M 756.49998,255.00115 660,255.00115 660,265.50119 756.49998,265.50119 C 758.43899,265.50119 760,263.94018 760,262.00117 L 760,258.50116 C 760,256.56214 758.43899,255.00115 756.49998,255.00115 Z"
     id="13-attack-first"
     class="bar"
     inkscape:connector-curvature="0"
     sodipodi:nodetypes="sccssss" />
  <path
     sodipodi:nodetypes="sccssss"
     inkscape:connector-curvature="0"
     id="14-attack-first"
     class="bar"
     d="M 756.49998,276.00123 660,276.00123 660,286.50128 756.49998,286.50128 C 758.43899,286.50128 760,284.94028 760,283.00127 L 760,279.50126 C 760,277.56224 758.43899,276.00123 756.49998,276.00123 Z"
     style="opacity:1;fill:#f85888;fill-opacity:1;stroke:none;stroke-width:5.25;stroke-miterlimit:4;stroke-dasharray:none;stroke-opacity:1" />
  <path
     style="opacity:1;fill:#98d8d8;fill-opacity:1;stroke:none;stroke-width:5.25;stroke-miterlimit:4;stroke-dasharray:none;stroke-opacity:1"
     d="M 756.49998,297.00133 660,297.00133 660,307.50138 756.49998,307.50138 C 758.43899,307.50138 760,305.94037 760,304.00137 L 760,300.50134 C 760,298.56234 758.43899,297.00133 756.49998,297.00133 Z"
     id="15-attack-first"
     class="bar"
     inkscape:connector-curvature="0"
     sodipodi:nodetypes="sccssss" />
  <path
     sodipodi:nodetypes="sccssss"
     inkscape:connector-curvature="0"
     id="16-attack-first"
     class="bar"
     d="M 756.49998,318.00142 660,318.00142 660,328.50144 756.49998,328.50144 C 758.43899,328.50144 760,326.94046 760,325.00144 L 760,321.50143 C 760,319.56241 758.43899,318.00142 756.49998,318.00142 Z"
     style="opacity:1;fill:#7038f8;fill-opacity:1;stroke:none;stroke-width:5.25;stroke-miterlimit:4;stroke-dasharray:none;stroke-opacity:1" />
  <path
     style="opacity:1;fill:#705848;fill-opacity:1;stroke:none;stroke-width:5.25;stroke-miterlimit:4;stroke-dasharray:none;stroke-opacity:1"
     d="M 756.49998,339.00154 660,339.00154 660,349.50155 756.49998,349.50155 C 758.43899,349.50155 760,347.94057 760,346.00154 L 760,342.50154 C 760,340.56252 758.43899,339.00154 756.49998,339.00154 Z"
     id="17-attack-first"
     class="bar"
     inkscape:connector-curvature="0"
     sodipodi:nodetypes="sccssss" />
  <path
     style="opacity:1;fill:#ee99ac;fill-opacity:1;stroke:none;stroke-width:5.25;stroke-miterlimit:4;stroke-dasharray:none;stroke-opacity:1"
     d="M 756.49998,360.00165 660,360.00165 660,370.50165 756.49998,370.50165 C 758.43899,370.50165 760,368.94067 760,367.00165 L 760,363.50165 C 760,361.56263 758.43899,360.00165 756.49998,360.00165 Z"
     id="18-attack-first"
     class="bar"
     inkscape:connector-curvature="0"
     sodipodi:nodetypes="sccssss" />
</svg>
