<?xml version="1.0" encoding="UTF-8" standalone="no"?>
<svg
   xmlns:dc="http://purl.org/dc/elements/1.1/"
   xmlns:cc="http://creativecommons.org/ns#"
   xmlns:rdf="http://www.w3.org/1999/02/22-rdf-syntax-ns#"
   xmlns:svg="http://www.w3.org/2000/svg"
   xmlns="http://www.w3.org/2000/svg"
   xmlns:sodipodi="http://sodipodi.sourceforge.net/DTD/sodipodi-0.dtd"
   xmlns:inkscape="http://www.inkscape.org/namespaces/inkscape"
   height="400.77634"
   width="601.30792"
   viewBox="0 0 601.30792 400.77633"
   id="svg2"
   regionID = "hoenn"
   version="1.1"
   inkscape:version="0.91 r13725"
   sodipodi:docname="pokemap-SIMPLE.svg">
  <sodipodi:namedview
     pagecolor="#ffffff"
     bordercolor="#666666"
     borderopacity="1"
     objecttolerance="10"
     gridtolerance="10"
     guidetolerance="10"
     inkscape:pageopacity="0"
     inkscape:pageshadow="2"
     inkscape:window-width="1920"
     inkscape:window-height="955"
     id="namedview55"
     showgrid="false"
     inkscape:zoom="1.4581754"
     inkscape:cx="300.65396"
     inkscape:cy="118.09354"
     inkscape:window-x="0"
     inkscape:window-y="1"
     inkscape:window-maximized="1"
     inkscape:current-layer="svg2" />
  <defs
     id="defs4" />
  <metadata
     id="metadata7">
    <rdf:RDF>
      <cc:Work
         rdf:about="">
        <dc:format>image/svg+xml</dc:format>
        <dc:type
           rdf:resource="http://purl.org/dc/dcmitype/StillImage" />
        <dc:title />
      </cc:Work>
    </rdf:RDF>
  </metadata>
  <path
     id="path4158"
     class="LAND"
     d="M 119.1002,0.50111939 C 115.34301,0.47908814 111.51661,0.78111974 107.91661,1.5636194 93.436585,4.6936194 88.666611,5.1632288 88.666611,5.1632288 88.666611,5.1632288 74.455127,3.4826819 70.895127,6.6026819 67.255127,9.7326819 66.985908,11.893697 61.945908,11.893697 56.895908,11.893697 40.806705,22.713228 37.912705,42.663228 35.018705,62.623229 33.876361,52.283463 33.135361,67.903463 32.395361,83.533463 30.510064,81.363697 33.606064,86.893697 33.606064,86.893697 31.655361,97.713371 35.760361,101.32339 39.866361,104.92339 27.578877,114.17261 33.488877,119.02261 39.397877,123.86261 39.492783,122.40331 39.492783,126.24331 39.492783,130.09331 37.442533,131.84394 30.711533,130.88394 23.981533,129.92394 24.923892,143.14245 29.029892,143.86245 33.134892,144.58245 35.019533,145.06353 33.336533,146.98355 31.654533,148.91355 33.337189,155.16323 31.184189,155.16323 31.184189,155.16323 23.173658,152.90323 20.414658,155.16323 17.654658,157.42323 16.511486,164.77331 18.463486,165.49331 20.415486,166.22331 22.770127,166.94386 22.770127,170.30386 22.770127,173.67386 23.376424,185.95253 21.424424,186.19253 19.540424,186.44253 10.790486,196.02362 6.213486,201.31362 1.637486,206.60362 3.588251,226.31269 5.4732517,231.60269 7.4252515,236.89269 10.520068,240.25425 14.356064,241.45425 18.193064,242.66425 18.731064,243.623 18.731064,248.673 18.731064,253.713 26.875596,254.43276 26.875595,254.43276 26.875595,254.43276 26.404533,258.52253 28.086533,260.44253 29.769533,262.36253 23.174127,266.49401 29.770127,272.46401 36.366127,278.43401 42.018939,276.54339 48.277939,276.07339 48.277939,276.07339 52.385064,279.673 55.481064,279.673 58.576064,279.673 63.426611,284.96292 57.166611,287.84292 50.904611,290.73292 44.171877,290.49331 54.738877,302.99331 65.304877,315.49331 79.50583,307.56409 83.61583,307.79409 87.71583,308.04409 89.876611,307.07276 88.666611,310.68276 87.446611,314.29276 85.225517,324.08425 88.795517,325.95425 92.295517,327.81425 97.075205,328.47292 99.225205,331.84292 101.3852,335.20292 108.85661,332.31308 113.16661,333.75308 117.46661,335.20308 120.15497,323.66425 124.73497,322.70425 129.24497,321.74425 120.63645,310.68362 123.25645,301.31362 125.88645,291.93362 123.12505,287.60269 127.56505,287.60269 132.00505,287.60269 127.83481,295.78362 133.82481,301.06362 133.82481,301.06362 133.48497,306.60425 136.98497,307.20425 140.41497,307.79425 140.68505,312.36284 146.81505,308.76284 152.93505,305.15284 150.64614,304.31245 152.93614,303.11245 155.22614,301.90245 151.65598,300.2237 156.77598,296.1437 161.95598,292.0537 156.10598,275.23323 155.02598,273.66323 153.87598,272.10323 155.56528,268.13284 156.30528,265.01284 157.04528,261.89284 157.37583,261.17347 158.86583,261.40347 160.27583,261.64347 161.61473,270.30276 160.74473,282.68276 159.93473,295.05276 160.54473,296.02284 164.24473,296.26284 167.94473,296.50284 166.26497,317.89352 173.73497,325.23355 181.20497,332.56355 185.64551,330.03315 188.54551,325.83315 191.43551,321.62315 199.71481,308.513 199.57481,295.173 199.44481,281.833 199.10606,283.16323 199.10606,283.16323 L 193.92637,282.55386 193.18614,274.38394 182.48497,274.63394 182.88536,271.38394 187.33653,271.26284 187.46544,273.19253 196.75645,272.94253 196.55528,264.41323 187.06505,264.65347 186.99473,266.57339 182.14512,266.69253 182.41661,262.97378 194.80528,262.85269 194.80528,258.16323 192.04551,257.80386 192.04551,253.35269 193.7252,253.47378 193.7252,246.26284 197.02598,245.78433 196.95567,234.60269 188.27598,234.91323 188.40489,224.15347 185.04551,224.03433 180.5963,220.38394 193.7252,220.30386 193.7252,211.88394 192.51622,211.41323 192.24473,205.40347 194.39512,205.15347 193.92637,185.45425 178.37559,185.41323 178.64512,179.32339 190.42637,179.13394 190.76622,168.24331 C 191.57622,169.15331 192.37473,169.90261 192.24473,171.02261 192.04473,172.95261 191.30637,179.44308 193.92637,177.75308 196.55637,176.07308 198.50591,170.30339 199.44591,169.82339 200.45591,169.34339 199.91473,164.05245 204.49473,162.61245 209.06473,161.17245 210.01622,160.21394 210.01622,155.88394 210.01622,151.55394 213.37512,153.48347 213.64512,149.15347 213.91512,144.82347 205.23637,137.37425 213.17637,129.20425 221.11637,121.02425 222.32591,119.34394 225.69591,118.38394 229.05591,117.42394 230.74505,115.25433 233.56505,114.53433 236.46505,113.81433 235.04591,104.92401 237.94591,97.71401 240.83591,90.50401 235.78536,75.364088 231.88536,70.794088 228.04536,66.224088 229.05559,39.544244 227.37559,35.454244 225.69559,31.374244 226.63505,28.96276 233.56505,29.68276 240.56505,30.40276 230.20544,39.062916 231.21544,44.342916 232.15544,49.632916 234.10567,68.864088 237.20567,70.544088 240.29567,72.234088 241.98598,77.272604 241.77598,83.772604 241.51598,90.262601 240.09653,99.153471 240.83653,103.23355 241.51653,107.33354 245.61512,111.17362 245.14512,113.81362 244.67512,116.46362 240.5652,118.1437 237.4752,118.1437 234.3052,118.1437 210.0163,127.753 215.5963,142.423 221.1163,157.083 221.79505,151.55417 221.31505,156.12417 220.84505,160.69417 224.48583,158.76245 226.36583,162.61245 228.31583,166.45245 238.14551,167.42425 240.29551,166.45425 240.29551,166.45425 247.29661,168.38347 250.66661,167.90347 254.02661,167.42347 252.34512,173.433 257.39512,173.673 262.44512,173.903 268.23661,172.95347 269.91661,174.15347 271.59661,175.35347 274.22536,171.99276 275.63536,173.18276 277.11536,174.39276 271.59606,178.47323 270.85606,179.91323 270.11606,181.36323 268.90551,178.95315 266.54551,182.08315 264.12551,185.20315 263.38536,187.85269 263.38536,187.85269 263.38536,187.85269 267.49661,190.73331 269.91661,190.49331 272.26661,190.25331 276.37653,188.81308 277.58653,190.25308 278.79653,191.69308 286.94536,189.53425 289.63536,185.20425 292.25536,180.88425 291.51591,179.68347 293.94591,180.40347 296.36591,181.12347 295.1552,185.45261 299.7252,183.52261 304.2352,181.60261 305.45661,177.27261 306.66661,177.27261 307.87661,177.27261 310.96544,177.03292 310.96544,175.59292 310.96544,174.15292 314.13528,175.11425 316.55528,172.95425 318.91528,170.78425 356.66606,170.78378 358.35606,172.22378 360.03606,173.67378 367.97489,174.63347 369.65489,173.90347 371.34489,173.18347 365.55645,171.27261 367.50645,171.02261 369.39645,170.78261 385.74567,171.503 386.95567,173.673 388.16567,175.833 391.26544,173.43292 393.21544,175.59292 395.10544,177.75292 398.73559,181.60355 401.62559,178.23355 404.52559,174.87355 408.56551,172.71409 410.04551,170.54409 411.45551,168.38409 409.77622,163.57276 410.51622,160.93276 411.25622,158.28276 408.83653,156.12284 408.83653,152.51284 408.83653,148.91284 405.73606,149.63433 409.10606,145.78433 412.46606,141.93433 421.5563,134.97245 421.3463,131.36245 421.0863,127.75245 415.56544,113.33284 405.46544,115.01284 395.36544,116.69284 389.37481,118.86261 390.32481,121.02261 391.26481,123.19261 391.73606,132.32339 389.85606,132.57339 387.89606,132.80339 373.49551,135.20269 371.54551,137.85269 369.65551,140.49269 359.56489,138.813 357.40489,136.173 355.25489,133.523 341.99536,132.08339 333.38536,132.32339 324.69536,132.57339 323.82567,134.56284 318.70567,133.76284 313.58567,132.96284 303.76622,127.28409 303.76622,120.54409 303.76622,113.81409 300.67481,105.40409 309.82481,101.79409 318.91481,98.194116 324.43637,93.873932 332.17637,93.383932 339.84637,92.903932 343.20536,91.943463 350.88536,92.903463 358.62536,93.873463 377.3359,92.903541 380.69591,90.983541 384.06591,89.053541 388.1652,91.223385 387.2252,94.823385 386.2152,98.433385 386.21653,101.32339 389.58653,101.32339 392.94653,101.32339 404.05551,103.72386 403.04551,101.55386 402.10551,99.393824 400.88598,93.872916 404.52598,94.342916 408.09598,94.822916 408.35536,95.062866 407.88536,102.51284 407.88536,102.51284 408.09575,105.16276 416.03575,104.68276 423.97575,104.20276 440.06505,106.60352 441.06505,103.23355 442.01505,99.873471 443.42536,94.593932 439.38536,93.383932 435.28536,92.183932 427.81559,89.542525 433.12559,85.692525 433.12559,85.692525 436.02583,80.632603 433.86583,71.022604 431.71583,61.402604 428.88583,59.853853 426.86583,58.053854 424.84583,56.243853 426.59622,44.343385 410.51622,38.823385 394.42622,33.293385 385.74536,32.813775 381.63536,28.723775 377.60536,24.643775 368.44575,30.65401 360.03575,22.71401 351.62575,14.78401 340.31489,9.7337757 326.65489,9.9737757 L 295.35606,10.93276 C 295.35606,10.93276 292.99567,5.8836975 280.95567,5.6436975 268.90567,5.4136975 259.07544,5.1636194 255.71544,7.8136194 255.71544,7.8136194 245.61575,7.5736998 241.03575,11.893697 241.03575,11.893697 240.56473,13.583697 235.99473,12.143697 231.41473,10.693697 217.28653,13.332447 214.58653,12.862447 211.96653,12.372447 209.54559,10.693697 195.87559,11.893697 195.87559,11.893697 186.72645,8.0525308 174.00645,10.692525 161.21645,13.332525 145.6052,7.3232288 142.9752,5.1632288 141.0102,3.5432288 130.37176,0.56721316 119.1002,0.50111939 Z M 72.045517,16.799947 C 73.703017,16.842447 75.065049,17.18276 75.065049,17.18276 75.065049,17.18276 75.264814,20.843853 76.074814,23.053854 77.484814,25.913854 88.726299,24.592447 92.096299,26.612447 94.046299,26.952447 92.696533,30.754088 89.336533,32.544088 83.276533,35.754088 74.595908,32.833932 68.945908,32.883932 63.285908,32.933932 61.135361,31.803854 61.135361,31.803854 61.135361,31.803854 60.465517,29.083932 60.795517,27.383932 61.135517,25.683932 64.904892,26.362447 64.904892,26.362447 64.904892,26.362447 69.276142,23.982682 67.936142,21.602682 66.586142,19.222682 64.906455,20.584244 67.256455,18.204244 68.436455,17.014244 70.388017,16.757447 72.045517,16.799947 Z M 314.48497,33.731588 C 315.32622,33.737838 316.2863,33.857604 317.0963,33.772604 318.7763,33.592603 318.9763,37.053072 320.5963,37.503072 321.8763,37.853072 323.08583,36.083229 324.36583,36.413228 325.03583,36.583229 325.84598,37.192682 325.77598,37.852682 325.70598,38.782682 324.36497,39.132994 323.48497,39.422994 320.72497,40.332994 317.16497,41.374322 314.73497,39.784322 313.12497,38.724322 311.57653,36.034166 312.58653,34.374166 312.92153,33.834166 313.64372,33.725338 314.48497,33.731588 Z M 549.88926,67.454244 C 547.44567,67.363377 545.12067,68.377447 542.70567,70.424947 537.19567,75.114947 530.79551,76.435103 527.29551,75.835104 523.79551,75.245102 509.86536,77.644557 506.63536,77.524557 503.40536,77.404557 500.64512,84.254869 504.14512,88.094869 507.57512,91.944869 507.50589,95.06401 505.69591,94.46401 503.87591,93.87401 501.11544,90.864947 498.96544,92.424947 496.80544,93.984947 495.93467,95.904869 497.41465,97.594869 498.82466,99.274869 497.88598,103.36487 500.77598,103.84487 503.60598,104.32487 503.20497,104.14464 504.48497,103.60464 505.82497,103.06464 507.24536,102.63503 510.13536,103.00503 513.02536,103.36503 520.8359,102.88511 521.44591,104.08511 522.04591,105.28511 523.12606,118.38394 526.35606,118.38394 529.58606,118.38394 530.46473,121.63472 534.49473,120.18472 538.60473,118.74472 542.30583,120.3048 541.36583,115.01479 540.42583,109.73479 538.6059,108.65331 545.94591,109.24331 553.27591,109.85331 558.45598,111.53394 560.27598,108.88394 560.27598,108.88394 560.61528,106.36503 561.55528,106.00503 562.49528,105.64503 566.13528,106.00481 565.05528,102.51479 563.97528,99.034796 567.4763,80.404713 560.3463,73.434713 556.36942,69.514088 553.03102,67.571073 549.88926,67.454244 Z M 174.3463,114.41323 C 177.0363,117.81323 173.33489,118.15253 172.65489,120.19253 171.98489,122.23253 175.68614,121.55331 175.68614,123.24331 175.68614,124.95331 174.00497,125.28433 171.98497,125.28433 169.89497,125.28433 165.52575,122.233 166.53575,119.173 167.54575,116.103 174.3463,114.41323 174.3463,114.41323 Z M 141.85606,133.39956 C 142.50304,133.47096 141.95012,134.22487 143.71544,135.56362 146.47544,137.60362 146.47567,142.36245 144.45567,142.36245 142.37567,142.36245 140.68661,140.32433 138.66661,138.28433 136.58661,136.24433 139.3463,133.86245 139.3463,133.86245 140.4388,133.60745 141.09036,133.45909 141.49473,133.41128 141.64637,133.39335 141.76364,133.38936 141.85606,133.39956 Z M 312.30528,134.8605 C 313.54153,134.83925 314.73497,135.09292 314.73497,135.09292 316.62497,135.94292 316.42575,137.30323 316.28575,138.66323 316.08575,140.02323 313.52567,139.85261 311.70567,140.02261 309.82567,140.19261 309.28559,138.49433 309.62559,136.28433 309.79059,135.17933 311.06903,134.88175 312.30528,134.8605 Z M 139.24473,146.94058 C 141.53587,147.02862 144.37559,150.11245 144.37559,150.11245 143.69559,152.49245 141.0052,152.20276 137.9752,151.18276 134.8752,150.16276 135.88528,148.12269 138.30528,147.10269 138.60028,146.97519 138.91743,146.928 139.24473,146.94058 Z M 166.75841,165.97378 C 167.49653,165.96706 167.94591,165.98355 167.94591,165.98355 L 166.60606,191.75308 174.4752,191.74331 174.27598,197.82339 172.05528,197.88394 171.71544,206.00308 175.28575,206.12417 175.08653,213.98355 171.58653,214.02261 C 171.58653,214.02261 173.46559,212.99394 171.37559,210.38394 170.43559,209.21394 167.34598,208.55323 167.27598,204.91323 167.00598,196.02323 160.07598,193.38386 160.27598,189.05386 160.54598,184.73386 156.43661,181.36253 156.16661,179.19253 155.96661,177.03253 148.96575,181.12339 147.28575,182.32339 145.60575,183.52339 143.71551,191.46245 141.29551,193.86245 138.87551,196.26245 138.19544,201.07331 136.71544,203.24331 135.30544,205.40331 131.19536,209.48433 132.88536,214.53433 134.56536,219.58433 133.82614,219.58323 131.93614,223.91323 129.98614,228.23323 124.19591,231.11409 124.19591,226.79409 124.19591,222.46409 123.7252,220.7837 123.7252,217.8937 123.7252,215.0137 129.24661,191.69353 131.66661,190.73355 134.09661,189.77355 135.77567,189.05245 137.45567,187.61245 139.13567,186.17245 139.13567,185.20362 142.70567,182.56362 146.34567,179.91362 143.9163,176.55269 146.3463,175.35269 148.7663,174.15269 152.60567,169.58323 156.70567,167.66323 159.73567,166.21573 164.54403,165.99394 166.75841,165.97378 Z M 186.85606,167.55386 186.7252,174.50308 175.3463,174.68276 174.74473,185.47378 172.79551,185.45425 173.26622,167.66323 186.85606,167.55386 Z M 178.10606,191.65347 187.19591,191.70425 186.99473,214.20425 179.92637,214.37417 179.99473,206.00308 182.48497,206.00308 182.61583,197.82339 177.9752,197.82339 178.10606,191.65347 Z M 47.697861,211.16519 C 48.968111,211.20769 49.893174,211.63347 49.893174,212.65347 49.893174,214.69347 49.894064,219.793 50.231064,222.173 50.635064,224.543 39.394595,220.81331 35.625595,221.49331 31.923595,222.17331 26.471658,222.17425 24.789658,219.45425 24.789658,219.45425 25.463424,213.67362 30.174424,212.31362 34.953424,210.95362 40.740236,212.99378 43.432236,211.97378 44.812236,211.46378 46.427611,211.12269 47.697861,211.16519 Z M 174.81505,220.40347 174.81505,224.33315 178.64512,224.63394 184.43614,228.59292 184.43614,234.90347 169.02598,235.20425 169.15489,220.54409 174.81505,220.40347 Z M 71.387314,242.50112 C 72.593447,242.49196 71.194345,243.41269 72.375595,244.60269 73.715597,245.96269 72.03583,248.68308 69.61583,248.00308 67.25583,247.32308 70.695908,242.56362 70.695908,242.56362 70.989658,242.52237 71.21501,242.50243 71.387314,242.50112 Z M 59.590439,255.5812 C 60.34581,255.64761 61.135361,256.84292 61.135361,256.84292 61.465361,258.20292 62.145127,261.60269 62.145127,261.60269 62.145127,261.60269 65.576533,263.30354 66.586533,263.98355 67.596533,264.66354 64.565361,269.76425 61.135361,266.70425 57.765361,263.64425 57.765908,260.58276 58.445908,257.18276 58.697158,255.90776 59.137217,255.54136 59.590439,255.5812 Z M 122.47715,336.89956 C 121.67744,336.88944 120.98364,336.93862 120.43614,337.06362 116.66614,337.95362 117.74489,348.63362 119.15489,349.56362 120.64489,350.49362 127.37606,350.16354 135.85606,349.73355 140.83606,349.48354 143.99583,346.41401 143.86583,344.71401 143.65583,343.01401 142.91465,342.17353 141.16465,341.23355 138.87215,340.00854 128.07525,336.97038 122.47715,336.89956 Z M 275.29942,346.19058 C 274.90053,346.20251 274.50005,346.22667 274.0963,346.26479 267.5663,346.86479 264.26614,349.45417 262.18614,352.87417 260.09614,356.29417 259.15614,362.45511 262.18614,364.83511 265.21614,367.20511 267.56606,365.37331 269.85606,368.49331 272.14606,371.61331 278.0663,371.50448 279.3463,369.69448 280.6963,367.89448 282.71497,364.88394 285.73497,364.88394 288.76497,364.88394 292.33536,363.09355 292.13536,359.48355 291.86536,355.87354 291.99497,351.91378 289.23497,350.22378 286.64747,348.64878 281.28279,346.01161 275.29942,346.19058 Z"
     style="display:inline;fill:#94ca90;fill-opacity:1;fill-rule:evenodd;stroke:#94ca90;stroke-width:1;stroke-linecap:butt;stroke-linejoin:miter;stroke-miterlimit:4;stroke-dasharray:none;stroke-opacity:1" />
  <path
     class="LAND"
     style="display:inline;fill:#94ca90;fill-opacity:1;fill-rule:evenodd;stroke:#94ca90;stroke-width:1;stroke-linecap:butt;stroke-linejoin:miter;stroke-miterlimit:4;stroke-dasharray:none;stroke-opacity:1"
     d="M 216.48552,218.6142 C 218.29552,219.1542 222.53552,217.8942 223.21552,220.4242 223.95552,222.9442 225.50552,227.6342 229.27552,227.7542 232.97552,227.8742 244.48552,230.6442 246.43552,225.4742 248.38552,220.3042 250.26552,218.9842 253.43552,219.4642 256.52552,219.9442 257.40552,216.4542 260.76552,216.2142 264.13552,215.9742 268.57552,215.6242 269.65552,212.2542 270.46552,209.8642 270.59552,204.4342 267.36552,201.6742 264.13552,198.9142 249.52552,198.6742 247.03552,195.4242 244.48552,192.1842 240.03552,189.5342 238.15552,188.6942 236.20552,187.8542 235.73552,188.4542 231.76552,183.5242 227.78552,178.6042 221.53552,181.4842 220.92552,187.6142 220.38552,193.7442 221.32552,199.7542 216.41552,202.2742 211.43552,204.8042 206.52552,210.2042 209.75552,214.2942 213.04552,218.3842 214.59552,218.0842 216.48552,218.6142 Z"
     id="path4724" />
  <path
     class="LAND"
     id="path4728"
     d="M 466.25255,57.903463 C 464.6363,57.813463 463.86059,58.053307 463.62559,59.493307 463.15559,62.373307 461.67606,63.094322 463.35606,64.784322 463.35606,64.784322 463.6252,66.224244 466.7252,66.704244 469.8852,67.184244 466.99575,74.3944 472.03575,75.1144 477.08575,75.8344 475.87473,79.443541 479.24473,78.483541 482.60473,77.523541 483.07505,72.233697 483.81505,74.393697 484.55505,76.553697 481.39622,84.734713 484.76622,85.934713 488.12622,87.134713 491.75645,87.854557 491.75645,83.774557 491.75645,79.684557 491.49465,75.363853 493.91465,76.553854 496.33466,77.763853 496.33567,73.19401 499.70567,72.71401 503.06567,72.23401 495.32473,63.815103 491.49473,63.585104 487.65473,63.345103 484.28583,66.224869 481.86583,63.094869 479.51583,59.974869 481.19637,58.054088 473.92637,58.294088 470.32637,58.414088 467.8688,57.993463 466.25255,57.903463 Z M 494.8795,108.09097 C 492.44057,108.0747 491.21958,108.46401 488.86583,108.46401 486.17583,108.46401 486.84575,109.14511 484.28575,110.33511 481.73575,111.52511 482.94466,115.77511 483.41465,118.83511 483.95466,121.88511 480.51622,122.73355 480.51622,122.73355 476.95622,124.60354 476.95622,129.03394 474.26622,130.38394 471.50622,131.74394 473.92614,139.90425 474.93614,142.45425 475.94614,145.00425 478.16575,143.81503 479.03575,145.00503 479.84575,146.19503 480.5159,146.70394 482.94591,147.38394 485.2959,148.06394 484.4252,150.61495 485.9752,153.67495 487.5152,156.73495 486.30505,155.8848 487.31505,158.26479 488.32505,160.6448 489.40466,159.28472 490.41465,158.43472 491.42466,157.58472 492.2959,152.99347 493.44591,152.65347 494.65591,152.31347 496.87544,148.4048 497.21544,145.51479 497.54544,142.6248 497.00606,143.81347 500.10606,144.15347 503.13606,144.49347 502.79512,141.09487 505.89512,141.09487 508.92512,141.09487 511.61591,141.94394 512.69591,138.88394 513.7059,135.82394 514.37536,138.54495 515.38536,136.67495 516.39536,134.80495 513.83583,134.46347 511.61583,130.90347 509.46583,127.32347 509.93567,128.68339 511.95567,127.32339 514.03567,125.96339 513.7059,123.92355 512.69591,122.73355 511.61591,121.55354 513.70637,121.7248 515.92637,120.01479 518.07637,118.3248 518.74473,121.5544 518.74473,116.6144 518.74473,111.6944 516.05497,114.06472 512.48497,111.18472 508.92497,108.29472 508.72598,108.80394 506.02598,108.63394 503.33598,108.46394 499.23645,108.29417 496.00645,108.12417 495.60145,108.10292 495.22792,108.09329 494.8795,108.09097 Z M 441.95567,126.19448 C 440.06567,126.19448 436.56544,129.44347 435.96544,130.40347 435.35544,131.36347 431.79473,132.08464 431.99473,134.85464 432.26473,137.61464 429.57622,137.01433 428.76622,139.53433 427.88622,142.06433 430.31559,141.82456 432.12559,143.02456 433.94559,144.22456 432.39551,147.47378 433.54551,147.22378 434.75551,146.98378 438.25591,149.99401 442.69591,150.71401 447.1359,151.43401 448.61598,150.3548 447.27598,149.51479 445.92598,148.66479 446.93614,146.38394 446.93614,146.38394 448.61614,144.22394 450.16497,143.50417 451.98497,140.37417 453.73497,137.25417 451.10536,136.41425 450.63536,135.20425 450.16536,134.01425 448.9563,131.36386 448.3463,129.80386 447.7463,128.24386 443.90567,126.19448 441.95567,126.19448 Z M 439.21348,134.68081 C 439.38239,134.67118 439.57778,134.68729 439.80528,134.73355 441.61528,135.09355 441.7559,136.65347 442.69591,136.65347 443.6359,136.65347 442.35614,138.33472 443.43614,138.93472 444.51614,139.53472 444.51583,141.34487 441.61583,141.09487 438.72583,140.86487 439.32551,140.98495 437.04551,139.17495 437.04551,139.17495 436.09637,138.0948 437.17637,137.01479 438.12137,136.0698 438.03114,134.74821 439.21348,134.68081 Z M 379.16661,237.97378 C 376.88051,237.98878 374.90426,238.30097 374.04551,238.93472 371.82551,240.61472 370.2059,246.74448 370.94591,251.19448 371.68591,255.63448 377.2059,254.67362 383.19591,254.56362 389.1859,254.43362 390.66465,251.30386 390.66465,251.30386 391.40466,250.23386 392.48575,251.52323 394.03575,251.91323 395.58575,252.30323 398.13536,252.15511 399.88536,253.83511 401.70536,255.51511 405.81497,256.00378 409.98497,256.47378 414.22497,256.96378 411.59473,253.7144 407.49473,253.1144 403.38473,252.5144 403.38528,249.02495 399.55528,248.67495 395.71528,248.30495 400.02528,245.30425 403.05528,247.70425 406.01528,250.11425 409.04559,248.42495 412.87559,248.42495 416.71559,248.42495 421.29473,250.71464 423.24473,250.35464 425.12473,249.99464 417.79505,246.62503 414.56505,246.50503 411.33505,246.38503 411.80497,243.73464 409.98497,244.10464 408.23497,244.46464 405.34466,244.70479 402.91465,243.26479 400.49466,241.8148 398.47489,242.29433 396.65489,242.78433 394.84489,243.26433 392.35567,242.66503 389.45567,240.25503 387.64942,238.74878 382.97676,237.94878 379.16661,237.97378 Z M 4.6060641,249.70425 C 1.3760642,249.87425 -0.5078108,251.0644 3.0591891,253.6144 3.0591891,253.6144 5.4819548,254.80425 6.6939548,253.95425 7.8379548,253.10425 7.8370641,249.53425 4.6060641,249.70425 Z M 428.76622,250.71401 C 424.05622,250.59401 425.12551,251.49503 424.79551,252.75503 424.65551,253.30503 426.47528,254.91347 427.55528,255.15347 428.62528,255.39347 427.21544,259.12479 430.71544,258.76479 434.14544,258.40479 438.11489,257.56448 435.15489,254.19448 432.12489,250.83448 433.40622,250.83401 428.76622,250.71401 Z M 417.49864,254.30776 C 415.9877,254.34028 414.80645,254.70737 413.75645,254.56362 412.07645,254.31362 413.14528,259.36386 415.30528,257.80386 415.30528,257.80386 418.66606,257.32347 419.60606,258.40347 420.61606,259.48347 422.77489,257.80386 424.65489,257.80386 426.60489,257.80386 423.71583,255.87409 420.61583,254.79409 419.43083,254.38909 418.4052,254.28825 417.49864,254.30776 Z M 5.8795017,256.13979 C 5.7428806,256.15606 5.6073141,256.27128 5.4810641,256.50503 5.4810641,256.50503 3.059486,266.87425 3.463486,270.95425 3.800486,275.03425 5.9529548,273.16511 5.8189548,269.08511 5.6169548,265.00511 5.6157673,265.17409 6.8267673,262.79409 7.8872673,260.71159 6.8358493,256.02591 5.8795017,256.13979 Z M 410.14708,274.47769 C 405.70782,274.36038 401.82122,275.59597 401.23497,277.15347 400.56497,278.94347 393.62559,282.34487 393.62559,282.34487 390.53559,279.53487 391.27512,281.24472 388.64512,278.43472 386.02512,275.62472 379.89473,275.54355 374.24473,276.98355 368.52473,278.43355 366.90598,282.68394 365.02598,288.88394 363.13598,295.09394 365.49559,315.40464 376.87559,317.35464 388.24559,319.30464 380.50489,318.29495 391.40489,320.92495 402.24489,323.56495 410.92536,319.39339 413.88536,324.32339 416.91536,329.25339 428.69536,333.92323 431.38536,333.16323 434.14536,332.39323 440.40481,332.14417 441.07481,330.87417 441.75481,329.59417 444.98622,327.38487 446.26622,325.34487 447.54622,323.30487 445.25645,313.44401 443.50645,309.71401 441.68645,305.96401 435.15598,303.16456 428.02598,304.52456 420.88598,305.88456 417.79544,303.84362 416.71544,302.56362 415.63544,301.29362 422.57458,302.22409 422.83458,301.04409 423.10458,299.85409 422.30614,298.14433 422.43614,296.53433 422.50614,294.91433 428.89622,295.42354 427.01622,293.98355 425.12622,292.54354 425.0663,287.78347 423.8463,285.65347 422.6363,283.52347 419.40512,284.80464 420.14512,282.60464 420.82512,280.38464 418.26575,279.02448 416.78575,278.94448 415.36575,278.85448 417.25481,275.2044 412.07481,274.6144 411.42606,274.5394 410.78126,274.49444 410.14708,274.47769 Z M 46.39708,281.15933 C 45.403142,281.1912 44.721299,282.08417 44.721299,284.12417 44.721299,286.84417 45.663002,287.52339 46.942002,285.82339 46.942002,285.82339 48.961064,282.08347 47.481064,281.40347 47.094064,281.23347 46.728392,281.1487 46.39708,281.15933 Z M 42.889267,288.54995 C 42.221377,288.4398 41.447002,288.86323 41.488877,290.66323 41.556877,293.55323 42.02847,298.31479 40.547471,300.01479 39.06647,301.72479 41.354877,307.83394 42.363877,306.13394 43.373877,304.43394 42.43158,299.85339 43.70958,298.82339 44.98858,297.80339 44.113939,289.8637 43.777939,289.1437 43.651564,288.8737 43.290002,288.61604 42.889267,288.54995 Z M 13.77208,292.7394 C 12.347851,292.7562 10.933173,293.53706 10.596298,295.77456 10.058298,299.34456 10.73083,301.88394 12.61583,301.88394 14.49983,301.88394 19.884595,301.04401 18.875595,297.46401 17.865596,293.89401 17.86583,294.42394 16.11583,293.38394 15.48508,292.99394 14.626617,292.72933 13.77208,292.7394 Z"
     style="display:inline;fill:#986749;fill-opacity:1;fill-rule:evenodd;stroke:#986749;stroke-width:1;stroke-linecap:butt;stroke-linejoin:miter;stroke-miterlimit:4;stroke-dasharray:none;stroke-opacity:1" />
  <path
     class="LAND"
     id="path4734"
     d="M 531.53575,151.12417 C 531.53575,151.12417 528.10606,152.82425 529.85606,155.20425 531.53606,157.58425 529.18575,161.83464 524.53575,158.60464 519.96575,155.37464 518.27497,157.75401 519.48497,159.96401 520.63497,162.17401 521.84512,162.85323 521.64512,165.91323 521.50512,168.96323 524.73544,171.18503 527.96544,170.50503 531.20544,169.82503 536.6563,164.72354 539.3463,169.48355 542.0363,174.23355 542.44645,177.13511 544.25645,174.58511 546.14645,172.03511 546.34559,170.50323 544.12559,165.91323 541.90559,161.32323 542.4463,155.54323 539.3463,153.16323 536.3163,150.78323 534.09575,151.80417 531.53575,151.12417 Z M 459.31505,152.88394 C 452.85505,152.90394 446.86606,156.73425 445.85606,159.45425 443.97606,166.59425 440.06505,170.50503 440.06505,170.50503 435.49505,178.31503 440.74591,190.56331 446.19591,191.24331 451.6459,191.92331 451.98458,194.29347 454.33458,195.65347 456.76458,197.01347 458.44544,195.99331 462.21544,195.99331 465.91544,195.99331 470.49458,192.59362 473.58458,190.56362 476.61458,188.52362 478.16551,184.43355 478.29551,182.73355 478.50551,181.03355 482.74528,178.66386 481.05528,177.30386 479.37528,175.94386 477.28559,169.82394 472.37559,160.13394 470.15559,155.79394 464.50505,152.86394 459.31505,152.88394 Z M 458.90098,171.8644 C 460.15518,171.79253 461.40606,172.87378 462.07481,174.75503 463.15481,177.75503 463.96544,179.19448 463.96544,179.19448 463.96544,179.19448 458.10465,181.00339 455.41465,179.32339 455.41465,179.32339 455.07622,175.83362 456.76622,173.31362 457.39622,172.36487 458.14846,171.90753 458.90098,171.8644 Z M 529.86192,173.51089 C 529.69143,173.49833 529.5088,173.51261 529.31505,173.55386 529.31505,173.55386 528.10512,176.95503 528.64512,179.50503 529.18512,182.05503 526.28551,182.7348 525.54551,184.26479 524.87551,185.80479 523.52497,187.32456 524.73497,189.02456 525.95497,190.72456 527.43458,193.78347 526.08458,195.65347 524.73458,197.52347 526.62497,200.92331 524.73497,200.24331 522.85497,199.56331 522.51512,197.01362 523.39512,195.31362 524.20512,193.61362 524.53606,192.42347 522.85606,191.40347 521.17606,190.38347 516.73528,194.12347 516.05528,195.65347 515.38528,197.18347 513.49567,201.60355 518.95567,203.98355 524.40567,206.36354 528.4452,208.91417 534.2252,206.87417 540.0152,204.83417 540.2163,204.32394 544.5963,203.13394 549.0363,201.94394 546.00598,200.7544 548.02598,197.8644 550.04598,194.9744 544.45497,192.59472 542.23497,192.93472 540.01497,193.27472 540.01637,191.92331 538.67637,191.74331 537.32637,191.57331 535.2352,192.76425 534.2252,193.95425 533.2152,195.14425 531.67637,195.6544 531.67637,193.6144 531.67637,191.5744 531.67536,189.36323 532.88536,187.16323 534.09536,184.94323 531.67637,181.7137 531.67637,178.1437 531.67637,175.0287 531.05534,173.5988 529.86192,173.51089 Z M 508.18809,211.10659 C 507.98219,211.0973 507.77731,211.10292 507.57481,211.12417 505.96481,211.29417 502.46544,211.80401 502.46544,215.71401 502.46544,219.62401 503.13583,221.66487 506.36583,222.34487 509.59583,223.02487 513.49637,222.86433 514.17637,219.28433 514.84637,215.71433 514.03497,214.18331 512.48497,212.99331 511.13747,211.95206 509.62938,211.17167 508.18809,211.10659 Z M 508.03184,215.00894 C 508.14135,215.00331 508.25911,215.01183 508.38536,215.03433 509.39536,215.20433 510.94622,217.07472 510.26622,218.43472 509.59622,219.79472 506.90489,219.62511 506.90489,217.58511 506.90489,215.80011 507.26526,215.04831 508.03184,215.00894 Z M 226.20567,254.52065 C 224.96919,254.51108 225.43614,256.72378 225.43614,256.72378 226.51614,258.76378 226.37614,256.96417 227.18614,259.12417 228.05614,261.29417 231.28466,259.60456 232.16465,261.52456 232.97466,263.45456 232.83528,263.20425 243.80528,263.45425 254.71528,263.69425 252.89614,259.48487 253.43614,256.84487 253.90614,254.19487 248.11473,254.79472 245.49473,257.68472 242.79473,260.56472 238.15512,261.17401 235.39512,259.96401 232.63512,258.76401 231.7659,257.32386 229.94591,257.80386 228.1959,258.28386 228.8663,255.51495 226.8463,254.67495 226.5938,254.56995 226.38231,254.52202 226.20567,254.52065 Z M 259.78184,254.77847 C 258.78913,254.76056 258.27489,256.73081 258.68614,258.52456 259.15614,260.56456 256.86583,261.52456 256.86583,261.52456 254.03583,264.17456 262.31583,265.97386 263.86583,264.05386 265.41583,262.13386 268.44489,262.61386 269.65489,260.80386 270.86489,259.00386 277.93481,259.36401 277.32481,256.96401 276.72481,254.56401 265.54473,255.63464 262.99473,256.60464 260.49473,257.56464 261.57497,255.63323 260.23497,254.91323 260.07497,254.82323 259.92366,254.78103 259.78184,254.77847 Z M 340.80919,257.68667 C 339.07153,257.82729 339.19825,259.60409 338.03575,261.04409 336.48575,262.97409 338.23512,264.53456 340.39512,264.77456 340.39512,264.77456 343.89505,265.25378 346.31505,262.97378 348.73505,260.68378 347.72575,259.72323 343.28575,258.16323 342.17575,257.77323 341.3884,257.63979 340.80919,257.68667 Z M 284.06114,259.75698 C 281.47834,259.70715 279.02919,260.4287 277.32481,261.6437 274.29481,263.8137 273.01598,268.49456 275.77598,268.02456 275.77598,268.02456 279.00637,265.0137 283.92637,264.8937 288.83637,264.7737 291.99505,268.74323 293.81505,267.41323 295.56505,266.09323 294.42551,263.92347 290.04551,261.40347 288.15989,260.30097 286.06998,259.79574 284.06114,259.75698 Z M 339.62364,268.57729 C 338.45417,268.5037 337.31747,268.64097 336.48497,269.18472 334.19497,270.62472 332.71622,270.97386 332.51622,272.30386 332.24622,273.62386 331.3052,274.46409 331.9752,275.54409 331.9752,275.54409 335.27606,278.79339 339.85606,278.07339 344.36606,277.35339 347.39645,276.50456 343.75645,276.02456 340.18645,275.54456 334.19559,274.22495 338.37559,272.42495 342.61559,270.62495 345.97473,270.37456 344.49473,269.77456 343.61348,269.40581 341.57276,268.69995 339.62364,268.57729 Z M 291.05528,270.30386 C 285.40528,270.42386 280.82481,275.82339 280.82481,275.82339 280.22481,277.15339 281.29512,276.43339 282.64512,276.07339 283.92512,275.70339 283.78473,277.0344 284.99473,278.1144 286.21473,279.1944 291.86583,277.51394 295.36583,277.63394 298.86583,277.75394 298.12559,275.23472 298.12559,273.18472 298.12559,271.14472 296.64528,270.18386 291.05528,270.30386 Z M 6.9302829,307.03823 C 6.6385798,307.04485 6.3135173,307.13339 5.9517673,307.32339 3.0577673,308.85339 4.6064235,315.31417 2.9244235,318.37417 1.2414235,321.43417 2.5876579,322.11401 1.0396579,322.96401 -0.5083421,323.81401 1.7115954,326.36511 2.2505954,329.08511 2.7215954,331.80511 2.5881891,334.18347 3.9341891,336.90347 5.2801892,339.62347 4.1358923,341.66448 6.1548923,343.19448 8.1738923,344.72448 6.492486,339.96425 8.713486,339.45425 10.934486,338.94425 12.952361,339.10433 14.635361,335.03433 16.317361,330.95433 17.864705,334.0137 18.537705,332.1437 18.807705,331.3637 20.893705,328.89362 19.412705,327.31362 18.134705,325.94362 16.788299,324.49409 15.846299,327.04409 14.904299,329.59409 13.827064,333.34323 11.606064,333.16323 9.3850642,332.99323 9.7224235,332.49425 9.0494235,330.95425 8.1744235,329.16425 8.5102985,327.21425 9.7212985,326.70425 10.933298,326.19425 13.289658,321.60362 12.414658,319.56362 11.606658,317.52362 9.385361,315.14472 9.385361,312.93472 9.385361,311.00097 8.9722048,306.99188 6.9302829,307.03823 Z M 189.73106,333.39761 C 189.22937,333.36362 188.65934,333.53667 188.01622,334.01479 184.64622,336.56479 188.88606,338.60331 189.35606,341.49331 189.89606,344.37331 192.79551,341.83511 192.79551,337.58511 192.79551,337.58511 191.90504,333.5449 189.73106,333.39761 Z M 170.29747,348.9855 C 169.17663,348.99821 168.28239,349.40956 168.15489,350.49331 167.82489,353.39331 167.82536,354.91472 169.63536,355.43472 171.52536,355.94472 171.05505,354.4037 172.06505,353.3937 172.06505,353.3937 176.30551,352.54503 175.29551,351.00503 174.66426,350.05503 172.16553,348.96431 170.29747,348.9855 Z M 28.410752,351.6437 C 26.775377,351.6912 25.320064,351.83933 23.856064,352.03433 18.001064,352.80433 12.077298,361.20409 9.7212985,370.04409 6.6932985,383.70409 43.172049,397.74394 58.315049,400.13394 69.015049,401.49394 75.416142,392.73409 76.686142,391.29409 81.466142,385.85409 72.114814,375.31464 66.324814,377.35464 52.190814,383.44464 70.696002,359.65472 53.067002,355.43472 39.841502,352.26972 33.316877,351.5012 28.410752,351.6437 Z M 189.85411,356.85073 C 186.57689,356.65349 187.36778,361.10815 186.80528,362.22378 184.57528,366.48378 187.67505,366.13409 190.56505,365.29409 193.46505,364.44409 193.8063,364.43394 193.5963,361.38394 193.4663,358.31394 192.52505,357.38425 190.56505,356.95425 190.3088,356.89737 190.07259,356.86388 189.85411,356.85073 Z M 173.79161,364.61245 C 173.07032,364.62241 172.06856,365.11323 171.85606,367.66323 171.52606,371.74323 173.20551,371.7437 175.29551,370.8937 177.31551,370.0437 179.53598,370.89495 178.52598,368.17495 177.51598,365.45495 176.97528,366.30456 174.55528,364.77456 174.55528,364.77456 174.22438,364.60647 173.79161,364.61245 Z"
     style="display:inline;fill:#f2efec;fill-opacity:1;fill-rule:evenodd;stroke:#f2efec;stroke-width:1;stroke-linecap:butt;stroke-linejoin:miter;stroke-miterlimit:4;stroke-dasharray:none;stroke-opacity:1" />
  <path
     class="LAND"
     id="path4738"
     d="M 540.20567,34.567525 C 539.97676,34.590069 539.75614,34.643541 539.54551,34.733541 536.18551,36.173541 536.71497,37.133307 535.23497,40.743307 535.23497,40.743307 526.08497,46.514947 529.98497,48.674947 533.82497,50.844947 535.71536,47.473463 538.13536,49.153463 540.55536,50.843463 542.91637,50.844244 543.92637,47.954244 544.86637,45.074244 544.59505,42.904479 546.81505,41.944478 548.83067,41.044479 543.63926,34.229366 540.20567,34.567525 Z M 522.7252,47.774557 C 522.7252,47.774557 522.18466,48.803463 520.16465,49.653463 518.07465,50.493463 516.73497,53.223775 519.48497,53.223775 522.18497,53.223775 522.51497,50.494791 524.73497,51.014791 526.96497,51.524791 525.5452,47.954557 522.7252,47.774557 Z M 533.89512,53.393697 C 532.54512,53.393697 527.96473,55.264479 530.99473,56.444478 534.09473,57.634478 538.46551,56.444791 537.79551,55.264791 537.12551,54.074791 535.30512,53.393697 533.89512,53.393697 Z M 509.79551,53.723775 C 507.37551,53.963775 502.52598,57.084557 502.52598,58.774557 502.52598,60.454557 501.38489,60.694166 499.90489,62.624166 498.49489,64.534166 498.49551,66.464635 502.79551,69.354635 502.79551,69.354635 506.6352,74.874244 510.4752,72.954244 514.3052,71.034244 513.63551,65.984322 515.04551,64.534322 516.52551,63.094322 512.15551,53.483775 509.79551,53.723775 Z M 441.43614,59.096822 C 441.27702,59.10006 441.11403,59.120729 440.94591,59.163228 438.18591,59.843228 436.03575,61.384479 436.03575,64.944478 436.03575,64.944478 437.37637,66.473775 438.92637,66.473775 440.40637,66.473775 445.18614,67.1544 445.18614,65.1144 445.18614,63.2019 443.82292,59.048263 441.43614,59.096822 Z M 567.26622,131.84292 C 565.32535,131.90707 563.54864,132.39956 562.43614,133.52456 558.79614,137.13456 562.16497,140.7437 559.73497,143.1437 557.38497,145.5437 558.59497,149.15394 559.73497,149.63394 560.94497,150.11394 559.26606,152.51394 557.85606,155.88394 556.37606,159.25394 560.00497,163.3337 559.73497,168.1437 559.53497,172.9537 559.06505,191.94464 559.06505,194.10464 559.06505,196.26464 557.18536,198.19331 557.38536,202.99331 557.38536,202.99331 562.16505,206.6044 564.31505,206.3644 566.46505,206.1244 563.10622,210.20425 566.26622,210.20425 569.36622,210.20425 564.31645,205.15347 572.25645,205.15347 580.19645,205.15347 579.45544,207.80386 580.46544,207.80386 581.41544,207.80386 578.51645,215.25386 584.50645,220.30386 590.56645,225.35386 591.97528,222.70331 596.55528,221.74331 601.13528,220.78331 595.61591,219.34503 599.44591,215.25503 603.28591,211.16503 597.76544,204.92433 597.96544,202.03433 598.23544,199.14433 591.97575,200.11401 591.03575,197.46401 590.02575,194.82401 588.61473,191.9444 585.24473,187.6144 581.88473,183.2844 582.62598,175.83401 584.77598,172.46401 586.92598,169.10401 584.03473,157.08347 585.24473,155.40347 586.45473,153.71347 582.55497,142.18409 578.98497,139.29409 578.98497,139.29409 577.77606,138.09425 577.10606,135.45425 576.59731,133.63237 571.53613,131.70179 567.26622,131.84292 Z M 460.4127,235.72378 C 459.84671,235.71896 459.23544,235.73292 458.57481,235.76479 448.07481,236.2848 448.41489,233.89448 440.40489,240.19448 432.46489,246.47448 430.91567,243.42409 429.70567,245.79409 428.56567,248.18409 428.02575,247.8348 429.03575,248.51479 429.03575,248.51479 431.72575,249.19456 434.28575,249.02456 436.83575,248.86456 436.50559,248.68362 437.37559,251.06362 438.18559,253.45362 436.3663,259.39394 444.8463,258.88394 453.3263,258.37394 453.32551,259.39511 455.54551,260.58511 457.77551,261.77511 455.01551,257.86487 460.79551,256.84487 466.58551,255.82487 468.80512,258.20331 469.14512,255.99331 469.48512,253.78331 468.13489,252.09339 470.15489,251.57339 472.24489,251.06339 470.49598,249.19378 475.27598,246.47378 475.27598,246.47378 476.48497,245.96433 474.73497,244.78433 473.04497,243.59433 468.47551,243.42386 467.79551,241.55386 467.16739,239.79136 468.90264,235.79603 460.4127,235.72378 Z M 530.62755,238.21987 C 530.19587,238.20786 529.71614,238.23839 529.18614,238.32339 524.87614,238.99339 525.41544,241.55355 526.96544,242.23355 528.44544,242.91355 527.63544,244.94433 525.21544,245.28433 522.85544,245.62433 521.97598,247.16472 523.52598,248.18472 523.52598,248.18472 525.5452,249.5344 528.9752,249.3644 532.4152,249.1944 534.09512,251.9137 533.89512,255.1437 533.75512,258.3737 536.98473,259.22355 537.99473,259.73355 539.00473,260.24354 536.65536,261.94362 539.88536,263.81362 543.11536,265.68362 537.79637,269.59511 538.67637,273.33511 539.54637,277.07511 540.01551,277.58503 537.79551,277.75503 535.57551,277.92503 536.45575,272.31354 526.28575,272.48355 516.05575,272.65355 514.17551,270.95401 509.79551,275.71401 505.35551,280.47401 501.78528,285.74472 503.80528,287.43472 505.89528,289.14472 506.70505,289.1444 506.56505,291.8644 506.36505,294.5844 510.47536,296.61464 515.38536,296.10464 520.29536,295.59464 519.28583,296.96479 523.86583,295.26479 528.44583,293.55479 528.97622,293.55409 529.51622,297.29409 529.98622,301.04409 533.42645,301.88448 539.00645,300.69448 544.59645,299.50448 541.56544,299.68433 545.46544,296.78433 549.37544,293.90433 543.92497,295.42409 549.23497,288.29409 549.23497,288.29409 549.37465,285.74456 548.16465,278.77456 547.01466,271.80456 548.49497,264.32417 549.23497,262.62417 549.91497,260.92417 547.35622,258.7137 545.26622,255.1437 543.24622,251.5737 544.4552,252.42378 541.2252,250.72378 537.9952,249.02378 537.99481,247.15347 535.57481,247.15347 533.21481,247.15347 532.74528,243.42394 533.55528,241.88394 534.32528,240.54519 533.6493,238.30396 530.62755,238.21987 Z M 443.9752,246.59487 C 444.74895,246.51987 445.55606,246.94339 445.85606,247.32339 446.46606,248.09339 446.7363,249.19386 450.0963,250.55386 453.5363,251.91386 453.32598,253.27409 452.52598,254.29409 451.64598,255.31409 449.89575,253.96401 446.53575,253.96401 443.09575,253.96401 441.95551,252.0944 442.29551,248.8644 442.46051,247.2444 443.20145,246.66987 443.9752,246.59487 Z M 529.92442,278.00894 C 530.37817,278.00894 531.00137,278.26433 531.67637,279.28433 533.08637,281.32433 532.54614,281.83448 534.43614,283.19448 536.31614,284.55448 528.77614,285.9137 522.18614,284.8937 515.58614,283.8737 516.73473,286.07425 513.49473,284.20425 513.49473,284.20425 511.48637,278.60448 515.92637,278.94448 520.29637,279.28448 519.82614,281.15386 522.18614,280.80386 524.53614,280.47386 529.18614,278.26479 529.18614,278.26479 529.18614,278.26479 529.47067,278.00894 529.92442,278.00894 Z"
     style="display:inline;fill:#c9b293;fill-opacity:1;fill-rule:evenodd;stroke:#c9b293;stroke-width:1;stroke-linecap:butt;stroke-linejoin:miter;stroke-miterlimit:4;stroke-dasharray:none;stroke-opacity:1" />
  <path
     class="LAND"
     style="fill:#94ca90;fill-opacity:1;fill-rule:evenodd;stroke:#94ca90;stroke-width:1;stroke-linecap:butt;stroke-linejoin:miter;stroke-miterlimit:4;stroke-dasharray:none;stroke-opacity:1"
     d="M 358.69552,106.8342 C 358.69552,106.8342 351.96552,112.1342 353.71552,116.0242 355.53552,119.8942 359.37552,121.3142 362.93552,120.6042 366.43552,119.8942 369.93552,121.6642 372.83552,119.5442 375.65552,117.4242 376.66552,110.7242 373.16552,107.5442 369.60552,104.3642 362.53552,105.0742 358.69552,106.8342 Z"
     id="path4806" />
    <path
            class="ROUTE"
            id="hoenn-route-101"
            areaid="[393]"
            d="M 109.05424,253.73025 109.05424,291.66025"
            style="display:inline;fill:none;fill-opacity:1;fill-rule:evenodd;stroke:black;stroke-width:2;stroke-linecap:butt;stroke-linejoin:miter;stroke-miterlimit:4;stroke-dasharray:none;stroke-opacity:1" />
    <path
            class="ROUTE"
            style="display:inline;fill:none;fill-opacity:1;fill-rule:evenodd;stroke:black;stroke-width:2;stroke-linecap:butt;stroke-linejoin:miter;stroke-miterlimit:4;stroke-dasharray:none;stroke-opacity:1"
            d="M 108.02424,254.47025 39.71424,254.47025 M 39.71424,234.51025 39.71424,254.51025"
            id="hoenn-route-102"
            areaid="[394]" />
    <path
            class="ROUTE"
            id="hoenn-route-103"
            d="M 161.02424,217.77025 109.05424,217.75025 109.05424,253.66025"
            style="display:inline;fill:none;fill-opacity:1;fill-rule:evenodd;stroke:black;stroke-width:2;stroke-linecap:butt;stroke-linejoin:miter;stroke-miterlimit:4;stroke-dasharray:none;stroke-opacity:1"
            areaid="[395]"/>
    <path
            class="ROUTE"
            id="hoenn-route-104"
            d="M 39.71424,187.98025 39.71424,234.51025"
            style="display:inline;fill:none;fill-opacity:1;fill-rule:evenodd;stroke:black;stroke-width:2;stroke-linecap:butt;stroke-linejoin:miter;stroke-miterlimit:4;stroke-dasharray:none;stroke-opacity:1"
            areaid="[396]" />
    <path
            class="ROUTE"
            id="hoenn-route-105"
            d="M 39.71424,255.56025 39.71424,345.28025"
            style="display:inline;fill:none;fill-opacity:1;fill-rule:evenodd;stroke:black;stroke-width:2;stroke-linecap:butt;stroke-linejoin:miter;stroke-miterlimit:4;stroke-dasharray:none;stroke-opacity:1"
            areaid="[397]"/>
    <path
            class="ROUTE"
            id="hoenn-route-106"
            d="M 56.01424,369.71025 56.01424,345.28025 39.71424,345.28025"
            style="display:inline;fill:none;fill-opacity:1;fill-rule:evenodd;stroke:black;stroke-width:2;stroke-linecap:butt;stroke-linejoin:miter;stroke-miterlimit:4;stroke-dasharray:none;stroke-opacity:1"
            areaid="[398]"/>
    <path
            class="ROUTE"
            id="hoenn-route-107"
            d="M 56.01424,368.84025 101.73424,368.77025 101.73424,363.21025 112.30424,363.28025"
            style="display:inline;fill:none;fill-opacity:1;fill-rule:evenodd;stroke:black;stroke-width:2;stroke-linecap:butt;stroke-linejoin:miter;stroke-miterlimit:4;stroke-dasharray:none;stroke-opacity:1"
            areaid="[399]" />
    <path
            class="ROUTE"
            id="hoenn-route-108"
            d="M 111.80424,363.28025 173.05424,363.28025"
            style="display:inline;fill:none;fill-opacity:1;fill-rule:evenodd;stroke:black;stroke-width:2;stroke-linecap:butt;stroke-linejoin:miter;stroke-miterlimit:4;stroke-dasharray:none;stroke-opacity:1"
            areaid="[400]"/>
    <path
            class="ROUTE"
            id="hoenn-route-109"
            d="M 173.05424,268.69025 173.05424,363.28025"
            style="display:inline;fill:none;fill-opacity:1;fill-rule:evenodd;stroke:black;stroke-width:2;stroke-linecap:butt;stroke-linejoin:miter;stroke-miterlimit:4;stroke-dasharray:none;stroke-opacity:1"
            areaid="[401]"/>
    <path
            class="ROUTE"
            id="hoenn-route-110"
            d="M 173.15424,267.36025 173.04424,253.10025 161.05424,253.06025 161.05424,217.63025"
            style="display:inline;fill:none;fill-opacity:1;fill-rule:evenodd;stroke:black;stroke-width:2;stroke-linecap:butt;stroke-linejoin:miter;stroke-miterlimit:4;stroke-dasharray:none;stroke-opacity:1"
            areaid="[402]"/>
    <path
            class="ROUTE"
            id="hoenn-route-111"
            d="M 181.54424,143.14025 181.54424,21.95025"
            style="display:inline;fill:none;fill-opacity:1;fill-rule:evenodd;stroke:black;stroke-width:2;stroke-linecap:butt;stroke-linejoin:miter;stroke-miterlimit:4;stroke-dasharray:none;stroke-opacity:1"
            areaid="[403]"/>
    <path
            class="ROUTE"
            style="display:inline;fill:none;fill-opacity:1;fill-rule:evenodd;stroke:black;stroke-width:2;stroke-linecap:butt;stroke-linejoin:miter;stroke-miterlimit:4;stroke-dasharray:none;stroke-opacity:1"
            d="M 126.73424,77.70025 181.54424,77.70025 M 156.73424,78.03025 156.73424,64.28025 181.50424,64.28025"
            id="hoenn-route-112" />
    <path
            class="ROUTE"
            id="hoenn-route-113"
            d="M 100.73424,21.95025 181.54424,21.95025"
            style="display:inline;fill:none;fill-opacity:1;fill-rule:evenodd;stroke:black;stroke-width:2;stroke-linecap:butt;stroke-linejoin:miter;stroke-miterlimit:4;stroke-dasharray:none;stroke-opacity:1"
            areaid="[404]"/>
    <path
            class="ROUTE"
            style="display:inline;fill:none;fill-opacity:1;fill-rule:evenodd;stroke:black;stroke-width:2;stroke-linecap:butt;stroke-linejoin:miter;stroke-miterlimit:4;stroke-dasharray:none;stroke-opacity:1"
            d="M 80.94424,21.95025 99.54424,21.95025 M 80.87424,22.02025 80.87424,57.95025 M 60.25674,57.95025 80.87424,57.95025"
            id="hoenn-route-114"
            areaid="[405]"/>
    <path
            class="ROUTE"
            style="display:inline;fill:none;fill-opacity:1;fill-rule:evenodd;stroke:black;stroke-width:2;stroke-linecap:butt;stroke-linejoin:miter;stroke-miterlimit:4;stroke-dasharray:none;stroke-opacity:1"
            d="M 39.63924,187.14025 39.63924,57.95025 M 39.63924,57.95025 60.25674,57.95025"
            id="hoenn-route-115"
            areaid="[406]"/>
    <path
            class="ROUTE"
            id="hoenn-route-116"
            d="M 109.54424,143.65025 80.94424,143.83025 80.94424,185.95025 39.63924,185.95025"
            style="display:inline;fill:none;fill-opacity:1;fill-rule:evenodd;stroke:black;stroke-width:2;stroke-linecap:butt;stroke-linejoin:miter;stroke-miterlimit:4;stroke-dasharray:none;stroke-opacity:1"
            areaid="[407]"/>
    <path
            class="ROUTE"
            id="hoenn-route-117"
            d="M 110.73424,143.65025 181.54424,143.65025"
            style="display:inline;fill:none;fill-opacity:1;fill-rule:evenodd;stroke:black;stroke-width:2;stroke-linecap:butt;stroke-linejoin:miter;stroke-miterlimit:4;stroke-dasharray:none;stroke-opacity:1"
            areaid="[408]"/>
    <path
            class="ROUTE"
            style="display:inline;fill:none;fill-opacity:1;fill-rule:evenodd;stroke:black;stroke-width:2;stroke-linecap:butt;stroke-linejoin:miter;stroke-miterlimit:4;stroke-dasharray:none;stroke-opacity:1"
            d="M 184.73424,143.65025 255.54424,143.65025"
            id="hoenn-route-118"
            areaid="[409]"/>
    <path
            class="ROUTE"
            style="display:inline;fill:none;fill-opacity:1;fill-rule:evenodd;stroke:black;stroke-width:2;stroke-linecap:butt;stroke-linejoin:miter;stroke-miterlimit:4;stroke-dasharray:none;stroke-opacity:1"
            d="M 246.73424,143.14025 246.73424,24.67025 267.54424,24.67025"
            id="hoenn-route-119"
            areaid="[410]"/>
    <path
            class="ROUTE"
            style="display:inline;fill:none;fill-opacity:1;fill-rule:evenodd;stroke:black;stroke-width:2;stroke-linecap:butt;stroke-linejoin:miter;stroke-miterlimit:4;stroke-dasharray:none;stroke-opacity:1"
            d="M 268.73424,24.67025 282.04424,24.60025 282.04424,85.26025"
            id="hoenn-route-120"
            areaid="[411]"/>
    <path
            class="ROUTE"
            id="hoenn-route-121"
            d="M 282.04424,85.26025 410.69424,85.26025"
            style="display:inline;fill:none;fill-opacity:1;fill-rule:evenodd;stroke:black;stroke-width:2;stroke-linecap:butt;stroke-linejoin:miter;stroke-miterlimit:4;stroke-dasharray:none;stroke-opacity:1"
            areaid="[412]"/>
    <path
            class="ROUTE"
            style="display:inline;fill:none;fill-opacity:1;fill-rule:evenodd;stroke:black;stroke-width:2;stroke-linecap:butt;stroke-linejoin:miter;stroke-miterlimit:4;stroke-dasharray:none;stroke-opacity:1"
            d="M 347.53424,85.26025 347.53424,128.15025 363.53424,128.15025 363.53424,144.15025"
            id="hoenn-route-122"
            areaid="[413]"/>
    <path
            class="ROUTE"
            style="display:inline;fill:none;fill-opacity:1;fill-rule:evenodd;stroke:black;stroke-width:2;stroke-linecap:butt;stroke-linejoin:miter;stroke-miterlimit:4;stroke-dasharray:none;stroke-opacity:1"
            d="M 255.54424,143.65025 363.53424,143.65025"
            id="hoenn-route-123"
            areaid="[414]"/>
    <path
            class="ROUTE"
            id="hoenn-route-124"
            d="M 457.96424,171.71025 457.96424,85.26025 M 517.73424,90.28025 473.73424,90.28025 473.73424,85.26025 455.73424,85.26025 410.59424,85.26025"
            style="display:inline;fill:none;fill-opacity:1;fill-rule:evenodd;stroke:black;stroke-width:2;stroke-linecap:butt;stroke-linejoin:miter;stroke-miterlimit:4;stroke-dasharray:none;stroke-opacity:1"
            areaid="[415]"/>
    <path
            class="ROUTE"
            id="hoenn-route-125"
            d="M 517.73424,90.28025 517.73424,55.28025 527.73424,55.28025"
            style="display:inline;fill:none;fill-opacity:1;fill-rule:evenodd;stroke:black;stroke-width:2;stroke-linecap:butt;stroke-linejoin:miter;stroke-miterlimit:4;stroke-dasharray:none;stroke-opacity:1"
            areaid="[416]"/>
    <path
            class="ROUTE"
            id="hoenn-route-126"
            d="M 459.30424,174.04025 517.73424,174.04025"
            style="display:inline;fill:none;fill-opacity:1;fill-rule:evenodd;stroke:black;stroke-width:2;stroke-linecap:butt;stroke-linejoin:miter;stroke-miterlimit:4;stroke-dasharray:none;stroke-opacity:1"
            areaid="[417]"/>
    <path
            class="ROUTE"
            id="hoenn-route-127"
            d="M 517.73424,91.00025 517.73424,186.00025"
            style="display:inline;fill:none;fill-opacity:1;fill-rule:evenodd;stroke:black;stroke-width:2;stroke-linecap:butt;stroke-linejoin:miter;stroke-miterlimit:4;stroke-dasharray:none;stroke-opacity:1"
            areaid="[418]"/>
    <path
            class="ROUTE"
            id="hoenn-route-128"
            d="M 517.73424,218.28025 573.83424,218.28025 M 573.83424,195.28025 573.83424,218.28025 M 517.73424,186.00025 517.73424,218.28025 517.73424,249.57025"
            style="display:inline;fill:none;fill-opacity:1;fill-rule:evenodd;stroke:black;stroke-width:2;stroke-linecap:butt;stroke-linejoin:miter;stroke-miterlimit:4;stroke-dasharray:none;stroke-opacity:1"
            areaid="[419]"/>
    <path
            class="ROUTE"
            id="hoenn-route-129"
            d="M 487.16424,267.39025 517.73424,267.39025 M 517.73424,249.57025 517.73424,267.39025"
            style="display:inline;fill:none;fill-opacity:1;fill-rule:evenodd;stroke:black;stroke-width:2;stroke-linecap:butt;stroke-linejoin:miter;stroke-miterlimit:4;stroke-dasharray:none;stroke-opacity:1"
            areaid="[420]"/>
    <path
            class="ROUTE"
            id="hoenn-route-130"
            d="M 447.16424,267.39025 487.16424,267.39025"
            style="display:inline;fill:none;fill-opacity:1;fill-rule:evenodd;stroke:black;stroke-width:2;stroke-linecap:butt;stroke-linejoin:miter;stroke-miterlimit:4;stroke-dasharray:none;stroke-opacity:1"
            areaid="[421]"/>
    <path
            class="ROUTE"
            id="hoenn-route-131"
            d="M 409.30424,267.39025 447.16424,267.39025"
            style="display:inline;fill:none;fill-opacity:1;fill-rule:evenodd;stroke:black;stroke-width:2;stroke-linecap:butt;stroke-linejoin:miter;stroke-miterlimit:4;stroke-dasharray:none;stroke-opacity:1"
            areaid="[422]"/>
    <path
            class="ROUTE"
            id="hoenn-route-132"
            d="M 334.01424,267.39025 408.59424,267.39025"
            style="display:inline;fill:none;fill-opacity:1;fill-rule:evenodd;stroke:black;stroke-width:2;stroke-linecap:butt;stroke-linejoin:miter;stroke-miterlimit:4;stroke-dasharray:none;stroke-opacity:1"
            areaid="[423]"/>
    <path
            class="ROUTE"
            id="hoenn-route-133"
            d="M 249.98424,267.39025 334.01424,267.39025"
            style="display:inline;fill:none;fill-opacity:1;fill-rule:evenodd;stroke:black;stroke-width:2;stroke-linecap:butt;stroke-linejoin:miter;stroke-miterlimit:4;stroke-dasharray:none;stroke-opacity:1"
            areaid="[424]"/>
    <path
            class="ROUTE"
            id="hoenn-route-134"
            d="M 172.87424,267.39025 249.98424,267.39025"
            style="display:inline;fill:none;fill-opacity:1;fill-rule:evenodd;stroke:black;stroke-width:2;stroke-linecap:butt;stroke-linejoin:miter;stroke-miterlimit:4;stroke-dasharray:none;stroke-opacity:1"
            areaid="[425]"/>
    <path
            class="ROUTE"
            id="hoenn-victory-road"
            d="M 573.52424,193.85025 573.83424,180.28025 573.83424,180.28025 569.05424,180.28025 569.05424,157.07025 569.05424,180.28025"
            style="display:inline;fill:none;fill-opacity:1;fill-rule:evenodd;stroke:black;stroke-width:2;stroke-linecap:butt;stroke-linejoin:miter;stroke-miterlimit:4;stroke-dasharray:none;stroke-opacity:1"/>
    <circle
            class="CITY"
            style="display:inline;opacity:1;fill:#000000;fill-opacity:1;fill-rule:evenodd;stroke:#000000;stroke-width:1;stroke-linecap:round;stroke-linejoin:round;stroke-miterlimit:4;stroke-dasharray:none;stroke-dashoffset:0;stroke-opacity:1"
            id="littleroot-town"
            cx="109.29107"
            cy="291.5777"
            r="2.8090999" />
    <circle
            class="CITY"
            r="2.8090999"
            cy="254.52773"
            cx="109.29107"
            id="oldale-town"
            style="display:inline;opacity:1;fill:#000000;fill-opacity:1;fill-rule:evenodd;stroke:#000000;stroke-width:1;stroke-linecap:round;stroke-linejoin:round;stroke-miterlimit:4;stroke-dasharray:none;stroke-dashoffset:0;stroke-opacity:1" />
    <circle
            class="CITY"
            style="display:inline;opacity:1;fill:#000000;fill-opacity:1;fill-rule:evenodd;stroke:#000000;stroke-width:1;stroke-linecap:round;stroke-linejoin:round;stroke-miterlimit:4;stroke-dasharray:none;stroke-dashoffset:0;stroke-opacity:1"
            id="petalburg-city"
            cx="67.161064"
            cy="254.52773"
            r="2.8090999" />
    <circle
            class="CITY"
            r="2.8090999"
            cy="187.21773"
            cx="39.87606"
            id="rustboro-city"
            style="display:inline;opacity:1;fill:#000000;fill-opacity:1;fill-rule:evenodd;stroke:#000000;stroke-width:1;stroke-linecap:round;stroke-linejoin:round;stroke-miterlimit:4;stroke-dasharray:none;stroke-dashoffset:0;stroke-opacity:1" />
    <circle
            class="CITY"
            r="2.8090999"
            cy="77.757729"
            cx="127.40105"
            id="lavaridge-town"
            style="display:inline;opacity:1;fill:#000000;fill-opacity:1;fill-rule:evenodd;stroke:#000000;stroke-width:1;stroke-linecap:round;stroke-linejoin:round;stroke-miterlimit:4;stroke-dasharray:none;stroke-dashoffset:0;stroke-opacity:1" />
    <circle
            class="CITY"
            r="2.8090999"
            cy="24.72773"
            cx="268.81107"
            id="fortree-city"
            style="display:inline;opacity:1;fill:#000000;fill-opacity:1;fill-rule:evenodd;stroke:#000000;stroke-width:1;stroke-linecap:round;stroke-linejoin:round;stroke-miterlimit:4;stroke-dasharray:none;stroke-dashoffset:0;stroke-opacity:1" />
    <circle
            class="CITY"
            style="display:inline;opacity:1;fill:#000000;fill-opacity:1;fill-rule:evenodd;stroke:#000000;stroke-width:1;stroke-linecap:round;stroke-linejoin:round;stroke-miterlimit:4;stroke-dasharray:none;stroke-dashoffset:0;stroke-opacity:1"
            id="lilycove-city"
            cx="411.56107"
            cy="85.317726"
            r="2.8090999" />
    <circle
            class="CITY"
            r="2.8090999"
            cy="267.44769"
            cx="408.13107"
            id="pacificlog-town"
            style="display:inline;opacity:1;fill:#000000;fill-opacity:1;fill-rule:evenodd;stroke:#000000;stroke-width:1;stroke-linecap:round;stroke-linejoin:round;stroke-miterlimit:4;stroke-dasharray:none;stroke-dashoffset:0;stroke-opacity:1" />
    <circle
            class="CITY"
            style="display:inline;opacity:1;fill:#000000;fill-opacity:1;fill-rule:evenodd;stroke:#000000;stroke-width:1;stroke-linecap:round;stroke-linejoin:round;stroke-miterlimit:4;stroke-dasharray:none;stroke-dashoffset:0;stroke-opacity:1"
            id="mossdeep-city"
            cx="517.97107"
            cy="89.997719"
            r="2.8090999" />
    <circle
            class="CITY"
            r="2.8090999"
            cy="155.93773"
            cx="569.29108"
            id="ever-grande-city"
            style="display:inline;opacity:1;fill:#000000;fill-opacity:1;fill-rule:evenodd;stroke:#000000;stroke-width:1;stroke-linecap:round;stroke-linejoin:round;stroke-miterlimit:4;stroke-dasharray:none;stroke-dashoffset:0;stroke-opacity:1" />
    <circle
            class="CITY"
            style="display:inline;opacity:1;fill:#000000;fill-opacity:1;fill-rule:evenodd;stroke:#000000;stroke-width:1;stroke-linecap:round;stroke-linejoin:round;stroke-miterlimit:4;stroke-dasharray:none;stroke-dashoffset:0;stroke-opacity:1"
            id="ever-grande-city"
            cx="573.92108"
            cy="194.69771"
            r="2.8090999" />
    <circle
            class="CITY"
            style="display:inline;opacity:1;fill:#000000;fill-opacity:1;fill-rule:evenodd;stroke:#000000;stroke-width:1;stroke-linecap:round;stroke-linejoin:round;stroke-miterlimit:4;stroke-dasharray:none;stroke-dashoffset:0;stroke-opacity:1"
            id="sootopolis-city"
            cx="458.20108"
            cy="174.09773"
            r="2.8090999" />
    <circle
            class="CITY"
            style="display:inline;opacity:1;fill:#000000;fill-opacity:1;fill-rule:evenodd;stroke:#000000;stroke-width:1;stroke-linecap:round;stroke-linejoin:round;stroke-miterlimit:4;stroke-dasharray:none;stroke-dashoffset:0;stroke-opacity:1"
            id="dewford-town"
            cx="56.25106"
            cy="368.89771"
            r="2.8090999" />
    <circle
            class="CITY"
            style="display:inline;opacity:1;fill:#000000;fill-opacity:1;fill-rule:evenodd;stroke:#000000;stroke-width:1;stroke-linecap:round;stroke-linejoin:round;stroke-miterlimit:4;stroke-dasharray:none;stroke-dashoffset:0;stroke-opacity:1"
            id="verdanturf-town"
            cx="110.03106"
            cy="143.70775"
            r="2.8090999" />
    <circle
            class="CITY"
            style="display:inline;opacity:1;fill:#000000;fill-opacity:1;fill-rule:evenodd;stroke:#000000;stroke-width:1;stroke-linecap:round;stroke-linejoin:round;stroke-miterlimit:4;stroke-dasharray:none;stroke-dashoffset:0;stroke-opacity:1"
            id="slateport-city"
            cx="173.29106"
            cy="267.44769"
            r="2.8090999" />
    <circle
            class="CITY"
            style="display:inline;opacity:1;fill:#000000;fill-opacity:1;fill-rule:evenodd;stroke:#000000;stroke-width:1;stroke-linecap:round;stroke-linejoin:round;stroke-miterlimit:4;stroke-dasharray:none;stroke-dashoffset:0;stroke-opacity:1"
            id="mauville-city"
            cx="181.78105"
            cy="143.70775"
            r="2.8090999" />
    <circle
            class="CITY"
            style="display:inline;opacity:1;fill:#000000;fill-opacity:1;fill-rule:evenodd;stroke:#000000;stroke-width:1;stroke-linecap:round;stroke-linejoin:round;stroke-miterlimit:4;stroke-dasharray:none;stroke-dashoffset:0;stroke-opacity:1"
            id="fallarbor-town"
            cx="101.55106"
            cy="22.007729"
            r="2.8090999" />
</svg>
