<?xml version="1.0" encoding="UTF-8" standalone="no"?>
<svg
   xmlns:dc="http://purl.org/dc/elements/1.1/"
   xmlns:cc="http://creativecommons.org/ns#"
   xmlns:rdf="http://www.w3.org/1999/02/22-rdf-syntax-ns#"
   xmlns:svg="http://www.w3.org/2000/svg"
   xmlns="http://www.w3.org/2000/svg"
   width="124.09291mm"
   height="94.367928mm"
   viewBox="0 0 439.69929 334.37454"
   id="svg2"
   version="1.1">
  <defs
     id="defs4" />
  <metadata
     id="metadata7">
    <rdf:RDF>
      <cc:Work
         rdf:about="">
        <dc:format>image/svg+xml</dc:format>
        <dc:type
           rdf:resource="http://purl.org/dc/dcmitype/StillImage" />
        <dc:title></dc:title>
      </cc:Work>
    </rdf:RDF>
  </metadata>
  <path
     id="path8333"
     style="display:inline;fill:#94ca90;fill-opacity:1;fill-rule:evenodd;stroke:#94ca90;stroke-width:1;stroke-linecap:butt;stroke-linejoin:miter;stroke-miterlimit:4;stroke-dasharray:none;stroke-opacity:1"
     d="M 184.09661,214.2042 184.29661,191.7042 175.20661,191.6542 175.07661,197.8242 179.71661,197.8242 179.58661,206.0042 177.09661,206.0042 177.02661,214.3742 Z M 175.74661,179.3242 187.52661,179.1342 187.86661,168.2442 C 188.67661,169.1542 189.47661,169.9042 189.34661,171.0242 189.14661,172.9542 188.40661,179.4442 191.02661,177.7542 193.65661,176.0742 195.60661,170.3042 196.54661,169.8242 197.55661,169.3442 197.01661,164.0542 201.59661,162.6142 206.16661,161.1742 207.11661,160.2142 207.11661,155.8842 207.11661,151.5542 210.47661,153.4842 210.74661,149.1542 211.01661,144.8242 202.33661,137.3742 210.27661,129.2042 218.21661,121.0242 219.42661,119.3442 222.79661,118.3842 226.15661,117.4242 227.84661,115.2542 230.66661,114.5342 233.56661,113.8142 232.14661,104.9242 235.04661,97.7142 237.93661,90.5042 232.88661,75.3642 228.98661,70.7942 225.14661,66.2242 226.15661,39.5442 224.47661,35.4542 222.79661,31.3742 223.73661,28.9642 230.66661,29.6842 237.66661,30.4042 227.30661,39.0642 228.31661,44.3442 229.25661,49.6342 231.20661,68.8642 234.30661,70.5442 237.39661,72.2342 239.08661,77.2742 238.87661,83.7742 238.61661,90.2642 237.19661,99.1542 237.93661,103.2342 238.61661,107.3342 242.71661,111.1742 242.24661,113.8142 241.77661,116.4642 237.66661,118.1442 234.57661,118.1442 231.40661,118.1442 207.11661,127.7542 212.69661,142.4242 218.21661,157.0842 218.89661,151.5542 218.41661,156.1242 217.94661,160.6942 221.58661,158.7642 223.46661,162.6142 225.41661,166.4542 235.24661,167.4242 237.39661,166.4542 237.39661,166.4542 244.39661,168.3842 247.76661,167.9042 251.12661,167.4242 249.44661,173.4342 254.49661,173.6742 259.54661,173.9042 265.33661,172.9542 267.01661,174.1542 268.69661,175.3542 271.32661,171.9942 272.73661,173.1842 274.21661,174.3942 268.69661,178.4742 267.95661,179.9142 267.21661,181.3642 266.00661,178.9542 263.64661,182.0842 261.22661,185.2042 260.48661,187.8542 260.48661,187.8542 260.48661,187.8542 264.59661,190.7342 267.01661,190.4942 269.36661,190.2542 273.47661,188.8142 274.68661,190.2542 275.89661,191.6942 284.04661,189.5342 286.73661,185.2042 289.35661,180.8842 288.61661,179.6842 291.04661,180.4042 293.46661,181.1242 292.25661,185.4542 296.82661,183.5242 301.33661,181.6042 302.55661,177.2742 303.76661,177.2742 304.97661,177.2742 308.06661,177.0342 308.06661,175.5942 308.06661,174.1542 311.23661,175.1142 313.65661,172.9542 316.01661,170.7842 353.76661,170.7842 355.45661,172.2242 357.13661,173.6742 365.07661,174.6342 366.75661,173.9042 368.44661,173.1842 362.65661,171.2742 364.60661,171.0242 366.49661,170.7842 382.84661,171.5042 384.05661,173.6742 385.26661,175.8342 388.36661,173.4342 390.31661,175.5942 392.20661,177.7542 395.83661,181.6042 398.72661,178.2342 401.62661,174.8742 405.66661,172.7142 407.14661,170.5442 408.55661,168.3842 406.87661,163.5742 407.61661,160.9342 408.35661,158.2842 405.93661,156.1242 405.93661,152.5142 405.93661,148.9142 402.83661,149.6342 406.20661,145.7842 409.56661,141.9342 418.65661,134.9742 418.44661,131.3642 418.18661,127.7542 412.66661,113.3342 402.56661,115.0142 392.46661,116.6942 386.47661,118.8642 387.42661,121.0242 388.36661,123.1942 388.83661,132.3242 386.95661,132.5742 384.99661,132.8042 370.59661,135.2042 368.64661,137.8542 366.75661,140.4942 356.66661,138.8142 354.50661,136.1742 352.35661,133.5242 339.09661,132.0842 330.48661,132.3242 321.79661,132.5742 320.92661,134.5642 315.80661,133.7642 310.68661,132.9642 300.86661,127.2842 300.86661,120.5442 300.86661,113.8142 297.77661,105.4042 306.92661,101.7942 316.01661,98.1942 321.53661,93.8742 329.27661,93.3842 336.94661,92.9042 340.30661,91.9442 347.98661,92.9042 355.72661,93.8742 374.43661,92.9042 377.79661,90.9842 381.16661,89.0542 385.26661,91.2242 384.32661,94.8242 383.31661,98.4342 383.31661,101.3242 386.68661,101.3242 390.04661,101.3242 401.15661,103.7242 400.14661,101.5542 399.20661,99.3942 397.98661,93.8742 401.62661,94.3442 405.19661,94.8242 405.45661,95.0642 404.98661,102.5142 404.98661,102.5142 405.19661,105.1642 413.13661,104.6842 421.07661,104.2042 437.16661,106.6042 438.16661,103.2342 439.11661,99.8742 440.52661,94.5942 436.48661,93.3842 432.38661,92.1842 424.91661,89.5442 430.22661,85.6942 430.22661,85.6942 433.12661,80.6342 430.96661,71.0242 428.81661,61.4042 425.98661,59.8542 423.96661,58.0542 421.94661,56.2442 423.69661,44.3442 407.61661,38.8242 391.52661,33.2942 382.84661,32.8142 378.73661,28.7242 374.70661,24.6442 365.54661,30.6542 357.13661,22.7142 348.72661,14.7842 337.41661,9.7341995 323.75661,9.9741995 L 292.45661,10.9342 C 292.45661,10.9342 290.09661,5.8841995 278.05661,5.6441995 266.00661,5.4141995 256.17661,5.1641995 252.81661,7.8141995 252.81661,7.8141995 242.71661,7.5741995 238.13661,11.8942 238.13661,11.8942 237.66661,13.5842 233.09661,12.1442 228.51661,10.6942 214.38661,13.3342 211.68661,12.8642 209.06661,12.3742 206.64661,10.6942 192.97661,11.8942 192.97661,11.8942 183.82661,8.0541995 171.10661,10.6942 158.31661,13.3342 142.70661,7.3241995 140.07661,5.1641995 137.45661,3.0041995 119.41661,-1.5658005 105.01661,1.5641995 90.536612,4.6941995 85.766612,5.1641995 85.766612,5.1641995 85.766612,5.1641995 71.556612,3.4841995 67.996612,6.6041995 64.356612,9.7341995 64.086612,11.8942 59.046612,11.8942 53.996612,11.8942 37.908612,22.7142 35.014612,42.6642 32.120612,62.6242 30.976612,52.2842 30.235612,67.9042 29.495612,83.5342 27.610612,81.3642 30.706612,86.8942 30.706612,86.8942 28.755612,97.7142 32.860612,101.3242 36.966612,104.9242 24.679612,114.1742 30.589612,119.0242 36.498612,123.8642 36.593612,122.4042 36.593612,126.2442 36.593612,130.0942 34.543612,131.8442 27.812612,130.8842 21.082612,129.9242 22.024612,143.1442 26.130612,143.8642 30.235612,144.5842 32.120612,145.0642 30.437612,146.9842 28.755612,148.9142 30.437612,155.1642 28.284612,155.1642 28.284612,155.1642 20.274612,152.9042 17.515612,155.1642 14.755612,157.4242 13.611612,164.7742 15.563612,165.4942 17.515612,166.2242 19.870612,166.9442 19.870612,170.3042 19.870612,173.6742 20.476612,185.9542 18.524612,186.1942 16.640612,186.4442 7.890612,196.0242 3.313612,201.3142 -1.262388,206.6042 0.68861202,226.3142 2.573612,231.6042 4.525612,236.8942 7.621612,240.2542 11.457612,241.4542 15.294612,242.6642 15.832612,243.6242 15.832612,248.6742 15.832612,253.7142 23.976612,254.4342 23.976612,254.4342 23.976612,254.4342 23.505612,258.5242 25.187612,260.4442 26.870612,262.3642 20.274612,266.4942 26.870612,272.4642 33.466612,278.4342 39.120612,276.5442 45.379612,276.0742 45.379612,276.0742 49.485612,279.6742 52.581612,279.6742 55.676612,279.6742 60.526612,284.9642 54.266612,287.8442 48.004612,290.7342 41.273612,290.4942 51.840612,302.9942 62.406612,315.4942 76.606612,307.5642 80.716612,307.7942 84.816612,308.0442 86.976612,307.0742 85.766612,310.6842 84.546612,314.2942 82.326612,324.0842 85.896612,325.9542 89.396612,327.8142 94.176612,328.4742 96.326612,331.8442 98.486612,335.2042 105.95661,332.3142 110.26661,333.7542 114.56661,335.2042 117.25661,323.6642 121.83661,322.7042 126.34661,321.7442 117.73661,310.6842 120.35661,301.3142 122.98661,291.9342 120.22661,287.6042 124.66661,287.6042 129.10661,287.6042 124.93661,295.7842 130.92661,301.0642 130.92661,301.0642 130.58661,306.6042 134.08661,307.2042 137.51661,307.7942 137.78661,312.3642 143.91661,308.7642 150.03661,305.1542 147.74661,304.3142 150.03661,303.1142 152.32661,301.9042 148.75661,300.2242 153.87661,296.1442 159.05661,292.0542 153.20661,275.2342 152.12661,273.6642 150.97661,272.1042 152.66661,268.1342 153.40661,265.0142 154.14661,261.8942 154.47661,261.1742 155.96661,261.4042 157.37661,261.6442 158.71661,270.3042 157.84661,282.6842 157.03661,295.0542 157.64661,296.0242 161.34661,296.2642 165.04661,296.5042 163.36661,317.8942 170.83661,325.2342 178.30661,332.5642 182.74661,330.0342 185.64661,325.8342 188.53661,321.6242 196.81661,308.5142 196.67661,295.1742 196.54661,281.8342 196.20661,283.1642 196.20661,283.1642 L 191.02661,282.5542 190.28661,274.3842 179.58661,274.6342 179.98661,271.3842 184.43661,271.2642 184.56661,273.1942 193.85661,272.9442 193.65661,264.4142 184.16661,264.6542 184.09661,266.5742 179.24661,266.6942 179.51661,262.9742 191.90661,262.8542 191.90661,258.1642 189.14661,257.8042 189.14661,253.3542 190.82661,253.4742 190.82661,246.2642 194.12661,245.7842 194.05661,234.6042 185.37661,234.9142 185.50661,224.1542 182.14661,224.0342 177.69661,220.3842 190.82661,220.3042 190.82661,211.8842 189.61661,211.4142 189.34661,205.4042 191.49661,205.1542 191.02661,185.4542 175.47661,185.4142 Z M 171.37661,197.8242 169.15661,197.8842 168.81661,206.0042 172.38661,206.1242 172.18661,213.9842 168.68661,214.0242 C 168.68661,214.0242 170.56661,212.9942 168.47661,210.3842 167.53661,209.2142 164.44661,208.5542 164.37661,204.9142 164.10661,196.0242 157.17661,193.3842 157.37661,189.0542 157.64661,184.7342 153.53661,181.3642 153.26661,179.1942 153.06661,177.0342 146.06661,181.1242 144.38661,182.3242 142.70661,183.5242 140.81661,191.4642 138.39661,193.8642 135.97661,196.2642 135.29661,201.0742 133.81661,203.2442 132.40661,205.4042 128.29661,209.4842 129.98661,214.5342 131.66661,219.5842 130.92661,219.5842 129.03661,223.9142 127.08661,228.2342 121.29661,231.1142 121.29661,226.7942 121.29661,222.4642 120.82661,220.7842 120.82661,217.8942 120.82661,215.0142 126.34661,191.6942 128.76661,190.7342 131.19661,189.7742 132.87661,189.0542 134.55661,187.6142 136.23661,186.1742 136.23661,185.2042 139.80661,182.5642 143.44661,179.9142 141.01661,176.5542 143.44661,175.3542 145.86661,174.1542 149.70661,169.5842 153.80661,167.6642 157.84661,165.7342 165.04661,165.9842 165.04661,165.9842 L 163.70661,191.7542 171.57661,191.7442 Z M 311.83661,135.0942 C 311.83661,135.0942 307.05661,134.0742 306.72661,136.2842 306.38661,138.4942 306.92661,140.1942 308.80661,140.0242 310.62661,139.8542 313.18661,140.0242 313.38661,138.6642 313.52661,137.3042 313.72661,135.9442 311.83661,135.0942 Z M 321.46661,36.4142 C 320.18661,36.0842 318.97661,37.8542 317.69661,37.5042 316.07661,37.0542 315.87661,33.5942 314.19661,33.7742 312.57661,33.9442 310.35661,33.2942 309.68661,34.3742 308.67661,36.0342 310.22661,38.7242 311.83661,39.7842 314.26661,41.3742 317.82661,40.3342 320.58661,39.4242 321.46661,39.1342 322.80661,38.7842 322.87661,37.8542 322.94661,37.1942 322.13661,36.5842 321.46661,36.4142 Z M 72.166612,17.1842 C 72.166612,17.1842 66.716612,15.8242 64.356612,18.2042 62.006612,20.5842 63.686612,19.2242 65.036612,21.6042 66.376612,23.9842 62.006612,26.3642 62.006612,26.3642 62.006612,26.3642 58.236612,25.6842 57.896612,27.3842 57.566612,29.0842 58.236612,31.8042 58.236612,31.8042 58.236612,31.8042 60.386612,32.9342 66.046612,32.8842 71.696612,32.8342 80.376612,35.7542 86.436612,32.5442 89.796612,30.7542 91.146612,26.9542 89.196612,26.6142 85.826612,24.5942 74.586612,25.9142 73.176612,23.0542 72.366612,20.8442 72.166612,17.1842 72.166612,17.1842 Z M 141.47661,150.1142 C 141.47661,150.1142 137.76661,146.0842 135.40661,147.1042 132.98661,148.1242 131.97661,150.1642 135.07661,151.1842 138.10661,152.2042 140.79661,152.4942 141.47661,150.1142 Z M 136.44661,133.8642 C 136.44661,133.8642 133.68661,136.2442 135.76661,138.2842 137.78661,140.3242 139.47661,142.3642 141.55661,142.3642 143.57661,142.3642 143.57661,137.6042 140.81661,135.5642 138.12661,133.5242 140.81661,132.8442 136.44661,133.8642 Z M 171.44661,114.4142 C 171.44661,114.4142 164.64661,116.1042 163.63661,119.1742 162.62661,122.2342 166.99661,125.2842 169.08661,125.2842 171.10661,125.2842 172.78661,124.9542 172.78661,123.2442 172.78661,121.5542 169.08661,122.2342 169.75661,120.1942 170.43661,118.1542 174.13661,117.8142 171.44661,114.4142 Z M 67.796612,242.5642 C 67.796612,242.5642 64.356612,247.3242 66.716612,248.0042 69.136612,248.6842 70.816612,245.9642 69.476612,244.6042 68.126612,243.2442 70.146612,242.2342 67.796612,242.5642 Z M 58.236612,256.8442 C 58.236612,256.8442 56.216612,253.7842 55.546612,257.1842 54.866612,260.5842 54.866612,263.6442 58.236612,266.7042 61.666612,269.7642 64.696612,264.6642 63.686612,263.9842 62.676612,263.3042 59.246612,261.6042 59.246612,261.6042 59.246612,261.6042 58.566612,258.2042 58.236612,256.8442 Z M 21.890612,219.4542 C 21.890612,219.4542 22.563612,213.6742 27.274612,212.3142 32.053612,210.9542 37.841612,212.9942 40.533612,211.9742 43.293612,210.9542 46.994612,210.6142 46.994612,212.6542 46.994612,214.6942 46.994612,219.7942 47.331612,222.1742 47.735612,224.5442 36.495612,220.8142 32.726612,221.4942 29.024612,222.1742 23.572612,222.1742 21.890612,219.4542 Z M 169.89661,185.4542 170.36661,167.6642 183.95661,167.5542 183.82661,174.5042 172.44661,174.6842 171.84661,185.4742 Z M 166.12661,235.2042 166.25661,220.5442 171.91661,220.4042 171.91661,224.3342 175.74661,224.6342 181.53661,228.5942 181.53661,234.9042 Z" />
</svg>
