<svg width="100%" height="100%" viewBox="0 0 400 400"
     xmlns="http://www.w3.org/2000/svg">

    <path d="M 100 100 L 300 100 L 200 300 z"
          fill="orange" stroke="black" stroke-width="3" />
    <path  d="
    M 240.000 260.000
    L 260.000 274.641
    L 257.321 250.000
    L 280.000 240.000
    L 257.321 230.000
    L 260.000 205.359
    L 240.000 220.000
    L 220.000 205.359
    L 222.679 230.000
    L 200.000 240.000
    L 222.679 250.000
    L 220.000 274.641
    z
    " stroke="green" />
    <path  d="
    M 120.000 130.000
    L 135.451 167.553
    L 125.878 128.090
    L 160.451 149.389
    L 129.511 123.090
    L 170.000 120.000
    L 129.511 116.910
    L 160.451 90.611
    L 125.878 111.910
    L 135.451 72.447
    L 120.000 110.000
    L 104.549 72.447
    L 114.122 111.910
    L 79.549 90.611
    L 110.489 116.910
    L 70.000 120.000
    L 110.489 123.090
    L 79.549 149.389
    L 114.122 128.090
    L 104.549 167.553
    L 120.000 130.000
    z
    "/>
</svg>