<?xml version="1.0" encoding="UTF-8" standalone="no"?>
<svg
   xmlns:dc="http://purl.org/dc/elements/1.1/"
   xmlns:cc="http://creativecommons.org/ns#"
   xmlns:rdf="http://www.w3.org/1999/02/22-rdf-syntax-ns#"
   xmlns:svg="http://www.w3.org/2000/svg"
   xmlns="http://www.w3.org/2000/svg"
   xmlns:sodipodi="http://sodipodi.sourceforge.net/DTD/sodipodi-0.dtd"
   xmlns:inkscape="http://www.inkscape.org/namespaces/inkscape"
   version="1.1"
   regionID="4"
   id="svg2"
   viewBox="0 0 600 399.99999"
   width="600"
   height="400"
   inkscape:version="0.91 r13725"
   sodipodi:docname="sinnoh.svg">
  <sodipodi:namedview
     pagecolor="#ffffff"
     bordercolor="#666666"
     borderopacity="1"
     objecttolerance="10"
     gridtolerance="10"
     guidetolerance="10"
     inkscape:pageopacity="0"
     inkscape:pageshadow="2"
     inkscape:window-width="1920"
     inkscape:window-height="955"
     id="namedview65"
     showgrid="false"
     inkscape:zoom="2.0647518"
     inkscape:cx="200.48034"
     inkscape:cy="193.2632"
     inkscape:window-x="0"
     inkscape:window-y="1"
     inkscape:window-maximized="1"
     inkscape:current-layer="svg2"
     showguides="true" />
  <defs
     id="defs4">
    <inkscape:perspective
       sodipodi:type="inkscape:persp3d"
       inkscape:vp_x="0 : 200 : 1"
       inkscape:vp_y="0 : 1000 : 0"
       inkscape:vp_z="600 : 200 : 1"
       inkscape:persp3d-origin="300 : 133.33333 : 1"
       id="perspective4999" />
  </defs>
  <metadata
     id="metadata7">
    <rdf:RDF>
      <cc:Work
         rdf:about="">
        <dc:format>image/svg+xml</dc:format>
        <dc:type
           rdf:resource="http://purl.org/dc/dcmitype/StillImage" />
        <dc:title />
      </cc:Work>
    </rdf:RDF>
  </metadata>
  <path
     style="fill:#94ca90;fill-opacity:1;fill-rule:evenodd;stroke:none;stroke-width:1px;stroke-linecap:butt;stroke-linejoin:miter;stroke-opacity:1"
     d="M 526.13347,81.558424 C 526.13347,81.558424 514.77811,81.085284 510.51985,91.967501 506.2616,102.84972 490.17484,107.58112 497.74508,110.41995 505.31532,113.2588 521.87521,94.80634 530.39173,98.11832 538.90824,101.4303 548.84418,84.870403 542.69337,77.773305 536.54255,70.676207 530.39173,80.139005 526.13347,81.558424 Z"
     id="path5457"
     inkscape:connector-curvature="0"
     class="LAND" />
  <path
     inkscape:connector-curvature="0"
     style="opacity:1;fill:#94ca90;fill-opacity:1;fill-rule:evenodd;stroke:none;stroke-width:1px;stroke-linecap:butt;stroke-linejoin:miter;stroke-opacity:1"
     d="M 414.434,-0.00919075 359.61784,0.32540731 C 359.61784,0.32540824 361.95647,18.040159 366.30172,30.9088 370.64698,43.777441 363.46077,45.449128 366.46901,54.641015 369.47728,63.832902 367.13822,70.016361 367.13822,70.016361 367.13822,70.016361 358.44701,93.914701 356.10725,104.44359 353.7675,114.97248 353.09943,117.98112 359.11594,121.65788 365.13244,125.33463 359.44972,130.68304 365.13198,133.69129 370.81424,136.69954 367.6392,139.37302 365.46657,143.55115 363.29395,147.72927 385.35387,160.4312 388.195,155.58456 391.03612,150.73793 405.57693,147.72954 400.73029,141.21165 395.88366,134.69378 406.07843,136.1979 404.74143,130.84989 403.40443,125.50189 398.89174,125.83631 395.38211,125.83631 391.87248,125.83631 388.86436,121.82531 394.21237,120.65543 399.56037,119.48556 405.74401,109.45744 404.57413,101.9368 403.40426,94.416165 412.09473,103.77509 413.59885,99.262708 415.10298,94.750327 415.77086,95.419698 420.78463,94.918323 425.79838,94.416947 434.32238,99.430007 434.32238,99.430007 434.32238,99.430007 432.484,113.97056 434.32238,124.66657 436.16075,135.36258 445.68663,135.86318 447.02364,142.04681 448.36063,148.23044 452.37121,148.8989 454.3767,151.07152 456.38222,153.24416 449.02927,153.24381 445.85389,155.91781 442.67851,158.59182 447.0239,166.78225 449.86503,170.12476 452.70616,173.46726 457.219,170.62587 459.39164,167.28337 461.56426,163.94086 467.24552,168.95449 470.08665,163.27223 472.92778,157.58997 478.27587,161.76811 477.94162,158.09135 477.60737,154.41459 481.78581,153.24459 482.12006,148.89933 482.45431,144.55408 476.4375,145.89086 472.76074,142.21411 469.08398,138.53736 468.91669,128.17555 462.23168,125.33442 455.54666,122.49329 461.73081,127.50691 457.55269,100.59975 453.37456,73.692594 442.34386,60.657349 439.00136,59.654598 435.65886,58.651847 424.29438,38.430043 419.61488,34.084788 414.93538,29.739533 414.434,-0.00919075 414.434,-0.00919075 Z M 238.16259,6.2807228 C 238.03468,6.2900653 237.90881,6.3101004 237.78347,6.3414362 229.76146,8.3469391 231.59975,14.363752 219.56674,20.881635 207.53371,27.399518 213.71653,26.229207 204.52464,33.415591 195.33276,40.601975 198.0072,38.429957 197.17157,46.953342 196.33595,55.476738 198.50801,60.991991 200.5135,66.507123 202.51901,72.022256 191.99077,79.040687 194.66477,82.550317 197.33878,86.059947 197.17157,86.896052 197.17157,86.896052 191.32219,89.068679 196.00126,94.583681 194.16287,98.427561 188.7127,109.82337 189.8178,119.48582 189.1493,123.49682 188.4808,127.50783 176.78229,137.70243 176.44804,148.06419 176.11379,158.42595 157.89652,169.62216 157.7294,174.13454 157.56228,178.64692 144.69455,187.83964 139.17942,189.17663 133.66429,190.51365 129.31908,194.6909 135.33559,198.70191 141.35209,202.7129 154.38798,200.03947 165.25112,200.54085 176.11426,201.04222 175.27763,203.88275 175.94613,207.72663 176.61464,211.5705 173.44022,213.07485 174.27585,214.41185 175.11147,215.74885 175.77914,217.58775 174.77639,220.09463 173.77364,222.6015 181.62836,223.10215 184.97087,223.26927 188.31336,223.4364 199.00968,218.25568 204.69194,218.25568 210.3742,218.25568 215.55517,226.44487 217.72779,229.95449 219.90042,233.46413 227.92226,231.95995 233.10314,228.61744 238.28402,225.27494 232.93632,222.09978 232.10069,219.76004 231.26506,217.42027 240.45756,207.72663 240.45756,207.72663 L 242.96435,208.89772 C 242.96435,208.89772 236.61316,215.9161 234.77478,218.42298 232.9364,220.92987 234.9423,220.93 236.44643,222.43412 237.95055,223.93824 237.28219,225.94379 235.27668,228.95204 233.27119,231.9603 229.92841,233.13049 222.07353,233.13049 214.21864,233.13049 212.71396,228.11694 209.87283,224.27306 207.0317,220.42918 202.18571,220.76283 198.84321,221.09708 195.50071,221.43133 187.4777,225.60963 183.63381,226.44526 179.78993,227.28087 174.27493,223.60451 172.1023,222.93602 169.92968,222.26752 174.1085,217.92205 172.7715,216.25079 171.4345,214.57954 171.26773,213.57714 173.1061,211.40451 174.94448,209.23189 172.26992,205.72151 171.26716,204.21739 170.26441,202.71326 168.25842,202.71304 161.74054,202.71304 155.22266,202.71304 131.01673,204.22478 132.43483,207.53369 133.85293,210.8426 126.28928,218.40512 126.28928,222.65943 126.28928,226.91375 138.10704,227.85997 135.27083,229.75076 132.43462,231.64158 130.07095,235.42292 131.48905,239.20453 132.90716,242.98615 121.08994,246.29468 115.41752,250.07628 109.7451,253.8579 113.52666,257.16707 122.03529,264.2576 130.54391,271.34811 123.92572,268.03905 121.08951,272.29336 118.2533,276.54769 122.50751,278.43907 122.50751,282.22069 122.50751,286.00229 107.38143,291.20185 99.81821,290.25644 92.254986,289.31104 105.01755,284.58405 110.68997,283.63869 116.36239,282.69328 113.99829,275.1292 112.58018,271.34758 111.16208,267.56597 109.27197,273.71216 109.27197,268.98515 109.27197,264.25813 112.10748,262.83981 112.58018,260.0036 113.05289,257.16739 107.85435,257.16756 108.79976,251.96785 109.74516,246.76813 102.18086,244.40392 99.344649,243.45852 96.50844,242.51311 93.200444,269.45737 93.200444,269.45737 L 89.890889,268.98515 C 89.890889,268.98515 92.726606,254.80341 90.363103,248.65828 87.9996,242.51316 82.800417,247.24061 83.273124,242.9863 83.74582,238.73199 78.073412,235.89508 71.455578,234.47697 64.837757,233.05887 62.947545,232.11341 57.747833,241.09474 52.548112,250.07606 38.366529,251.96687 29.385205,252.91228 20.403872,253.85769 12.099405,256.12334 12.099405,256.12334 L -14.742688,246.66689 -24.603902,344.26849 C -24.603902,344.26849 6.6492484,345.27117 13.668512,346.60798 20.687769,347.94498 57.212333,335.5001 66.312476,333.57213 75.109024,331.70848 75.610625,333.38088 70.490909,338.58571 57.963421,351.32147 76.172346,361.81616 76.172346,365.82716 76.172346,378.37157 82.021689,384.3785 85.197058,384.3785 88.372437,384.3785 90.211953,380.03325 94.05583,374.01674 97.899707,368.00023 102.57926,368.50222 110.93552,366.83096 119.29178,365.15971 131.15676,352.95891 134.66639,351.95616 138.17601,350.95341 138.17676,342.76475 141.85351,340.75925 145.53027,338.75375 146.19821,341.76105 154.22017,342.42955 162.24218,343.09805 163.57897,347.778 173.43936,350.61913 183.29974,353.46025 187.64482,368.83573 193.99558,370.0056 200.34634,371.17547 201.18247,376.85777 204.85924,376.52353 208.53599,376.18928 212.88151,378.69572 218.06239,378.69572 223.24328,378.69572 221.07104,382.20618 224.91492,383.37605 228.75881,384.54593 227.75584,388.89127 228.59145,391.23103 229.42708,393.57078 228.25686,393.90493 228.25686,393.90512 L 233.93963,448.72127 344.91035,447.71883 340.23135,395.24216 C 340.23135,395.24216 340.56447,389.39287 336.55347,387.55449 332.54246,385.71611 331.87506,383.54357 328.53256,379.86681 325.19005,376.19006 325.52407,366.3295 321.84733,364.15687 318.17057,361.98424 318.33774,358.30705 318.00349,355.96729 317.66924,353.62754 322.34774,360.98118 323.51762,359.97843 324.6875,358.97567 320.6764,356.30216 320.84353,353.9624 321.01066,351.62265 321.01126,348.4464 318.83863,347.94502 316.66601,347.44365 316.16511,346.94218 318.00349,345.27094 319.84187,343.59968 320.67766,340.59155 318.17079,338.92031 315.66391,337.24906 317.83554,336.07918 318.50404,333.73943 319.17255,331.39968 316.33193,333.40588 313.82506,334.40862 311.31817,335.41138 307.64194,331.73467 309.14607,330.56479 309.55897,330.24363 309.56066,329.35024 309.45099,328.26307 L 313.65775,328.39125 C 313.65775,328.39125 313.15594,331.39958 315.82995,331.06533 318.50394,330.73109 322.01445,331.06564 321.84733,330.06288 321.6802,329.06013 321.68002,328.55855 321.68002,328.55855 L 324.52142,328.55855 324.85467,326.72095 329.87229,326.45651 C 329.81425,326.60054 329.77297,326.73614 329.7023,326.8869 327.19542,332.23491 328.53228,332.06908 330.87205,341.09385 333.2118,350.11861 339.8971,352.2902 345.41224,360.81358 350.92737,369.33697 351.59466,364.65812 354.60291,360.14574 357.61117,355.63336 353.76806,354.96442 352.76531,351.95616 351.76256,348.94792 346.74885,346.10669 343.7406,344.10119 340.73234,342.09569 343.0714,338.58571 343.0714,338.58571 343.0714,338.58571 344.57552,344.10206 348.25228,344.93769 351.92904,345.77332 353.09896,347.10979 354.77021,349.61667 356.44147,352.12355 363.62888,354.29617 360.95488,349.61667 358.28088,344.93716 375.99598,339.42159 381.51111,341.4271 387.02625,343.43261 388.52941,341.26037 388.36228,337.91786 388.19516,334.57536 400.06205,332.23535 398.3908,329.8956 396.71956,327.55584 393.71082,329.56217 388.86419,329.39505 384.01756,329.22793 385.68938,326.21927 385.52225,322.54251 385.35513,318.86576 388.52963,318.02987 389.86664,319.70112 391.20364,321.37237 389.19896,322.3756 389.36609,324.04686 389.53321,325.71811 388.3629,327.22237 391.53827,328.05799 394.71365,328.89362 398.05611,324.88149 395.38211,324.38011 392.7081,323.87874 395.21438,322.54217 397.38701,322.20792 399.55964,321.87367 399.22586,328.72531 406.91362,323.04306 414.60139,317.3608 428.13922,316.69243 433.48723,316.69243 438.83523,316.69243 438.16604,309.33979 443.1798,301.98629 448.19355,294.63277 449.36304,301.98617 457.0508,297.97515 464.73855,293.96415 480.94988,296.30425 488.30339,298.30975 495.6569,300.31526 497.49571,301.81829 501.67384,301.14979 505.85197,300.48129 502.84415,297.13962 504.68253,295.46836 504.7041,295.44875 504.73278,295.43342 504.75538,295.41439 L 516.79823,295.13376 C 516.79823,295.13376 517.38326,294.46513 516.88188,296.30351 516.38051,298.14189 518.80452,299.228 522.73197,299.98004 526.65941,300.73211 523.81745,298.30975 525.82295,298.30975 527.82846,298.30975 529.33298,296.30385 527.4946,294.04766 525.65621,291.79148 528.49674,290.37082 526.90905,288.78313 525.32136,287.19545 528.49735,285.77449 527.4946,284.52105 526.49184,283.26761 526.909,283.43557 528.16245,281.43007 529.41588,279.42455 525.15532,278.0033 521.47857,278.17043 517.80181,278.33755 518.13528,282.26521 518.13528,282.26521 L 516.63094,282.09791 516.21404,276.83338 516.14658,276.85766 C 516.02987,275.57765 515.54485,274.23667 515.54485,273.57509 515.54485,272.07097 519.89093,273.0728 520.22518,271.40155 520.55943,269.73029 523.90127,268.72789 526.0739,266.55527 528.24653,264.38264 525.74009,263.37993 518.72083,262.71143 511.70156,262.04292 511.36654,266.55567 510.19666,269.56396 509.02678,272.5722 503.51235,270.3989 505.68497,268.89475 507.85761,267.39064 505.35077,264.38272 501.84114,264.04847 498.3315,263.71422 499.50047,259.70283 494.48672,262.37683 489.47296,265.05083 473.09577,268.05969 476.10403,260.37194 479.11228,252.68417 472.09293,254.5222 473.42993,249.67557 474.76694,244.82894 473.4292,245.16376 466.24282,241.15276 459.05642,237.14175 458.38828,224.60662 456.21565,218.42298 454.04302,212.23936 458.55515,191.68343 458.55515,191.68343 461.06202,181.32167 462.23147,171.62775 460.72733,171.62775 459.22321,171.62775 452.37142,179.81685 445.51929,185.83335 438.66715,191.84985 428.47247,193.68832 418.27783,193.68832 408.08319,193.68832 409.92135,191.68334 406.41173,189.00934 402.90209,186.33534 401.3991,178.31389 399.72785,175.30563 398.0566,172.29738 396.71929,179.31633 395.54941,181.48897 394.37953,183.6616 398.89101,185.33224 398.55676,188.67474 398.22251,192.01724 390.86982,193.18705 387.69444,191.18153 384.51907,189.17603 392.2067,185.16545 394.04507,183.82846 395.88345,182.49145 391.20411,181.32123 389.03149,178.31298 386.85885,175.30472 395.2149,173.9675 392.70802,171.62775 390.20115,169.28799 369.47758,164.27415 365.46657,163.77278 361.45556,163.2714 369.47749,167.95086 378.33513,172.7975 387.19276,177.64413 378.16861,183.99562 360.78759,169.62286 343.40657,155.25009 373.62525,167.8309 359.45054,159.763 349.59016,154.15069 341.56823,158.41947 331.03934,136.36537 319.52383,112.24467 293.26826,85.391533 291.42988,80.043526 289.5915,74.695519 281.73637,70.851596 278.22673,68.344717 274.7171,65.837847 259.67631,68.344717 256.66805,68.344717 253.65981,68.344717 254.32821,67.175406 253.99396,65.002779 253.65972,62.830151 254.99693,64.667701 255.4983,65.503327 255.99968,66.338953 258.00531,65.838448 259.50944,66.339824 261.01357,66.841199 274.21621,66.17209 277.39158,63.163836 280.56696,60.155582 276.05414,55.476042 274.38289,51.465026 272.71164,47.454022 278.06057,33.583195 276.55643,32.580444 275.05231,31.577692 271.20738,35.754778 265.19087,41.938411 259.26838,48.025425 246.22072,5.6921916 238.16259,6.2807228 Z M 243.95735,43.140538 C 245.0278,43.15441 246.15975,43.359542 247.30874,43.777354 250.98549,45.114356 251.31988,54.974265 251.31988,54.974265 250.48425,57.982519 252.65674,55.308776 247.30874,57.815654 241.96073,60.322532 238.95322,59.821244 233.77234,60.489745 228.59145,61.158246 230.2628,53.471314 231.26555,49.627432 232.26829,45.783553 236.44564,47.95605 238.28402,45.616297 239.54791,44.007717 241.60238,43.110018 243.95735,43.140538 Z M 302.40418,130.6772 C 303.27702,130.6772 306.86829,130.93376 308.47687,135.02833 310.31525,139.70784 309.31193,141.04424 311.81881,142.21411 314.32569,143.38399 314.6612,145.8909 314.32695,148.73203 313.9927,151.57316 316.8337,152.07467 325.85846,157.92405 334.57821,163.57573 334.86747,164.41142 334.72667,167.47495 L 332.68805,167.25639 C 332.6728,166.94075 332.67426,166.61573 332.70963,166.27957 333.04388,163.10419 329.03337,162.60364 326.69361,160.59814 324.35386,158.59264 324.35412,158.7592 324.35412,158.7592 324.35412,158.7592 323.68565,160.93279 325.69117,162.26978 327.69666,163.60679 329.36752,167.95143 329.2004,169.45556 329.12417,170.14169 329.40815,170.6449 329.90062,170.99903 L 329.93571,172.6167 C 326.38517,172.2343 327.34784,169.28235 325.85846,168.62041 324.71232,168.11101 324.23987,169.25964 323.56484,171.08807 L 319.72775,171.00442 C 320.82349,169.78146 322.11867,168.24603 322.51518,165.94633 323.35079,161.09969 319.84156,161.60137 319.00594,159.763 318.17031,157.92461 315.162,153.9127 312.488,152.40857 309.814,150.90445 312.1535,146.8937 309.64661,144.8882 307.13974,142.88269 303.9641,141.71295 306.80522,138.53757 309.64635,135.36219 302.2099,130.68259 302.2099,130.68259 302.2099,130.68259 302.27949,130.6772 302.40418,130.6772 Z M 529.75044,141.71221 C 521.72843,141.54508 516.71527,147.22734 512.20291,152.07397 507.69051,156.9206 511.36736,159.42801 504.51523,162.93763 497.66309,166.44727 491.14504,159.09385 488.80528,165.61172 486.46553,172.12961 481.61842,169.45512 479.27867,176.80863 476.93891,184.16214 473.59641,182.65785 468.91691,192.18398 464.2374,201.71012 475.93686,208.22817 479.94787,207.89392 483.95887,207.55967 481.78551,204.05021 483.1225,202.88034 484.45951,201.71047 485.79738,198.70269 483.959,196.86431 482.12063,195.02594 489.64044,195.35996 489.64044,195.35996 489.64044,195.35996 485.96402,200.37425 489.97503,201.04275 493.98604,201.71125 489.13936,204.05083 493.81886,206.05633 498.49837,208.06183 494.65406,199.03629 506.35282,192.35128 518.05158,185.66626 515.37815,173.46726 518.55352,170.12476 521.7289,166.78225 527.41038,161.09994 525.572,158.42595 523.73363,155.75194 525.57306,155.41717 526.57581,152.74316 527.57855,150.06916 532.92669,151.74033 535.76782,150.06908 538.60894,148.39783 536.6034,145.22209 539.61165,144.5536 542.61991,143.8851 537.77245,141.87933 529.75044,141.71221 Z M 269.29241,142.69576 C 269.4554,142.68788 269.59209,142.69218 269.69177,142.69846 269.80569,142.70564 269.8712,142.716 269.8712,142.716 269.8712,142.716 266.86322,145.05502 267.53172,145.89064 268.20022,146.72627 269.70386,148.23019 268.36686,149.56718 267.02986,150.90419 265.52617,152.74303 266.19467,153.91291 L 266.36197,154.24751 C 266.36197,154.24751 266.52831,154.08047 268.19956,156.92161 269.87082,159.76273 266.52888,160.26345 264.85763,162.77033 264.19163,163.76934 263.95862,165.45497 263.90915,167.12552 L 261.28363,167.04725 C 260.98349,165.45421 259.83559,163.40731 263.85383,160.43084 268.36621,157.08834 263.1865,154.24678 263.68788,152.24127 264.18925,150.23577 266.0272,153.41185 265.86007,147.72959 265.73212,143.37911 268.15143,142.75101 269.29241,142.69576 Z M 252.82557,162.11193 C 253.74019,162.14914 254.57842,162.41554 254.82911,163.10493 255.49762,164.9433 255.49758,167.11559 253.49207,167.95122 251.48656,168.78684 251.98803,170.45901 250.98528,170.12476 249.98252,169.7905 250.65133,163.43901 249.98283,162.93763 249.56502,162.62426 251.30121,162.04991 252.82557,162.11193 Z M 215.55561,164.77658 C 218.8981,165.11083 218.39694,165.94554 217.05994,167.78391 216.52131,168.52453 216.31346,169.23824 216.20726,169.95746 L 214.21855,169.95746 214.55316,167.61662 209.67988,167.76907 C 210.13557,167.10759 210.75846,166.59425 211.54447,166.44687 214.21847,165.94549 215.55561,164.77658 215.55561,164.77658 Z M 261.3295,168.60017 263.9105,168.7135 C 263.97057,170.58857 264.18843,172.12965 264.18843,172.12965 L 261.18109,171.96235 C 261.18109,171.96235 261.28962,170.17223 261.3295,168.60017 Z M 332.98892,168.91184 334.80897,169.23969 C 335.2278,171.72986 336.79682,173.22141 335.38373,172.7975 334.04498,172.39588 333.74861,172.73866 331.80568,172.72195 L 331.83266,171.60212 C 332.01076,171.61602 332.19005,171.62775 332.37639,171.62775 334.21476,171.62775 334.54858,171.79505 334.54858,171.79505 334.54858,171.79505 333.51853,170.65733 332.98892,168.91184 Z M 212.21231,169.45556 212.54691,171.79505 216.00489,171.98799 C 215.95178,172.41253 215.87385,172.84656 215.7229,173.29939 215.0544,175.30491 211.04235,172.96544 209.53822,172.29695 208.90993,172.0177 208.69561,171.03701 208.84744,169.95476 L 212.21231,169.45556 Z M 318.32054,172.76107 322.80525,173.11321 C 321.86359,175.82626 326.40786,176.53255 329.0331,179.65002 331.70711,182.82541 329.7019,183.49425 328.03065,185.16551 326.3594,186.83676 329.3677,190.68099 329.3677,190.68099 329.3677,190.68099 328.19774,190.01156 326.69361,188.50744 325.18948,187.00331 329.03384,181.8223 325.85846,179.31542 322.68308,176.80855 319.84087,176.64177 318.33673,174.46914 317.92715,173.87751 317.99749,173.33448 318.32054,172.76107 Z M 487.96069,175.07762 C 490.68668,174.94726 497.14082,177.26932 499.33434,179.14948 501.6741,181.15497 491.81288,182.1576 489.47313,185.50011 487.13339,188.84261 491.64549,187.67203 491.81262,190.01179 491.97974,192.35155 484.62671,191.51574 480.61571,189.84449 476.60471,188.17324 482.11976,186.33525 483.1225,186.33525 484.12526,186.33525 484.29225,178.48028 484.29225,178.48028 480.61549,177.14328 485.12848,175.63972 487.46823,175.13834 487.61447,175.107 487.77895,175.08632 487.96069,175.07762 Z M 432.18526,226.82033 C 433.80955,226.82527 436.49457,227.615 436.49457,227.615 436.49457,227.615 436.99569,229.6206 433.65318,230.2891 430.31068,230.95759 431.14621,228.95183 430.97908,227.4477 430.92687,226.97766 431.44694,226.81808 432.18526,226.82033 Z M 338.8282,230.90028 C 338.90654,230.89798 338.93609,231.01996 338.89432,231.29155 338.56006,233.46417 338.89305,236.6402 341.56706,240.98545 344.24106,245.33072 341.56823,245.99865 341.4011,249.50828 341.31114,251.39769 344.56495,253.76677 348.00404,255.60795 L 346.21636,255.98707 C 345.35113,255.05458 345.29745,254.39474 344.58383,254.45709 344.31487,254.4806 343.94916,254.60577 343.406,254.85645 343.406,254.85645 343.3074,255.03505 343.22116,255.19106 L 339.44343,255.10067 C 340.14569,253.56139 339.76883,253.30868 337.89052,251.17992 335.38364,248.33879 339.06087,245.83226 337.05537,241.15276 335.30056,237.05819 338.27982,230.91627 338.8282,230.90028 Z M 265.02492,241.15276 C 265.02492,241.15276 269.20201,241.65336 269.20201,242.99034 269.20201,244.32735 268.1997,245.99944 267.02981,247.67068 265.85995,249.34194 269.36917,250.51177 270.53906,251.51452 271.70894,252.51727 277.22415,249.67597 278.39403,251.34722 279.56391,253.01847 279.22966,265.38521 278.39403,266.38796 277.55841,267.39072 280.40044,270.39954 280.56757,273.40779 280.73469,276.41604 290.0927,277.58561 291.26258,279.59112 292.43246,281.59662 286.91833,284.10337 285.74845,285.94174 284.57857,287.78013 289.59168,288.61589 291.59718,289.95288 293.60269,291.28988 293.10083,292.45955 292.43232,293.62942 291.76383,294.7993 293.60229,297.47408 289.92554,296.9727 286.24878,296.47132 285.58119,296.30429 286.9182,294.46591 288.2552,292.62754 287.92039,291.28931 285.07926,288.11394 282.23813,284.93856 286.24991,282.43212 288.42254,280.76086 290.59517,279.08961 283.91012,277.41858 281.90462,277.08433 279.89912,276.75007 277.55888,274.07534 277.55888,269.8972 277.55888,265.71908 270.03763,264.04821 269.20201,261.20708 268.36638,258.36595 274.88479,256.3608 274.88479,256.3608 274.88479,256.3608 274.55033,258.19877 273.38044,258.53299 272.21056,258.86724 271.54168,261.20783 271.70881,263.21333 271.87593,265.21884 274.38381,262.87877 276.55643,264.21578 278.72906,265.55277 275.55346,258.53321 275.05208,254.85645 274.55071,251.17971 272.54539,252.51631 270.03851,253.18481 267.53163,253.85332 266.52888,251.0124 264.85763,249.50828 263.18637,248.00415 266.02672,246.16577 266.69522,244.32739 267.36373,242.48902 265.02492,241.15276 265.02492,241.15276 Z M 454.44821,242.94852 C 455.65122,242.90226 456.55025,243.32494 456.55025,243.32494 457.38587,244.99621 456.38222,245.66536 454.3767,247.83798 452.37121,250.01061 449.02961,246.66715 451.36936,244.32739 452.39301,243.30376 453.51255,242.98451 454.44821,242.94852 Z M 385.52225,246.50094 C 385.52225,246.50094 384.6857,246.8344 383.34871,248.33853 382.01171,249.84265 377.1659,249.67506 367.30551,249.17368 361.56804,248.88194 357.64705,255.15381 356.84796,260.87788 355.2362,260.56615 353.93506,260.70654 353.93506,260.70654 353.93506,260.70654 350.92715,258.86746 349.08878,260.03734 349.06574,260.052 349.04305,260.07098 349.01997,260.08591 L 346.725,259.34521 C 347.26832,258.51561 347.52795,257.98039 347.41983,257.49952 348.57459,257.24399 349.7113,256.99396 350.47304,256.83166 352.53535,257.77179 354.38478,258.42208 355.27211,258.53299 357.94611,258.86725 355.93996,258.03148 355.93996,254.52185 355.93996,251.01222 358.28005,250.1769 361.45543,248.33853 364.63081,246.50015 385.52225,246.50094 385.52225,246.50094 Z M 161.90785,250.84532 C 161.90785,250.84532 165.75228,252.18289 163.74679,252.68427 161.74128,253.18564 160.06956,255.19148 159.40105,253.01886 158.73255,250.84624 161.90785,250.84532 161.90785,250.84532 Z M 162.07514,255.8589 C 162.07514,255.8589 163.91408,256.19372 163.91408,257.69784 163.91408,259.20197 160.40363,258.8679 159.23374,257.86515 158.06387,256.86239 162.07514,255.8589 162.07514,255.8589 Z M 153.21637,256.20969 C 154.16787,256.17542 154.63837,256.73653 155.89181,257.36325 157.8973,258.366 153.71871,259.53545 151.54608,259.53545 149.37344,259.53545 150.71093,257.02865 150.71093,257.02865 151.9017,256.4646 152.64547,256.23025 153.21637,256.20969 Z M 338.69194,256.59825 342.48046,256.68865 C 342.15771,257.41232 341.84218,258.24761 341.67634,259.03354 L 337.65846,258.92696 C 337.86934,258.33839 338.11109,257.7586 338.39241,257.19595 338.52373,256.93332 338.57804,256.82099 338.69194,256.59825 Z M 341.43349,260.74836 C 341.03695,263.37762 340.03215,268.46713 340.89921,271.0683 341.90196,274.07655 340.89895,277.75283 343.2387,277.08433 345.57845,276.41582 348.92096,272.9055 348.41958,271.23424 347.91821,269.56299 342.40347,265.88747 344.91035,262.04358 345.13133,261.70473 345.26368,261.52024 345.45811,261.23272 L 346.5631,263.36713 C 346.42937,264.36167 346.67976,265.57091 347.58443,267.05717 349.92418,270.90104 348.25233,273.40801 349.58933,274.91213 350.92634,276.41626 352.93235,278.08751 355.27211,274.91213 357.61186,271.73675 354.60299,267.39106 357.277,266.72257 357.29767,266.71739 357.31715,266.70912 357.33771,266.70368 357.93265,268.18669 358.94867,269.29667 360.45299,269.73125 367.97363,271.90387 363.96223,278.75541 363.96223,276.91703 363.96223,275.07865 362.12472,273.24049 359.61784,273.24049 357.11097,273.24049 360.28508,276.41617 357.1097,277.41893 353.93433,278.42168 359.28281,279.9248 356.27455,282.93306 353.2663,285.94131 357.61217,289.11664 359.45054,291.95777 361.28892,294.7989 357.61212,296.63806 358.11349,295.30107 358.61487,293.96406 357.10996,290.78846 354.77021,288.61584 352.43046,286.44321 355.10459,281.42988 353.60047,281.26276 352.09634,281.09563 349.7564,276.74956 348.25228,276.58243 346.74815,276.41531 345.74554,279.42455 341.90165,281.43007 338.05777,283.43557 332.7099,290.7889 330.37014,291.62452 328.0304,292.46014 328.19747,298.14211 329.0331,302.98873 329.86873,307.83536 325.85785,307.66798 327.86335,310.50911 329.86887,313.35024 330.03555,315.68998 330.03555,315.68998 327.13543,319.69492 330.50126,321.08096 330.34721,324.45701 L 324.68871,324.882 325.05165,320.52548 C 328.62017,319.77228 325.53143,316.71873 326.52631,314.01835 327.69619,310.84297 323.68466,310.50889 326.02441,309.00476 328.36416,307.50064 327.19494,299.64632 325.35657,295.30107 323.51818,290.9558 331.20564,286.77742 336.72077,282.09791 342.2359,277.41841 338.55985,272.23709 337.38997,268.72746 336.59033,266.32854 336.49406,263.53951 337.09989,260.8401 L 341.43349,260.74836 Z M 422.37667,261.86279 C 425.36304,261.65944 431.08441,265.40645 431.81558,266.72257 432.65121,268.22669 430.31124,268.39421 430.31124,268.39421 430.31124,268.39421 429.64252,268.05899 428.8069,270.0645 427.97127,272.07 431.14631,275.74659 428.4723,280.25897 425.79829,284.77135 425.96577,283.26826 418.44513,281.26276 410.9245,279.25726 413.93345,275.91423 413.93345,270.3991 413.93345,264.88397 418.94676,263.88079 421.28652,262.20953 421.57899,262.00062 421.95004,261.89184 422.37667,261.86279 Z M 182.88232,270.33704 C 183.17478,270.31616 183.63451,270.48218 184.30301,271.23424 185.64001,272.73838 183.80207,272.90606 182.13082,273.07319 180.45957,273.24031 182.46407,270.5664 182.46407,270.5664 182.46407,270.5664 182.58984,270.35793 182.88232,270.33704 Z M 507.77352,279.65993 C 507.98082,279.65594 508.20499,279.65852 508.44676,279.66668 509.60723,279.7058 511.15788,279.86304 513.03805,279.92572 513.52328,279.94189 513.91912,279.89753 514.27256,279.82453 L 514.70969,282.18156 506.74948,282.57957 C 506.50079,282.16048 506.29861,281.76934 506.18552,281.43007 505.72854,280.05912 506.32237,279.68776 507.77352,279.65993 Z M 512.87074,284.10415 514.12414,293.12887 511.40553,293.02768 C 511.89238,292.68329 512.20289,292.24069 512.20291,291.62452 512.2029,289.80069 509.80761,286.90029 508.00963,284.4374 L 512.87074,284.10415 Z M 517.55108,284.6047 C 517.55108,284.6047 516.54807,287.02836 517.30013,287.52974 518.05219,288.03111 519.72349,289.70155 518.63718,290.62073 517.55087,291.53992 517.80068,293.04522 517.80068,293.04522 L 516.13038,293.21117 515.79579,284.68835 517.55108,284.6047 Z M 90.847461,298.88856 C 91.182323,298.87668 91.527148,298.90448 91.882288,298.9776 97.564548,300.14747 98.567517,299.6468 98.567517,299.6468 102.41139,300.64954 99.069109,299.64623 105.25274,302.98873 111.43638,306.33124 109.2634,310.17469 104.91815,315.52269 100.57289,320.8707 96.060553,323.21142 90.712542,324.21416 85.364531,325.21692 84.52908,320.03572 80.518074,320.03572 76.507078,320.03572 77.509648,310.17482 80.350778,309.17207 83.014333,308.23199 85.824526,299.06665 90.847461,298.88856 Z M 321.22669,320.69278 C 321.62684,320.68988 322.05558,320.69314 322.51518,320.70357 322.60889,320.70571 322.67892,320.69999 322.76882,320.70088 L 322.84977,320.87087 323.35167,327.22149 320.67758,327.22149 321.07694,320.69683 C 321.12953,320.69622 321.17312,320.69317 321.22669,320.69278 Z M 310.9189,321.50365 C 311.04401,321.50708 311.17725,321.51918 311.31826,321.54007 312.153,321.66374 312.80937,321.70666 313.37307,321.69657 L 313.99235,326.55366 309.2648,326.69262 C 308.93364,324.1858 308.64053,321.44094 310.9189,321.50365 Z M 233.03838,322.56815 C 233.17364,322.56295 233.30393,322.56326 233.42694,322.56815 234.01743,322.59165 234.44018,322.70982 234.44018,322.70982 237.61556,324.88245 236.61286,325.55108 235.77723,326.72095 234.94161,327.89082 229.09187,326.55392 230.26175,324.21416 230.90152,322.93461 232.09156,322.60456 233.03838,322.56815 Z M 324.52142,334.07402 C 324.52142,334.07402 320.67645,334.4078 322.18057,340.09006 323.6847,345.77231 321.51321,350.28516 325.85846,354.79755 330.20372,359.30993 337.55683,369.0035 339.72946,369.33775 341.90209,369.672 338.22585,356.13468 335.05047,353.6278 331.87509,351.12093 330.03651,348.44606 328.36525,342.42955 326.694,336.41304 326.86117,335.9124 324.52142,334.07402 Z M 234.2513,334.41132 C 235.65489,334.46845 236.11183,335.57837 236.11183,335.57837 237.2817,338.08525 237.11406,337.2491 235.60993,340.25736 234.1058,343.26561 236.77976,343.60016 239.45377,344.43578 242.12777,345.27141 239.78878,348.27988 237.61617,351.12101 235.44354,353.96214 232.93594,351.28727 230.42905,350.28451 227.92218,349.28177 233.77133,345.94009 234.10558,344.60309 234.43984,343.26608 233.43783,341.2598 230.93095,341.2598 228.42407,341.2598 226.2511,339.08834 230.59635,335.91297 232.22582,334.7222 233.40915,334.37697 234.2513,334.41132 Z M 325.18926,360.12145 C 324.71923,360.17628 324.43786,360.60554 324.52142,361.65008 324.85567,365.82822 327.69688,367.8335 327.19551,370.5075 326.69413,373.1815 325.85842,374.3512 329.7023,375.52108 333.54618,376.69095 331.37303,384.0446 334.38128,384.71309 337.38954,385.38159 342.57054,386.55182 343.5733,385.0477 344.57604,383.54357 343.40548,380.86948 342.9041,377.19273 342.40272,373.51597 337.89091,371.67763 334.38128,368.16801 330.87165,364.65837 329.7023,363.15308 329.7023,363.15308 329.7023,363.15308 326.59938,359.95695 325.18926,360.12145 Z"
     id="path4146"
     class="LAND" />
  <path
     inkscape:connector-curvature="0"
     style="fill:#deeff0;fill-opacity:1;fill-rule:evenodd;stroke:none;stroke-width:1px;stroke-linecap:butt;stroke-linejoin:miter;stroke-opacity:1"
     d="M 238.16259,6.2807228 C 238.03468,6.2900653 237.90881,6.3101004 237.78347,6.3414362 229.76146,8.3469391 231.59975,14.363752 219.56674,20.881635 207.53371,27.399518 213.71653,26.229207 204.52464,33.415591 195.33276,40.601975 198.0072,38.429957 197.17157,46.953342 196.33595,55.476737 198.50801,60.991991 200.5135,66.507123 202.51901,72.022256 191.99077,79.040687 194.66477,82.550317 197.33878,86.059947 197.17157,86.896052 197.17157,86.896052 191.32219,89.068679 196.00126,94.583681 194.16287,98.427561 188.7127,109.82337 189.8178,119.48582 189.1493,123.49682 188.4808,127.50783 176.78229,137.70243 176.44804,148.06419 176.43429,148.49038 176.38083,148.91877 176.30907,149.34727 182.48222,148.35288 191.39729,145.99212 202.96633,140.52897 227.05468,129.15391 229.06174,128.48419 235.75295,135.17539 242.44415,141.86661 241.1064,144.5425 251.81233,141.86602 262.51826,139.18953 277.90697,140.52897 277.90697,140.52897 L 287.94494,127.81557 C 287.94494,127.81557 279.91473,116.44018 293.29715,113.09459 299.99169,111.42095 304.84431,106.73318 307.77125,101.37689 299.46776,90.880121 292.35516,82.735217 291.42988,80.043526 289.5915,74.695519 281.73637,70.851596 278.22673,68.344717 274.7171,65.837845 259.67631,68.344717 256.66805,68.344717 253.65981,68.344717 254.32821,67.175406 253.99396,65.002779 253.65972,62.830151 254.99693,64.667701 255.4983,65.503327 255.99968,66.338953 258.00531,65.838448 259.50944,66.339824 261.01357,66.841199 274.21621,66.17209 277.39158,63.163836 280.56696,60.155582 276.05414,55.47604 274.38289,51.465026 272.71164,47.454022 278.06057,33.583195 276.55643,32.580444 275.05231,31.577692 271.20738,35.754778 265.19087,41.938411 259.26838,48.025425 246.22072,5.6921916 238.16259,6.2807228 Z M 243.95735,43.140538 C 245.0278,43.15441 246.15975,43.359542 247.30874,43.777354 250.98549,45.114356 251.31988,54.974265 251.31988,54.974265 250.48425,57.982519 252.65674,55.308776 247.30874,57.815654 241.96073,60.322532 238.95322,59.821244 233.77234,60.489745 228.59145,61.158246 230.2628,53.471313 231.26555,49.627432 232.26829,45.783553 236.44564,47.95605 238.28402,45.616297 239.54791,44.007717 241.60238,43.110018 243.95735,43.140538 Z"
     id="path4958"
     class="LAND" />
  <path
     style="fill:none;fill-rule:evenodd;stroke:none;stroke-width:1px;stroke-linecap:butt;stroke-linejoin:miter;stroke-opacity:1"
     d="M 265.02436,241.15232 C 265.02436,241.15232 267.36412,242.48932 266.69561,244.3277 266.02711,246.16607 263.18598,248.00445 264.85723,249.50858 266.52849,251.01271 267.53124,253.85384 270.03811,253.18533 272.545,252.51683 274.55049,251.17984 275.05187,254.85658 275.55324,258.53334 278.72863,265.55261 276.556,264.2156 274.38337,262.8786 271.87649,265.21835 271.70937,263.21284 271.54224,261.20735 272.21074,258.86759 273.38062,258.53334 274.55049,258.19909 274.88474,256.36072 274.88474,256.36072 274.88474,256.36072 268.36686,258.36621 269.20249,261.20735 270.03811,264.04847 277.55875,265.71973 277.55875,269.89785 277.55875,274.07599 279.8985,276.75 281.90401,277.08425 283.90951,277.41849 290.59452,279.08974 288.42189,280.76099 286.24926,282.43225 282.23826,284.93913 285.07939,288.11451 287.92052,291.28988 288.25476,292.62689 286.91776,294.46526 285.58075,296.30364 286.24926,296.47076 289.92602,296.97214 293.60278,297.47351 291.76439,294.79951 292.43289,293.62964 293.1014,292.45976 293.60278,291.28988 291.59726,289.95288 289.59176,288.61589 284.57801,287.78026 285.74788,285.94187 286.91776,284.1035 292.43289,281.59662 291.26301,279.59112 290.09314,277.58561 280.73412,276.41574 280.567,273.40749 280.39987,270.39923 277.55875,267.39098 278.39438,266.38823 279.23001,265.38548 279.56426,253.01821 278.39438,251.34696 277.2245,249.6757 271.70937,252.51683 270.53949,251.51408 269.36961,250.51134 265.85998,249.34145 267.02986,247.6702 268.19974,245.99895 269.20249,244.3277 269.20249,242.99069 269.20249,241.6537 265.02436,241.15232 265.02436,241.15232 Z"
     id="path4162"
     inkscape:connector-curvature="0"
     class="LAND" />
  <path
     style="fill:none;fill-rule:evenodd;stroke:none;stroke-width:1px;stroke-linecap:butt;stroke-linejoin:miter;stroke-opacity:1"
     d="M 300.4549,302.98865 C 300.4549,302.98865 297.7809,304.99415 299.28503,306.49827 300.78915,308.00241 298.11515,309.50653 300.12065,309.50653 302.12616,309.50653 304.29879,309.67366 302.96178,305.9969 301.62478,302.32015 302.12616,303.3229 300.4549,302.98865 Z"
     id="path4164"
     inkscape:connector-curvature="0"
     class="LAND" />
  <path
     inkscape:connector-curvature="0"
     style="opacity:1;fill:#c9b293;fill-opacity:1;fill-rule:evenodd;stroke:none;stroke-width:1px;stroke-linecap:butt;stroke-linejoin:miter;stroke-opacity:1"
     d="M 513.4563,150.73152 C 513.03518,151.18169 512.6138,151.63262 512.20291,152.07397 507.6905,156.9206 511.36736,159.42801 504.51523,162.93763 504.47372,162.95889 504.43258,162.97518 504.3911,162.99564 503.27472,165.58243 502.89059,166.6134 508.70446,171.1353 512.32647,173.95241 514.49113,175.21936 516.62284,175.68206 517.10791,173.24713 517.53048,171.20166 518.55352,170.12476 520.59176,167.97926 523.65339,164.87229 525.10519,162.21312 523.89019,160.99234 522.73989,159.82322 521.94,158.84555 517.68567,153.64583 518.15806,156.71758 514.37645,151.75421 514.06913,151.35087 513.76209,151.0249 513.4563,150.73152 Z M 497.25795,261.46343 C 496.60764,261.45817 495.74016,261.70833 494.48672,262.37683 492.31535,263.53489 488.01405,264.75236 484.07773,265.13996 484.3234,265.75577 484.84472,266.14781 485.77905,266.14781 490.26972,266.14781 487.90594,269.22126 495.23282,269.22126 502.55969,269.22126 501.85098,273.00228 505.39625,271.11147 505.64018,270.98137 505.88052,270.8406 506.12345,270.70402 505.21993,270.26918 504.77474,269.52493 505.68497,268.89475 507.85761,267.39064 505.35077,264.38272 501.84114,264.04847 499.20891,263.79779 499.20887,261.4792 497.25795,261.46343 Z M 459.77481,284.10551 C 441.41605,284.22602 460.36383,289.63519 449.14456,292.38277 437.56337,295.21898 439.92654,299.71075 438.98112,304.43777 438.03572,309.16478 429.52647,308.9284 426.45391,313.65542 423.38135,318.38243 415.8185,315.07284 415.58216,307.74597 415.34581,300.4191 401.87392,303.2548 402.34662,305.6183 402.81931,307.98181 414.16435,312.70919 408.72828,315.78173 404.32884,318.26838 403.65509,323.17521 403.55414,324.9778 404.46618,324.6461 405.56428,324.04041 406.91362,323.04306 414.60139,317.3608 428.13922,316.69243 433.48723,316.69243 438.83523,316.69243 438.16604,309.33979 443.1798,301.98629 448.19355,294.63277 449.36304,301.98617 457.0508,297.97515 464.73855,293.96415 480.94988,296.30425 488.30339,298.30975 495.6569,300.31526 497.49571,301.81829 501.67384,301.14979 502.12082,301.07828 502.4708,300.97092 502.76803,300.84352 499.04054,299.46318 494.16089,295.40641 487.66927,290.96477 478.68794,284.81965 483.17833,284.34724 461.67041,284.1109 460.9983,284.10351 460.36702,284.10162 459.77481,284.10551 Z M 162.93322,324.28567 C 161.71749,324.17765 159.1415,325.19107 157.01433,326.6535 153.23272,329.25335 144.25209,327.59965 141.88859,328.54505 139.52508,329.49047 148.03341,333.03517 148.74246,335.63503 149.12479,337.0369 147.10709,338.83453 145.16172,340.20878 146.88776,340.60946 148.90626,341.8556 153.46328,342.34859 153.24657,342.03132 152.93686,341.57313 152.76035,341.30837 150.39684,337.76311 158.90494,330.90892 162.45022,326.89095 164.00126,325.1331 163.8788,324.36968 162.93322,324.28567 Z M 150.04173,343.60064 C 150.04173,343.60064 146.03129,343.43343 146.69979,346.10744 147.3683,348.78144 152.38188,348.28023 151.71338,346.27473 151.04488,344.26922 150.04173,343.60064 150.04173,343.60064 Z M 151.87933,355.69476 C 150.99311,355.71434 149.47794,356.09203 147.70224,357.97219 144.86111,360.98045 140.18174,361.81659 141.35161,363.65497 142.52149,365.49335 145.02907,368.16723 147.20169,364.82472 149.37432,361.48221 152.54904,361.48186 153.05042,359.30924 153.55179,357.1366 154.72133,358.30688 152.71583,355.8 152.71583,355.8 152.41106,355.68301 151.87933,355.69476 Z M 159.40105,358.30679 C 159.40105,358.30679 153.71961,358.80895 153.71961,361.65008 153.71961,364.49121 150.7102,366.83078 153.88557,366.66366 157.06095,366.49653 161.57368,362.15067 159.40105,358.30679 Z"
     id="path4242"
     class="LAND" />
  <path
     inkscape:connector-curvature="0"
     style="fill:#986749;fill-opacity:1;fill-rule:evenodd;stroke:none;stroke-width:1px;stroke-linecap:butt;stroke-linejoin:miter;stroke-opacity:1"
     d="M 370.84578,22.323917 C 368.50122,22.285857 366.09183,22.524326 364.01485,23.079463 364.70158,25.761514 365.46323,28.425573 366.30172,30.9088 367.67706,34.981938 367.89447,37.930008 367.64821,40.353116 368.80116,41.25347 369.88523,42.684271 370.67579,44.924164 373.512,52.960089 378.71176,63.832601 375.87556,69.505019 373.03935,75.177437 357.43998,91.249288 366.89401,93.140094 376.34804,95.0309 380.12938,80.376829 388.16531,85.576546 396.20123,90.776262 409.90937,94.557172 414.63637,88.884754 419.36339,83.212336 415.58265,80.849746 426.92747,82.740552 438.27232,84.631358 456.23471,89.357888 448.19878,83.212768 440.16286,77.067649 425.98132,78.012459 436.85345,73.285444 440.51548,71.693258 444.26758,70.580621 447.33125,69.321529 443.86263,63.310351 440.57675,60.127214 439.00136,59.654598 435.65886,58.651847 424.29438,38.430043 419.61488,34.084788 419.58658,34.058516 419.56057,34.019812 419.53258,33.991694 416.17177,34.162428 412.63286,33.798041 404.23818,31.215065 391.94794,27.433453 383.43932,28.852476 380.60311,25.070864 379.36227,23.416408 375.22508,22.395007 370.84578,22.323917 Z M 420.88986,95.815533 C 419.65731,95.794642 418.52922,96.505316 418.94703,99.430007 419.78266,105.27939 427.6374,100.09846 425.29766,98.092961 422.9579,96.087459 423.45871,96.588617 423.45871,96.588617 423.45871,96.588617 422.12241,95.836424 420.88986,95.815533 Z M 285.74845,116.6443 C 285.58081,116.6443 285.4124,116.67557 285.24521,116.72255 283.03447,123.83273 284.08861,133.35011 277.72618,136.53132 268.11751,141.33566 244.24634,138.92026 237.96965,139.85438 229.973,144.98321 222.24083,150.68749 222.24083,155.08266 222.24083,162.10192 229.9275,167.44984 240.62351,162.77033 249.7976,158.75666 262.29772,151.41201 265.84253,149.30139 265.86897,148.86919 265.87866,148.36171 265.86007,147.72959 265.73212,143.37911 268.15143,142.75101 269.29241,142.69576 269.4554,142.68788 269.59209,142.69218 269.69177,142.69846 269.80569,142.70564 269.8712,142.716 269.8712,142.716 269.8712,142.716 266.86322,145.05502 267.53172,145.89064 268.20022,146.72627 269.70386,148.23019 268.36686,149.56718 267.02986,150.90419 265.52617,152.74303 266.19467,153.91291 L 266.36197,154.24751 C 266.36197,154.24751 266.52831,154.08047 268.19956,156.92161 269.87082,159.76273 266.52888,160.26345 264.85763,162.77033 264.19163,163.76934 263.95862,165.45497 263.90915,167.12552 L 262.26313,167.07694 262.39401,168.64739 263.9105,168.7135 C 263.97057,170.58857 264.18843,172.12965 264.18843,172.12965 L 262.67733,172.046 262.68408,172.12965 C 262.68408,172.12965 278.05965,180.15223 264.02113,189.51124 249.98261,198.87024 246.30685,197.86659 242.96435,202.88034 240.53979,206.51718 239.52799,208.04127 238.89655,209.4347 239.81253,208.41089 240.45756,207.72663 240.45756,207.72663 L 242.96435,208.89772 C 242.96435,208.89772 236.61316,215.9161 234.77478,218.42298 232.9364,220.92987 234.9423,220.93 236.44643,222.43412 237.95055,223.93824 237.28219,225.94379 235.27668,228.95204 234.3765,230.30233 233.20216,231.27991 231.47602,231.94994 231.57757,233.18125 232.04801,238.31137 232.93584,238.31137 233.93858,238.31137 229.42682,244.9965 230.93095,247.50339 232.43507,250.01026 241.45919,248.00383 241.96056,250.51072 242.46193,253.0176 232.93575,253.18494 235.44263,257.19595 237.9495,261.20695 236.11113,272.90619 235.44263,277.08433 234.77413,281.26245 231.93375,288.9507 232.268,291.79182 232.60225,294.63295 226.7523,300.48156 230.42905,303.99119 234.1058,307.50082 242.12825,315.18858 243.79951,324.71472 245.47076,334.24084 236.61347,359.97797 244.1341,365.99447 251.65473,372.01097 256.33376,397.07965 255.33102,399.58654 254.32826,402.09342 296.94536,408.77858 296.94536,408.77856 296.94536,408.77856 326.52618,408.44432 327.69606,408.77856 328.86592,409.11281 300.12096,372.84732 303.63059,368.00071 307.14022,363.15406 308.97881,347.44378 299.95405,336.41351 290.92929,325.38325 285.41399,324.21355 284.24411,305.49553 283.1901,288.6316 281.33901,288.17219 284.27919,284.94875 284.90023,283.24091 287.03349,281.82937 288.42254,280.76086 290.59517,279.08961 283.91012,277.41858 281.90462,277.08433 279.89912,276.75007 277.55888,274.07534 277.55888,269.8972 277.55888,265.71908 270.03763,264.04821 269.20201,261.20708 268.36638,258.36595 274.88479,256.3608 274.88479,256.3608 274.88479,256.3608 274.55033,258.19877 273.38044,258.53299 272.21056,258.86724 271.54168,261.20783 271.70881,263.21333 271.87593,265.21884 274.38381,262.87877 276.55643,264.21578 278.72906,265.55277 275.55346,258.53321 275.05208,254.85645 274.55071,251.17971 272.54539,252.51631 270.03851,253.18481 267.53163,253.85332 266.52888,251.0124 264.85763,249.50828 263.18637,248.00415 266.02672,246.16577 266.69522,244.32739 267.36373,242.48902 265.02492,241.15276 265.02492,241.15276 265.02492,241.15276 269.20201,241.65336 269.20201,242.99034 269.20201,244.32735 268.1997,245.99944 267.02981,247.67068 265.85995,249.34194 269.36917,250.51177 270.53906,251.51452 271.70894,252.51727 277.22415,249.67597 278.39403,251.34722 278.59208,251.63015 278.74415,252.23666 278.86085,253.02561 280.87628,252.78581 283.75361,252.18632 284.07681,250.67802 284.57818,248.33827 286.58364,227.28113 293.10153,224.10576 299.61941,220.93039 303.12883,220.42892 307.13983,216.25079 311.15083,212.07266 331.2056,211.57089 335.38373,209.39827 339.56185,207.22564 343.74041,213.07529 343.5733,207.05878 343.40617,201.04226 341.06664,187.50508 345.07764,184.9982 349.08865,182.49132 346.24773,176.97584 341.4011,174.30184 339.66481,173.34389 337.75973,172.8642 335.9261,172.49663 336.02422,172.83938 335.92135,172.95878 335.38373,172.7975 334.04498,172.39588 333.74861,172.73866 331.80568,172.72195 L 331.83131,171.66014 C 331.1124,171.47508 330.44768,171.25614 329.8669,170.968 329.87942,170.97741 329.88783,170.98982 329.90062,170.99903 L 329.93571,172.6167 C 326.38517,172.2343 327.34784,169.28235 325.85846,168.62041 324.71232,168.11101 324.23987,169.25964 323.56484,171.08807 L 322.63795,171.06784 C 322.48364,171.86021 322.42196,172.51811 322.40049,173.08083 L 322.80525,173.11321 C 321.86359,175.82626 326.40786,176.53255 329.0331,179.65002 331.70711,182.82541 329.7019,183.49425 328.03065,185.16551 327.63412,185.56204 327.50649,186.08204 327.53415,186.64286 331.65788,186.37529 335.68446,183.90226 335.05047,188.34014 334.38196,193.01965 336.72164,190.84793 337.55727,195.69457 338.3929,200.5412 339.72967,203.71662 336.05293,202.2125 332.37616,200.70837 334.54871,196.86371 323.01707,198.8692 311.48542,200.87471 307.64164,203.88353 304.96764,200.70814 302.29363,197.53277 303.29599,195.19267 303.29599,195.19267 303.29599,195.19267 305.46928,192.35158 312.98991,191.34883 320.23255,190.38314 322.3657,186.94755 326.39408,186.69413 326.72024,184.48392 328.20846,181.17068 325.85846,179.31542 323.40111,177.37541 321.14626,176.83336 319.5537,175.68206 317.47003,175.50221 314.40207,175.34908 309.64661,176.97593 303.29586,179.14856 292.60063,186.50264 287.0855,178.81488 281.57037,171.12712 285.24664,173.46704 287.92065,168.62041 290.59465,163.77378 287.58578,159.42775 295.10642,160.09624 302.62704,160.76474 311.65196,162.93789 309.47932,160.59814 307.30669,158.25839 292.93409,156.92096 294.10397,152.40857 295.27385,147.89619 298.1152,133.35616 295.60832,127.67391 293.10144,121.99165 290.17727,116.6443 285.74845,116.6443 Z M 178.48262,121.37995 C 177.5866,121.36036 176.92787,121.65758 177.11588,122.66032 177.61726,125.33433 179.28917,126.50429 181.62892,125.33442 183.96868,124.16454 184.13632,123.66273 182.13082,122.32573 182.13082,122.32573 179.97597,121.41258 178.48262,121.37995 Z M 168.98704,122.64683 C 168.03593,122.65712 166.98475,122.99479 166.25357,124.16467 164.58232,126.83867 168.25855,128.51036 170.93256,127.17336 173.60656,125.83636 174.60967,126.00335 171.26716,123.16222 171.26716,123.16222 170.20986,122.63361 168.98704,122.64683 Z M 413.45179,131.24655 C 411.13293,131.18389 409.00295,131.93535 409.75501,135.19428 411.25914,141.71217 417.7772,142.5488 420.28407,140.04192 422.79095,137.53504 418.27783,132.18694 418.27783,132.18694 418.27783,132.18694 415.77065,131.30923 413.45179,131.24655 Z M 529.75044,141.71221 C 525.0676,141.61465 521.41347,143.51496 518.28235,146.07414 520.63274,150.0507 523.0444,152.84608 525.00535,155.58996 525.35987,154.83591 526.07319,154.08346 526.57581,152.74316 527.57855,150.06916 532.92669,151.74033 535.76782,150.06908 538.60894,148.39783 536.6034,145.22209 539.61165,144.5536 542.61991,143.8851 537.77245,141.87933 529.75044,141.71221 Z M 148.53199,146.5531 C 145.38704,146.53437 142.16596,147.14451 139.67997,148.89933 133.99771,152.91034 134.66713,161.09978 131.49175,163.43953 128.31637,165.77929 122.29912,169.12166 129.4855,169.79016 136.67189,170.45865 146.53306,162.60325 153.55232,158.9265 160.57158,155.24975 162.24876,150.44004 158.5659,148.64838 156.49429,147.64058 152.5755,146.57716 148.53199,146.5531 Z M 532.0481,154.95989 C 530.96334,154.9676 529.83482,155.36508 529.24989,156.7543 527.91288,159.92968 528.91468,160.76474 530.92019,160.09624 532.92569,159.42774 536.93665,158.25856 534.76402,155.58456 534.76402,155.58456 533.4428,154.94996 532.0481,154.95989 Z M 374.3874,203.40382 C 371.81934,203.16234 354.61825,207.60674 361.93035,212.25989 369.72992,217.22327 374.93012,216.75042 373.27567,222.89555 371.62121,229.04066 379.18457,228.09524 374.45756,232.1132 369.73054,236.13116 364.29437,235.65916 375.87556,240.62252 387.45674,245.58589 386.74699,244.40413 391.00131,252.44005 395.25562,260.47598 414.87267,249.13129 421.25415,253.62195 427.63562,258.11261 439.6895,255.74835 433.07168,251.73039 426.45386,247.71243 433.07168,250.31271 433.07168,246.0584 433.07168,241.80409 428.58101,240.62238 433.07168,239.44063 437.56235,238.25888 415.81931,231.87679 410.85595,226.91343 405.89258,221.95007 387.69295,205.17026 374.69367,203.51581 374.66413,203.45672 374.55861,203.41992 374.3874,203.40382 Z M 493.94299,208.02614 C 493.67272,208.0144 493.48427,208.06122 493.48427,208.06122 493.48427,208.06122 491.47924,210.06646 492.64911,210.40071 493.81899,210.73496 496.15901,210.40067 495.49051,209.06367 495.0727,208.22803 494.39344,208.04572 493.94299,208.02614 Z M 494.22092,212.52973 C 493.36898,212.53463 492.27292,212.67823 492.48183,213.40941 492.81608,214.57928 497.49518,214.74697 495.99106,215.24835 494.48693,215.74973 496.99368,218.08852 497.1608,216.91865 497.32793,215.74877 497.99682,217.42002 498.83246,216.91865 499.66808,216.41727 497.16184,216.08362 498.1646,214.91375 499.16735,213.74387 498.49763,213.5767 496.99351,213.5767 495.48938,213.5767 495.15591,212.57426 495.15591,212.57426 495.15591,212.57426 494.73209,212.5268 494.22092,212.52973 Z M 485.79659,219.09218 C 485.79659,219.09218 482.28757,220.09506 483.7917,223.10331 485.29583,226.11157 485.79646,221.59846 486.96634,221.09708 488.13622,220.59571 488.13635,219.2593 485.79659,219.09218 Z M 497.83,222.09953 C 497.83,222.09953 495.15596,222.76846 496.49295,225.10821 497.82997,227.44797 495.51821,228.86213 499.6676,227.28041 501.99554,226.393 499.12403,222.16955 497.83,222.09953 Z M 488.91457,222.84427 C 488.14259,222.86222 487.50985,223.01875 487.30095,223.43656 486.63244,224.77357 486.29789,225.94405 488.30339,226.61255 490.30889,227.28106 488.80567,225.94336 490.47693,225.94336 492.14817,225.94336 495.65659,225.10851 494.48672,224.10576 493.31683,223.10301 492.98372,223.43656 492.98372,223.43656 492.98372,223.43656 490.61292,222.80478 488.91457,222.84427 Z M 484.97629,227.65683 C 483.74676,227.5884 482.5585,228.87928 484.45956,229.28665 486.7993,229.78802 487.63476,228.45137 489.47313,229.62125 491.31151,230.79112 491.81314,230.28957 492.31452,229.45394 492.81589,228.61832 492.81551,228.78557 490.64288,228.2842 490.64288,228.2842 487.1336,228.95235 485.79659,227.9496 485.5459,227.76158 485.26003,227.67262 484.97629,227.65683 Z M 500.50409,230.79099 C 500.50409,230.79099 497.66328,232.79558 499.50165,233.79832 501.34002,234.80108 504.34772,235.47058 502.84358,233.46508 501.33946,231.45958 502.5096,231.29237 500.50409,230.79099 Z M 490.25566,238.30327 C 490.00661,238.31926 489.74471,238.37422 489.47313,238.47866 487.30051,239.31429 490.81105,240.6509 491.64667,241.9879 492.4823,243.3249 487.80245,245.83121 491.31207,245.32983 494.82171,244.82846 496.15901,243.32525 495.49051,242.3225 494.82202,241.31975 493.14967,239.98301 493.14967,239.98301 493.14967,239.98301 491.99905,238.1913 490.25566,238.30327 Z M 486.63174,239.48111 C 486.63174,239.48111 485.46305,241.15192 486.46579,241.6533 487.46855,242.15468 488.30339,242.65706 488.30339,241.32005 488.30339,239.98306 488.63725,239.48111 486.63174,239.48111 Z M 504.51523,245.83174 C 504.51523,245.83174 502.67577,245.83213 502.17439,247.50339 501.67301,249.17463 503.51182,249.00686 505.18308,248.17122 506.85433,247.33561 506.52073,245.83174 504.51523,245.83174 Z M 488.97258,248.17122 C 488.97258,248.17122 485.79716,249.50896 487.63554,250.17747 489.47391,250.84597 490.14215,249.84218 489.97503,249.17368 489.8079,248.50518 488.97258,248.17122 488.97258,248.17122 Z M 493.98617,249.67557 C 493.98617,249.67557 491.64619,250.00969 492.48183,250.84532 493.31745,251.68094 495.82454,251.34683 493.98617,249.67557 Z M 503.34548,253.18481 C 503.34548,253.18481 501.67353,254.35513 502.67629,256.19351 503.67903,258.03188 508.02498,258.19857 503.34548,253.18481 Z M 487.43315,268.27548 C 487.43315,268.27548 478.6878,271.34807 474.66984,270.87536 470.65188,270.40266 465.68876,269.22093 462.6162,273.47525 459.54363,277.72956 477.26927,273.94786 480.34183,277.49313 483.41439,281.03839 482.94176,285.05641 488.14148,282.69289 493.3412,280.32939 497.83268,277.72946 495.23282,274.89325 492.63296,272.05704 490.97842,269.69358 487.43315,268.27548 Z M 280.55272,273.27422 C 280.55636,273.31876 280.5651,273.36325 280.56757,273.40779 280.59738,273.9443 280.92865,274.42076 281.44454,274.85547 L 280.55272,273.27422 Z M 424.07664,319.10074 C 423.54785,319.07137 423.12546,319.28366 423.12546,320.03572 423.12546,322.04123 425.46448,322.37487 426.30011,322.04062 427.13574,321.70636 426.1328,319.86843 426.1328,319.86843 426.1328,319.86843 424.95797,319.1497 424.07664,319.10074 Z M 419.00234,320.10858 C 418.75937,320.11347 418.44479,320.16125 418.11053,320.20303 418.11053,320.20303 414.93625,320.87126 415.2705,322.54251 415.60475,324.21376 414.26782,326.60276 417.94458,322.54251 419.82591,320.46498 419.73128,320.0939 419.00234,320.10858 Z M 425.83059,323.576 C 425.45456,323.60733 425.04627,323.87891 424.62846,324.54741 422.9572,327.22141 427.30307,331.73379 427.80445,329.72829 428.30583,327.72279 427.80445,325.55121 427.80445,325.55121 427.80445,325.55121 426.95868,323.48199 425.83059,323.576 Z M 408.25067,324.71472 C 408.25067,324.71472 404.5737,325.8845 406.74633,327.22149 408.91895,328.55851 408.75247,329.22674 411.25936,329.561 413.76623,329.89524 412.93061,328.22407 411.25936,327.0542 409.58811,325.88432 409.08629,326.05171 408.25067,324.71472 Z M 440.8403,326.05175 C 440.8403,326.05175 439.83682,327.55645 438.83406,327.8907 437.83131,328.22496 436.99616,328.89266 437.99892,329.72829 439.00167,330.56391 441.17373,328.89244 441.34085,328.22394 441.50798,327.55544 442.34443,326.38601 440.8403,326.05175 Z M 432.24463,326.76008 C 431.67462,326.78925 431.188,327.04445 430.97908,327.72339 430.31059,329.89602 436.15997,330.23067 436.15997,329.39505 436.15997,328.55943 435.15753,327.72339 435.15753,327.72339 435.15753,327.72339 433.49864,326.69589 432.24463,326.76008 Z M 161.90785,354.96485 C 161.90785,354.96485 159.40157,355.80086 159.90295,356.6365 160.40432,357.47212 162.74351,357.63807 163.24489,356.80245 163.74627,355.96683 163.41197,355.46623 161.90785,354.96485 Z M 151.19529,356.58523 C 150.14994,356.63549 150.10519,357.80611 148.20414,358.97599 146.03151,360.31299 149.03985,361.81652 150.87823,360.98088 152.71661,360.14525 154.38712,360.48029 154.05286,359.14329 153.71861,357.80629 153.30107,356.97075 151.71338,356.6365 151.51491,356.59472 151.34463,356.57805 151.19529,356.58523 Z M 163.07759,358.72504 C 161.95062,358.81075 160.73862,359.64423 161.23999,361.31548 161.74137,362.98674 162.243,365.32592 164.08138,364.65741 165.91976,363.98892 167.42275,362.31823 165.58437,361.31548 163.746,360.31273 164.20455,358.63933 163.07759,358.72504 Z M 149.21603,362.30848 C 148.37388,362.32806 147.66028,362.73613 147.53495,363.98957 147.20069,367.33207 151.37882,365.4941 152.71583,365.66122 154.05283,365.82835 155.22371,364.99162 152.38257,363.32037 152.38257,363.32037 150.61962,362.27584 149.21603,362.30848 Z M 182.46541,367.64722 C 182.36438,367.64745 182.25414,367.65382 182.13082,367.66611 180.15769,367.86272 178.78818,369.17072 178.11969,372.01185 177.45119,374.85298 184.13593,377.0252 185.64006,375.52108 187.14418,374.01695 190.9881,373.5151 186.9771,371.17535 183.21679,368.98183 183.98095,367.64391 182.46541,367.64722 Z"
     id="path4194"
     class="LAND" />
  <circle
     style="opacity:1;fill:#000000;fill-opacity:1;stroke:#000000;stroke-width:0.11046758;stroke-opacity:1"
     id="eternia-city"
     cx="228.29424"
     cy="171.12823"
     areaid="[2]"
     r="5"
     class="LANDMARK" />
  <circle
     class="LANDMARK"
     areaid="[119,120,121,122,123,124,125]"
     r="5"
     cy="157.07669"
     cx="143.90532"
     id="ellipse5328"
     style="opacity:1;fill:#000000;fill-opacity:1;stroke:#000000;stroke-width:0.11046758;stroke-opacity:1" />
  <circle
     style="opacity:1;fill:#000000;fill-opacity:1;stroke:#000000;stroke-width:0.11046758;stroke-opacity:1"
     id="celestic-town"
     cx="303.1561"
     cy="171.12823"
     r="5"
     areaid="[178]"
     class="LANDMARK" />
  <circle
     class="CITY"
     r="5"
     cy="56.039459"
     cx="263.00882"
     id="ellipse5332"
     style="opacity:1;fill:#000000;fill-opacity:1;stroke:#000000;stroke-width:0.11046758;stroke-opacity:1" />
  <circle
     style="opacity:1;fill:#000000;fill-opacity:1;stroke:#000000;stroke-width:0.11046758;stroke-opacity:1"
     id="snowpoint-city"
     cx="309.84729"
     cy="255.43748"
     r="5"
     areaid="[107,108,109,110,111,112]"
     class="LANDMARK" />
  <circle
     class="LANDMARK"
     r="5"
     cy="224.65791"
     cx="352.92593"
     areaid="[30,31,32,33,34,35,36,37,38,39,40,41,42,43,44,45,46,47]"
     id="solaceon-ruins"
     style="opacity:1;fill:#000000;fill-opacity:1;stroke:#000000;stroke-width:0.11046758;stroke-opacity:1" />
  <circle
     style="opacity:1;fill:#000000;fill-opacity:1;stroke:#000000;stroke-width:0.11046758;stroke-opacity:1"
     id="ellipse5338"
     cx="429.37848"
     cy="206.59164"
     r="5"
     class="CITY" />
  <circle
     class="LANDMARK"
     r="5"
     areaid="[4]"
     cy="281.5332"
     cx="499.20853"
     id="sunyshore-city"
     style="opacity:1;fill:#000000;fill-opacity:1;stroke:#000000;stroke-width:0.11046758;stroke-opacity:1" />
  <circle
     areaid="[3,24,25,26,27,28,29]"
     style="opacity:1;fill:#000000;fill-opacity:1;stroke:#000000;stroke-width:0.11046758;stroke-opacity:1"
     id="pastoria-city"
     cx="376.75937"
     cy="328.37167"
     r="5"
     class="LANDMARK" />
  <circle
     class="CITY"
     r="5"
     cy="194.04565"
     cx="486.40857"
     id="ellipse5344"
     style="opacity:1;fill:#000000;fill-opacity:1;stroke:#000000;stroke-width:0.11046758;stroke-opacity:1" />
  <circle
     style="opacity:1;fill:#000000;fill-opacity:1;stroke:#000000;stroke-width:0.11046758;stroke-opacity:1"
     id="stark-mountain"
     areaid="[58,59]"
     cx="425.61298"
     cy="76.113098"
     r="5"
     class="LANDMARK" />
  <circle
     class="CITY"
     r="5"
     cy="97.64518"
     cx="384.1915"
     id="ellipse5348"
     style="opacity:1;fill:#000000;fill-opacity:1;stroke:#000000;stroke-width:0.11046758;stroke-opacity:1" />
  <circle
     style="opacity:1;fill:#000000;fill-opacity:1;stroke:#000000;stroke-width:0.11046758;stroke-opacity:1"
     id="resort-area"
     cx="464.74875"
     cy="152.72743"
     r="5"
     areaid="[179]"
     class="LANDMARK" />
  <circle
     class="CITY"
     r="5"
     cy="137.2675"
     cx="384.1915"
     id="ellipse5352"
     style="opacity:1;fill:#000000;fill-opacity:1;stroke:#000000;stroke-width:0.11046758;stroke-opacity:1" />
  <circle
     style="opacity:1;fill:#000000;fill-opacity:1;stroke:#000000;stroke-width:0.11046758;stroke-opacity:1"
     id="ellipse5354"
     cx="392.48367"
     cy="125.62804"
     r="5"
     class="CITY" />
  <circle
     style="opacity:1;fill:#000000;fill-opacity:1;stroke:#000000;stroke-width:0.11046758;stroke-opacity:1"
     id="ellipse5356"
     cx="494.60529"
     cy="172.29922"
     r="5"
     class="CITY" />
  <circle
     class="LANDMARK"
     r="5"
     cy="275.58569"
     cx="228.29424"
     areaid="[6,7,55,56]"
     id="oreburgh-city"
     style="opacity:1;fill:#000000;fill-opacity:1;stroke:#000000;stroke-width:0.11046758;stroke-opacity:1" />
  <circle
     style="opacity:1;fill:#000000;fill-opacity:1;stroke:#000000;stroke-width:0.11046758;stroke-opacity:1"
     id="ellipse5360"
     cx="151.26564"
     cy="275.58569"
     r="5"
     class="CITY" />
  <circle
     class="LANDMARK"
     r="5"
     areaid="[177]"
     cy="338.74304"
     cx="102.75703"
     id="twinleaf-town"
     style="opacity:1;fill:#000000;fill-opacity:1;stroke:#000000;stroke-width:0.11046758;stroke-opacity:1" />
  <circle
     style="opacity:1;fill:#000000;fill-opacity:1;stroke:#000000;stroke-width:0.11046758;stroke-opacity:1"
     id="ellipse5364"
     cx="151.26564"
     cy="321.68042"
     r="5"
     class="CITY" />
  <circle
     class="LANDMARK"
     r="5"
     cy="275.58569"
     cx="85.481895"
     areaid="[1]"
     id="canalave-city"
     style="opacity:1;fill:#000000;fill-opacity:1;stroke:#000000;stroke-width:0.11046758;stroke-opacity:1" />
  <circle
     class="CITY"
     r="5"
     cy="229.05467"
     cx="151.26564"
     id="ellipse5368"
     style="opacity:1;fill:#000000;fill-opacity:1;stroke:#000000;stroke-width:0.11046758;stroke-opacity:1" />
  <circle
     style="opacity:1;fill:#000000;fill-opacity:1;stroke:#000000;stroke-width:0.11046758;stroke-opacity:1"
     id="eterna-forest-area"
     cx="183.88205"
     cy="170.99011"
     areaid="[9]"
     r="5"
     class="LANDMARK" />
  <circle
     style="opacity:1;fill:#000000;fill-opacity:1;stroke:#000000;stroke-width:0.11046758;stroke-opacity:1"
     id="old-chateau"
     cx="183.88205"
     cy="157.07669"
     areaid="[126,127,128,129,130,131,132,133,134]"
     r="5"
     class="LANDMARK" />
  <circle
     class="CITY"
     r="5"
     cy="191.20186"
     cx="151.26564"
     id="ellipse5372"
     style="opacity:1;fill:#000000;fill-opacity:1;stroke:#000000;stroke-width:0.11046758;stroke-opacity:1" />
  <circle
     style="opacity:1;fill:#000000;fill-opacity:1;stroke:#000000;stroke-width:0.11046758;stroke-opacity:1"
     id="ellipse5374"
     cx="192.75111"
     cy="229.05467"
     r="5"
     class="CITY" />
  <circle
     style="opacity:1;fill:#000000;fill-opacity:1;stroke:#000000;stroke-width:0.11046758;stroke-opacity:1"
     id="ellipse5453"
     cx="217.875"
     cy="358.53107"
     r="5"
     class="CITY" />
  <circle
     class="CITY"
     r="5"
     cy="96.59684"
     cx="517.91699"
     id="ellipse5459"
     style="opacity:1;fill:#000000;fill-opacity:1;stroke:#000000;stroke-width:0.11046758;stroke-opacity:1" />
  <path
     style="fill:none;fill-rule:evenodd;stroke:#000000;stroke-width:4;stroke-linecap:butt;stroke-linejoin:miter;stroke-opacity:1"
     d="M 102.8004,338.67044 102.8004,321.52526 151.09281,321.52526"
     id="sinnoh-route-201"
     inkscape:connector-curvature="0"
     sodipodi:nodetypes="ccc"
     areaid="[141]"
     class="ROUTE" />
  <path
     style="fill:none;fill-rule:evenodd;stroke:#000000;stroke-width:4;stroke-linecap:butt;stroke-linejoin:miter;stroke-opacity:1"
     d="M 151.22851,320.49406 151.22851,276.96519"
     id="sinnoh-route-202"
     inkscape:connector-curvature="0"
     sodipodi:nodetypes="cc"
     areaid="[142]"
     class="ROUTE" />
  <path
     style="fill:none;fill-rule:evenodd;stroke:#000000;stroke-width:4;stroke-linecap:butt;stroke-linejoin:miter;stroke-opacity:1"
     d="M 225.2165,275.54577 149.98727,275.54577"
     id="sinnoh-route-203"
     inkscape:connector-curvature="0"
     sodipodi:nodetypes="cc"
     areaid="[143]"
     class="ROUTE" />
  <path
     style="fill:none;fill-rule:evenodd;stroke:#000000;stroke-width:4;stroke-linecap:butt;stroke-linejoin:miter;stroke-opacity:1"
     d="M 151.22851,229.20677 151.22851,276.01892"
     id="sinnoh-route-204"
     inkscape:connector-curvature="0"
     sodipodi:nodetypes="cc"
     areaid="[144,145,54]"
     class="ROUTE" />
  <path
     style="fill:none;fill-rule:evenodd;stroke:#000000;stroke-width:4;stroke-linecap:butt;stroke-linejoin:miter;stroke-opacity:1"
     d="M 183.9004,171.14491 231.98397,171.14491 M 183.9004,171.14491 183.9004,229.11552 149.98727,229.11552"
     inkscape:connector-curvature="0"
     sodipodi:nodetypes="cc"
     id="sinnoh-route-205"
     areaid="[146,147]"
     class="ROUTE" />
  <path
     areaid="[148]"
     class="ROUTE"
     sodipodi:nodetypes="cc"
     inkscape:connector-curvature="0"
     id="sinnoh-route-206"
     d="M 228.34564,275.90732 228.34564,170.94049"
     style="fill:none;fill-rule:evenodd;stroke:#000000;stroke-width:4;stroke-linecap:butt;stroke-linejoin:miter;stroke-opacity:1" />
  <path
     style="fill:none;fill-rule:evenodd;stroke:#000000;stroke-width:4;stroke-linecap:butt;stroke-linejoin:miter;stroke-opacity:1"
     d="M 228.34564,275.50792 228.34564,255.4565 257.03973,255.4565"
     id="sinnoh-route-207"
     areaid="[149,11]"
     inkscape:connector-curvature="0"
     sodipodi:nodetypes="ccc"
     class="ROUTE" />
  <path
     style="fill:none;fill-rule:evenodd;stroke:#000000;stroke-width:4;stroke-linecap:butt;stroke-linejoin:miter;stroke-opacity:1"
     d="M 257.03973,255.4565 309.90855,255.4565"
     areaid="[150]"
     id="sinnoh-route-208"
     class="ROUTE" />
  <path
     style="fill:none;fill-rule:evenodd;stroke:#000000;stroke-width:4;stroke-linecap:butt;stroke-linejoin:miter;stroke-opacity:1"
     d="M 352.96427,223.02724 352.96427,255.4565 308.96227,255.4565"
     id="sinnoh-route-209"
     inkscape:connector-curvature="0"
     sodipodi:nodetypes="ccc"
     areaid="[151,152,153,154,155,156]"
     class="ROUTE" />
  <path
     style="fill:none;fill-rule:evenodd;stroke:#000000;stroke-width:4;stroke-linecap:butt;stroke-linejoin:miter;stroke-opacity:1"
     d="M 352.96427,225.86609 352.96427,171.14491 303.28458,171.14491"
     id="sinnoh-route-210"
     inkscape:connector-curvature="0"
     sodipodi:nodetypes="ccc"
     areaid="[157,158]"
     class="ROUTE" />
  <path
     style="fill:none;fill-rule:evenodd;stroke:#000000;stroke-width:4;stroke-linecap:butt;stroke-linejoin:miter;stroke-opacity:1"
     d="M 302.33831,171.14491 228.34564,171.14491"
     id="sinnoh-route-211"
     inkscape:connector-curvature="0"
     sodipodi:nodetypes="cc"
     areaid="[159,160,22]"
     class="ROUTE" />
  <path
     style="fill:none;fill-rule:evenodd;stroke:#000000;stroke-width:4;stroke-linecap:butt;stroke-linejoin:miter;stroke-opacity:1"
     d="M 309.6426,255.4565 309.6426,328.38001 376.47283,328.38001"
     id="sinnoh-route-212"
     inkscape:connector-curvature="0"
     sodipodi:nodetypes="ccc"
     areaid="[161,162]"
     class="ROUTE" />
  <path
     style="fill:none;fill-rule:evenodd;stroke:#000000;stroke-width:4;stroke-linecap:butt;stroke-linejoin:miter;stroke-opacity:1"
     d="M 376.60999,327.43043 376.60999,306.73995 429.61293,306.73995 429.61293,281.90732"
     id="sinnoh-route-213"
     inkscape:connector-curvature="0"
     sodipodi:nodetypes="cccc"
     areaid="[163]"
     class="ROUTE" />
  <path
     style="fill:none;fill-rule:evenodd;stroke:#000000;stroke-width:4;stroke-linecap:butt;stroke-linejoin:miter;stroke-opacity:1"
     d="M 429.61293,281.90732 429.61293,206.94049"
     id="sinnoh-route-214"
     inkscape:connector-curvature="0"
     sodipodi:nodetypes="cc"
     areaid="[164]"
     class="ROUTE" />
  <path
     style="fill:none;fill-rule:evenodd;stroke:#000000;stroke-width:4;stroke-linecap:butt;stroke-linejoin:miter;stroke-opacity:1"
     d="M 429.61293,206.46735 352.49114,206.46735"
     id="sinnoh-route-215"
     inkscape:connector-curvature="0"
     sodipodi:nodetypes="cc"
     areaid="[165]"
     class="ROUTE" />
  <path
     style="fill:none;fill-rule:evenodd;stroke:#000000;stroke-width:4;stroke-linecap:butt;stroke-linejoin:miter;stroke-opacity:1"
     d="M 230.83896,119.98635 282.46643,119.98635"
     id="sinnoh-route-216"
     inkscape:connector-curvature="0"
     sodipodi:nodetypes="cc"
     areaid="[166,21]"
     class="ROUTE" />
  <path
     style="fill:none;fill-rule:evenodd;stroke:#000000;stroke-width:4;stroke-linecap:butt;stroke-linejoin:miter;stroke-opacity:1"
     d="M 262.56468,55.763676 230.83896,55.763676 230.83896,119.98635"
     id="sinnoh-route-217"
     inkscape:connector-curvature="0"
     sodipodi:nodetypes="ccc"
     areaid="[167]"
     class="ROUTE" />
  <path
     style="fill:none;fill-rule:evenodd;stroke:#000000;stroke-width:4;stroke-linecap:butt;stroke-linejoin:miter;stroke-opacity:1"
     d="M 86.586523,275.54577 151.87982,275.54577"
     id="sinnoh-route-218"
     inkscape:connector-curvature="0"
     sodipodi:nodetypes="cc"
     areaid="[168]"
     class="ROUTE" />
  <path
     style="fill:none;fill-rule:evenodd;stroke:#000000;stroke-width:4;stroke-linecap:butt;stroke-linejoin:miter;stroke-opacity:1"
     d="M 151.22851,321.95134 151.22851,358.24864"
     id="sinnoh-route-219"
     inkscape:connector-curvature="0"
     sodipodi:nodetypes="cc"
     areaid="[169]"
     class="ROUTE" />
  <path
     style="fill:none;fill-rule:evenodd;stroke:#000000;stroke-width:4;stroke-linecap:butt;stroke-linejoin:miter;stroke-opacity:1"
     d="M 151.08495,358.38276 187.47047,358.38276"
     id="sinnoh-route-220"
     inkscape:connector-curvature="0"
     sodipodi:nodetypes="cc"
     areaid="[180]"
     class="ROUTE" />
  <path
     style="fill:none;fill-rule:evenodd;stroke:#000000;stroke-width:4;stroke-linecap:butt;stroke-linejoin:miter;stroke-opacity:1"
     d="M 217.38021,358.38276 187.47047,358.38276"
     id="sinnoh-route-221"
     inkscape:connector-curvature="0"
     sodipodi:nodetypes="cc"
     areaid="[170]"
     class="ROUTE" />
  <path
     style="fill:none;fill-rule:evenodd;stroke:#000000;stroke-width:4;stroke-linecap:butt;stroke-linejoin:miter;stroke-opacity:1"
     d="M 499.16449,282.09402 429.61293,282.09402"
     id="sinnoh-route-222"
     inkscape:connector-curvature="0"
     sodipodi:nodetypes="cc"
     areaid="[171]"
     class="ROUTE" />
  <path
     style="fill:none;fill-rule:evenodd;stroke:#000000;stroke-width:4;stroke-linecap:butt;stroke-linejoin:miter;stroke-opacity:1"
     d="M 499.13024,280.75031 499.13024,236.37998 486.43156,236.37998 486.43156,194.18949"
     id="sinnoh-route-223"
     inkscape:connector-curvature="0"
     sodipodi:nodetypes="cccc"
     areaid="[181]"
     class="ROUTE" />
  <path
     style="fill:none;fill-rule:evenodd;stroke:#000000;stroke-width:4;stroke-linecap:butt;stroke-linejoin:miter;stroke-opacity:1"
     d="M 494.72995,172.30255 507.75672,172.30255 507.75672,157.20403 517.93868,157.20403 517.93868,96.225761"
     id="sinnoh-route-224"
     inkscape:connector-curvature="0"
     sodipodi:nodetypes="ccccc"
     areaid="[172]"
     class="ROUTE" />
  <path
     style="fill:none;fill-rule:evenodd;stroke:#000000;stroke-width:4;stroke-linecap:butt;stroke-linejoin:miter;stroke-opacity:1"
     d="M 384.1915,97.64518 384.1915,137.38893"
     id="sinnoh-route-225"
     inkscape:connector-curvature="0"
     sodipodi:nodetypes="cc"
     areaid="[173]"
     class="ROUTE" />
  <path
     style="fill:none;fill-rule:evenodd;stroke:#000000;stroke-width:4;stroke-linecap:butt;stroke-linejoin:miter;stroke-opacity:1"
     d="M 384.1915,97.64518 452.56969,97.64518"
     id="sinnoh-route-226"
     inkscape:connector-curvature="0"
     sodipodi:nodetypes="cc"
     areaid="[182]"
     class="ROUTE" />
  <path
     style="fill:none;fill-rule:evenodd;stroke:#000000;stroke-width:4;stroke-linecap:butt;stroke-linejoin:miter;stroke-opacity:1"
     d="M 425.61299,76.181682 425.61299,97.435125"
     id="sinnoh-route-227"
     inkscape:connector-curvature="0"
     sodipodi:nodetypes="cc"
     areaid="[174]"
     class="ROUTE" />
  <path
     style="fill:none;fill-rule:evenodd;stroke:#000000;stroke-width:4;stroke-linecap:butt;stroke-linejoin:miter;stroke-opacity:1"
     d="M 452.56969,97.64518 452.56969,137.14611"
     id="sinnoh-route-228"
     inkscape:connector-curvature="0"
     sodipodi:nodetypes="cc"
     areaid="[175]"
     class="ROUTE" />
  <path
     style="fill:none;fill-rule:evenodd;stroke:#000000;stroke-width:4;stroke-linecap:butt;stroke-linejoin:miter;stroke-opacity:1"
     d="M 452.56969,137.1461 464.6358,137.1461 464.6358,152.33835"
     id="sinnoh-route-229"
     inkscape:connector-curvature="0"
     sodipodi:nodetypes="ccc"
     areaid="[176]"
     class="ROUTE" />
  <path
     style="fill:none;fill-rule:evenodd;stroke:#000000;stroke-width:4;stroke-linecap:butt;stroke-linejoin:miter;stroke-opacity:1"
     d="M 384.1915,137.38893 452.56969,137.14611"
     id="sinnoh-route-230"
     inkscape:connector-curvature="0"
     sodipodi:nodetypes="cc"
     areaid="[183]"
     class="ROUTE" />
  <path
     style="fill:none;fill-rule:evenodd;stroke:#000000;stroke-width:4;stroke-linecap:butt;stroke-linejoin:miter;stroke-opacity:1"
     d="M 494.72995,172.30255 486.43156,172.30255 486.43156,194.58145"
     id="sinnoh-victory-road"
     inkscape:connector-curvature="0"
     sodipodi:nodetypes="ccc"
     areaid="[48,49,50,51,52,53]"
     class="ROUTE" />
  <path
     style="fill:none;fill-rule:evenodd;stroke:#000000;stroke-width:4;stroke-linecap:butt;stroke-linejoin:miter;stroke-opacity:1"
     d="M 183.07988,229.11552 193.51614,229.11552"
     id="valley-windworks"
     inkscape:connector-curvature="0"
     sodipodi:nodetypes="cc"
     areaid="[8]"
     class="ROUTE" />
  <path
     style="fill:none;fill-rule:evenodd;stroke:#000000;stroke-width:4;stroke-linecap:butt;stroke-linejoin:miter;stroke-opacity:1"
     d="M 151.22851,190.85374 151.22851,228.19394"
     id="fuego-ironworks"
     inkscape:connector-curvature="0"
     sodipodi:nodetypes="cc"
     areaid="[10]"
     class="ROUTE" />
  <path
     style="fill:none;fill-rule:evenodd;stroke:#000000;stroke-width:4;stroke-linecap:butt;stroke-linejoin:miter;stroke-opacity:1"
     d="M 257.03973,255.4565 257.03973,219.71527"
     id="mt-cornet-b1f"
     areaid="[23]"
     class="ROUTE" />
  <path
     style="fill:none;fill-rule:evenodd;stroke:#000000;stroke-width:4;stroke-linecap:butt;stroke-linejoin:miter;stroke-opacity:1"
     d="M 257.03973,219.71527 269.28176,219.71527"
     id="mt-cornet-cave"
     areaid="[20]"
     class="ROUTE" />
  <path
     style="fill:none;fill-rule:evenodd;stroke:#000000;stroke-width:4;stroke-linecap:butt;stroke-linejoin:miter;stroke-opacity:1"
     d="M 269.28176,219.71527 282.46643,219.71527"
     id="mt-cornet-2f"
     areaid="[12]"
     class="ROUTE" />
  <path
     style="fill:none;fill-rule:evenodd;stroke:#000000;stroke-width:4;stroke-linecap:butt;stroke-linejoin:miter;stroke-opacity:1"
     d="M 282.46643,219.71527 282.46643,194.8018"
     id="mt-cornet-3f"
     areaid="[13]"
     class="ROUTE" />
  <path
     style="fill:none;fill-rule:evenodd;stroke:#000000;stroke-width:4;stroke-linecap:butt;stroke-linejoin:miter;stroke-opacity:1"
     d="M 282.46643,194.8018 282.46643,169.88834"
     id="mt-cornet-4f-5f"
     areaid="[16,17]"
     class="ROUTE" />
  <path
     style="fill:none;fill-rule:evenodd;stroke:#000000;stroke-width:4;stroke-linecap:butt;stroke-linejoin:miter;stroke-opacity:1"
     d="M 282.46643,169.88834 282.46643,144.97488"
     id="mt-cornet-6f"
     areaid="[18]"
     class="ROUTE" />
  <path
     style="fill:none;fill-rule:evenodd;stroke:#000000;stroke-width:4;stroke-linecap:butt;stroke-linejoin:miter;stroke-opacity:1"
     d="M 282.46643,144.97488 282.46643,120.06141"
     id="mt-cornet-7f"
     areaid="[19]"
     class="ROUTE" />
  <circle
     style="opacity:1;fill:#000000;fill-opacity:1;stroke:#000000;stroke-width:0.11046758;stroke-opacity:1"
     id="circle4201"
     cx="269.78122"
     cy="219.53777"
     r="5"
     areaid="[14,15]"
     class="LANDMARK" />
  <circle
     class="LANDMARK"
     r="5"
     areaid="[135,136]"
     cy="311.29993"
     cx="92.829941"
     id="lake-verity"
     style="opacity:1;fill:#000000;fill-opacity:1;stroke:#000000;stroke-width:0.11046758;stroke-opacity:1" />
  <circle
     style="opacity:1;fill:#000000;fill-opacity:1;stroke:#000000;stroke-width:0.11046758;stroke-opacity:1"
     id="lake-valor"
     cx="421.68301"
     cy="273.52298"
     areaid="[137,139]"
     r="5"
     class="LANDMARK" />
  <circle
     class="LANDMARK"
     r="5"
     areaid="[138,140]"
     cy="46.861355"
     cx="243.45335"
     id="lake-acuity"
     style="opacity:1;fill:#000000;fill-opacity:1;stroke:#000000;stroke-width:0.11046758;stroke-opacity:1" />
  <circle
     class="LANDMARK"
     r="5"
     areaid="[60,61,62,63,64,70,76,82]"
     cy="237.19901"
     cx="438.14987"
     id="sendoff-spring"
     style="opacity:1;fill:#000000;fill-opacity:1;stroke:#000000;stroke-width:0.11046758;stroke-opacity:1" />
  <circle
     style="opacity:1;fill:#000000;fill-opacity:1;stroke:#000000;stroke-width:0.11046758;stroke-opacity:1"
     id="maniac-tunnel"
     cx="438.14987"
     cy="219.19901"
     areaid="[115,116,117]"
     r="5"
     class="LANDMARK" />
  <circle
     class="LANDMARK"
     r="5"
     areaid="[118]"
     cy="316.1431"
     cx="337.41138"
     id="trophy-garden"
     style="opacity:1;fill:#000000;fill-opacity:1;stroke:#000000;stroke-width:0.11046758;stroke-opacity:1" />
</svg>
