<?xml version="1.0" encoding="UTF-8" standalone="no"?>
<svg
   xmlns:dc="http://purl.org/dc/elements/1.1/"
   xmlns:cc="http://creativecommons.org/ns#"
   xmlns:rdf="http://www.w3.org/1999/02/22-rdf-syntax-ns#"
   xmlns:svg="http://www.w3.org/2000/svg"
   xmlns="http://www.w3.org/2000/svg"
   xmlns:sodipodi="http://sodipodi.sourceforge.net/DTD/sodipodi-0.dtd"
   xmlns:inkscape="http://www.inkscape.org/namespaces/inkscape"
   version="1.1"
   regionID="hoenn"
   id="svg2"
   viewBox="0 0 600 399.99999"
   width="600"
   height="400"
   inkscape:version="0.91 r13725"
   sodipodi:docname="unova.svg">
  <sodipodi:namedview
     pagecolor="#ffffff"
     bordercolor="#666666"
     borderopacity="1"
     objecttolerance="10"
     gridtolerance="10"
     guidetolerance="10"
     inkscape:pageopacity="0"
     inkscape:pageshadow="2"
     inkscape:window-width="1920"
     inkscape:window-height="957"
     id="namedview65"
     showgrid="false"
     inkscape:zoom="0.365"
     inkscape:cx="-940.76938"
     inkscape:cy="205.56586"
     inkscape:window-x="0"
     inkscape:window-y="1"
     inkscape:window-maximized="1"
     inkscape:current-layer="svg2" />
  <defs
     id="defs4">
    <inkscape:perspective
       locationid=""
       sodipodi:type="inkscape:persp3d"
       inkscape:vp_x="0 : 200 : 1"
       inkscape:vp_y="0 : 1000 : 0"
       inkscape:vp_z="600 : 200 : 1"
       inkscape:persp3d-origin="300 : 133.33333 : 1"
       id="perspective4999" />
  </defs>
  <metadata
     id="metadata7">
    <rdf:RDF>
      <cc:Work
         rdf:about="">
        <dc:format>image/svg+xml</dc:format>
        <dc:type
           rdf:resource="http://purl.org/dc/dcmitype/StillImage" />
        <dc:title />
      </cc:Work>
    </rdf:RDF>
  </metadata>
  <path
     style="fill:#94ca90;fill-opacity:1;fill-rule:evenodd;stroke:none;stroke-width:1px;stroke-linecap:butt;stroke-linejoin:miter;stroke-opacity:1"
     d="M 631.44609,-16.569276 321.39203,-12.221437 C 321.39203,2.9985817 333.13299,14.740438 334.87243,22.133025 336.61186,29.525609 348.78822,33.874486 346.61393,39.962496 344.43964,46.050507 348.70903,52.612545 348.70903,52.612545 348.70903,52.612545 340.69601,65.757022 351.33412,70.145376 354.4885,71.446597 360.1559,74.458582 366.66387,77.994562 L 350.95556,78.841044 C 346.99236,76.39301 344.01674,74.007804 342.89786,71.87309 338.79759,64.050193 346.58406,57.630933 343.64256,51.5079 342.53266,49.197536 338.61919,49.214173 337.46773,46.924243 335.64633,43.302034 338.64432,38.64336 337.47268,34.761975 335.93216,29.658503 331.57785,25.878822 328.61939,21.444173 325.0776,16.135145 319.82027,11.641114 317.96887,5.5335611 316.0071,-0.93805799 317.99365,-14.753441 317.9937,-14.753441 L 207.02525,-16.13487 C 207.02525,-16.13487 202.24117,11.261282 210.06861,15.175003 217.89605,19.088725 237.03044,29.090999 239.6396,35.179009 242.24874,41.26702 237.03621,53.080283 238.89241,61.741383 241.74581,75.055488 256.44708,95.210504 256.67347,98.517381 256.89985,101.82425 261.05233,105.21222 255.12324,107.12493 249.19416,109.03763 244.50496,113.4442 249.87308,118.95828 255.24117,124.47236 256.58219,128.43656 253.05793,134.23466 249.53367,140.03275 219.21449,181.40367 234.68234,204.27041 238.64045,210.12184 241.42407,214.34956 243.32464,217.51746 L 207.88787,218.33167 C 206.44139,217.18449 204.59041,216.41431 203.11059,216.51459 201.8187,216.60214 200.3367,217.41892 199.17855,218.53274 L 180.58576,218.95971 C 182.06523,215.05881 184.49352,211.07653 188.39398,210.25535 196.47636,208.55372 190.42346,203.45988 198.50583,201.75827 206.5882,200.05665 205.68268,186.82892 204.90036,180.60866 204.11805,174.38839 208.78235,169.61482 214.45989,164.02781 220.13744,158.4408 216.44164,151.32582 212.7992,139.7765 209.15677,128.22717 242.96376,106.54118 238.60942,100.21407 234.25507,93.886948 229.89756,75.461437 229.22862,62.535735 228.96448,57.431767 230.50738,54.747514 231.37709,47.354931 232.24682,39.962346 225.72379,31.264842 206.15519,24.741974 186.58659,18.219109 194.41368,-14.394734 194.41368,-14.394734 L -18.358368,-14.929685 -28.954274,321.23744 -27.447491,401.02138 C -27.447491,401.02138 -0.33928038,394.70772 12.43765,389.35805 19.689962,386.32154 26.602675,382.77774 33.039899,377.87347 39.47713,372.96921 40.490371,372.15645 55.666513,369.93369 70.8427,367.7109 68.314636,356.81809 79.943887,354.8559 91.573145,352.89369 106.65396,338.86088 106.65396,338.86088 106.65396,338.86088 106.12399,336.31572 103.11041,333.95203 100.09682,331.58848 94.655813,319.80197 93.974123,315.05143 93.292433,310.30089 88.859715,308.04133 86.376894,308.22373 83.894074,308.40614 75.147626,321.23456 71.502663,314.85532 67.857692,308.47609 76.294394,306.74943 80.374575,303.86472 84.454762,300.98002 84.077484,295.46748 85.169231,290.58664 86.260979,285.70581 84.009778,278.85579 87.788109,271.56192 91.566441,264.26805 91.267121,254.68815 91.267121,254.68815 91.267121,254.68815 92.834422,261.95922 90.600611,270.98601 88.366799,280.01281 88.466828,281.48223 89.047902,284.76305 89.628976,288.04387 88.794322,286.25869 86.002059,297.54218 83.209798,308.82568 90.180805,301.29748 91.521563,305.26104 92.862327,309.22461 98.866115,308.41364 100.61441,307.91592 102.36269,307.4182 104.79789,301.33128 107.00149,302.27727 109.20508,303.2232 121.29237,297.53473 121.29237,297.53473 121.29237,297.53473 116.98342,302.28231 110.2695,303.14484 103.55558,304.00737 103.30145,305.50316 101.52295,315.97363 99.744438,326.44409 110.65923,334.87423 110.65923,334.87423 L 128.54455,335.77656 C 128.54455,335.77656 131.66136,334.43965 141.90207,322.60894 152.14279,310.77824 137.07266,304.13034 137.07266,304.13034 L 143.23509,290.01446 139.05482,291.42939 138.90588,284.05434 161.53001,281.28404 161.60323,287.55693 149.56881,288.81052 145.1043,301.69391 153.36308,302.56398 C 153.36308,302.56398 156.91208,297.13399 166.28743,293.49099 175.66278,289.84798 174.00057,270.76724 166.80872,264.64858 159.61687,258.52992 158.57985,253.8056 167.04206,252.44535 175.50427,251.0851 189.74455,245.6074 188.50693,237.94347 187.26933,230.27954 170.04074,233.76071 170.04074,233.76071 L 170.34731,227.83038 178.50555,227.23089 C 178.50555,227.2309 178.666,225.92702 179.07897,224.06093 L 197.44959,223.44779 C 197.45331,223.45547 197.45448,223.46373 197.45828,223.47138 199.33114,227.23753 208.5895,226.97444 210.06861,223.03696 210.06982,223.03374 210.0699,223.03026 210.0711,223.02703 L 245.68536,221.84047 C 248.04492,226.92012 246.21113,227.62487 243.63741,230.93828 239.37863,236.42106 233.80205,243.47811 236.83826,251.37918 239.87446,259.28025 239.74285,267.78318 236.24375,273.9487 232.74464,280.11422 233.60054,292.60766 240.05787,298.411 248.33198,305.84713 240.48232,331.67442 253.259,345.44655 L 259.0317,351.6698 256.10626,376.62609 270.47037,378.15646 273.6726,357.24143 284.76497,363.07371 282.5743,388.34527 293.56738,392.70799 294.63355,387.45906 299.32022,388.22239 300.94492,380.71825 295.70344,377.04064 297.9872,368.7496 315.00991,372.66799 316.44099,398.7823 329.21019,397.84397 327.52467,373.22652 338.31792,369.47817 344.21226,387.87858 348.06362,386.8571 349.70818,390.06057 355.53425,391.84785 359.84361,387.10037 353.99272,384.94445 356.04562,383.68589 351.54512,364.81384 366.97789,355.92578 378.67471,370.57661 376.34254,372.96339 381.6858,378.10929 387.13456,374.38577 385.13502,371.20961 388.58053,369.47941 384.02293,365.3823 386.40475,363.73029 378.00075,350.31567 C 378.00075,350.31567 385.95698,346.77633 389.88623,341.68703 391.42054,339.69977 392.78204,333.47859 394.57168,325.53315 L 445.00059,299.57647 C 445.91857,301.21174 446.65597,302.86892 446.90579,305.00164 447.76357,312.32419 460.43159,309.91685 461.41512,319.07656 462.39867,328.23627 485.52908,327.64445 484.08518,327.38126 484.08518,327.38126 486.94845,327.54048 493.07624,333.73731 499.20402,339.93413 537.88931,337.46118 544.72648,343.60589 551.56363,349.75061 551.89154,354.5269 549.83887,355.78554 547.7862,357.04419 527.69648,355.19601 533.33621,375.09201 538.97594,394.98799 550.20114,392.31803 562.26054,391.43207 574.31995,390.54611 591.70412,378.92841 598.72749,366.96479 605.75086,355.00117 607.32813,341.59195 612.65099,336.031 617.97385,330.47004 629.02023,278.32889 622.28623,268.48381 615.55221,258.63873 602.693,237.42667 587.16471,234.50542 571.63642,231.58416 570.76988,239.77098 549.68745,197.37569 549.68745,197.37569 538.51708,195.61203 529.37067,197.39182 528.56097,197.54937 527.8092,197.60607 527.10304,197.58544 L 529.74054,194.10767 C 534.81219,193.97476 538.72043,193.38158 538.72043,193.38158 538.72043,193.38158 538.25785,192.97456 537.48794,192.38865 L 539.0754,191.11023 542.73563,194.33605 C 544.58133,195.96229 552.73702,196.07617 552.73702,196.07617 552.73702,196.07617 554.04092,194.33614 550.99688,193.03158 549.96806,192.59064 548.64132,192.15362 547.33542,191.76309 L 549.2791,186.99078 C 549.81943,187.08209 550.32985,187.18587 550.78216,187.32466 553.69513,188.21848 552.96291,182.73355 552.96291,182.73355 552.96291,182.73355 550.27151,181.97829 547.2051,181.37198 L 547.73508,179.62813 C 552.11414,180.62409 555.78037,182.59578 555.78037,182.59578 555.78037,182.59578 557.08594,177.81149 553.60708,177.37664 553.17222,177.32228 552.62796,177.29571 552.00968,177.28975 551.10787,177.28109 550.03231,177.32337 548.91792,177.38657 L 551.08997,172.44793 C 554.5058,172.40612 557.24992,172.44793 557.24992,172.44793 557.24992,172.44793 567.01489,148.46642 570.25991,143.79667 573.50495,139.12687 563.75499,132.08796 566.9497,126.68335 570.14443,121.27875 568.83439,107.34268 573.7774,101.44035 578.72042,95.538025 588.22562,83.392136 596.8136,83.869041 L 628.83714,83.448282 Z M 289.93322,53.238097 C 289.93322,53.238097 304.07432,68.460929 317.89316,71.124662 329.19035,74.72604 339.42051,83.575763 340.33112,86.463096 341.24172,89.350427 358.9997,93.585844 365.86455,94.927905 372.7294,96.269959 377.91896,104.38108 380.17032,111.23197 381.7725,116.10736 389.96253,119.92456 394.56422,121.72734 394.93844,119.44695 395.63975,117.48213 396.8877,115.91244 403.1237,108.06873 399.47941,101.68953 387.70177,96.277061 381.39497,93.378737 370.18521,88.827284 360.48902,84.025429 L 376.82288,83.522753 C 390.13317,90.772804 404.23074,98.262395 409.63953,99.09701 419.36703,100.59803 419.78928,117.18411 414.84626,123.08643 409.90325,128.98876 416.51187,136.99749 412.37632,149.48745 408.24077,161.97747 403.92433,182.23578 408.8849,192.21116 413.25167,200.99243 430.01813,209.43357 434.24581,215.3392 L 399.94968,215.3392 C 399.57269,213.66598 399.68182,211.83871 400.46477,209.81597 405.61407,196.51292 387.66142,178.9984 392.7881,160.15783 395.93388,148.5971 394.41962,137.52928 394.2167,128.88147 391.37512,125.95244 387.2272,121.90073 384.72544,120.49858 380.64779,118.2132 373.96384,109.10382 371.93886,105.5598 369.91388,102.01579 360.59416,96.052618 352.05648,96.310573 343.51881,96.568529 327.43941,80.394204 324.02084,77.321846 320.60226,74.249488 305.40424,70.935098 300.99705,69.043213 296.58987,67.151317 289.93322,53.238097 289.93322,53.238097 Z M 593.08759,127.52239 C 592.56923,127.54749 592.3342,127.7731 592.3342,127.7731 592.3342,127.7731 579.00939,125.79715 583.59013,135.43115 588.17085,145.06514 602.51454,135.88735 598.26081,131.02995 595.60223,127.99407 593.95154,127.48055 593.08759,127.52239 Z M 116.44807,153.87128 C 121.38602,158.30913 124.60003,163.61293 123.38251,166.65661 122.16498,169.70029 123.58132,174.76619 123.37754,176.99684 123.17378,179.22747 127.19958,185.9478 127.07128,189.28075 126.94298,192.61367 114.95121,210.11261 114.95121,210.11261 114.95121,210.11262 109.88704,203.83718 112.72454,203.62872 115.56205,203.42026 124.36135,186.15571 123.17151,184.39673 121.98168,182.63775 114.65904,185.02307 108.95634,190.24266 103.25365,195.46223 107.30309,202.55014 107.30309,202.55014 107.30309,202.55014 104.54446,198.6904 103.65901,196.1705 103.04692,194.42857 106.32775,190.51405 107.89389,188.87737 104.22157,191.12096 86.888258,195.92599 86.888258,195.92599 L 82.382795,187.39415 C 82.382795,187.39415 83.497217,188.05032 88.309403,190.65099 93.121581,193.2517 112.02486,183.00042 117.26973,181.50727 122.51458,180.0141 120.3923,169.83071 121.9142,166.0261 123.4361,162.22151 116.44807,153.87128 116.44807,153.87128 Z M 107.89389,188.87737 C 108.15897,188.71541 108.36508,188.56299 108.476,188.43053 108.98468,187.82315 108.59334,188.14641 107.89389,188.87737 Z M 519.78135,171.877 C 519.78135,171.877 537.33645,173.17266 543.36614,172.72968 544.43593,172.65109 545.56315,172.59702 546.69373,172.5522 L 545.04546,177.67949 C 542.1389,177.94497 539.69103,178.2467 539.69103,178.2467 539.69103,178.2467 538.82136,178.6819 544.47452,179.11676 L 543.82414,180.82462 C 542.97126,180.71932 542.14254,180.63785 541.41253,180.62852 537.13111,180.57378 534.64797,180.75535 533.81283,178.97031 532.97767,177.18528 519.78135,171.877 519.78135,171.877 Z M 518.86536,179.33024 C 519.31068,179.3631 519.78347,179.61053 520.28526,179.99428 523.01496,181.23471 529.29845,183.9071 535.30472,185.13895 540.3182,186.16717 543.99925,186.41336 546.76821,186.678 L 544.19897,190.898 C 543.13735,190.62579 542.29998,190.42262 542.29998,190.42262 L 537.95214,189.55256 535.61998,191.08045 C 534.08196,190.07563 532.08863,188.9488 529.80507,188.12769 525.59702,186.61459 522.60952,181.77177 520.28526,179.99428 519.40004,179.59201 518.86538,179.33024 518.86536,179.33024 Z M 514.07319,187.4376 C 514.81901,187.65807 515.50016,188.20498 516.1745,188.9357 518.29817,190.38249 521.73041,192.50175 524.97815,193.53053 L 522.07379,195.73733 C 519.54026,193.79555 517.87674,190.78023 516.1745,188.9357 514.91826,188.07987 514.07319,187.4376 514.07319,187.4376 Z M 405.56848,223.00097 437.36488,223.5173 C 439.90909,227.51633 444.61799,231.68241 451.11958,236.37586 460.86972,243.41441 460.02776,257.13905 457.46695,261.38925 454.90614,265.63946 438.96991,267.18015 439.24154,281.56206 439.31147,285.2641 439.8001,288.11923 440.49637,290.45632 L 397.92905,311.63323 C 400.4215,302.29646 403.702,292.5192 408.45918,284.93061 420.3501,265.96237 414.97948,265.61872 413.81733,259.05709 412.65518,252.49545 421.65302,243.34102 420.41541,235.67709 419.70001,231.24699 411.43001,227.73922 405.56848,223.00097 Z M 494.50979,241.76381 C 500.6232,241.56711 511.13036,248.58406 511.13036,248.58406 515.91486,255.98741 527.07851,273.26153 519.80866,271.21067 512.53881,269.15981 498.70349,275.34655 491.46892,252.98278 488.75596,244.59636 490.84176,241.88182 494.50979,241.76381 Z M 163.9354,334.66819 C 163.38274,334.6726 162.84942,334.7061 162.34049,334.76997 154.93128,335.69987 143.84924,344.81265 147.10632,351.76909 152.33088,362.92763 179.93853,360.78445 182.90427,348.76917 184.80923,341.05154 172.22532,334.60209 163.9354,334.66819 Z M 515.25603,350.25362 C 511.80724,350.27749 507.34946,353.47192 507.48007,356.68166 507.63426,360.47073 514.34741,363.5308 517.43305,361.48997 520.33707,359.56926 520.39607,352.56865 517.41319,350.78236 516.79361,350.41133 516.0519,350.24811 515.25603,350.25362 Z M 501.14512,357.8856 C 498.8043,358.05757 495.61496,361.15732 496.53167,363.39517 498.02481,367.04025 506.55049,367.70186 507.98274,364.03065 509.11329,361.13279 504.15475,357.66449 501.14512,357.8856 Z M 212.28535,367.18076 C 202.72929,367.00046 191.1869,372.22711 191.47706,380.26646 191.89589,391.87107 215.48212,397.43369 223.84937,389.70559 228.82336,385.11156 226.41353,372.75507 220.667,369.25972 218.4347,367.90192 215.4707,367.24085 212.28535,367.18076 Z M 484.01939,368.00614 C 479.3419,368.12032 474.60773,369.92554 472.63658,373.64355 470.32453,378.00455 473.23446,385.43865 477.51936,387.6862 483.90788,391.03718 495.50075,388.2767 498.11913,381.37234 499.76661,377.02814 495.37031,371.17437 491.23434,369.32302 489.41187,368.50724 487.21092,368.05959 484.95276,368.00614 484.64225,367.99879 484.33122,367.99852 484.01939,368.00614 Z M 514.51132,373.73912 C 512.26799,373.82764 509.603,375.32019 509.59751,377.20572 509.59113,379.4026 513.67596,380.50022 515.5626,379.49693 517.05939,378.70095 518.13308,375.63497 516.89562,374.45403 516.41964,373.9998 515.72593,373.77705 514.95318,373.74036 514.80827,373.73349 514.66087,373.73322 514.51132,373.73912 Z"
     class="LAND"
     id="path4253"
     inkscape:connector-curvature="0"
     sodipodi:nodetypes="ccsscsccssssssccssssssssccsccsssssssssccccssssccsssssscsssssccssccscccccccccsssscccccccccssssccccccccccccccccccccccccccccccccccccsccsscssssssssscscccccccsccsccccsscccssscccccssscssccssssccsscssssscscssscssscssscscccssscccccscccccsscccscccccsccccccccccsssccssscscssssssssssssssssssssssssssscscssscc" />
  <path
     style="fill:#c9b293;fill-opacity:1;fill-rule:evenodd;stroke:none;stroke-width:1.17697763px;stroke-linecap:butt;stroke-linejoin:miter;stroke-opacity:1"
     d="M 298.68464,134.2058 C 298.68464,134.2058 255.30951,141.08521 269.58248,172.53314 283.85544,203.98109 337.61966,192.64564 344.33613,186.61303 351.05258,180.58041 371.3755,170.22467 358.34015,146.44066 345.3048,122.65665 298.68464,134.2058 298.68464,134.2058 Z"
     class="LAND"
     id="path4163"
     inkscape:connector-curvature="0" />
  <path
     style="fill:#679363;fill-opacity:1;fill-rule:evenodd;stroke:none;stroke-width:1.17697763px;stroke-linecap:butt;stroke-linejoin:miter;stroke-opacity:1"
     d="M 631.44609,-16.569276 321.39203,-12.221437 C 321.39203,2.9985817 333.13299,14.740438 334.87243,22.133025 336.61186,29.525609 348.78822,33.874486 346.61393,39.962496 344.43964,46.050507 348.70903,52.612545 348.70903,52.612545 348.70903,52.612545 346.65976,55.977899 346.01073,59.870934 347.18866,62.28052 349.99496,64.685702 356.04934,66.106594 371.62795,69.762708 396.53039,69.041016 408.66273,74.427427 420.79507,79.813846 454.96841,84.319367 470.87908,82.411903 486.78975,80.504444 512.30332,78.260264 536.11521,82.41935 559.9271,86.578426 564.25567,92.538259 573.24866,93.723966 L 577.42646,97.107407 C 582.65758,91.019111 590.0054,83.490971 596.8136,83.869041 L 628.83714,83.448282 631.44609,-16.569276 Z M 207.02525,-16.13487 C 207.02525,-16.13487 202.24117,11.261282 210.06861,15.175003 217.89605,19.088725 237.03044,29.090999 239.6396,35.179009 242.24874,41.26702 237.03621,53.080283 238.89241,61.741383 240.36588,68.616689 244.98568,77.28379 249.1532,84.545481 L 232.79576,84.854534 C 230.94924,77.590313 229.57934,69.312585 229.22862,62.535735 228.96448,57.431767 230.50738,54.747514 231.37709,47.354931 232.24682,39.962346 225.72379,31.264842 206.15519,24.741974 186.58659,18.219109 194.41368,-14.394734 194.41368,-14.394734 L -18.358368,-14.929685 -28.954274,321.23744 -27.613806,392.21897 C -8.4368566,384.88375 29.299878,368.30342 34.186745,363.38773 40.523363,357.01374 47.894143,360.53432 56.280898,358.07177 64.667646,355.60924 64.315635,350.46496 83.750569,342.75941 93.039169,339.07666 96.639919,332.10194 97.875134,325.8211 95.963687,321.86812 94.32769,317.51536 93.974123,315.05143 93.292433,310.30089 88.859715,308.04133 86.376894,308.22373 83.894074,308.40614 75.147626,321.23456 71.502663,314.85532 68.720871,309.98678 72.971262,307.82766 76.95638,305.79599 75.471649,304.31104 74.194119,302.49942 75.207566,301.28929 77.184775,298.92836 63.88261,302.49079 61.754473,302.64713 59.626351,302.80348 65.199082,306.08685 63.574036,313.59181 61.948982,321.09676 53.081416,321.74793 44.965113,315.14328 54.434835,299.86107 69.177747,301.73298 71.637945,296.01305 74.098144,290.29313 44.564002,280.6452 56.625941,274.58914 68.687864,268.5331 80.99823,271.32164 81.425849,277.56796 81.520891,278.95626 83.081697,279.55966 85.575095,279.6854 85.778112,277.10014 86.336158,274.36484 87.788109,271.56192 91.566441,264.26805 91.267121,254.68815 91.267121,254.68815 91.267121,254.68815 92.834422,261.95922 90.600611,270.98601 89.553336,275.21804 89.03177,277.75928 88.819525,279.63452 98.587611,279.01896 115.51231,274.8639 123.75983,276.30445 135.66577,278.38399 136.83063,279.77601 136.83063,279.77601 136.83063,279.77601 137.87698,263.81986 146.06249,258.41789 150.19238,255.69239 127.74337,247.77812 104.48315,240.60206 128.80218,245.19069 153.96168,248.70856 157.01585,244.34545 163.10386,235.64829 165.71301,223.47167 135.27296,208.6865 129.83766,206.04651 125.10041,203.66053 120.6693,201.40578 117.75975,206.0068 114.95121,210.11263 114.95121,210.11261 114.95121,210.11262 109.88704,203.83718 112.72454,203.62872 112.80231,203.62301 112.88639,203.5998 112.97278,203.56914 112.9946,203.56137 113.01622,203.55363 113.03856,203.54432 113.07787,203.52799 113.12055,203.50201 113.16144,203.48102 113.25066,203.43508 113.34317,203.37952 113.43946,203.31222 113.47944,203.28433 113.51997,203.25552 113.5611,203.22409 113.6665,203.14343 113.7751,203.05139 113.88752,202.94856 113.91847,202.92029 113.94793,202.89527 113.97937,202.8654 114.27153,202.58744 114.58557,202.23952 114.91398,201.83647 115.1347,201.56587 115.36282,201.26437 115.59538,200.94655 115.94777,200.46459 116.30995,199.94249 116.67893,199.37398 112.87062,197.41924 109.45616,195.65734 106.38959,194.08037 106.38748,194.08655 106.38548,194.09279 106.38338,194.09899 106.21511,194.59696 106.10098,195.09284 106.02593,195.58095 105.99859,195.75905 105.98054,195.93528 105.96387,196.11093 105.94189,196.34188 105.92836,196.56934 105.92291,196.79481 105.9191,196.95507 105.91307,197.11578 105.9167,197.27267 105.92011,197.42243 105.92955,197.56828 105.93904,197.71452 105.9483,197.85599 105.95945,197.99626 105.9738,198.13404 105.9881,198.27215 106.0034,198.40962 106.0222,198.54363 106.04195,198.6836 106.06525,198.8194 106.08923,198.95446 106.10989,199.07137 106.12794,199.19155 106.15128,199.30447 106.1517,199.30648 106.15211,199.30867 106.15253,199.31067 106.19858,199.53185 106.24895,199.74452 106.30271,199.94864 106.39842,200.31325 106.50401,200.64483 106.60928,200.9453 106.62687,200.99533 106.6451,201.04247 106.66265,201.09052 106.73043,201.2766 106.79375,201.43162 106.85751,201.58575 106.92963,201.75889 106.99659,201.91275 107.0561,202.04002 107.17105,202.27994 107.30309,202.55014 107.30309,202.55014 107.30309,202.55014 104.54446,198.6904 103.65901,196.1705 103.62391,196.07063 103.60448,195.96155 103.59447,195.8478 103.58978,195.79732 103.59211,195.74307 103.59198,195.69017 103.59219,195.62934 103.59216,195.56913 103.59819,195.50523 103.60529,195.4245 103.61961,195.34088 103.63542,195.25576 103.6419,195.22209 103.6475,195.18829 103.65528,195.15398 103.67805,195.05057 103.70574,194.94493 103.73968,194.83624 103.74204,194.82884 103.74473,194.82132 103.74713,194.8139 103.90583,194.31487 104.18332,193.76608 104.5179,193.20286 104.52985,193.18271 104.53806,193.16346 104.55017,193.14328 103.47763,192.59511 102.33957,192.00989 101.35787,191.51735 100.97686,191.64685 100.57473,191.77599 100.18248,191.90583 99.863717,192.01137 99.561549,192.11347 99.237943,192.2186 98.259788,192.53643 97.278848,192.84816 96.300084,193.15196 94.713291,193.64442 93.229717,194.09017 91.865367,194.49244 91.710223,194.53822 91.697968,194.54135 91.547626,194.58552 88.869961,195.37237 86.888258,195.92599 86.888258,195.92599 L 82.382795,187.39415 C 82.382795,187.39415 83.497217,188.05032 88.309403,190.65099 88.441911,190.72262 88.589275,190.78088 88.742573,190.83345 88.790522,190.84983 88.840355,190.86481 88.890272,190.87937 89.011025,190.9148 89.138204,190.94485 89.270072,190.96998 89.318175,190.97905 89.363266,190.9908 89.412806,190.99853 89.569848,191.02338 89.735852,191.03881 89.906794,191.05065 90.210403,191.07094 90.533366,191.07249 90.877392,191.05438 91.935159,190.9987 93.174081,190.77055 94.528928,190.4189 94.529783,190.41868 94.530555,190.41788 94.53141,190.41766 94.540627,190.41526 94.550729,190.41262 94.559957,190.41022 95.443745,190.17992 96.376919,189.89758 97.341429,189.57739 97.354308,189.57311 97.367016,189.56926 97.379905,189.56498 91.378851,186.70203 87.395839,185.27247 84.82915,185.63914 78.741139,186.50885 89.612635,163.02618 89.612635,163.02618 89.612635,163.02618 111.16375,160.60498 122.03584,163.81557 122.00196,163.62347 121.95134,163.42458 121.90055,163.22601 121.86264,163.07792 121.82039,162.92891 121.77395,162.77795 121.72765,162.62736 121.6803,162.4765 121.62625,162.32367 121.57525,162.17961 121.51842,162.03355 121.46117,161.88803 121.39541,161.72075 121.33199,161.55381 121.25886,161.38535 121.20644,161.2647 121.14709,161.14384 121.0913,161.02293 120.94822,160.71258 120.79696,160.40322 120.63579,160.09453 120.55181,159.93379 120.46903,159.77347 120.38135,159.61419 120.28245,159.43439 120.17975,159.2575 120.07726,159.08049 120.02176,158.98472 119.96722,158.8885 119.91094,158.79378 119.61276,158.29149 119.30586,157.8057 119.0024,157.34657 118.96897,157.29603 118.93642,157.24748 118.90311,157.19763 118.6878,156.87508 118.48174,156.58446 118.27756,156.29529 118.08203,156.0188 117.89254,155.75144 117.71655,155.51335 117.58863,155.34026 117.45762,155.16245 117.3442,155.01316 117.22287,154.8538 117.12531,154.72667 117.02521,154.5986 116.74382,154.24077 116.44807,153.87128 116.44807,153.87128 116.88081,154.26019 117.29473,154.65773 117.69917,155.05784 117.78204,155.13985 117.86459,155.22122 117.94617,155.3036 118.34268,155.70378 118.72642,156.10623 119.09053,156.5125 119.12204,156.5477 119.15112,156.58277 119.18238,156.618 119.52424,157.0029 119.84729,157.38961 120.1567,157.77601 120.21134,157.84435 120.26696,157.91249 120.32053,157.98081 120.65485,158.40654 120.96851,158.83071 121.25886,159.25301 121.26145,159.25678 121.26496,159.26041 121.26755,159.26418 121.27287,159.27193 121.27714,159.28001 121.28244,159.28776 121.58612,159.73122 121.86363,160.17169 122.11403,160.60589 122.23233,160.81103 122.34227,161.01314 122.4479,161.21531 122.46167,161.24171 122.47532,161.26839 122.48886,161.29474 122.59541,161.50155 122.69535,161.70613 122.78799,161.90912 123.0803,162.54968 123.30067,163.16869 123.44333,163.75848 123.49038,163.953 123.52797,164.14306 123.55752,164.33066 123.55784,164.33269 123.55844,164.33483 123.55876,164.33686 125.7097,165.17345 127.27558,166.29729 127.88053,167.80967 131.35939,176.50682 130.48937,198.24987 142.6654,203.90302 154.84142,209.55617 162.66915,211.73105 171.36631,206.94763 180.06347,202.16418 173.97519,185.20453 186.15118,187.81367 191.79341,189.02272 198.91615,191.341 205.0369,192.80071 205.70604,188.52233 205.28922,183.70047 204.90036,180.60866 204.16652,174.77377 208.24015,170.20374 213.43219,165.0493 L 235.66659,165.4142 C 230.25243,178.71357 227.41862,193.53215 234.68234,204.27041 250.15021,227.13716 247.89621,225.4555 243.63741,230.93828 241.60391,233.55624 239.27903,236.53652 237.72571,239.79282 L 362.18447,250.35522 415.0225,229.79516 C 415.0225,229.79516 414.86382,229.45447 414.84874,229.42157 407.73592,224.45732 396.81204,219.25266 400.46477,209.81597 405.1406,197.73613 390.7709,182.18323 391.92673,165.31863 L 412.87527,164.86312 421.49275,159.01595 392.96311,159.4727 C 394.93466,151.79508 394.8958,144.37066 394.60519,137.7298 388.71711,132.521 381.31366,126.89105 376.21098,126.29487 366.50862,125.16127 325.29612,111.57088 315.08562,113.42885 307.42774,114.82232 292.91749,112.7734 279.30008,112.78716 274.76095,112.79175 270.32151,113.02488 266.26775,113.69198 260.45002,114.64936 255.25345,117.2276 250.974,120.1374 255.4037,125.05756 256.32568,128.85858 253.05793,134.23466 251.46511,136.85516 244.40341,146.74962 238.56474,158.91045 L 217.27363,158.61008 C 217.95673,153.85707 215.36744,147.91981 212.7992,139.7765 209.15677,128.22717 242.96376,106.54118 238.60942,100.21407 237.27814,98.279631 235.94719,95.206733 234.72082,91.513434 L 253.12123,91.386834 C 255.12578,94.840384 256.60465,97.512145 256.67347,98.517381 256.78002,100.07379 257.74881,101.64614 258.13433,103.07622 266.38631,106.52969 281.07642,109.87432 301.86463,107.75296 327.70658,105.11589 363.50222,107.28676 362.87084,103.27108 362.56572,101.33049 361.76402,99.43682 361.01653,97.9874 360.02,97.611036 358.99156,97.285764 357.94834,97.020525 357.77324,96.976307 357.59803,96.934443 357.42208,96.893926 357.16924,96.835246 356.91671,96.777022 356.66248,96.726367 356.2525,96.645423 355.84088,96.572659 355.42876,96.514126 355.07027,96.46263 354.71157,96.419353 354.35266,96.386285 354.31744,96.383086 354.28237,96.380613 354.24716,96.377597 353.94662,96.351479 353.64609,96.334001 353.34606,96.321744 353.25253,96.318 353.15901,96.314176 353.06556,96.311815 352.72843,96.303068 352.39181,96.300442 352.05648,96.310573 343.51881,96.568529 327.43941,80.394204 324.02084,77.321846 320.60226,74.249488 305.40424,70.935098 300.99705,69.043213 296.58987,67.151317 289.93322,53.238097 289.93322,53.238097 289.93322,53.238097 290.11175,53.428983 290.44707,53.771803 290.64471,53.973858 291.00327,54.323672 291.30596,54.623248 291.52596,54.841645 291.72705,55.042238 291.99978,55.305894 292.61354,55.896885 293.3358,56.578247 294.18053,57.338938 295.06232,58.133013 296.06018,59.000693 297.15313,59.903204 299.9097,59.726901 303.60236,58.206479 305.30268,57.356315 308.78155,55.616883 316.60864,47.789441 326.17552,46.484867 331.3032,45.785637 336.71416,47.500855 340.64513,49.242757 339.35948,48.660179 338.05491,48.091997 337.46773,46.924243 335.64633,43.302034 338.64432,38.64336 337.47268,34.761975 335.93216,29.658503 331.57785,25.878822 328.61939,21.444173 325.0776,16.135145 319.82027,11.641114 317.96887,5.5335611 316.0071,-0.93805799 317.99365,-14.753441 317.9937,-14.753441 L 207.02525,-16.13487 Z M 527.51635,90.048848 C 525.34774,90.061497 523.26941,90.206999 521.34151,90.521736 509.00287,92.536046 439.00604,90.66192 427.12272,94.1199 427.12272,94.1199 416.55455,101.17422 421.41703,104.50977 426.27953,107.84533 415.89082,112.30112 419.1308,117.97155 422.37076,123.64197 424.39295,132.35565 433.08408,129.13219 441.77521,125.90873 482.39105,115.17088 498.85763,116.17681 515.32422,117.18274 549.39586,120.21837 555.88339,116.04897 562.37093,111.87957 569.6239,98.052446 560.91014,95.738392 553.55792,93.785902 539.22686,89.980546 527.51635,90.048848 Z M 323.62366,131.40478 C 336.90812,131.49049 351.82288,134.54837 358.34056,146.44037 371.3759,170.22438 351.05283,180.58084 344.33638,186.61346 337.61992,192.64607 283.85589,203.98152 269.58293,172.53358 255.30997,141.08564 298.68474,134.20611 298.68474,134.20611 298.68474,134.20611 310.3392,131.31907 323.62366,131.40478 Z M 312.91109,141.61716 C 306.10849,141.73191 299.1255,143.70198 293.91491,147.85034 288.51543,152.14908 283.77867,159.62145 284.50681,166.63552 285.3333,174.59701 292.05848,182.37176 299.31899,185.11909 311.8595,189.86435 329.7271,187.99481 338.74116,177.79244 343.76682,172.10427 344.18048,161.58353 340.72953,154.75127 336.8981,147.16572 327.3547,143.32036 319.18274,142.04413 317.58319,141.79432 315.93535,141.65072 314.26893,141.6184 313.81761,141.60965 313.36459,141.60951 312.91109,141.61716 Z M 542.3099,197.83368 C 527.91972,197.5757 509.95229,208.4431 487.07888,214.90107 468.88101,220.03897 458.12025,229.81902 452.23416,237.25586 460.79369,244.50164 459.92525,257.30917 457.46695,261.38925 454.90614,265.63946 438.96991,267.18015 439.24154,281.56206 439.51318,295.94397 446.04803,297.67909 446.90579,305.00164 447.76357,312.32419 460.43159,309.91685 461.41512,319.07656 462.39867,328.23627 485.52908,327.64445 484.08518,327.38126 484.08518,327.38126 486.94845,327.54048 493.07624,333.73731 499.20402,339.93413 537.88931,337.46118 544.72648,343.60589 551.56363,349.75061 551.89154,354.5269 549.83887,355.78554 547.7862,357.04419 527.69648,355.19601 533.33621,375.09201 538.97594,394.98799 550.20114,392.31803 562.26054,391.43207 574.31995,390.54611 591.70412,378.92841 598.72749,366.96479 605.75086,355.00117 607.32813,341.59195 612.65099,336.031 614.65574,333.93657 617.47077,325.23269 619.84359,314.67163 L 624.38505,281.21453 C 624.45485,275.42026 623.86147,270.78681 622.28623,268.48381 615.55221,258.63873 602.693,237.42667 587.16471,234.50542 571.92485,231.63842 570.76015,239.35086 550.79458,199.56635 548.11118,198.42259 545.28775,197.88706 542.3099,197.83368 Z M 494.50979,241.76381 C 500.6232,241.56711 511.13036,248.58406 511.13036,248.58406 515.91486,255.98741 527.07851,273.26153 519.80866,271.21067 512.53881,269.15981 498.70349,275.34655 491.46892,252.98278 488.75596,244.59636 490.84176,241.88182 494.50979,241.76381 Z"
     class="LAND"
     id="path4141"
     inkscape:connector-curvature="0" />
  <path
     style="fill:#986749;fill-opacity:1;fill-rule:evenodd;stroke:none;stroke-width:1.17697763px;stroke-linecap:butt;stroke-linejoin:miter;stroke-opacity:1"
     d="M 156.19792,92.393427 C 154.30527,92.366406 151.9697,92.478265 148.98173,92.76702 133.04591,94.307048 106.4942,96.995401 97.903682,101.68858 89.313164,106.38176 88.349393,107.29396 82.343077,113.91043 76.33676,120.52689 56.638717,144.60252 59.62462,151.76873 62.610517,158.93494 85.602997,182.35618 96.852406,180.05261 105.3593,178.31063 113.85142,173.40552 121.13474,172.60433 121.2778,170.03524 121.31207,167.53136 121.9142,166.0261 123.4361,162.22151 116.44807,153.87128 116.44807,153.87128 121.38602,158.30913 124.60003,163.61293 123.38251,166.65661 122.73317,168.27989 122.83505,170.45956 123.0387,172.49634 124.68995,172.49229 126.27075,172.74263 127.76261,173.35151 136.19714,176.79392 158.28622,181.81739 166.42396,170.51047 174.5617,159.20353 173.90528,154.82041 183.91707,144.85291 193.92887,134.88541 216.32937,123.63824 211.69579,118.43947 207.06223,113.2407 183.33084,99.843546 172.81849,97.292343 164.27721,95.219489 164.3994,92.510518 156.19792,92.393427 Z"
     class="LAND"
     id="path4151"
     inkscape:connector-curvature="0" />
  <path
     style="fill:#986749;fill-opacity:1;fill-rule:evenodd;stroke:none;stroke-width:1px;stroke-linecap:butt;stroke-linejoin:miter;stroke-opacity:1"
     d="M 204.85052,203.0336 C 200.63691,203.02995 193.50203,207.47748 195.28364,211.2959 197.58098,216.21963 209.88929,213.91344 211.37339,208.68675 212.15929,205.91894 207.72775,203.03609 204.85052,203.0336 Z"
     id="path4266"
     class="LAND"
     inkscape:connector-curvature="0"
     sodipodi:nodetypes="aaaa" />
  <path
     style="fill:#986749;fill-opacity:1;fill-rule:evenodd;stroke:none;stroke-width:1px;stroke-linecap:butt;stroke-linejoin:miter;stroke-opacity:1"
     d="M 344.43989,-15.69991 C 344.43989,-15.69991 337.91703,11.696135 357.05077,23.00244 376.18452,34.308745 377.92395,41.701329 389.66512,36.483034 401.40628,31.26474 404.88514,19.088718 414.88687,14.305281 424.88861,9.5218437 424.45375,-28.310791 424.45375,-28.310791 Z"
     class="LAND"
     id="path4268"
     inkscape:connector-curvature="0" />
  <path
     style="fill:#c9b293;fill-opacity:1;fill-rule:evenodd;stroke:none;stroke-width:1px;stroke-linecap:butt;stroke-linejoin:miter;stroke-opacity:1"
     d="M 264.82302,222.68819 C 262.73975,222.68618 260.51407,222.95954 258.10703,223.59798 254.38416,224.58542 250.47513,225.70967 246.58273,226.86102 246.13903,228.17481 244.99132,229.19526 243.63741,230.93828 239.37863,236.42106 233.80205,243.47811 236.83826,251.37918 239.87446,259.28025 239.74285,267.78318 236.24375,273.9487 232.74464,280.11422 233.60054,292.60766 240.05787,298.411 242.21207,300.34703 243.27001,303.53616 243.88689,307.42813 249.88404,305.13826 257.53592,303.55039 266.83249,304.1986 292.62158,305.99675 304.84014,291.80435 327.58797,296.0416 350.3358,300.27886 357.86632,285.32464 372.65501,298.27075 383.12982,307.44046 391.22692,313.25836 397.03292,315.07501 399.62215,304.75267 403.11284,293.45902 408.45918,284.93061 420.3501,265.96237 414.97948,265.61872 413.81733,259.05709 412.65518,252.49545 421.65302,243.34102 420.41541,235.67709 419.70476,231.27638 411.53916,227.78594 405.68515,223.09529 392.14133,228.81966 372.75891,236.96952 361.84438,234.07101 344.41688,229.44289 316.49954,227.80176 300.76496,232.28123 286.99719,236.20077 279.40593,222.70231 264.82302,222.68819 Z"
     class="LAND"
     id="path4747"
     inkscape:connector-curvature="0" />
  <path
     style="fill:#deeff0;fill-opacity:1;fill-rule:evenodd;stroke:none;stroke-width:1.17697763px;stroke-linecap:butt;stroke-linejoin:miter;stroke-opacity:1"
     d="M 107.97333,65.749136 C 93.767553,65.77477 79.474723,72.023272 79.474723,72.023272 79.474723,72.023272 56.792651,89.568185 47.163225,94.706976 37.5338,99.845759 39.246912,119.66204 58.173686,114.94805 72.983454,111.25946 75.097099,113.02094 82.623583,113.60386 88.360236,107.29082 89.460679,106.30117 97.903682,101.68858 106.4942,96.995401 133.04591,94.307048 148.98173,92.76702 157.031,91.989145 160.34645,92.501894 163.01321,93.527861 163.05121,93.177144 163.0111,92.829248 162.86427,92.485274 159.04322,83.534029 123.99015,66.167873 109.34731,65.766512 108.88972,65.75397 108.43158,65.748309 107.97333,65.749136 Z M 518.64567,109.47571 C 517.77067,109.50096 516.96429,109.58331 516.23904,109.72891 504.63494,112.05853 495.91858,114.91496 487.25513,113.33576 478.5917,111.75656 458.77982,113.9512 451.17792,117.46391 443.576,120.97663 446.27538,117.01174 440.32136,120.29255 434.36734,123.57335 421.7109,124.42886 418.53627,140.54107 415.36163,156.65328 406.23506,169.14131 415.07711,168.12244 423.91917,167.10357 432.10236,166.87068 431.44076,172.82774 430.77916,178.78481 435.84045,190.23029 446.68487,187.21791 457.52928,184.20554 469.94364,183.29377 473.20876,189.33163 476.47389,195.36949 487.66731,202.67117 496.41128,195.01249 505.15525,187.35381 515.22332,167.7809 526.92803,166.92099 538.63275,166.06109 551.1476,166.61915 549.50499,158.24642 547.86239,149.87369 548.72682,141.68553 554.27607,139.43146 559.82531,137.17738 567.20088,130.35785 563.68169,125.81577 560.38245,121.55757 531.77075,109.09701 518.64567,109.47571 Z M 58.522455,157.46199 C 55.812362,157.54703 53.519929,158.43776 51.995125,160.0846 45.024597,167.61299 3.8226582,185.41076 3.8226582,185.41076 -53.561073,213.50307 -60.044215,233.87201 1.4122958,243.93338 1.4122958,243.93338 27.784927,243.84283 37.940058,251.59019 48.095188,259.33753 77.806084,271.55578 98.456004,265.97663 119.10592,260.3975 154.16961,257.08298 157.66871,250.91746 157.66871,250.91746 93.057786,218.36741 87.523739,189.60097 83.20026,167.12718 68.20136,157.15831 58.522455,157.46199 Z"
     class="LAND"
     id="path4139"
     inkscape:connector-curvature="0" />
</svg>
