<?xml version="1.0" encoding="UTF-8" standalone="no"?>
<svg
   xmlns:dc="http://purl.org/dc/elements/1.1/"
   xmlns:cc="http://creativecommons.org/ns#"
   xmlns:rdf="http://www.w3.org/1999/02/22-rdf-syntax-ns#"
   xmlns:svg="http://www.w3.org/2000/svg"
   xmlns="http://www.w3.org/2000/svg"
   xmlns:sodipodi="http://sodipodi.sourceforge.net/DTD/sodipodi-0.dtd"
   xmlns:inkscape="http://www.inkscape.org/namespaces/inkscape"
   version="1.1"
   regionID="5"
   id="svg2"
   viewBox="0 0 600 399.99999"
   width="600"
   height="400"
   inkscape:version="0.91 r13725"
   sodipodi:docname="unova.svg">
  <sodipodi:namedview
     pagecolor="#ffffff"
     bordercolor="#666666"
     borderopacity="1"
     objecttolerance="10"
     gridtolerance="10"
     guidetolerance="10"
     inkscape:pageopacity="0"
     inkscape:pageshadow="2"
     inkscape:window-width="1226"
     inkscape:window-height="1036"
     id="namedview65"
     showgrid="false"
     inkscape:zoom="1.0323759"
     inkscape:cx="338.03353"
     inkscape:cy="256.83491"
     inkscape:window-x="697"
     inkscape:window-y="23"
     inkscape:window-maximized="0"
     inkscape:current-layer="svg2" />
  <defs
     id="defs4">
    <inkscape:perspective
       locationid=""
       sodipodi:type="inkscape:persp3d"
       inkscape:vp_x="0 : 200 : 1"
       inkscape:vp_y="0 : 1000 : 0"
       inkscape:vp_z="600 : 200 : 1"
       inkscape:persp3d-origin="300 : 133.33333 : 1"
       id="perspective4999" />
    <inkscape:perspective
       id="perspective4999-3"
       inkscape:persp3d-origin="300 : 133.33333 : 1"
       inkscape:vp_z="600 : 200 : 1"
       inkscape:vp_y="0 : 1000 : 0"
       inkscape:vp_x="0 : 200 : 1"
       sodipodi:type="inkscape:persp3d"
       locationid="" />
    <inkscape:perspective
       id="perspective4999-9"
       inkscape:persp3d-origin="300 : 133.33333 : 1"
       inkscape:vp_z="600 : 200 : 1"
       inkscape:vp_y="0 : 1000 : 0"
       inkscape:vp_x="0 : 200 : 1"
       sodipodi:type="inkscape:persp3d"
       locationid="" />
  </defs>
  <metadata
     id="metadata7">
    <rdf:RDF>
      <cc:Work
         rdf:about="">
        <dc:format>image/svg+xml</dc:format>
        <dc:type
           rdf:resource="http://purl.org/dc/dcmitype/StillImage" />
        <dc:title />
      </cc:Work>
    </rdf:RDF>
  </metadata>
  <path
     class="LAND"
     style="fill:#94ca90;fill-opacity:1;fill-rule:evenodd;stroke:none;stroke-width:4;stroke-linecap:butt;stroke-linejoin:miter;stroke-opacity:1"
     d="M 631.44531,-16.568359 321.39258,-12.220703 C 321.39258,2.9993156 333.13361,14.740225 334.87305,22.132812 336.61248,29.525396 348.78757,33.874881 346.61328,39.962891 344.43899,46.050902 348.70898,52.613281 348.70898,52.613281 348.70898,52.613281 340.69587,65.756177 351.33398,70.144531 354.48836,71.445752 360.15609,74.458161 366.66406,77.994141 L 350.95508,78.841797 C 346.99188,76.393763 344.01732,74.007761 342.89844,71.873047 338.79817,64.05015 346.58408,57.630845 343.64258,51.507812 342.53268,49.197449 338.61826,49.213758 337.4668,46.923828 335.6454,43.301619 338.6443,38.643104 337.47266,34.761719 335.93214,29.658247 331.5776,25.878008 328.61914,21.443359 325.07735,16.134331 319.82015,11.640756 317.96875,5.5332031 316.00698,-0.93841596 317.99409,-14.753906 317.99414,-14.753906 L 207.02539,-16.134766 C 207.02539,-16.134766 202.24092,11.26206 210.06836,15.175781 217.8958,19.089503 237.02951,29.091677 239.63867,35.179688 242.24781,41.267699 237.03638,53.081087 238.89258,61.742188 241.74598,75.056292 256.44744,95.210701 256.67383,98.517578 256.90021,101.82445 261.05214,105.21229 255.12305,107.125 249.19397,109.0377 244.50493,113.4449 249.87305,118.95898 255.24114,124.47306 256.58285,128.43628 253.05859,134.23438 249.53433,140.03247 219.21379,181.40279 234.68164,204.26953 238.63975,210.12096 241.42365,214.34968 243.32422,217.51758 L 207.88867,218.33203 C 206.44219,217.18485 204.59115,216.41339 203.11133,216.51367 201.81944,216.60122 200.33588,217.41938 199.17773,218.5332 L 180.58594,218.95898 C 182.06541,215.05808 184.49407,211.07704 188.39453,210.25586 196.47691,208.55423 190.42349,203.45942 198.50586,201.75781 206.58823,200.05619 205.68271,186.82964 204.90039,180.60938 204.11808,174.38911 208.78144,169.61435 214.45898,164.02734 220.13653,158.44033 216.44127,151.32666 212.79883,139.77734 209.1564,128.22801 242.96371,106.54195 238.60938,100.21484 234.25502,93.887722 229.89746,75.460858 229.22852,62.535156 228.96438,57.431188 230.50724,54.748052 231.37695,47.355469 232.24668,39.962884 225.7229,31.265056 206.1543,24.742188 186.5857,18.219323 194.41406,-14.394531 194.41406,-14.394531 L -18.357422,-14.929688 -28.955078,321.23828 -27.447266,401.02148 C -27.447266,401.02148 -0.33943038,394.70709 12.4375,389.35742 19.689812,386.32091 26.601838,382.77732 33.039062,377.87305 39.476294,372.96879 40.489874,372.15635 55.666016,369.93359 70.842203,367.7108 68.314108,356.81766 79.943359,354.85547 91.572617,352.89326 106.6543,338.86133 106.6543,338.86133 106.6543,338.86133 106.12491,336.31486 103.11133,333.95117 100.09774,331.58762 94.656299,319.80132 93.974609,315.05078 93.292919,310.30024 88.859774,308.04221 86.376953,308.22461 83.894133,308.40702 75.146916,321.23471 71.501953,314.85547 67.856982,308.47624 76.294819,306.74994 80.375,303.86523 84.455187,300.98053 84.078175,295.46678 85.169922,290.58594 86.26167,285.70511 84.010732,278.85637 87.789062,271.5625 91.567394,264.26863 91.267578,254.6875 91.267578,254.6875 91.267578,254.6875 92.835374,261.95954 90.601562,270.98633 88.36775,280.01313 88.467754,281.48285 89.048828,284.76367 89.629902,288.04449 88.794216,286.25948 86.001953,297.54297 83.209692,308.82647 90.180726,301.29816 91.521484,305.26172 92.862248,309.22529 98.866939,308.41374 100.61523,307.91602 102.36351,307.4183 104.79835,301.33135 107.00195,302.27734 109.20554,303.22327 121.29297,297.53516 121.29297,297.53516 121.29297,297.53516 116.98345,302.282 110.26953,303.14453 103.55561,304.00706 103.30194,305.50219 101.52344,315.97266 99.744926,326.44312 110.66016,334.875 110.66016,334.875 L 128.54492,335.77734 C 128.54492,335.77734 131.66163,334.44009 141.90234,322.60938 152.14306,310.77867 137.07227,304.13086 137.07227,304.13086 L 143.23438,290.01367 139.05469,291.42969 138.90625,284.05469 161.5293,281.2832 161.60352,287.55664 149.56836,288.81055 145.10352,301.69336 153.36328,302.56445 C 153.36328,302.56445 156.91176,297.13323 166.28711,293.49023 175.66246,289.84722 174.00044,270.7671 166.80859,264.64844 159.61674,258.52978 158.58076,253.80556 167.04297,252.44531 175.50518,251.08506 189.74543,245.60729 188.50781,237.94336 187.27021,230.27943 170.04102,233.75977 170.04102,233.75977 L 170.34766,227.83008 178.50586,227.23047 C 178.50586,227.23048 178.66516,225.92664 179.07812,224.06055 L 197.44922,223.44727 C 197.45294,223.45495 197.45518,223.46305 197.45898,223.4707 199.33184,227.23685 208.58925,226.97459 210.06836,223.03711 210.06957,223.03389 210.06911,223.03057 210.07031,223.02734 L 245.68555,221.83984 C 248.04511,226.91949 246.21044,227.62409 243.63672,230.9375 239.37794,236.42028 233.80168,243.47784 236.83789,251.37891 239.87409,259.27998 239.74324,267.7837 236.24414,273.94922 232.74503,280.11474 233.60126,292.60682 240.05859,298.41016 248.3327,305.84629 240.48309,331.67514 253.25977,345.44727 L 259.03125,351.66992 256.10547,376.62695 270.4707,378.15625 273.67188,357.24219 284.76562,363.07422 282.57422,388.3457 293.56641,392.70703 294.63281,387.45898 299.32031,388.22266 300.94531,380.71875 295.70312,377.04102 297.98633,368.75 315.00977,372.66797 316.44141,398.7832 329.21094,397.84375 327.52539,373.22656 338.31836,369.47852 344.21289,387.87891 348.06445,386.85742 349.70898,390.06055 355.53516,391.84766 359.84375,387.09961 353.99219,384.94531 356.04492,383.68555 351.54492,364.81445 366.97852,355.92578 378.67383,370.57617 376.3418,372.96289 381.68555,378.10938 387.13477,374.38672 385.13477,371.20898 388.58008,369.47852 384.02344,365.38281 386.4043,363.73047 378,350.31641 C 378,350.31641 385.95747,346.7768 389.88672,341.6875 391.42103,339.70024 392.78263,333.47864 394.57227,325.5332 L 445,299.57617 C 445.91798,301.21144 446.65643,302.86923 446.90625,305.00195 447.76403,312.3245 460.43249,309.91646 461.41602,319.07617 462.39957,328.23588 485.52984,327.64405 484.08594,327.38086 484.08594,327.38086 486.94838,327.54145 493.07617,333.73828 499.20395,339.9351 537.88939,337.46076 544.72656,343.60547 551.56371,349.75019 551.89251,354.52652 549.83984,355.78516 547.78717,357.04381 527.69621,355.1958 533.33594,375.0918 538.97567,394.98778 550.20037,392.3176 562.25977,391.43164 574.31918,390.54568 591.70319,378.92846 598.72656,366.96484 605.74993,355.00122 607.32753,341.5922 612.65039,336.03125 617.97325,330.47029 629.02111,278.32946 622.28711,268.48438 615.55309,258.6393 602.69235,237.42711 587.16406,234.50586 571.63577,231.5846 570.76993,239.77029 549.6875,197.375 549.6875,197.375 538.5175,195.61279 529.37109,197.39258 528.56139,197.55013 527.80968,197.60657 527.10352,197.58594 L 529.74023,194.10742 C 534.81188,193.97451 538.7207,193.38086 538.7207,193.38086 538.7207,193.38086 538.25819,192.97458 537.48828,192.38867 L 539.07617,191.10938 542.73633,194.33594 C 544.58203,195.96218 552.73633,196.07617 552.73633,196.07617 552.73633,196.07617 554.04013,194.33581 550.99609,193.03125 549.96727,192.59031 548.64184,192.1542 547.33594,191.76367 L 549.2793,186.99023 C 549.81963,187.08154 550.32894,187.18543 550.78125,187.32422 553.69422,188.21804 552.96289,182.73438 552.96289,182.73438 552.96289,182.73438 550.27149,181.9774 547.20508,181.37109 L 547.73438,179.62891 C 552.11343,180.62487 555.78125,182.5957 555.78125,182.5957 555.78125,182.5957 557.08628,177.8118 553.60742,177.37695 553.17256,177.32259 552.62805,177.29502 552.00977,177.28906 551.10796,177.2804 550.03236,177.32352 548.91797,177.38672 L 551.08984,172.44727 C 554.50567,172.40546 557.25,172.44727 557.25,172.44727 557.25,172.44727 567.01475,148.46662 570.25977,143.79688 573.50481,139.12707 563.75451,132.0882 566.94922,126.68359 570.14395,121.27899 568.83433,107.34178 573.77734,101.43945 578.72036,95.537128 588.22647,83.392236 596.81445,83.869141 L 628.83789,83.449219 Z M 159.07617,47.539062 C 160.40323,47.539062 161.30078,47.603516 161.30078,47.603516 173.62955,49.315845 180.82278,51.028307 183.5625,57.535156 186.30223,64.042005 174.99976,63.69954 167.12305,57.535156 159.24634,51.370772 149.65697,58.904618 148.28711,52.740234 147.25971,48.116947 155.09501,47.539063 159.07617,47.539062 Z M 289.93359,53.238281 C 289.93359,53.238281 304.07374,68.461267 317.89258,71.125 329.18977,74.726378 339.42142,83.575558 340.33203,86.462891 341.24263,89.350222 359.00038,93.585673 365.86523,94.927734 372.73008,96.269788 377.91856,104.38153 380.16992,111.23242 381.7721,116.10781 389.96276,119.92378 394.56445,121.72656 394.93867,119.44617 395.64072,117.4818 396.88867,115.91211 403.12467,108.0684 399.47881,101.68981 387.70117,96.277344 381.39437,93.37902 370.18447,88.827246 360.48828,84.025391 L 376.82227,83.523438 C 390.13256,90.773488 404.22988,98.263041 409.63867,99.097656 419.36617,100.59868 419.78872,117.18362 414.8457,123.08594 409.90269,128.98827 416.5125,136.99832 412.37695,149.48828 408.2414,161.9783 403.9242,182.23556 408.88477,192.21094 413.25154,200.99221 430.01841,209.43421 434.24609,215.33984 L 399.94922,215.33984 C 399.57223,213.66662 399.68189,211.83915 400.46484,209.81641 405.61414,196.51336 387.66238,178.99877 392.78906,160.1582 395.93484,148.59747 394.41972,137.52867 394.2168,128.88086 391.37522,125.95183 387.22637,121.9002 384.72461,120.49805 380.64696,118.21267 373.96443,109.10457 371.93945,105.56055 369.91447,102.01654 360.59432,96.052592 352.05664,96.310547 343.51897,96.568503 327.44005,80.394624 324.02148,77.322266 320.6029,74.249908 305.40328,70.934854 300.99609,69.042969 296.58891,67.151073 289.93359,53.238281 289.93359,53.238281 Z M 596.37065,147.19914 C 593.25736,144.45596 587.09,143.34043 583.9729,146.07927 580.59484,149.0474 579.89322,156.8053 583.44794,159.5594 587.48412,162.68653 595.5318,159.56036 598.11981,155.15901 599.49677,152.81725 598.4089,148.99509 596.37065,147.19914 Z M 116.44727,153.87109 C 121.38522,158.30894 124.60033,163.61257 123.38281,166.65625 122.16528,169.69993 123.58073,174.76544 123.37695,176.99609 123.17319,179.22672 127.19861,185.9483 127.07031,189.28125 126.94201,192.61417 114.95117,210.11328 114.95117,210.11328 114.95117,210.11329 109.88711,203.83737 112.72461,203.62891 115.56212,203.42045 124.36172,186.15546 123.17188,184.39648 121.98204,182.6375 114.65973,185.0226 108.95703,190.24219 103.25434,195.46176 107.30273,202.55078 107.30273,202.55078 107.30273,202.55078 104.54365,198.68982 103.6582,196.16992 103.04611,194.42799 106.32839,190.51363 107.89453,188.87695 104.22221,191.12054 86.888672,195.92578 86.888672,195.92578 L 82.382812,187.39453 C 82.382812,187.39453 83.496408,188.04972 88.308594,190.65039 93.120772,193.2511 112.02466,183.00096 117.26953,181.50781 122.51438,180.01464 120.39216,169.83 121.91406,166.02539 123.43596,162.2208 116.44727,153.87109 116.44727,153.87109 Z M 107.89453,188.87695 C 108.15961,188.71499 108.36564,188.56215 108.47656,188.42969 108.98524,187.82231 108.59398,188.14599 107.89453,188.87695 Z M 519.78125,171.87695 C 519.78125,171.87695 537.33554,173.17345 543.36523,172.73047 544.43502,172.65188 545.56278,172.59755 546.69336,172.55273 L 545.04492,177.67969 C 542.13836,177.94517 539.69141,178.24609 539.69141,178.24609 539.69141,178.24609 538.82145,178.68233 544.47461,179.11719 L 543.82422,180.82422 C 542.97134,180.71892 542.14212,180.63824 541.41211,180.62891 537.13069,180.57417 534.64764,180.75574 533.8125,178.9707 532.97734,177.18567 519.78125,171.87695 519.78125,171.87695 Z M 518.86523,179.33008 C 519.31055,179.36294 519.78337,179.61039 520.28516,179.99414 523.01486,181.23457 529.29842,183.90682 535.30469,185.13867 540.31817,186.16689 543.99862,186.41309 546.76758,186.67773 L 544.19922,190.89844 C 543.1376,190.62623 542.30078,190.42187 542.30078,190.42188 L 537.95117,189.55273 535.61914,191.08008 C 534.08112,190.07526 532.08825,188.94806 529.80469,188.12695 525.59664,186.61385 522.60942,181.77163 520.28516,179.99414 519.39994,179.59187 518.86525,179.33008 518.86523,179.33008 Z M 514.07227,187.4375 C 514.81809,187.65797 515.49949,188.20483 516.17383,188.93555 518.2975,190.38234 521.73078,192.50247 524.97852,193.53125 L 522.07422,195.73828 C 519.54069,193.7965 517.87607,190.78008 516.17383,188.93555 514.91759,188.07972 514.07227,187.4375 514.07227,187.4375 Z M 405.56836,223 437.36523,223.51758 C 439.90944,227.51661 444.61755,231.68155 451.11914,236.375 460.86928,243.41355 460.02761,257.13847 457.4668,261.38867 454.90599,265.63888 438.97056,267.18059 439.24219,281.5625 439.31212,285.26454 439.79982,288.11994 440.49609,290.45703 L 397.92969,311.63281 C 400.42214,302.29604 403.7018,292.51828 408.45898,284.92969 420.3499,265.96145 414.97856,265.61827 413.81641,259.05664 412.65426,252.495 421.65363,243.34166 420.41602,235.67773 419.70062,231.24763 411.42989,227.73825 405.56836,223 Z M 494.50977,241.76367 C 500.62318,241.56697 511.13086,248.58398 511.13086,248.58398 515.91536,255.98733 527.07844,273.2618 519.80859,271.21094 512.53874,269.16008 498.70332,275.34619 491.46875,252.98242 488.75579,244.596 490.84174,241.88168 494.50977,241.76367 Z M 163.93555,334.66797 C 163.38289,334.67238 162.84877,334.70566 162.33984,334.76953 154.93063,335.69943 143.84839,344.81309 147.10547,351.76953 152.33003,362.92807 179.93856,360.78481 182.9043,348.76953 184.80926,341.0519 172.22547,334.60187 163.93555,334.66797 Z M 515.25586,350.25391 C 511.80707,350.27778 507.34986,353.4719 507.48047,356.68164 507.63466,360.47071 514.34795,363.53106 517.43359,361.49023 520.33761,359.56952 520.39694,352.56949 517.41406,350.7832 516.79448,350.41217 516.05173,350.2484 515.25586,350.25391 Z M 501.14453,357.88477 C 498.80371,358.05674 495.61454,361.15668 496.53125,363.39453 498.02439,367.03961 506.55017,367.70246 507.98242,364.03125 509.11297,361.13339 504.15416,357.66366 501.14453,357.88477 Z M 212.28516,367.18164 C 202.7291,367.00134 191.1864,372.22627 191.47656,380.26562 191.89539,391.87023 215.48236,397.43318 223.84961,389.70508 228.8236,385.11105 226.4145,372.75512 220.66797,369.25977 218.43567,367.90197 215.47051,367.24173 212.28516,367.18164 Z M 484.01953,368.00586 C 479.34204,368.12004 474.60787,369.92457 472.63672,373.64258 470.32467,378.00358 473.23463,385.438 477.51953,387.68555 483.90805,391.03653 495.50076,388.27741 498.11914,381.37305 499.76662,377.02885 495.37035,371.17362 491.23438,369.32227 489.41191,368.50649 487.21128,368.05931 484.95312,368.00586 484.64261,367.99851 484.33136,367.99824 484.01953,368.00586 Z M 514.51172,373.73828 C 512.26839,373.8268 509.60315,375.31955 509.59766,377.20508 509.59128,379.40196 513.67586,380.49938 515.5625,379.49609 517.05929,378.70011 518.13394,375.63407 516.89648,374.45312 516.4205,373.9989 515.72587,373.77692 514.95312,373.74023 514.80822,373.73336 514.66127,373.73238 514.51172,373.73828 Z"
     id="path4253"
     inkscape:connector-curvature="0"
     sodipodi:nodetypes="ccsscsccssssssccssssssssccsccsssssssssccccssssccsssssscsssssccssccscccccccccsssscccccccccssssccccccccccccccccccccccccccccccccccccsccsscsssssssssccccccccccccsccccsccccssscccscssssccssscssccssssccsscssssscaaaaacssscssscscccssscccccscccccsccccscccccsccccccccccsssccssscscsssssssssssssssssssssscssssscsssccs" />
  <path
     class="LAND"
     style="fill:#679363;fill-opacity:1;fill-rule:evenodd;stroke:none;stroke-width:1.17697763px;stroke-linecap:butt;stroke-linejoin:miter;stroke-opacity:1"
     d="M 631.44531 -16.568359 L 321.39258 -12.220703 C 321.39258 2.9993156 333.13361 14.740225 334.87305 22.132812 C 336.61248 29.525396 348.78757 33.874881 346.61328 39.962891 C 344.43899 46.050902 348.70898 52.613281 348.70898 52.613281 C 348.70898 52.613281 346.6588 55.978059 346.00977 59.871094 C 347.1877 62.28068 349.99445 64.68653 356.04883 66.107422 C 371.62744 69.763536 396.52977 69.041323 408.66211 74.427734 C 420.79445 79.814153 454.96824 84.319573 470.87891 82.412109 C 486.78958 80.50465 512.30334 78.260836 536.11523 82.419922 C 559.92712 86.578998 564.25506 92.538902 573.24805 93.724609 L 577.42578 97.107422 C 582.6569 91.019126 590.00625 83.491071 596.81445 83.869141 L 628.83789 83.449219 L 631.44531 -16.568359 z M 207.02539 -16.134766 C 207.02539 -16.134766 202.24092 11.26206 210.06836 15.175781 C 217.8958 19.089503 237.02951 29.091677 239.63867 35.179688 C 242.24781 41.267699 237.03638 53.081087 238.89258 61.742188 C 240.36605 68.617493 244.98482 77.283231 249.15234 84.544922 L 232.79492 84.855469 C 230.9484 77.591248 229.57924 69.312006 229.22852 62.535156 C 228.96438 57.431188 230.50724 54.748052 231.37695 47.355469 C 232.24668 39.962884 225.7229 31.265056 206.1543 24.742188 C 186.5857 18.219323 194.41406 -14.394531 194.41406 -14.394531 L -18.357422 -14.929688 L -28.955078 321.23828 L -27.613281 392.21875 C -8.4363319 384.88353 29.300633 368.30436 34.1875 363.38867 C 40.524118 357.01468 47.894495 360.53482 56.28125 358.07227 C 64.667998 355.60974 64.315066 350.46532 83.75 342.75977 C 93.0386 339.07702 96.639785 332.10115 97.875 325.82031 C 95.963553 321.86733 94.328176 317.51471 93.974609 315.05078 C 93.292919 310.30024 88.859774 308.04221 86.376953 308.22461 C 83.894133 308.40702 75.146916 321.23471 71.501953 314.85547 C 68.720161 309.98693 72.971913 307.82855 76.957031 305.79688 C 75.4723 304.31192 74.193584 302.49919 75.207031 301.28906 C 77.18424 298.92813 63.882043 302.49014 61.753906 302.64648 C 59.625784 302.80283 65.199265 306.08684 63.574219 313.5918 C 61.949165 321.09675 53.081147 321.74723 44.964844 315.14258 C 54.434566 299.86037 69.178474 301.7336 71.638672 296.01367 C 74.098871 290.29375 44.563061 280.6459 56.625 274.58984 C 68.686923 268.5338 80.998162 271.32204 81.425781 277.56836 C 81.520823 278.95666 83.080821 279.55981 85.574219 279.68555 C 85.777236 277.10029 86.337111 274.36542 87.789062 271.5625 C 91.567394 264.26863 91.267578 254.6875 91.267578 254.6875 C 91.267578 254.6875 92.835374 261.95954 90.601562 270.98633 C 89.554288 275.21836 89.032557 277.75953 88.820312 279.63477 C 98.588398 279.01921 115.51225 274.86414 123.75977 276.30469 C 135.66571 278.38423 136.83008 279.77539 136.83008 279.77539 C 136.83008 279.77539 137.87699 263.81994 146.0625 258.41797 C 150.19239 255.69247 127.74264 247.77762 104.48242 240.60156 C 128.80145 245.19019 153.96145 248.70881 157.01562 244.3457 C 163.10363 235.64854 165.71349 223.47072 135.27344 208.68555 C 129.83814 206.04556 125.10103 203.661 120.66992 201.40625 C 117.76037 206.00727 114.95117 210.1133 114.95117 210.11328 C 114.95117 210.11329 109.88711 203.83737 112.72461 203.62891 C 112.80238 203.6232 112.88627 203.59902 112.97266 203.56836 C 112.99448 203.56059 113.01672 203.55423 113.03906 203.54492 C 113.07837 203.52859 113.12122 203.50146 113.16211 203.48047 C 113.25133 203.43453 113.34316 203.3798 113.43945 203.3125 C 113.47943 203.28461 113.51942 203.25604 113.56055 203.22461 C 113.66595 203.14395 113.7743 203.05205 113.88672 202.94922 C 113.91767 202.92095 113.94708 202.8951 113.97852 202.86523 C 114.27068 202.58727 114.58565 202.23899 114.91406 201.83594 C 115.13478 201.56534 115.36314 201.26509 115.5957 200.94727 C 115.94809 200.46531 116.31071 199.94156 116.67969 199.37305 C 112.87138 197.41831 109.45524 195.65705 106.38867 194.08008 C 106.38656 194.08626 106.38491 194.09341 106.38281 194.09961 C 106.21454 194.59758 106.10044 195.09197 106.02539 195.58008 C 105.99805 195.75818 105.98151 195.93568 105.96484 196.11133 C 105.94286 196.34228 105.92928 196.56945 105.92383 196.79492 C 105.92002 196.95518 105.91239 197.11655 105.91602 197.27344 C 105.91943 197.4232 105.92996 197.5686 105.93945 197.71484 C 105.94871 197.85631 105.96026 197.99699 105.97461 198.13477 C 105.98891 198.27288 106.00268 198.40896 106.02148 198.54297 C 106.04123 198.68294 106.06586 198.82002 106.08984 198.95508 C 106.1105 199.07199 106.12705 199.19177 106.15039 199.30469 C 106.15081 199.3067 106.15192 199.30855 106.15234 199.31055 C 106.19839 199.53173 106.24897 199.7451 106.30273 199.94922 C 106.39844 200.31383 106.5041 200.64484 106.60938 200.94531 C 106.62696 200.99534 106.64456 201.04179 106.66211 201.08984 C 106.72989 201.27592 106.79366 201.43181 106.85742 201.58594 C 106.92954 201.75908 106.99713 201.91179 107.05664 202.03906 C 107.17159 202.27898 107.30273 202.55078 107.30273 202.55078 C 107.30273 202.55078 104.54365 198.68982 103.6582 196.16992 C 103.6231 196.07005 103.60376 195.96141 103.59375 195.84766 C 103.58906 195.79718 103.59193 195.74235 103.5918 195.68945 C 103.59201 195.62862 103.59163 195.56976 103.59766 195.50586 C 103.60476 195.42513 103.61896 195.34098 103.63477 195.25586 C 103.64125 195.22219 103.64847 195.18861 103.65625 195.1543 C 103.67902 195.05089 103.70629 194.94463 103.74023 194.83594 C 103.74259 194.82854 103.74565 194.82187 103.74805 194.81445 C 103.90675 194.31542 104.183 193.76635 104.51758 193.20312 C 104.52953 193.18297 104.53867 193.16276 104.55078 193.14258 C 103.47824 192.59441 102.33912 192.01012 101.35742 191.51758 C 100.97641 191.64708 100.57389 191.77641 100.18164 191.90625 C 99.862878 192.01179 99.561887 192.11362 99.238281 192.21875 C 98.260126 192.53658 97.279545 192.84854 96.300781 193.15234 C 94.713988 193.6448 93.229584 194.08992 91.865234 194.49219 C 91.71009 194.53797 91.697217 194.54177 91.546875 194.58594 C 88.86921 195.37279 86.888672 195.92578 86.888672 195.92578 L 82.382812 187.39453 C 82.382812 187.39453 83.496408 188.04972 88.308594 190.65039 C 88.441102 190.72202 88.58889 190.78141 88.742188 190.83398 C 88.790137 190.85036 88.840708 190.86435 88.890625 190.87891 C 89.011378 190.91434 89.137663 190.94557 89.269531 190.9707 C 89.317634 190.97977 89.362569 190.99032 89.412109 190.99805 C 89.569151 191.0229 89.735308 191.03894 89.90625 191.05078 C 90.209859 191.07107 90.532927 191.0728 90.876953 191.05469 C 91.93472 190.99901 93.17445 190.76962 94.529297 190.41797 C 94.529297 190.41797 94.53125 190.41797 94.53125 190.41797 L 94.560547 190.41016 C 95.444335 190.17986 96.377287 189.89832 97.341797 189.57812 C 97.354676 189.57385 97.36797 189.56873 97.380859 189.56445 C 91.379805 186.7015 87.396767 185.272 84.830078 185.63867 C 78.742067 186.50838 89.613281 163.02539 89.613281 163.02539 C 89.613281 163.02539 111.16307 160.60582 122.03516 163.81641 C 122.00128 163.62431 121.95118 163.42513 121.90039 163.22656 C 121.86248 163.07847 121.81988 162.9283 121.77344 162.77734 C 121.72714 162.62675 121.681 162.47705 121.62695 162.32422 C 121.57595 162.18016 121.51819 162.03419 121.46094 161.88867 C 121.39518 161.72139 121.3329 161.55323 121.25977 161.38477 C 121.20735 161.26412 121.14759 161.14435 121.0918 161.02344 C 120.94872 160.71309 120.79789 160.40244 120.63672 160.09375 C 120.55274 159.93301 120.46854 159.77256 120.38086 159.61328 C 120.28196 159.43348 120.18062 159.25709 120.07812 159.08008 C 120.02263 158.98431 119.96644 158.88769 119.91016 158.79297 C 119.61198 158.29068 119.30541 157.80483 119.00195 157.3457 C 118.96852 157.29516 118.93565 157.24712 118.90234 157.19727 C 118.68703 156.87472 118.48152 156.58409 118.27734 156.29492 C 118.08181 156.01843 117.89279 155.75176 117.7168 155.51367 C 117.58888 155.34058 117.45717 155.16296 117.34375 155.01367 C 117.22242 154.85431 117.12549 154.72573 117.02539 154.59766 C 116.744 154.23983 116.44727 153.87109 116.44727 153.87109 C 116.88001 154.26 117.29478 154.65848 117.69922 155.05859 C 117.78209 155.1406 117.86373 155.22035 117.94531 155.30273 C 118.34182 155.70291 118.72573 156.10545 119.08984 156.51172 C 119.12135 156.54692 119.15038 156.58196 119.18164 156.61719 C 119.5235 157.00209 119.84684 157.38899 120.15625 157.77539 C 120.21089 157.84373 120.26674 157.91215 120.32031 157.98047 C 120.65463 158.4062 120.96942 158.83161 121.25977 159.25391 C 121.26236 159.25768 121.26499 159.2599 121.26758 159.26367 C 121.2729 159.27142 121.2779 159.27936 121.2832 159.28711 C 121.58688 159.73057 121.86288 160.17127 122.11328 160.60547 C 122.23158 160.81061 122.34164 161.01267 122.44727 161.21484 C 122.46104 161.24124 122.47474 161.26857 122.48828 161.29492 C 122.59483 161.50173 122.69447 161.70521 122.78711 161.9082 C 123.07942 162.54876 123.3007 163.16802 123.44336 163.75781 C 123.49041 163.95233 123.52709 164.14248 123.55664 164.33008 C 123.55696 164.33211 123.55827 164.33391 123.55859 164.33594 C 125.70953 165.17253 127.27591 166.29817 127.88086 167.81055 C 131.35972 176.5077 130.48999 198.24919 142.66602 203.90234 C 154.84204 209.55549 162.67003 211.73069 171.36719 206.94727 C 180.06435 202.16382 173.9744 185.20531 186.15039 187.81445 C 191.79262 189.0235 198.91636 191.34107 205.03711 192.80078 C 205.70625 188.5224 205.28925 183.70118 204.90039 180.60938 C 204.16655 174.77449 208.2396 170.20327 213.43164 165.04883 L 235.66602 165.41406 C 230.25186 178.71343 227.41792 193.53127 234.68164 204.26953 C 250.14951 227.13628 247.89552 225.45472 243.63672 230.9375 C 241.60322 233.55546 239.27988 236.53667 237.72656 239.79297 L 362.18359 250.35547 L 415.02344 229.79492 C 415.02344 229.79492 414.86469 229.45478 414.84961 229.42188 C 407.73679 224.45763 396.81211 219.2531 400.46484 209.81641 C 405.14067 197.73657 390.76995 182.18296 391.92578 165.31836 L 412.875 164.86328 L 421.49219 159.01562 L 392.96289 159.47266 C 394.93444 151.79504 394.89608 144.37133 394.60547 137.73047 C 388.71739 132.52167 381.31362 126.8911 376.21094 126.29492 C 366.50858 125.16132 325.29644 111.57172 315.08594 113.42969 C 307.42806 114.82316 292.91819 112.77335 279.30078 112.78711 C 274.76165 112.7917 270.32134 113.02431 266.26758 113.69141 C 260.44985 114.64879 255.25406 117.22692 250.97461 120.13672 C 255.40431 125.05688 256.32634 128.85829 253.05859 134.23438 C 251.46577 136.85488 244.40312 146.74933 238.56445 158.91016 L 217.27344 158.60938 C 217.95654 153.85636 215.36707 147.92065 212.79883 139.77734 C 209.1564 128.22801 242.96371 106.54195 238.60938 100.21484 C 237.2781 98.280405 235.94707 95.206971 234.7207 91.513672 L 253.12109 91.386719 C 255.12564 94.840269 256.60501 97.512342 256.67383 98.517578 C 256.78038 100.07399 257.74925 101.64609 258.13477 103.07617 C 266.38675 106.52964 281.07702 109.87527 301.86523 107.75391 C 327.70718 105.11684 363.50247 107.28716 362.87109 103.27148 C 362.56597 101.33089 361.76311 99.437701 361.01562 97.988281 C 360.01909 97.611917 358.99244 97.286723 357.94922 97.021484 C 357.77412 96.977266 357.59783 96.935048 357.42188 96.894531 C 357.16904 96.835851 356.91634 96.777218 356.66211 96.726562 C 356.25213 96.645618 355.84181 96.572205 355.42969 96.513672 C 355.0712 96.462176 354.71243 96.419787 354.35352 96.386719 C 354.3183 96.38352 354.28326 96.379969 354.24805 96.376953 C 353.94751 96.350835 353.64573 96.334523 353.3457 96.322266 C 353.25217 96.318522 353.15986 96.314861 353.06641 96.3125 C 352.72928 96.303753 352.39197 96.300416 352.05664 96.310547 C 343.51897 96.568503 327.44005 80.394624 324.02148 77.322266 C 320.6029 74.249908 305.40328 70.934854 300.99609 69.042969 C 296.58891 67.151073 289.93359 53.238281 289.93359 53.238281 C 289.93359 53.238281 290.11195 53.428664 290.44727 53.771484 C 290.64491 53.973539 291.00395 54.323471 291.30664 54.623047 C 291.52664 54.841444 291.72727 55.042985 292 55.306641 C 292.61376 55.897632 293.33496 56.579153 294.17969 57.339844 C 295.06148 58.133919 296.05939 58.999833 297.15234 59.902344 C 299.90891 59.726041 303.60241 58.205633 305.30273 57.355469 C 308.7816 55.616037 316.6089 47.788949 326.17578 46.484375 C 331.30346 45.785145 336.71356 47.500285 340.64453 49.242188 C 339.35888 48.65961 338.05398 48.091582 337.4668 46.923828 C 335.6454 43.301619 338.6443 38.643104 337.47266 34.761719 C 335.93214 29.658247 331.5776 25.878008 328.61914 21.443359 C 325.07735 16.134331 319.82015 11.640756 317.96875 5.5332031 C 316.00698 -0.93841596 317.99409 -14.753906 317.99414 -14.753906 L 207.02539 -16.134766 z M 159.07617 47.539062 C 160.40323 47.539062 161.30078 47.603516 161.30078 47.603516 C 173.62955 49.315845 180.82278 51.028307 183.5625 57.535156 C 186.30223 64.042005 174.99976 63.69954 167.12305 57.535156 C 159.24634 51.370772 149.65697 58.904618 148.28711 52.740234 C 147.25971 48.116947 155.09501 47.539063 159.07617 47.539062 z M 527.51562 90.048828 C 525.34702 90.061477 523.2697 90.206747 521.3418 90.521484 C 509.00316 92.535794 439.00637 90.661161 427.12305 94.119141 C 427.12305 94.119141 416.55549 101.17422 421.41797 104.50977 C 426.28047 107.84533 415.89088 112.30027 419.13086 117.9707 C 422.37082 123.64112 424.39285 132.35627 433.08398 129.13281 C 441.77511 125.90935 482.39084 115.1718 498.85742 116.17773 C 515.32401 117.18366 549.39528 120.21823 555.88281 116.04883 C 562.37035 111.87943 569.62392 98.052335 560.91016 95.738281 C 553.55794 93.785791 539.22613 89.980526 527.51562 90.048828 z M 323.62305 131.4043 C 336.90751 131.49001 351.82216 134.54745 358.33984 146.43945 C 371.37518 170.22346 351.05239 180.58066 344.33594 186.61328 C 337.61948 192.64589 283.85499 203.98114 269.58203 172.5332 C 255.30907 141.08526 298.68555 134.20703 298.68555 134.20703 C 298.68555 134.20703 310.33859 131.31859 323.62305 131.4043 z M 312.91016 141.61719 C 306.10756 141.73194 299.12465 143.70125 293.91406 147.84961 C 288.51458 152.14835 283.77772 159.6207 284.50586 166.63477 C 285.33235 174.59626 292.05785 182.37181 299.31836 185.11914 C 311.85887 189.8644 329.72617 187.99534 338.74023 177.79297 C 343.76589 172.1048 344.18142 161.58421 340.73047 154.75195 C 336.89904 147.1664 327.35555 143.32115 319.18359 142.04492 C 317.58404 141.79511 315.93595 141.65146 314.26953 141.61914 C 313.81821 141.61039 313.36366 141.60954 312.91016 141.61719 z M 542.31055 197.83398 C 527.92037 197.576 509.95153 208.44242 487.07812 214.90039 C 468.88025 220.03829 458.12047 229.81902 452.23438 237.25586 C 460.79391 244.50164 459.9251 257.30859 457.4668 261.38867 C 454.90599 265.63888 438.97056 267.18059 439.24219 281.5625 C 439.51383 295.94441 446.04849 297.6794 446.90625 305.00195 C 447.76403 312.3245 460.43249 309.91646 461.41602 319.07617 C 462.39957 328.23588 485.52984 327.64405 484.08594 327.38086 C 484.08594 327.38086 486.94838 327.54145 493.07617 333.73828 C 499.20395 339.9351 537.88939 337.46076 544.72656 343.60547 C 551.56371 349.75019 551.89251 354.52652 549.83984 355.78516 C 547.78717 357.04381 527.69621 355.1958 533.33594 375.0918 C 538.97567 394.98778 550.20037 392.3176 562.25977 391.43164 C 574.31918 390.54568 591.70319 378.92846 598.72656 366.96484 C 605.74993 355.00122 607.32753 341.5922 612.65039 336.03125 C 614.65514 333.93682 617.47093 325.23294 619.84375 314.67188 L 624.38477 281.21484 C 624.45457 275.42057 623.86235 270.78737 622.28711 268.48438 C 615.55309 258.6393 602.69235 237.42711 587.16406 234.50586 C 571.9242 231.63886 570.76049 239.35092 550.79492 199.56641 C 548.11152 198.42265 545.2884 197.88736 542.31055 197.83398 z M 494.50977 241.76367 C 500.62318 241.56697 511.13086 248.58398 511.13086 248.58398 C 515.91536 255.98733 527.07844 273.2618 519.80859 271.21094 C 512.53874 269.16008 498.70332 275.34619 491.46875 252.98242 C 488.75579 244.596 490.84174 241.88168 494.50977 241.76367 z "
     id="path4141" />
  <path
     class="LAND"
     style="fill:#c9b293;fill-opacity:1;fill-rule:evenodd;stroke:none;stroke-width:1.17697763px;stroke-linecap:butt;stroke-linejoin:miter;stroke-opacity:1"
     d="M 323.625 131.4043 C 310.34054 131.31858 298.68555 134.20508 298.68555 134.20508 C 298.68555 134.20508 255.30906 141.08527 269.58203 172.5332 C 283.85499 203.98115 337.61947 192.64589 344.33594 186.61328 C 351.05239 180.58066 371.37519 170.22542 358.33984 146.44141 C 351.82217 134.5494 336.90946 131.49001 323.625 131.4043 z M 312.91016 141.61719 C 313.36366 141.60954 313.81821 141.61039 314.26953 141.61914 C 315.93595 141.65146 317.58404 141.79511 319.18359 142.04492 C 327.35555 143.32115 336.89904 147.1664 340.73047 154.75195 C 344.18142 161.58421 343.76589 172.1048 338.74023 177.79297 C 329.72617 187.99534 311.85887 189.8644 299.31836 185.11914 C 292.05785 182.37181 285.33235 174.59626 284.50586 166.63477 C 283.77772 159.6207 288.51458 152.14835 293.91406 147.84961 C 299.12465 143.70125 306.10756 141.73194 312.91016 141.61719 z M 264.82227 222.6875 C 262.739 222.68549 260.51446 222.95922 258.10742 223.59766 C 254.38455 224.5851 250.47443 225.70998 246.58203 226.86133 C 246.13833 228.17512 244.99063 229.19448 243.63672 230.9375 C 239.37794 236.42028 233.80168 243.47784 236.83789 251.37891 C 239.87409 259.27998 239.74324 267.7837 236.24414 273.94922 C 232.74503 280.11474 233.60126 292.60682 240.05859 298.41016 C 242.21279 300.34619 243.26984 303.53576 243.88672 307.42773 C 249.88387 305.13786 257.53546 303.55101 266.83203 304.19922 C 292.62112 305.99737 304.84006 291.80377 327.58789 296.04102 C 350.33572 300.27828 357.86561 285.32537 372.6543 298.27148 C 383.12911 307.44119 391.2272 313.25757 397.0332 315.07422 C 399.62243 304.75188 403.11264 293.4581 408.45898 284.92969 C 420.3499 265.96145 414.97856 265.61827 413.81641 259.05664 C 412.65426 252.495 421.65363 243.34166 420.41602 235.67773 C 419.70537 231.27702 411.53956 227.78635 405.68555 223.0957 C 392.14173 228.82007 372.75828 236.96882 361.84375 234.07031 C 344.41625 229.44219 316.50021 227.80178 300.76562 232.28125 C 286.99786 236.20079 279.40518 222.70162 264.82227 222.6875 z "
     id="path4163" />
  <path
     class="LAND"
     style="fill:#986749;fill-opacity:1;fill-rule:evenodd;stroke:none;stroke-width:1.17697763px;stroke-linecap:butt;stroke-linejoin:miter;stroke-opacity:1"
     d="M 424.45312 -28.310547 L 344.43945 -15.699219 C 344.43945 -15.699219 337.91704 11.695648 357.05078 23.001953 C 376.18453 34.308258 377.92485 41.700717 389.66602 36.482422 C 401.40718 31.264128 404.88499 19.088123 414.88672 14.304688 C 424.88846 9.5212497 424.45314 -28.310547 424.45312 -28.310547 z M 156.19727 92.392578 C 154.30462 92.365557 151.97039 92.478823 148.98242 92.767578 C 133.0466 94.307606 106.49481 96.996277 97.904297 101.68945 C 89.313779 106.38263 88.350066 107.29369 82.34375 113.91016 C 76.337433 120.52662 56.639097 144.60332 59.625 151.76953 C 62.610897 158.93574 85.602155 182.3563 96.851562 180.05273 C 105.35846 178.31075 113.85145 173.40471 121.13477 172.60352 C 121.27783 170.03443 121.31193 167.53065 121.91406 166.02539 C 123.43596 162.2208 116.44727 153.87109 116.44727 153.87109 C 121.38522 158.30894 124.60033 163.61257 123.38281 166.65625 C 122.73347 168.27953 122.83541 170.45931 123.03906 172.49609 C 124.69031 172.49204 126.26986 172.74268 127.76172 173.35156 C 136.19625 176.79397 158.28609 181.81669 166.42383 170.50977 C 174.56157 159.20283 173.90618 154.82102 183.91797 144.85352 C 193.92977 134.88602 216.32889 123.63822 211.69531 118.43945 C 207.06175 113.24068 183.33071 99.844172 172.81836 97.292969 C 164.27708 95.220115 164.39875 92.509669 156.19727 92.392578 z M 204.84961 203.0332 C 200.636 203.02955 193.50159 207.47846 195.2832 211.29688 C 197.58054 216.22061 209.88895 213.91419 211.37305 208.6875 C 212.15895 205.91969 207.72684 203.03569 204.84961 203.0332 z "
     id="path4151" />
  <path
     style="fill:#deeff0;fill-opacity:1;fill-rule:evenodd;stroke:none;stroke-width:1.17697763px;stroke-linecap:butt;stroke-linejoin:miter;stroke-opacity:1"
     d="M 107.97333,65.749136 C 93.767553,65.77477 79.474723,72.023272 79.474723,72.023272 79.474723,72.023272 56.792651,89.568185 47.163225,94.706976 37.5338,99.845759 39.246912,119.66204 58.173686,114.94805 72.983454,111.25946 75.097099,113.02094 82.623583,113.60386 88.360236,107.29082 89.460679,106.30117 97.903682,101.68858 106.4942,96.995401 133.04591,94.307048 148.98173,92.76702 157.031,91.989145 160.34645,92.501894 163.01321,93.527861 163.05121,93.177144 163.0111,92.829248 162.86427,92.485274 159.04322,83.534029 123.99015,66.167873 109.34731,65.766512 108.88972,65.75397 108.43158,65.748309 107.97333,65.749136 Z M 518.64567,109.47571 C 517.77067,109.50096 516.96429,109.58331 516.23904,109.72891 504.63494,112.05853 495.91858,114.91496 487.25513,113.33576 478.5917,111.75656 458.77982,113.9512 451.17792,117.46391 443.576,120.97663 446.27538,117.01174 440.32136,120.29255 434.36734,123.57335 421.7109,124.42886 418.53627,140.54107 415.36163,156.65328 406.23506,169.14131 415.07711,168.12244 423.91917,167.10357 432.10236,166.87068 431.44076,172.82774 430.77916,178.78481 435.84045,190.23029 446.68487,187.21791 457.52928,184.20554 469.94364,183.29377 473.20876,189.33163 476.47389,195.36949 487.66731,202.67117 496.41128,195.01249 505.15525,187.35381 515.22332,167.7809 526.92803,166.92099 538.63275,166.06109 551.1476,166.61915 549.50499,158.24642 547.86239,149.87369 548.72682,141.68553 554.27607,139.43146 559.82531,137.17738 567.20088,130.35785 563.68169,125.81577 560.38245,121.55757 531.77075,109.09701 518.64567,109.47571 Z M 58.522455,157.46199 C 55.812362,157.54703 53.519929,158.43776 51.995125,160.0846 45.024597,167.61299 3.8226582,185.41076 3.8226582,185.41076 -53.561073,213.50307 -60.044215,233.87201 1.4122958,243.93338 1.4122958,243.93338 27.784927,243.84283 37.940058,251.59019 48.095188,259.33753 77.806084,271.55578 98.456004,265.97663 119.10592,260.3975 154.16961,257.08298 157.66871,250.91746 157.66871,250.91746 93.057786,218.36741 87.523739,189.60097 83.20026,167.12718 68.20136,157.15831 58.522455,157.46199 Z"
     class="LAND"
     id="path4139"
     inkscape:connector-curvature="0" />
  <path
     class="ROUTE"
     locationid="356"
     style="fill:none;fill-rule:evenodd;stroke:#000000;stroke-width:4;stroke-linecap:butt;stroke-linejoin:miter;stroke-opacity:1"
     d="M 587.84305,361.25442 587.84305,304.1047"
     id="unova-route-1"
     inkscape:connector-curvature="0"
     sodipodi:nodetypes="cc" />
  <path
     class="ROUTE"
     locationid="357"
     style="fill:none;fill-rule:evenodd;stroke:#000000;stroke-width:4;stroke-linecap:butt;stroke-linejoin:miter;stroke-opacity:1"
     d="M 587.84305,304.1047 562.29519,278.43575"
     id="unova-route-2"
     inkscape:connector-curvature="0"
     sodipodi:nodetypes="cc" />
  <path
     class="ROUTE"
     locationid="358"
     style="fill:none;fill-rule:evenodd;stroke:#000000;stroke-width:4;stroke-linecap:butt;stroke-linejoin:miter;stroke-opacity:1"
     d="M 492.55315,278.43575 562.29519,278.43575"
     id="unova-route-3"
     inkscape:connector-curvature="0"
     sodipodi:nodetypes="cc" />
  <path
     class="ROUTE"
     locationid="359"
     style="fill:none;fill-rule:evenodd;stroke:#000000;stroke-width:4;stroke-linecap:butt;stroke-linejoin:miter;stroke-opacity:1"
     d="M 305.72923,215.206 305.72923,311.85381"
     id="unova-route-4"
     inkscape:connector-curvature="0"
     sodipodi:nodetypes="cc" />
  <path
     class="ROUTE"
     locationid="360"
     style="fill:none;fill-rule:evenodd;stroke:#000000;stroke-width:4;stroke-linecap:butt;stroke-linejoin:miter;stroke-opacity:1"
     d="M 142.82032,215.206 305.72923,215.206"
     id="unova-route-5"
     inkscape:connector-curvature="0"
     sodipodi:nodetypes="cc" />
  <path
     class="ROUTE"
     locationid="361"
     style="fill:none;fill-rule:evenodd;stroke:#000000;stroke-width:4;stroke-linecap:butt;stroke-linejoin:miter;stroke-opacity:1"
     d="M 55.884931,152.32446 142.82032,215.206"
     id="unova-route-6"
     inkscape:connector-curvature="0"
     sodipodi:nodetypes="cc" />
  <path
     class="ROUTE"
     locationid="362"
     style="fill:none;fill-rule:evenodd;stroke:#000000;stroke-width:4;stroke-linecap:butt;stroke-linejoin:miter;stroke-opacity:1"
     d="M 55.884931,152.32446 142.82032,89.843742"
     id="unova-route-7"
     inkscape:connector-curvature="0"
     sodipodi:nodetypes="cc" />
  <path
     class="ROUTE"
     locationid="363"
     style="fill:none;fill-rule:evenodd;stroke:#000000;stroke-width:4;stroke-linecap:butt;stroke-linejoin:miter;stroke-opacity:1"
     d="M 142.82032,89.843742 249.37066,89.843742"
     id="unova-route-8"
     inkscape:connector-curvature="0"
     sodipodi:nodetypes="cc" />
  <path
     class="ROUTE"
     locationid="364"
     style="fill:none;fill-rule:evenodd;stroke:#000000;stroke-width:4;stroke-linecap:butt;stroke-linejoin:miter;stroke-opacity:1"
     d="M 249.37066,89.843742 305.72923,89.843742"
     id="unova-route-9"
     inkscape:connector-curvature="0"
     sodipodi:nodetypes="cc" />
  <path
     class="ROUTE"
     locationid="365"
     style="fill:none;fill-rule:evenodd;stroke:#000000;stroke-width:4;stroke-linecap:butt;stroke-linejoin:miter;stroke-opacity:1"
     d="M 305.72923,89.843742 323.52557,52.258445 370.02026,52.258445"
     id="unova-route-10"
     inkscape:connector-curvature="0"
     sodipodi:nodetypes="ccc" />
  <path
     class="ROUTE"
     locationid="366"
     style="fill:none;fill-rule:evenodd;stroke:#000000;stroke-width:4;stroke-linecap:butt;stroke-linejoin:miter;stroke-opacity:1"
     d="M 305.72923,89.843742 375.58993,89.843742"
     id="unova-route-11"
     inkscape:connector-curvature="0"
     sodipodi:nodetypes="cc" />
  <path
     class="ROUTE"
     locationid="367"
     style="fill:none;fill-rule:evenodd;stroke:#000000;stroke-width:4;stroke-linecap:butt;stroke-linejoin:miter;stroke-opacity:1"
     d="M 375.58993,89.843742 468.57932,89.843742"
     id="unova-route-12"
     inkscape:connector-curvature="0"
     sodipodi:nodetypes="cc" />
  <path
     class="ROUTE"
     locationid="368"
     style="fill:none;fill-rule:evenodd;stroke:#000000;stroke-width:4;stroke-linecap:butt;stroke-linejoin:miter;stroke-opacity:1"
     d="M 468.57932,89.843742 560.35791,152.32446"
     id="unova-route-13"
     inkscape:connector-curvature="0"
     sodipodi:nodetypes="cc" />
  <path
     class="ROUTE"
     locationid="369"
     style="fill:none;fill-rule:evenodd;stroke:#000000;stroke-width:4;stroke-linecap:butt;stroke-linejoin:miter;stroke-opacity:1"
     d="M 468.57932,215.206 560.35791,152.32446"
     id="unova-route-14"
     inkscape:connector-curvature="0"
     sodipodi:nodetypes="cc" />
  <path
     class="ROUTE"
     locationid="370"
     style="fill:none;fill-rule:evenodd;stroke:#000000;stroke-width:4;stroke-linecap:butt;stroke-linejoin:miter;stroke-opacity:1"
     d="M 425.90519,215.206 468.57932,215.206"
     id="unova-route-15"
     inkscape:connector-curvature="0"
     sodipodi:nodetypes="cc" />
  <path
     class="ROUTE"
     locationid="371"
     style="fill:none;fill-rule:evenodd;stroke:#000000;stroke-width:4;stroke-linecap:butt;stroke-linejoin:miter;stroke-opacity:1"
     d="M 305.72923,215.206 425.90519,215.206"
     id="unova-route-16"
     inkscape:connector-curvature="0"
     sodipodi:nodetypes="cc" />
  <path
     class="ROUTE"
     locationid=""
     style="fill:none;fill-rule:evenodd;stroke:#000000;stroke-width:4;stroke-linecap:butt;stroke-linejoin:miter;stroke-opacity:1"
     d="M 533.236,373.60457 587.84305,360.7701"
     id="unova-route-17"
     inkscape:connector-curvature="0"
     sodipodi:nodetypes="cc" />
  <path
     class="ROUTE"
     locationid="372"
     style="fill:none;fill-rule:evenodd;stroke:#000000;stroke-width:4;stroke-linecap:butt;stroke-linejoin:miter;stroke-opacity:1"
     d="M 504.66114,373.60457 533.236,373.60457"
     id="unova-route-18"
     inkscape:connector-curvature="0"
     sodipodi:nodetypes="cc" />
  <circle
     r="6.3215175"
     locationid="347"
     cy="304.45624"
     cx="587.67749"
     id="accumula-town"
     style="opacity:1;fill:#000000;fill-opacity:1;stroke:#000000;stroke-width:0.20791896;stroke-opacity:1"
     class="LANDMARK" />
  <circle
     class="LANDMARK"
     style="opacity:1;fill:#000000;fill-opacity:1;stroke:#000000;stroke-width:0.20791896;stroke-opacity:1"
     id="anville-town"
     cx="18.514606"
     cy="63.001785"
     locationid="385"
     r="6.3215175" />
  <circle
     class="LANDMARK"
     style="opacity:1;fill:#000000;fill-opacity:1;stroke:#000000;stroke-width:0.20791896;stroke-opacity:1"
     id="black-city"
     cx="468.82513"
     cy="215.10475"
     locationid="392"
     r="6.3215175" />
  <circle
     class="LANDMARK"
     style="opacity:1;fill:#000000;fill-opacity:1;stroke:#000000;stroke-width:0.20791896;stroke-opacity:1"
     id="castelia-city"
     cx="306"
     cy="310.51575"
     locationid="350"
     r="6.3215175" />
  <circle
     class="LANDMARK"
     style="opacity:1;fill:#000000;fill-opacity:1;stroke:#000000;stroke-width:0.20791896;stroke-opacity:1"
     id="driftveil-city"
     cx="143.17485"
     cy="215.10475"
     locationid="352"
     r="6.3215175" />
  <circle
     r="6.3215175"
     locationid="354"
     cy="89.665955"
     cx="143.17485"
     id="icirrus-city"
     style="opacity:1;fill:#000000;fill-opacity:1;stroke:#000000;stroke-width:0.20791896;stroke-opacity:1"
     class="LANDMARK" />
  <circle
     r="6.3215175"
     locationid="383"
     cy="89.665955"
     cx="468.82513"
     id="lacunosa-town"
     style="opacity:1;fill:#000000;fill-opacity:1;stroke:#000000;stroke-width:0.20791896;stroke-opacity:1"
     class="LANDMARK" />
  <circle
     r="6.3215175"
     locationid="396"
     cy="152.38535"
     cx="56.528305"
     id="mistralton-city"
     style="opacity:1;fill:#000000;fill-opacity:1;stroke:#000000;stroke-width:0.20791896;stroke-opacity:1"
     class="LANDMARK" />
  <circle
     class="LANDMARK"
     style="opacity:1;fill:#000000;fill-opacity:1;stroke:#000000;stroke-width:0.20791896;stroke-opacity:1"
     id="nacrene-city"
     cx="494.44574"
     cy="277.83292"
     locationid="349"
     r="6.3215175" />
  <circle
     locationid="351"
     cy="215.10475"
     cx="306"
     id="nimbasa-city"
     style="opacity:1;fill:#000000;fill-opacity:1;stroke:#000000;stroke-width:0.20791896;stroke-opacity:1"
     class="LANDMARK"
     r="6.3215175" />
  <circle
     class="LANDMARK"
     style="opacity:1;fill:#000000;fill-opacity:1;stroke:#000000;stroke-width:0.20791896;stroke-opacity:1"
     id="nuvema-city"
     cx="587.67749"
     cy="359.93063"
     locationid="346"
     r="6.3215175" />
  <circle
     class="LANDMARK"
     style="opacity:1;fill:#000000;fill-opacity:1;stroke:#000000;stroke-width:0.20791896;stroke-opacity:1"
     id="opelucid-city"
     cx="306"
     cy="89.665947"
     locationid="355"
     r="6.3215175" />
  <circle
     class="LANDMARK"
     style="opacity:1;fill:#000000;fill-opacity:1;stroke:#000000;stroke-width:0.20791896;stroke-opacity:1"
     id="unova-pokemon-league"
     cx="382.3797"
     cy="10.112075"
     locationid="548"
     r="6.3215175" />
  <circle
     r="6.3215175"
     locationid="striaton"
     cy="277.83292"
     cx="561.28186"
     id="striaton-city"
     style="opacity:1;fill:#000000;fill-opacity:1;stroke:#000000;stroke-width:0.20791896;stroke-opacity:1"
     class="LANDMARK" />
  <circle
     r="6.3215175"
     locationid="384"
     cy="152.38535"
     cx="559.82886"
     id="undella-town"
     style="opacity:1;fill:#000000;fill-opacity:1;stroke:#000000;stroke-width:0.20791896;stroke-opacity:1"
     class="LANDMARK" />
  <circle
     class="LANDMARK"
     style="opacity:1;fill:#000000;fill-opacity:1;stroke:#000000;stroke-width:0.20791896;stroke-opacity:1"
     id="abundant-shrine"
     cx="478.54367"
     cy="164.0358"
     locationid="412"
     r="6.3215175" />
  <circle
     class="LANDMARK"
     style="opacity:1;fill:#000000;fill-opacity:1;stroke:#000000;stroke-width:0.20791896;stroke-opacity:1"
     id="abyssal-ruins"
     cx="589.82886"
     cy="152.38535"
     locationid="428"
     r="6.3215175" />
  <circle
     class="LANDMARK"
     style="opacity:1;fill:#000000;fill-opacity:1;stroke:#000000;stroke-width:0.20791896;stroke-opacity:1"
     id="celestial-tower"
     cx="93.172142"
     cy="91.426445"
     locationid="398"
     r="6.3215175" />
  <circle
     class="LANDMARK"
     style="opacity:1;fill:#000000;fill-opacity:1;stroke:#000000;stroke-width:0.20791896;stroke-opacity:1"
     id="challengers-cave"
     cx="279.9726"
     cy="102.04288"
     locationid="401"
     r="6.3215175" />
  <circle
     r="6.3215175"
     locationid="379"
     cy="187.65932"
     cx="51.048851"
     id="chargestone-cave"
     style="opacity:1;fill:#000000;fill-opacity:1;stroke:#000000;stroke-width:0.20791896;stroke-opacity:1"
     class="LANDMARK" />
  <circle
     r="6.3215175"
     locationid="378"
     cy="244.85109"
     cx="124.67899"
     id="cold-storage"
     style="opacity:1;fill:#000000;fill-opacity:1;stroke:#000000;stroke-width:0.20791896;stroke-opacity:1"
     class="LANDMARK" />
  <path
     class="ROUTE"
     locationid="376"
     style="fill:none;fill-rule:evenodd;stroke:#000000;stroke-width:4;stroke-linecap:butt;stroke-linejoin:miter;stroke-opacity:1"
     d="M 270.136,250.33054 305.72923,250.33054"
     id="desert-resort"
     inkscape:connector-curvature="0"
     sodipodi:nodetypes="cc" />
  <circle
     r="6.3215175"
     locationid="381"
     cy="47.933292"
     cx="112.69269"
     id="dragonspiral-tower"
     style="opacity:1;fill:#000000;fill-opacity:1;stroke:#000000;stroke-width:0.20791896;stroke-opacity:1"
     class="LANDMARK" />
  <circle
     class="LANDMARK"
     style="opacity:1;fill:#000000;fill-opacity:1;stroke:#000000;stroke-width:0.20791896;stroke-opacity:1"
     id="dreamyard"
     cx="592.84308"
     cy="261.86838"
     locationid="374"
     r="6.3215175" />
  <circle
     r="6.3215175"
     locationid="411"
     cy="162.65932"
     cx="306"
     id="entralink"
     style="opacity:1;fill:#000000;fill-opacity:1;stroke:#000000;stroke-width:0.20791896;stroke-opacity:1"
     class="LANDMARK" />
  <circle
     r="6.3215175"
     locationid="403"
     cy="48.767708"
     cx="491.13599"
     id="giant-chasm"
     style="opacity:1;fill:#000000;fill-opacity:1;stroke:#000000;stroke-width:0.20791896;stroke-opacity:1"
     class="LANDMARK" />
  <circle
     class="LANDMARK"
     style="opacity:1;fill:#000000;fill-opacity:1;stroke:#000000;stroke-width:0.20791896;stroke-opacity:1"
     id="liberty-garden"
     cx="164.06256"
     cy="346.56342"
     locationid="404"
     r="6.3215175" />
  <circle
     class="LANDMARK"
     style="opacity:1;fill:#000000;fill-opacity:1;stroke:#000000;stroke-width:0.20791896;stroke-opacity:1"
     id="lostlorn-forest"
     cx="366.45984"
     cy="202.38533"
     locationid="414"
     r="6.3215175" />
  <circle
     class="LANDMARK"
     style="opacity:1;fill:#000000;fill-opacity:1;stroke:#000000;stroke-width:0.20791896;stroke-opacity:1"
     id="mistralton-cave"
     cx="135.98036"
     cy="158.20726"
     locationid="353"
     r="6.3215175" />
  <circle
     class="LANDMARK"
     style="opacity:1;fill:#000000;fill-opacity:1;stroke:#000000;stroke-width:0.20791896;stroke-opacity:1"
     id="moor-of-icirrus"
     cx="163.03516"
     cy="59.234661"
     locationid="399"
     r="6.3215175" />
  <circle
     r="6.3215175"
     locationid="405"
     cy="344.20273"
     cx="561.84662"
     id="p2-laboratory"
     style="opacity:1;fill:#000000;fill-opacity:1;stroke:#000000;stroke-width:0.20791896;stroke-opacity:1"
     class="LANDMARK" />
  <circle
     r="6.3215175"
     locationid="375"
     cy="299.64532"
     cx="472.73181"
     id="pinwheel-forest"
     style="opacity:1;fill:#000000;fill-opacity:1;stroke:#000000;stroke-width:0.20791896;stroke-opacity:1"
     class="LANDMARK" />
  <circle
     r="6.3215175"
     locationid="402"
     cy="199.87546"
     cx="443.67264"
     id="poke-transfer-lab"
     style="opacity:1;fill:#000000;fill-opacity:1;stroke:#000000;stroke-width:0.20791896;stroke-opacity:1"
     class="LANDMARK" />
  <circle
     r="6.3215175"
     locationid="550"
     cy="250.33054"
     cx="269.88449"
     id="relic-castle"
     style="opacity:1;fill:#000000;fill-opacity:1;stroke:#000000;stroke-width:0.20791896;stroke-opacity:1"
     class="LANDMARK" />
  <circle
     r="6.3215175"
     locationid="380"
     cy="115.05658"
     cx="135.98036"
     id="twist-mountain"
     style="opacity:1;fill:#000000;fill-opacity:1;stroke:#000000;stroke-width:0.20791896;stroke-opacity:1"
     class="LANDMARK" />
  <circle
     r="6.3215175"
     locationid="413"
     cy="165.2363"
     cx="589.82886"
     id="undella-bay"
     style="opacity:1;fill:#000000;fill-opacity:1;stroke:#000000;stroke-width:0.20791896;stroke-opacity:1"
     class="LANDMARK" />
  <path
     class="ROUTE"
     locationid="382"
     style="fill:none;fill-rule:evenodd;stroke:#000000;stroke-width:4;stroke-linecap:butt;stroke-linejoin:miter;stroke-opacity:1"
     d="M 382.5001,10.37696 382.5001,37.628548"
     id="unova-victory-road"
     inkscape:connector-curvature="0"
     sodipodi:nodetypes="cc" />
  <path
     class="ROUTE"
     locationid="548"
     style="fill:none;fill-rule:evenodd;stroke:#000000;stroke-width:4;stroke-linecap:butt;stroke-linejoin:miter;stroke-opacity:1"
     d="M 370.02026,52.258445 382.5001,37.628548"
     id="unova-victory-road-2"
     inkscape:connector-curvature="0"
     sodipodi:nodetypes="cc" />
  <circle
     class="LANDMARK"
     style="opacity:1;fill:#000000;fill-opacity:1;stroke:#000000;stroke-width:0.20791896;stroke-opacity:1"
     id="wellspring-cave"
     cx="538.5993"
     cy="256.05655"
     locationid="395"
     r="6.3215175" />
  <circle
     class="LANDMARK"
     style="opacity:1;fill:#000000;fill-opacity:1;stroke:#000000;stroke-width:0.20791896;stroke-opacity:1"
     id="white-forest"
     cx="480.48093"
     cy="226.02872"
     locationid="393"
     r="6.3215175" />
</svg>
