<?xml version="1.0" encoding="UTF-8" standalone="no"?>
<svg
   xmlns:dc="http://purl.org/dc/elements/1.1/"
   xmlns:cc="http://creativecommons.org/ns#"
   xmlns:rdf="http://www.w3.org/1999/02/22-rdf-syntax-ns#"
   xmlns:svg="http://www.w3.org/2000/svg"
   xmlns="http://www.w3.org/2000/svg"
   xmlns:sodipodi="http://sodipodi.sourceforge.net/DTD/sodipodi-0.dtd"
   xmlns:inkscape="http://www.inkscape.org/namespaces/inkscape"
   version="1.1"
   regionID="1"
   id="svg2"
   viewBox="0 0 600 399.99999"
   width="600"
   height="400"
   inkscape:version="0.91 r13725"
   sodipodi:docname="kanto.svg">
  <sodipodi:namedview
     pagecolor="#ffffff"
     bordercolor="#666666"
     borderopacity="1"
     objecttolerance="10"
     gridtolerance="10"
     guidetolerance="10"
     inkscape:pageopacity="0"
     inkscape:pageshadow="2"
     inkscape:window-width="1227"
     inkscape:window-height="1036"
     id="namedview65"
     showgrid="false"
     inkscape:zoom="1.0333333"
     inkscape:cx="767.66206"
     inkscape:cy="166.68538"
     inkscape:window-x="701"
     inkscape:window-y="23"
     inkscape:window-maximized="0"
     inkscape:current-layer="svg2" />
  <defs
     id="defs4">
    <inkscape:perspective
       locationid=""
       sodipodi:type="inkscape:persp3d"
       inkscape:vp_x="0 : 200 : 1"
       inkscape:vp_y="0 : 1000 : 0"
       inkscape:vp_z="600 : 200 : 1"
       inkscape:persp3d-origin="300 : 133.33333 : 1"
       id="perspective4999" />
    <inkscape:perspective
       locationid=""
       sodipodi:type="inkscape:persp3d"
       inkscape:vp_x="0 : 200 : 1"
       inkscape:vp_y="0 : 1000 : 0"
       inkscape:vp_z="600 : 200 : 1"
       inkscape:persp3d-origin="300 : 133.33333 : 1"
       id="perspective4999-9" />
  </defs>
  <metadata
     id="metadata7">
    <rdf:RDF>
      <cc:Work
         rdf:about="">
        <dc:format>image/svg+xml</dc:format>
        <dc:type
           rdf:resource="http://purl.org/dc/dcmitype/StillImage" />
        <dc:title />
      </cc:Work>
    </rdf:RDF>
  </metadata>
  <path
     style="fill:#94ca90;fill-opacity:1;fill-rule:evenodd;stroke:none;stroke-width:4;stroke-linecap:butt;stroke-linejoin:miter;stroke-opacity:1"
     d="M 540.54039,-49.129202 C 540.51835,-49.128589 540.49361,-49.119763 540.465,-49.102589 538.63374,-48.003834 -26.127337,-46.539116 -26.127337,-46.539116 L -25.39407,129.9935 -5.6165491,328.86858 C -5.6165491,328.86858 3.5390319,333.99606 6.4690559,327.40352 9.3990729,320.81098 18.556281,324.47456 11.597491,314.2195 4.6387009,303.96445 -1.5874891,302.8651 3.1737879,296.63883 7.9350659,290.41253 -4.8847601,278.693 -4.8847591,278.693 -4.8847591,278.693 5.7369349,279.79089 6.8356889,286.38343 7.9344449,292.97597 8.6668549,295.54006 15.259392,296.63883 21.851931,297.73758 19.655229,302.86453 17.457716,301.76578 15.260203,300.66703 12.696581,296.63854 10.499069,299.2023 8.3015559,301.76607 3.5391819,306.16143 10.864224,309.4577 18.189266,312.75397 18.921867,306.16166 25.148152,305.42915 31.374438,304.69666 42.72854,308.72471 45.292304,306.16095 47.856069,303.59718 36.135475,297.0047 40.530502,296.27219 44.925526,295.53968 46.390726,288.21488 46.390726,292.24366 46.390726,296.27243 47.489626,301.40024 50.785895,301.03398 54.082163,300.66774 47.490103,305.79546 54.08264,306.89421 60.675179,307.99298 68.366807,305.06243 64.338034,302.13242 60.30926,299.2024 57.001291,297.97131 63.238132,297.92056 65.968197,297.89835 68.963826,297.92056 68.963826,297.92056 L 68.963826,300.85068 78.987116,300.85068 C 78.987116,300.85068 83.38238,304.32954 86.312396,301.76578 89.242414,299.20201 89.608475,296.27262 91.805988,298.10388 94.0035,299.93515 96.201633,303.5978 99.497902,302.49904 102.79417,301.40029 94.369991,298.47013 99.131268,298.10388 103.89255,297.73763 103.89307,298.10388 103.89307,298.10388 103.89307,298.10388 102.42706,304.69589 107.18834,304.69589 107.89617,304.69589 109.88783,303.79113 109.88783,303.79113 L 126.60069,303.79113 C 126.60069,303.79113 128.79797,306.52754 130.62923,305.06253 132.46048,303.59751 129.16431,308.35923 133.55934,306.89421 137.95436,305.42921 139.05293,303.23084 139.05293,303.23084 L 148.57506,303.23084 C 148.57506,303.23084 154.43603,305.7957 155.16855,302.86568 155.90105,299.93568 152.23844,298.47051 152.23844,298.47051 L 152.60359,292.24366 C 152.60359,292.24366 155.5337,291.14461 155.5337,294.80713 155.5337,298.46965 159.92889,295.17353 159.92887,299.2023 159.92887,303.23107 163.22538,307.99202 167.25415,300.30072 171.28293,292.60942 169.81815,290.77821 174.57943,290.41197 179.34071,290.04571 186.66531,281.62254 182.6365,275.39625 178.60772,269.16996 173.48029,266.24024 174.2128,261.47896 174.9453,256.71768 165.0574,247.92739 167.98742,242.79986 170.91744,237.67233 167.98618,233.27744 175.31122,235.84122 182.63626,238.40498 183.73583,245.36325 188.86336,242.43322 193.99089,239.50321 195.45552,243.1664 199.85054,240.23638 204.24557,237.30636 206.44375,244.63037 209.00751,242.06659 211.57127,239.50283 202.04896,263.30931 216.33279,279.05815 218.50768,283.79435 236.79616,304.21037 236.99881,296.43185 236.97707,291.20739 236.84211,279.42478 236.84211,279.42478 L 240.87063,279.42478 240.87063,295.90704 246.73086,294.80713 C 246.73086,294.80713 241.96992,300.30077 245.63243,301.76578 249.29496,303.23079 250.02709,302.49885 256.61962,296.63883 263.21215,290.77878 263.9447,292.97564 269.43849,287.48186 274.93227,281.98808 274.56554,281.62218 277.49556,275.02961 280.42557,268.43708 254.05566,239.50421 273.46702,239.13796 292.8784,238.7717 264.31158,224.85382 277.13041,218.99381 289.94923,213.13378 263.21244,197.01786 276.76377,194.08785 290.31509,191.15784 298.73809,204.71016 297.27308,213.50021 295.80807,222.29026 306.06313,228.88256 308.62689,228.88256 L 308.62689,238.40469 306.06342,238.40469 306.06342,328.50342 325.84093,328.86858 326.20757,334.36216 336.09632,335.09543 C 336.09632,335.09543 333.16601,342.05408 338.6598,342.05408 344.15358,342.05408 344.52003,342.42072 344.52003,342.42072 344.52003,342.42072 343.42218,350.11159 349.64847,351.94284 355.87474,353.77411 358.43798,355.97138 367.59429,355.97138 376.75059,355.97138 376.01781,362.19744 381.51159,359.99992 387.00537,357.80241 389.56918,362.92993 394.33046,359.99992 399.09174,357.0699 399.45875,354.14084 406.41754,355.23959 413.37633,356.33833 417.4044,344.98423 429.85696,346.44925 442.30954,347.91426 448.16961,345.71612 454.02964,350.11115 459.88968,354.50617 454.76291,346.81479 466.11673,347.18104 477.47054,347.54729 489.55639,345.71661 485.52761,342.05408 481.49884,338.39156 474.90674,327.40458 476.00549,325.57332 477.10425,323.74206 476.37064,290.04681 476.37064,290.04681 L 519.22242,289.68017 518.85579,283.81995 528.3794,284.18658 528.3794,255.98537 524.82541,255.98537 524.82541,246.92005 527.64614,246.92005 527.64614,243.64696 518.84545,243.64696 518.84545,240.1876 527.39924,240.1876 527.39924,225.58582 524.82541,225.58582 524.82541,230.98776 523.69003,230.98776 523.69003,221.14482 521.23743,221.14482 521.23743,217.43709 524.52235,217.43709 524.52235,215.05693 518.84545,215.05693 518.84545,212.49197 523.69003,212.49197 523.69003,208.41761 527.39924,208.41761 527.39924,205.89997 523.69003,205.89997 523.69003,202.1464 521.23743,202.05475 521.23743,198.48302 C 521.23743,198.48302 526.91401,200.22367 528.01276,199.3996 529.11152,198.57553 530.8515,196.56102 531.12619,197.84289 531.40088,199.12477 532.31551,202.51265 534.42146,202.1464 536.52741,201.78014 535.88641,199.30704 538.63331,199.85641 541.3802,200.40579 539.09246,195.46116 542.75498,195.36959 546.4175,195.27803 545.40907,192.98975 547.24033,191.891 549.07159,190.79225 547.88247,190.79173 549.80529,189.96766 551.72811,189.14359 544.40188,183.55825 547.24033,181.4523 550.07878,179.34635 550.90366,170.46555 546.6002,166.6199 542.29674,162.77426 544.49439,160.66721 542.48001,158.46969 540.46562,156.27218 544.49344,155.6319 544.40188,153.43438 544.31032,151.23688 546.1428,150.50405 545.59343,148.85591 545.04405,147.20778 543.0291,145.83491 545.04349,143.72895 547.05787,141.623 549.71306,139.33392 549.16367,135.21358 548.6143,131.09325 547.88237,123.31068 549.71363,121.2963 551.54489,119.28191 550.5365,114.0622 552.82558,110.76592 555.11466,107.46966 546.60053,102.25061 551.17869,98.038715 555.75684,93.826817 556.39763,91.994888 552.46042,88.881745 548.52321,85.768603 549.25453,86.317981 547.05701,83.204838 544.85951,80.091696 538.81711,76.978742 536.43647,77.711247 534.05583,78.443751 527.92101,82.290209 527.82944,85.586478 527.73789,88.882746 523.15987,87.874934 523.70926,92.086833 524.25863,96.298733 521.60327,107.01242 525.08265,108.47743 528.56205,109.94244 530.30179,107.74368 529.38616,115.80123 528.47052,123.85877 529.02049,134.29734 529.93611,138.87549 530.85175,143.45364 529.29521,147.75795 525.72426,148.21578 522.15329,148.67359 518.12314,151.23607 514.46062,148.39761 510.7981,145.55917 506.22024,143.08733 506.22024,143.08733 506.22024,143.08733 511.98938,143.36166 515.37721,145.55917 518.76505,147.75668 525.99795,146.20115 526.18108,143.72895 526.3642,141.25674 526.2734,117.54107 526.91434,114.51949 527.55528,111.49791 521.51184,111.95601 520.96246,109.11755 520.41309,106.2791 517.66575,93.093645 519.13077,88.881745 520.59578,84.669847 524.62487,77.161868 526.5477,74.872793 528.47052,72.583717 521.78695,64.892471 522.79415,62.14558 523.80134,59.39869 520.77948,52.165878 514.00381,51.433374 507.22815,50.700869 485.34448,50.426276 479.8507,51.525032 474.35692,52.623788 470.14531,51.066787 468.77186,49.693343 467.39843,48.319897 457.87581,50.975128 455.95299,52.440138 454.03016,53.905146 452.9313,54.912482 453.02288,56.835306 453.11444,58.75813 453.2062,81.923098 453.2062,81.923098 L 451.19119,81.923098 451.19119,54.455144 452.83957,54.546802 452.93122,45.756466 C 452.93122,45.756466 469.0465,45.023962 470.14526,45.756466 471.24402,46.48897 471.79288,49.510311 473.89882,49.785 476.00477,50.059689 479.1174,50.792527 480.49083,48.686578 481.86428,46.580629 482.04774,46.396596 485.06933,46.396596 488.0909,46.396596 513.0878,45.389308 513.63717,46.304938 514.18655,47.220568 519.22248,48.870038 520.68748,47.588156 522.15249,46.306273 521.51126,44.932732 523.25096,44.658043 524.99067,44.383354 523.70849,39.163975 525.81444,38.70616 527.92039,38.248345 535.33762,33.486114 536.3448,29.274215 537.352,25.062316 536.71077,21.766237 533.23138,15.265262 529.75198,8.7642883 530.48458,-16.872838 530.48458,-16.872838 530.48458,-16.872838 541.92949,-49.168024 540.54039,-49.129202 Z M 444.7825,54.8203 447.48347,54.911957 447.48347,82.014757 444.96433,82.198074 C 444.96433,82.198074 444.96539,85.951634 443.13412,85.951634 441.30287,85.951634 430.40576,84.67037 429.30701,87.966639 428.20826,91.262909 428.30025,92.636783 428.30025,92.636783 L 410.99455,92.820101 411.26952,90.255143 425.46179,90.164963 C 425.46179,90.164963 424.72905,85.860404 426.65187,84.853211 428.57469,83.846017 427.65888,82.839777 432.14546,82.931341 436.63205,83.022903 442.85924,82.83992 442.9508,78.811148 443.04236,74.782374 442.7675,69.654178 442.7675,69.654178 442.7675,69.654178 445.78926,69.836636 445.78926,69.012569 445.78926,68.188501 444.7825,54.8203 444.7825,54.8203 Z M 515.37721,198.80383 518.84545,198.80383 518.84545,202.41989 515.37721,202.32824 515.37721,198.80383 Z M 518.84545,204.48074 521.23743,204.48074 521.23743,209.92849 515.37721,209.83684 515.37721,207.77748 518.84545,207.77748 518.84545,204.48074 Z M 189.55524,205.71221 C 189.73921,205.70775 189.91557,205.71201 190.07414,205.7196 190.49701,205.73984 190.79703,205.78908 190.79706,205.78908 192.35094,205.91857 193.51664,207.47282 193.38715,209.0267 193.25765,210.58057 189.37292,211.74589 187.68954,208.37917 186.58483,206.16975 188.26737,205.74343 189.55524,205.71221 Z M 423.61975,208.24907 432.42487,208.24907 432.68359,211.22797 423.35956,210.70906 423.61975,208.24907 Z M 515.37721,217.34543 518.84545,217.34543 518.84545,223.84578 520.93437,223.84578 520.93437,228.37844 515.37721,228.37844 515.37721,217.34543 Z M 412.02053,217.91904 C 412.32526,217.88897 412.54051,217.97783 412.61336,218.22062 413.00183,219.51552 419.54095,219.12686 419.54095,219.12686 L 419.54095,226.05446 431.2274,226.05446 431.2274,229.74445 420.25205,229.74445 420.25205,244.11855 431.2274,244.11855 431.2274,241.2047 434.23734,241.2047 434.23734,244.11855 446.47374,244.11855 446.47374,248.58468 434.23734,248.58468 434.23734,264.05869 440.06504,264.05869 440.06504,253.11734 450.94135,253.11734 450.94135,239.52086 454.82648,239.52086 C 455.08546,259.46226 463.50223,254.47771 462.07785,262.1176 460.65346,269.75749 435.14311,285.94363 428.40965,287.36802 421.67618,288.79241 402.38322,273.12391 395.77925,269.62768 389.17527,266.13147 359.13274,268.59127 351.36336,272.99391 343.59397,277.39656 345.40805,285.29609 338.67459,291.77058 331.94112,298.24506 340.87475,299.92814 336.21312,302.12946 331.55149,304.33078 324.30049,319.02713 324.30049,319.02713 L 317.89031,319.02713 317.89031,228.4494 C 317.89031,228.4494 324.81815,227.80204 329.60928,224.04685 334.4004,220.29164 339.32179,221.19906 346.83219,222.36447 354.34259,223.52988 366.3841,234.92456 371.56368,234.2771 376.74327,233.62965 382.8299,225.47184 384.64275,224.17694 386.45561,222.88205 393.83678,228.19077 397.33302,228.83821 400.82923,229.48566 398.62801,225.21205 400.82933,224.95308 403.03067,224.6941 406.26742,223.918 407.04436,221.97566 407.67563,220.39751 410.70006,218.04931 412.02053,217.91904 Z M 515.37721,231.44605 521.23743,231.44605 521.23743,233.46106 524.52235,233.46106 524.52235,237.26044 515.37721,237.26044 515.37721,231.44605 Z M 515.37721,246.92005 521.23743,246.92005 521.23743,250.17097 515.37721,250.17097 515.37721,246.92005 Z M 515.37721,253.23857 521.23743,253.23857 521.23743,258.6405 524.53269,258.6405 524.71602,264.13409 515.37721,263.76746 515.37721,253.23857 Z M 386.35766,275.37703 C 387.58946,275.37274 390.5075,275.51056 394.14714,276.67799 398.99998,278.23456 395.42874,284.00389 393.87217,286.01827 392.31559,288.03266 390.76011,283.17882 390.66856,280.79818 390.57699,278.41755 384.16701,279.88227 381.60325,277.68475 379.03948,275.48724 385.72344,275.39625 385.72344,275.39625 385.72344,275.39625 385.94705,275.37846 386.35766,275.37703 Z M 355.73487,287.35915 C 355.93087,287.34484 356.05717,287.39168 356.05717,287.39168 356.05717,287.39168 367.13644,287.11702 368.96769,288.85673 370.79895,290.59643 370.5243,295.44846 370.43274,298.01222 370.34118,300.57599 366.3116,300.21021 362.55752,301.30897 358.80344,302.40771 358.43761,301.39953 355.87384,298.92732 353.31008,296.45512 353.12752,297.27933 353.58534,291.96868 353.92871,287.98568 355.14688,287.40207 355.73487,287.35915 Z M 66.775851,289.11397 C 67.728088,289.02232 68.761526,291.81025 72.443889,292.54672 76.976027,293.45314 77.752685,297.53323 77.752685,297.53323 L 71.407557,297.53323 71.407557,294.29563 62.472342,294.29563 62.472342,292.93554 C 62.472341,292.93552 64.803865,291.76974 66.098762,289.69792 66.341555,289.30945 66.556105,289.13511 66.775851,289.11397 Z M 389.34542,291.12454 C 390.74247,291.12454 390.70171,291.5462 390.94206,294.35032 391.21674,297.55503 398.35871,300.66717 400.92247,303.32249 403.48623,305.97782 397.99366,306.06938 394.97207,306.16095 391.9505,306.25251 396.16123,303.78084 393.87217,302.40739 391.58308,301.03395 391.6746,298.10397 389.56865,295.35708 387.46271,292.61019 386.73101,298.46998 383.25162,299.38562 379.77222,300.30125 380.32154,298.83667 381.78656,295.5404 383.25156,292.24413 388.65355,291.14523 388.65355,291.14523 388.91679,291.13379 389.14584,291.12454 389.34542,291.12454 Z M 148.9062,292.93554 148.9062,300.12184 140.81366,300.12184 C 139.76968,300.12184 145.34543,297.4677 145.47493,295.78433 145.60442,294.10097 148.9062,292.93554 148.9062,292.93554 Z M 491.7116,296.39489 C 486.70854,296.4427 481.50111,298.60126 483.83193,308.21588 487.9756,325.3085 491.34194,331.52329 498.59337,330.48738 505.84479,329.45146 507.65765,328.67406 511.54235,323.75345 515.42702,318.83285 527.08154,325.56748 528.37644,321.16484 529.67133,316.76219 536.66376,303.81222 525.52764,301.99936 514.39153,300.1865 502.99671,300.1866 499.37099,297.5968 499.37099,297.5968 495.60287,296.35772 491.7116,296.39489 Z M 109.60694,296.82066 C 109.60694,296.82066 110.12424,297.20886 111.67812,297.07937 113.232,296.94988 113.74991,298.11491 113.8794,298.89185 114.00889,299.66879 126.24588,298.37441 126.24588,298.37441 L 126.24588,300.44561 110.12437,300.44561 C 110.12437,300.44561 110.08247,299.72216 110.18054,298.86819 110.29286,297.89009 109.60694,296.82066 109.60694,296.82066 Z"
     class="LAND"
     id="path6156"
     inkscape:connector-curvature="0" />
  <path
     style="fill:#679363;fill-opacity:1;fill-rule:evenodd;stroke:none;stroke-width:4;stroke-linecap:butt;stroke-linejoin:miter;stroke-opacity:1"
     d="M 201.80346,90.154614 C 197.91878,90.154614 153.63253,99.996065 153.63253,99.996065 L 153.37382,175.61868 C 153.37382,175.61868 143.53364,195.30065 168.13673,194.78268 192.73976,194.26473 208.53698,191.67407 220.45003,176.91225 232.36308,162.15042 259.11947,143.85881 252.64499,131.94576 246.1705,120.03271 235.98888,120.71421 228.99643,105.95238 222.00399,91.190561 205.68815,90.154614 201.80346,90.154614 Z M 255.67051,94.815887 C 250.49093,94.815887 246.34838,95.463632 247.38429,97.405977 249.45613,101.29067 259.29679,99.996013 258.00188,107.24743 256.70699,114.49885 254.11773,129.26126 257.48446,138.32554 260.8512,147.38982 260.59233,162.15037 255.93071,171.21464 251.26907,180.27892 255.67059,203.58768 251.26795,205.14155 246.8653,206.69543 239.09598,207.73212 244.01658,214.46559 248.9372,221.19904 249.19661,222.75216 247.90172,231.03949 246.60682,239.32684 255.41271,233.11148 253.0819,242.4347 250.75109,251.75796 259.29619,263.6703 252.8217,264.70621 246.34722,265.74213 251.00951,270.66304 250.75053,280.24527 250.58211,286.47686 246.37237,291.49524 244.01068,295.31716 L 246.73086,294.80713 C 246.73086,294.80713 241.96992,300.30077 245.63243,301.76578 249.29496,303.23079 250.02709,302.49885 256.61962,296.63883 263.21215,290.77878 263.9447,292.97564 269.43849,287.48186 274.93227,281.98808 274.56554,281.62218 277.49556,275.02961 280.42557,268.43708 254.05566,239.50421 273.46702,239.13796 292.8784,238.7717 264.31158,224.85382 277.13041,218.99381 289.94923,213.13378 263.21244,197.01786 276.76377,194.08785 290.31509,191.15784 298.73809,204.71016 297.27308,213.50021 296.00329,221.11898 303.5313,227.07855 307.23132,228.53367 308.26921,227.89538 308.76143,227.41456 308.76143,227.41456 308.76143,227.41456 310.05738,218.8674 307.72657,212.39292 305.39575,205.91843 306.68935,203.58701 311.86894,204.36395 317.04852,205.14088 322.74608,208.24916 324.8179,203.84652 326.88974,199.44386 324.8179,191.67516 337.76687,191.67516 350.71584,191.67516 355.89679,194.26384 352.27108,187.01241 348.64537,179.76099 343.46453,172.76852 349.16208,171.21464 354.85963,169.66077 357.70887,170.69748 368.84498,170.4385 379.9811,170.17953 378.42778,164.74149 384.12534,169.92108 389.82287,175.10067 397.33343,175.35872 398.36934,172.25098 399.40526,169.14322 405.6202,173.54644 408.98693,174.58235 412.35366,175.61827 414.684,177.94875 415.20197,169.14346 415.71992,160.33816 411.05818,146.6127 416.75572,147.13066 422.45326,147.64862 431.51766,150.23758 428.15093,145.058 424.7842,139.87841 418.3103,142.46812 420.38215,136.51159 422.45397,130.55506 424.52578,122.5271 417.53334,121.75015 410.5409,120.97322 418.05047,114.75735 402.51171,113.46246 386.97296,112.16756 272.50461,108.02504 272.50461,108.02504 L 268.87967,103.36229 C 268.87967,103.36229 276.39021,97.405829 270.17471,96.110932 267.06697,95.463484 260.85009,94.815887 255.67051,94.815887 Z M 388.83834,189.67938 C 388.71925,189.67765 388.59613,189.68124 388.47023,189.69268 384.44146,190.05894 389.20269,200.31442 387.00518,202.87818 384.80766,205.44196 374.18717,205.44243 366.49587,206.17493 358.80457,206.90744 350.74612,208.00567 350.01361,201.41313 349.28111,194.82059 345.61902,197.01896 340.49149,205.07652 337.89654,209.15429 335.96339,215.94021 334.68153,221.66077 334.68642,221.65975 334.69143,221.65882 334.69631,221.65782 335.9617,221.39566 337.28745,221.31904 338.70563,221.36953 338.70966,221.36967 338.71343,221.36939 338.71745,221.36953 338.72337,221.36974 338.72928,221.37079 338.7352,221.37101 339.07723,221.38359 339.43278,221.41003 339.78631,221.43606 340.28797,221.47253 340.80243,221.51882 341.32972,221.57799 341.54348,221.60216 341.76043,221.62606 341.97873,221.65338 342.52704,221.72153 343.10119,221.80128 343.68032,221.88548 344.68482,222.03219 345.72258,222.19229 346.83219,222.36447 354.34259,223.52988 366.3841,234.92456 371.56368,234.2771 376.74327,233.62965 382.8299,225.47184 384.64275,224.17694 386.45561,222.88205 393.83678,228.19077 397.33302,228.83821 400.82923,229.48566 398.62801,225.21205 400.82933,224.95308 403.03067,224.6941 406.26742,223.918 407.04436,221.97566 407.08936,221.86317 407.1495,221.746 407.21733,221.62676 407.23843,221.5897 407.2637,221.552 407.28682,221.51441 407.33028,221.4437 407.3771,221.37225 407.42726,221.30005 407.55566,221.11529 407.70101,220.92773 407.86634,220.73827 407.90595,220.69284 407.94914,220.6492 407.99051,220.60374 408.09852,220.48519 408.21513,220.3693 408.3335,220.25189 408.51187,220.07478 408.69732,219.90541 408.89232,219.73594 408.9749,219.66417 409.05174,219.59268 409.13625,219.52306 409.39248,219.31181 409.65321,219.11318 409.91534,218.93024 409.93881,218.91387 409.96139,218.89458 409.98483,218.87849 410.27695,218.67787 410.56218,218.50357 410.83636,218.35664 411.02778,218.254 411.21082,218.16702 411.38336,218.09792 411.47178,218.06255 411.55881,218.03157 411.64059,218.00626 411.66221,217.99955 411.68454,217.99153 411.70564,217.98556 411.81799,217.95383 411.9246,217.9285 412.02053,217.91904 412.11372,217.90985 412.19543,217.91534 412.27037,217.92938 412.28955,217.93293 412.30575,217.9405 412.32359,217.94565 412.3759,217.96086 412.42242,217.98264 412.46257,218.01217 412.47733,218.02303 412.49243,218.0333 412.50544,218.04617 412.55226,218.09248 412.59126,218.14697 412.61336,218.22062 413.00183,219.51552 419.54095,219.12686 419.54095,219.12686 L 419.54095,220.64957 C 421.66534,218.56234 423.67501,216.62018 424.73001,215.69706 425.68435,214.862 425.42364,213.04709 424.55112,210.77559 L 423.35956,210.70906 423.58723,208.55954 C 421.47136,204.13691 417.98775,198.76083 416.30629,195.18775 413.37629,188.96146 408.98001,195.91954 400.92247,195.91954 393.11672,195.91954 392.53021,189.73308 388.83834,189.67938 Z M 451.87715,190.75267 C 448.99936,190.77251 446.68229,191.39862 446.06424,193.08108 444.41611,197.56768 434.70994,205.80883 439.92904,213.40856 445.14813,221.00828 449.17694,217.62007 452.74791,221.55728 456.31887,225.49449 456.40991,231.07979 462.17837,225.76914 467.94685,220.45849 466.8478,219.45062 481.77258,219.45062 496.69735,219.45062 494.13473,217.16193 499.9032,222.65571 505.67167,228.1495 514.00342,235.20008 499.4449,235.65789 484.88639,236.11572 461.53772,233.00266 459.6149,241.42646 458.74934,245.21841 457.71462,248.48923 456.64043,251.41279 456.6419,251.41648 456.6434,251.41946 456.64486,251.42314 456.79258,251.79499 456.94598,252.13908 457.10316,252.46242 457.11293,252.48253 457.12292,252.50311 457.13273,252.52304 457.32189,252.90757 457.51709,253.25265 457.7152,253.57711 457.88981,253.86301 458.06643,254.12887 458.24446,254.37543 458.33565,254.5018 458.42651,254.62168 458.51795,254.7391 458.65056,254.90924 458.78366,255.07179 458.91563,255.22548 459.0085,255.33374 459.10159,255.44794 459.19357,255.54925 459.36913,255.74262 459.54265,255.92442 459.71248,256.09772 459.96928,256.3598 460.20557,256.59365 460.43981,256.82951 460.45212,256.84186 460.46604,256.85563 460.47825,256.86794 460.48014,256.86985 460.4823,256.87195 460.48418,256.87386 460.88225,257.27624 461.24164,257.67111 461.52642,258.09499 461.59435,258.19592 461.6606,258.29909 461.72008,258.40544 461.73726,258.4362 461.75688,258.4658 461.77331,258.4971 461.85232,258.64738 461.92124,258.80487 461.98175,258.97018 461.99869,259.01648 462.01221,259.06587 462.02758,259.11358 462.07125,259.2489 462.10801,259.39132 462.13846,259.53934 462.14934,259.59233 462.16189,259.64421 462.17098,259.69901 462.20272,259.88994 462.22428,260.09093 462.23307,260.30661 462.23519,260.35855 462.23235,260.4157 462.23307,260.46924 462.23559,260.65711 462.22941,260.85596 462.21385,261.06501 462.20897,261.1306 462.20434,261.19675 462.19759,261.26459 462.17096,261.53254 462.13491,261.81154 462.07785,262.1176 460.65346,269.75749 435.14311,285.94363 428.40965,287.36802 428.21553,287.40908 428.00907,287.43311 427.79465,287.44637 427.71225,287.4515 427.62417,287.44815 427.53889,287.44933 427.40171,287.45116 427.26342,287.45157 427.11904,287.44342 427.01736,287.43775 426.91222,287.42727 426.8071,287.4168 426.66418,287.40246 426.51858,287.38508 426.3695,287.3621 426.2634,287.34585 426.15635,287.3279 426.04722,287.30741 425.90279,287.28014 425.75472,287.24875 425.60519,287.21427 425.46887,287.18297 425.33312,287.15084 425.19273,287.11374 425.07777,287.08323 424.95847,287.0475 424.84088,287.01322 424.67987,286.96644 424.52172,286.92196 424.35598,286.86833 424.35512,286.86805 424.35389,286.86861 424.35302,286.86833 424.35162,286.86788 424.34999,286.86731 424.34858,286.86685 423.81683,286.69455 423.25951,286.48459 422.68395,286.24742 422.15142,286.02799 421.59656,285.77319 421.03262,285.50529 420.77544,285.38287 420.50895,285.24644 420.24613,285.11499 418.58313,284.28472 416.8247,283.29497 415.01718,282.19672 411.32787,282.6332 407.89616,282.72524 406.87435,282.07992 406.08725,281.58281 405.83595,278.92226 405.7848,276.16647 405.77565,276.16024 405.76882,276.15498 405.75967,276.14873 404.319,275.16641 403.04178,274.3005 401.75183,273.42707 400.91414,272.85913 400.0981,272.31054 399.35541,271.82305 398.93153,271.54507 398.51404,271.27287 398.12689,271.02769 397.87452,270.86774 397.61564,270.70188 397.38033,270.55757 397.24991,270.47763 397.12226,270.40025 396.99742,270.32547 396.56035,270.06359 396.14339,269.82046 395.77925,269.62768 389.17527,266.13147 359.13274,268.59127 351.36336,272.99391 343.59397,277.39656 345.40805,285.29609 338.67459,291.77058 331.94112,298.24506 340.87475,299.92814 336.21312,302.12946 336.07276,302.19574 335.92917,302.27485 335.78439,302.36303 335.75747,302.3793 335.73012,302.3993 335.70308,302.41627 335.58376,302.49176 335.46426,302.57252 335.34236,302.66167 335.14249,302.8062 334.93818,302.97545 334.73327,303.15248 334.6102,303.26007 334.48701,303.36944 334.36221,303.48807 331.19027,306.50311 327.5193,312.93812 325.61031,316.50652 325.56551,316.59124 325.50172,316.70709 325.45952,316.78741 325.16368,317.3503 324.92954,317.80698 324.77651,318.10906 329.55543,318.70422 351.78186,321.39318 354.40878,320.07972 357.3388,318.6147 349.6479,310.19087 354.77542,307.26085 359.90295,304.33085 362.83244,302.49837 372.72125,304.69589 382.61006,306.8934 385.54012,302.86549 385.54012,308.35927 385.54012,313.85305 383.70958,318.61466 396.16214,318.61466 408.61472,318.61466 456.59327,327.40414 460.9883,323.74162 465.38331,320.0791 458.05914,278.69261 464.65168,278.32636 471.24421,277.96011 505.30465,277.22823 513.36221,274.66446 521.41975,272.10069 525.08227,276.49557 524.71602,270.26929 524.57163,267.81456 523.62889,265.70777 522.54134,264.04835 L 515.37721,263.76746 515.37721,257.18283 C 513.78838,255.46077 512.31824,253.02135 512.63042,250.03348 513.27135,243.89876 512.72189,227.3251 512.53876,220.91568 512.35563,214.50627 515.92607,210.29556 513.45387,209.28836 510.98166,208.28118 494.95883,208.92216 492.8529,205.07652 490.74695,201.23086 485.71097,201.32213 478.66063,201.96308 471.61027,202.60402 469.87033,195.64542 465.65843,193.63103 463.026,192.37205 456.67348,190.71958 451.87715,190.75267 Z M 233.96077,204.08749 C 232.76224,204.09767 230.90599,204.94706 227.96011,205.40027 221.22664,206.43618 222.00414,217.3143 217.34252,221.71695 212.68089,226.11959 208.53763,217.57325 205.42988,218.86815 202.32212,220.16304 189.37177,217.31425 177.97671,216.01934 166.58161,214.72445 168.65439,219.12708 165.54664,226.11951 164.46598,228.55099 164.74747,230.88385 165.67379,233.02936 164.49176,233.31467 163.44259,234.47513 162.69784,236.99581 159.33111,248.3909 158.03539,254.08922 160.62518,259.2688 163.21498,264.44839 165.8057,269.62706 161.14408,274.54768 157.15923,278.7539 153.94345,285.98579 154.2224,292.20374 154.90006,292.43713 155.5337,293.10461 155.5337,294.80713 155.5337,298.46965 159.92889,295.17353 159.92887,299.2023 159.92887,303.23107 163.22538,307.99202 167.25415,300.30072 171.28293,292.60942 169.81815,290.77821 174.57943,290.41197 179.34071,290.04571 186.66531,281.62254 182.6365,275.39625 178.60772,269.16996 173.48029,266.24024 174.2128,261.47896 174.9453,256.71768 165.0574,247.92739 167.98742,242.79986 170.91744,237.67233 167.98618,233.27744 175.31122,235.84122 182.63626,238.40498 183.73583,245.36325 188.86336,242.43322 193.99089,239.50321 195.45552,243.1664 199.85054,240.23638 204.24557,237.30636 206.44375,244.63037 209.00751,242.06659 211.57127,239.50283 202.04896,263.30931 216.33279,279.05815 218.50768,283.79435 236.79616,304.21037 236.99881,296.43185 236.98227,292.45715 236.91294,286.04615 236.87463,282.55595 235.32986,281.16204 233.54126,279.14683 234.17513,271.69887 235.21105,259.52683 236.766,255.38385 233.14028,246.57854 229.51457,237.77325 236.50672,233.37032 230.55019,231.03949 224.59367,228.70868 236.76575,220.4214 236.2478,210.83917 235.95645,205.44915 235.50176,204.0744 233.96077,204.08749 Z M 386.35766,275.37703 C 387.58946,275.37274 390.5075,275.51056 394.14714,276.67799 398.99998,278.23456 395.42874,284.00389 393.87217,286.01827 392.31559,288.03266 390.76011,283.17882 390.66856,280.79818 390.57699,278.41755 384.16701,279.88227 381.60325,277.68475 379.03948,275.48724 385.72344,275.39625 385.72344,275.39625 385.72344,275.39625 385.94705,275.37846 386.35766,275.37703 Z M 355.73487,287.35915 C 355.83288,287.352 355.91386,287.35958 355.96993,287.36949 356.02601,287.37941 356.05717,287.39168 356.05717,287.39168 356.05717,287.39168 367.13644,287.11702 368.96769,288.85673 370.79895,290.59643 370.5243,295.44846 370.43274,298.01222 370.34118,300.57599 366.3116,300.21021 362.55752,301.30897 358.80344,302.40771 358.43761,301.39953 355.87384,298.92732 353.31008,296.45512 353.12752,297.27933 353.58534,291.96868 353.92871,287.98568 355.14688,287.40207 355.73487,287.35915 Z M 389.34542,291.12454 C 390.74247,291.12454 390.70171,291.5462 390.94206,294.35032 391.21674,297.55503 398.35871,300.66717 400.92247,303.32249 403.48623,305.97782 397.99366,306.06938 394.97207,306.16095 391.9505,306.25251 396.16123,303.78084 393.87217,302.40739 391.58308,301.03395 391.6746,298.10397 389.56865,295.35708 387.46271,292.61019 386.73101,298.46998 383.25162,299.38562 379.77222,300.30125 380.32154,298.83667 381.78656,295.5404 383.25156,292.24413 388.65355,291.14523 388.65355,291.14523 388.91679,291.13379 389.14584,291.12454 389.34542,291.12454 Z M 491.7116,296.39489 C 486.70854,296.4427 481.50111,298.60126 483.83193,308.21588 487.9756,325.3085 491.34194,331.52329 498.59337,330.48738 505.84479,329.45146 507.65765,328.67406 511.54235,323.75345 515.42702,318.83285 527.08154,325.56748 528.37644,321.16484 529.67133,316.76219 536.66376,303.81222 525.52764,301.99936 514.39153,300.1865 502.99671,300.1866 499.37099,297.5968 499.37099,297.5968 495.60287,296.35772 491.7116,296.39489 Z M 474.46504,326.26518 C 458.44723,326.07634 428.57455,330.88301 413.74134,330.33363 393.96373,329.60112 386.63888,331.43306 374.18631,339.4906 366.83442,344.24771 368.29847,351.28561 370.72546,356.26705 376.65655,357.47048 376.74142,361.90798 381.51159,359.99992 387.00537,357.80241 389.56918,362.92993 394.33046,359.99992 399.09174,357.0699 399.45875,354.14084 406.41754,355.23959 413.37633,356.33833 417.4044,344.98423 429.85696,346.44925 442.30954,347.91426 448.16961,345.71612 454.02964,350.11115 459.88968,354.50617 454.76291,346.81479 466.11673,347.18104 477.47054,347.54729 489.55639,345.71661 485.52761,342.05408 481.86222,338.72191 476.0946,329.3489 475.90792,326.30214 475.43621,326.28622 474.96457,326.27108 474.46504,326.26518 Z"
     class="LAND"
     id="path6439"
     inkscape:connector-curvature="0"
     sodipodi:nodetypes="sccssssssssssssssssccssssssssccssssssssssssssssccssccsssscccccccccssssscccccccscccccccscccccccscccsscsssssssssccccccccscccccccccccccccscccccccccccccccccccccccccssssccccscccssssssssscccssssssssssssscssscssssssssssscccsssssssssscscccssssscsssssssscssssssscscsscssssssscc" />
  <path
     class="LAND"
     style="fill:#986749;fill-opacity:1;fill-rule:evenodd;stroke:none;stroke-width:4;stroke-linecap:butt;stroke-linejoin:miter;stroke-opacity:1"
     d="M 69.142578 -46.806641 C 22.694952 -46.670463 0.07531945 -46.611332 -10.289062 -46.583984 C -13.081874 -45.401704 -15.895713 -44.049189 -18.759766 -42.494141 C -21.2693 -41.131577 -23.714255 -39.715345 -26.09375 -38.248047 L -25.394531 129.99414 L -12.207031 262.60156 C -5.4889403 269.31066 1.6356717 275.83591 9.1679688 282.13477 C 11.735036 284.46849 13.369827 295.66984 18.970703 295.66992 C 24.571568 295.66992 43.942038 286.80308 49.076172 289.60352 C 54.210305 292.40395 62.378596 287.50402 67.746094 288.4375 C 69.311884 288.70981 70.536051 289.74371 71.664062 290.99805 C 72.614604 291.5413 73.514775 292.31796 74.384766 293.22852 C 76.215145 294.18139 77.07627 295.69032 77.460938 296.64844 C 78.593982 297.11304 79.901985 297.19447 81.513672 296.60352 C 88.514777 294.03644 90.381839 287.27061 98.316406 288.4375 C 106.25098 289.60434 104.61676 289.6039 109.05078 292.87109 C 111.18288 294.44209 112.40163 295.89949 113.99609 296.94336 C 114.46803 297.01926 114.94961 297.09915 115.5 297.19922 C 118.5564 297.75493 120.80892 298.1265 122.65234 298.41406 C 130.29208 297.70165 130.90345 291.70952 137.28711 291.9375 C 143.82145 292.17088 140.08907 282.36896 141.72266 280.96875 C 143.35624 279.56851 143.35579 259.96671 145.68945 259.5 C 148.02317 259.03326 151.0557 260.4333 151.28906 258.09961 C 151.52244 255.76591 150.59145 249.69527 147.79102 249.22852 C 144.99056 248.76177 142.65534 246.42931 143.35547 235.46094 C 144.05554 224.49257 140.32298 221.22656 146.39062 221.22656 C 152.45825 221.22656 161.09174 219.59137 160.625 224.02539 C 160.15826 228.4594 159.22578 232.66044 160.85938 234.99414 C 162.49296 237.32782 164.35806 239.42806 169.49219 234.06055 C 174.62633 228.69306 165.75962 222.15981 172.52734 219.35938 C 179.29506 216.55895 184.89723 213.05907 183.26367 209.0918 C 181.63007 205.1245 171.35987 198.58799 167.39258 199.52148 C 163.42531 200.45495 157.35855 198.35697 158.52539 194.62305 C 159.69223 190.88913 159.22603 187.15424 162.72656 187.1543 C 166.22711 187.1543 160.159 177.11979 166.69336 174.55273 C 173.22771 171.98566 198.19816 162.41798 197.49805 154.7168 C 196.79794 147.0156 201.93184 125.77855 195.63086 119.71094 C 189.32988 113.64333 169.96154 108.04281 182.79688 98.941406 C 189.97321 93.852766 202.22371 99.4205 211.41211 96.755859 C 220.97151 93.98362 234.79473 92.24208 237.7832 82.748047 C 239.20288 78.237861 232.1587 74.771667 231.32617 70.117188 C 230.61366 66.13366 226.58938 63.182323 232.76367 58.0625 C 238.93796 52.942677 261.83877 53.566453 268.66602 60.492188 C 275.49325 67.417923 265.62978 78.851737 269.85742 82.826172 C 274.08507 86.800608 280.58211 84.76203 282.30664 82.720703 C 284.03116 80.679376 282.06327 81.126365 284.45508 78.275391 C 286.84688 75.424417 296.78725 76.345617 300.47852 78.894531 C 304.1698 81.443444 301.152 85.222218 303.25586 86.580078 C 305.35971 87.93794 308.53303 84.688726 310.08984 86.046875 C 311.64667 87.405023 308.65954 89.933615 310.41211 91.580078 C 312.16466 93.226541 319.29688 91.544922 319.29688 91.544922 C 319.29688 91.544922 321.70998 94.945313 322.35742 94.945312 C 323.00487 94.945312 328.70292 96.369471 328.31445 93.261719 C 327.92597 90.153967 326.24439 83.031834 329.22266 82.902344 C 332.20091 82.772854 339.57971 81.479936 340.09766 84.199219 C 340.61563 86.918502 338.67328 89.119215 340.09766 93.003906 C 341.52205 96.888595 345.14754 101.16173 339.70898 101.67969 C 334.27041 102.19764 317.30837 103.10346 316.91992 100.51367 C 316.53145 97.923875 313.03609 92.355544 311.09375 96.240234 C 309.1514 100.12493 312.259 103.88085 303.32422 102.58594 C 294.38942 101.29104 285.71221 99.607627 280.66211 99.996094 C 275.61202 100.38456 283.25188 88.859554 279.36719 87.953125 C 275.4825 87.046698 267.97207 84.974939 268.10156 91.837891 C 268.23105 98.700846 260.20346 108.80127 267.06641 114.75781 C 273.92935 120.71432 300.86275 137.28901 323.52344 134.69922 C 346.18413 132.10942 388.91591 140.78457 393.70703 130.94336 C 398.49814 121.10215 421.93611 120.585 420.51172 112.55664 C 419.08734 104.52827 419.34501 100.2553 414.29492 101.67969 C 409.24482 103.10408 406.26791 105.69451 403.16016 104.14062 C 400.0524 102.58675 398.10925 103.49321 391.63477 105.43555 C 385.16028 107.3779 384.90338 99.348617 378.16992 98.701172 C 371.43645 98.053727 351.49452 100.51557 350.97656 97.925781 C 350.45861 95.335986 349.68106 89.896484 352.40039 89.896484 C 355.11967 89.896484 359.00411 91.449574 359.39258 89.636719 C 359.78105 87.823864 357.19077 86.918172 364.70117 87.306641 C 372.21157 87.69511 388.39795 86.91774 393.70703 85.234375 C 399.0161 83.55101 408.72796 82.904348 410.15234 85.494141 C 411.26264 87.512848 410.49165 89.291786 411.25977 90.347656 L 411.26953 90.255859 L 425.46094 90.164062 C 425.46094 90.164062 424.72952 85.860709 426.65234 84.853516 C 428.57516 83.846322 427.65795 82.840077 432.14453 82.931641 C 436.63112 83.023203 442.85961 82.839319 442.95117 78.810547 C 443.04273 74.781773 442.76758 69.654297 442.76758 69.654297 C 442.76758 69.654297 442.9237 69.658523 443.01367 69.662109 L 439.93555 37.064453 L 470.75195 37.193359 C 470.75195 37.193359 473.21409 37.193715 474.25 35.380859 C 475.28592 33.568004 478.13441 33.826579 479.94727 34.603516 C 481.76013 35.380455 482.0175 33.698255 488.10352 34.345703 C 494.18953 34.993152 506.23413 33.178725 513.22656 33.826172 C 517.81717 34.25123 524.8024 35.946386 529.10156 37.070312 C 532.0289 35.223763 535.66082 32.137526 536.3457 29.273438 C 537.3529 25.061538 536.70986 21.7666 533.23047 15.265625 C 529.75107 8.7646513 530.48438 -16.873047 530.48438 -16.873047 C 530.48438 -16.873047 532.4481 -22.428631 534.64258 -28.894531 L 325.16016 -30.818359 L 211.41211 -22.667969 C 144.90775 -29.76505 101.50421 -40.189129 69.142578 -46.806641 z M 467.24414 49.3125 C 465.8582 49.29599 463.81307 49.680165 461.81836 50.205078 C 459.01364 52.417771 455.36223 55.80742 455.60352 58.300781 C 455.99199 62.314961 456.12174 76.428572 458.58203 79.277344 C 461.04233 82.126117 457.28714 86.658279 458.58203 90.542969 C 459.87692 94.427659 461.81798 95.981354 462.33594 101.41992 C 462.8539 106.85849 467.25703 101.55058 466.99805 111.13281 C 466.99805 111.13281 468.55178 113.85151 469.19922 111.26172 C 469.84668 108.67192 469.97656 106.98828 469.97656 106.98828 C 469.97656 106.98828 477.48633 106.21077 477.48633 107.11719 C 477.48633 108.02362 478.65238 110.48438 479.94727 110.48438 C 481.24217 110.48438 480.46546 113.72149 481.63086 113.98047 C 482.79627 114.23945 482.92427 110.4838 484.99609 110.61328 C 487.06792 110.74277 489.27148 110.09739 489.27148 105.82422 C 489.27148 101.55107 492.50841 102.58421 492.37891 104.26758 C 492.24943 105.95095 494.44922 105.04631 494.44922 106.4707 C 494.44922 107.89509 493.93303 111.13279 495.35742 109.83789 C 496.78181 108.54299 496.00295 107.37792 497.94531 106.73047 C 499.88764 106.08302 499.11133 104.00977 499.11133 104.00977 L 514.13281 103.75195 C 514.13281 103.75195 513.61526 110.22482 514.91016 110.61328 C 516.20505 111.00175 517.24026 107.11796 518.53516 107.37695 C 519.30056 107.53002 520.07609 107.41377 520.61133 107.29102 C 519.74296 102.84117 517.84352 92.581952 519.13086 88.880859 C 520.59587 84.668961 524.62405 77.162122 526.54688 74.873047 C 528.4697 72.583971 521.78772 64.893375 522.79492 62.146484 C 523.80211 59.399594 520.77958 52.166098 514.00391 51.433594 C 507.22825 50.701089 485.34534 50.426635 479.85156 51.525391 C 474.35778 52.624147 470.14493 51.066803 468.77148 49.693359 C 468.51397 49.435837 467.97084 49.321156 467.24414 49.3125 z M 537.48633 77.609375 C 537.08897 77.588279 536.73313 77.619374 536.43555 77.710938 C 534.05491 78.443442 527.92165 82.289668 527.83008 85.585938 C 527.73853 88.882205 523.15959 87.874038 523.70898 92.085938 C 524.25835 96.297837 521.60265 107.01155 525.08203 108.47656 C 528.56143 109.94157 530.30235 107.74323 529.38672 115.80078 C 528.47108 123.85832 529.01993 134.29685 529.93555 138.875 C 530.85119 143.45315 529.29556 147.75701 525.72461 148.21484 C 522.15364 148.67265 518.12346 151.2369 514.46094 148.39844 C 510.79842 145.56 506.2207 143.08789 506.2207 143.08789 C 506.2207 143.08789 511.98912 143.36108 515.37695 145.55859 C 518.76479 147.7561 525.99851 146.20072 526.18164 143.72852 C 526.24126 142.92352 526.27429 139.62172 526.31055 135.75977 C 524.84816 134.27305 522.35569 132.48507 518.53516 131.98047 C 511.6722 131.07405 512.18948 129.38962 513.48438 127.44727 C 514.77927 125.50492 518.01778 127.7066 518.40625 125.63477 C 518.79472 123.56293 519.05351 116.5709 516.72266 116.44141 C 514.39184 116.31191 513.22597 120.19711 513.35547 122.39844 C 513.35547 122.39844 493.28394 123.69255 490.95312 122.13867 C 488.62232 120.58479 487.32881 116.05263 482.4082 120.84375 C 477.4876 125.63487 469.9779 122.65605 468.8125 122.26758 C 467.64709 121.87911 469.97788 119.16051 467.51758 117.34766 C 465.05727 115.53481 460.39375 113.33267 460.13477 115.79297 C 459.87579 118.25328 454.1794 124.59907 459.87695 127.31836 C 465.57449 130.03764 473.21481 143.37571 471.91992 149.7207 C 470.62502 156.06571 473.86005 166.81236 468.93945 169.01367 C 464.01884 171.215 460.91294 176.78285 463.76172 178.5957 C 466.61049 180.40856 467.77534 173.41722 475.15625 174.45312 C 482.53716 175.48905 500.27785 178.98588 506.23438 175.61914 C 512.19089 172.25241 514.51997 173.41754 516.5918 171.3457 C 518.66364 169.27386 516.46418 167.33026 512.70898 166.42383 C 508.95378 165.51741 509.21099 158.65491 511.80078 159.82031 C 514.39057 160.98573 510.89537 163.70529 513.74414 164.09375 C 516.59291 164.48223 525.52791 164.87125 525.39844 162.66992 C 525.26895 160.4686 523.19636 157.10118 526.43359 157.61914 C 529.67084 158.1371 530.57712 164.22195 528.63477 167.84766 C 526.69243 171.47337 530.57718 185.19887 532.51953 187.01172 C 534.46188 188.82458 524.75015 193.09905 522.54883 194.52344 C 520.4083 195.90849 519.5014 198.14999 521.23828 200.05859 L 521.23828 198.48242 C 521.23828 198.48242 526.91492 200.22446 528.01367 199.40039 C 529.11243 198.57632 530.85226 196.56188 531.12695 197.84375 C 531.40164 199.12563 532.31592 202.51273 534.42188 202.14648 C 536.52783 201.78022 535.88591 199.3061 538.63281 199.85547 C 541.3797 200.40485 539.09334 195.46071 542.75586 195.36914 C 546.41838 195.27758 545.40897 192.98937 547.24023 191.89062 C 549.07149 190.79188 547.88187 190.79087 549.80469 189.9668 C 551.72751 189.14273 544.40178 183.55908 547.24023 181.45312 C 550.07868 179.34717 550.90307 170.46479 546.59961 166.61914 C 542.29615 162.7735 544.49485 160.66627 542.48047 158.46875 C 540.46608 156.27124 544.4939 155.63111 544.40234 153.43359 C 544.31078 151.23609 546.14312 150.50361 545.59375 148.85547 C 545.04437 147.20734 543.02858 145.83448 545.04297 143.72852 C 547.05735 141.62257 549.71345 139.33323 549.16406 135.21289 C 548.61469 131.09256 547.88163 123.31126 549.71289 121.29688 C 551.54415 119.28248 550.53709 114.06191 552.82617 110.76562 C 555.11525 107.46937 546.59957 102.25096 551.17773 98.039062 C 555.75588 93.827165 556.39815 91.994002 552.46094 88.880859 C 548.52373 85.767717 549.25416 86.318221 547.05664 83.205078 C 545.13382 80.481078 540.26776 77.757056 537.48633 77.609375 z M 122.09375 186.00781 C 132.6569 186.06935 141.95703 187.32967 141.95703 189.95508 C 141.95703 194.15573 131.68872 206.75803 125.62109 208.625 C 119.55349 210.49195 92.95007 220.76018 84.082031 216.32617 C 75.213978 211.89213 58.876065 213.28956 59.576172 209.32227 C 60.27628 205.35498 60.044152 202.43967 61.677734 200.22266 C 63.311313 198.00566 66.576226 196.25619 67.042969 190.88867 C 67.509724 185.52117 88.746927 189.25462 103.44922 187.1543 C 108.96259 186.36667 115.75584 185.97089 122.09375 186.00781 z M 214.33398 196.79102 C 211.72691 196.92397 211.12695 198.92578 211.12695 198.92578 C 211.12695 198.92578 205.94692 199.44422 207.75977 203.58789 C 209.57263 207.73156 206.98357 210.06139 205.42969 212.91016 C 203.87581 215.75894 204.91099 223.52776 207.75977 224.30469 C 210.60854 225.08162 217.85906 232.33305 220.9668 224.30469 C 224.07456 216.27633 219.15503 212.13273 216.82422 206.95312 C 214.49341 201.77353 219.15501 197.37149 215.5293 196.85352 C 215.3027 196.82116 215.08767 196.80051 214.88281 196.79102 C 214.69075 196.78213 214.50778 196.78215 214.33398 196.79102 z M 390.21289 269.89062 C 384.1203 269.9058 377.94166 270.40315 373.76562 271.95703 C 362.6295 276.10069 367.54967 278.17467 370.39844 281.02344 C 373.24722 283.87222 364.18446 283.87193 368.32812 286.7207 C 372.47179 289.56947 372.47046 286.97812 379.46289 286.20117 C 383.47368 285.75553 385.6986 288.5472 388.03711 291.30273 C 388.32632 291.22704 388.6543 291.14453 388.6543 291.14453 C 388.91754 291.13309 389.14612 291.125 389.3457 291.125 C 389.53984 291.125 389.70053 291.13665 389.84375 291.1582 C 389.8595 291.1606 389.87152 291.16524 389.88672 291.16797 C 390.0061 291.18923 390.11068 291.22203 390.19922 291.26758 C 390.26349 291.3008 390.32422 291.33771 390.375 291.38672 C 390.39459 291.40571 390.41188 291.43148 390.42969 291.45312 C 390.45901 291.48872 390.48481 291.53488 390.50977 291.57812 C 390.55111 291.65013 390.58769 291.73628 390.61914 291.83203 C 390.63533 291.88108 390.65385 291.93437 390.66797 291.99023 C 390.69605 292.10245 390.72211 292.23477 390.74414 292.37695 C 390.75177 292.42616 390.76043 292.4782 390.76758 292.53125 C 390.82674 292.97425 390.87308 293.55005 390.9375 294.30469 C 391.89969 295.09412 392.9627 295.7275 394.22461 296.04297 C 400.44012 297.59684 398.88648 291.12203 405.87891 299.15039 C 412.87136 307.17876 431.7778 310.5468 435.14453 306.66211 C 438.51126 302.77742 442.65564 296.04368 431.51953 292.41797 C 425.84558 290.57064 421.99408 287.38225 419.40234 284.69531 C 419.40234 284.69531 419.40039 284.69336 419.40039 284.69336 C 419.08349 284.5277 418.75867 284.34823 418.43555 284.17188 C 418.10905 283.99374 417.78099 283.81284 417.44922 283.625 C 417.12608 283.44193 416.8059 283.25972 416.47852 283.06836 C 416.33289 282.98332 416.18344 282.89316 416.03711 282.80664 C 415.16584 282.29094 414.28741 281.75302 413.40039 281.19531 C 413.21798 281.08077 413.03614 280.96934 412.85352 280.85352 C 411.95242 280.28136 411.05334 279.69939 410.15625 279.10742 C 410.05114 279.03814 409.94671 278.97174 409.8418 278.90234 C 408.9198 278.29179 408.01074 277.6803 407.11328 277.07227 C 405.19745 275.7759 403.40726 274.54919 401.73633 273.41797 C 401.20018 273.05452 400.70191 272.72294 400.20312 272.39062 C 398.8033 271.45876 397.52311 270.62934 396.50391 270.04297 C 396.50082 270.04119 396.49723 270.03888 396.49414 270.03711 C 394.46436 269.94803 392.35482 269.8853 390.21289 269.89062 z M 386.35742 275.37695 C 387.58922 275.37266 390.50684 275.5103 394.14648 276.67773 C 398.99932 278.2343 395.42962 284.0032 393.87305 286.01758 C 393.38662 286.64708 392.89859 286.60657 392.45703 286.17969 C 392.3687 286.09432 392.2836 285.99285 392.19922 285.87891 C 391.35545 284.73944 390.72519 282.28673 390.66797 280.79883 C 390.5764 278.4182 384.16728 279.88307 381.60352 277.68555 C 379.03975 275.48804 385.72266 275.39648 385.72266 275.39648 C 385.72266 275.39648 385.94681 275.37838 386.35742 275.37695 z M 242.54688 357.98828 C 241.35336 358.0445 240.29477 358.5008 239.8457 359.45508 C 238.4771 362.36334 227.35833 369.20627 228.38477 372.79883 C 228.70105 373.90583 229.54041 375.01664 230.52344 376.04102 C 229.64371 374.79803 229.22961 373.46461 229.77344 372.18359 C 230.45337 370.58197 232.20964 370.00757 234.21289 369.95898 C 236.21614 369.91038 238.46657 370.38756 240.13281 370.88867 C 243.94365 372.03474 249.77308 374.72061 249.19727 378.6582 C 249.17065 378.84018 249.10989 379.00006 249.0293 379.14648 C 249.0929 379.14388 249.20317 379.12891 249.25586 379.12891 C 251.13768 379.12891 251.47816 375.53569 251.82031 373.14062 C 252.16246 370.74559 246.86062 365.44217 247.54492 361.84961 C 247.9726 359.60426 245.39333 358.0952 243.06445 357.98828 C 242.88979 357.98026 242.71738 357.98025 242.54688 357.98828 z M 350.68945 361.66602 C 348.82107 361.77053 345.68382 364.44112 344.71484 369.03516 C 343.95709 372.62772 352.35186 375.36624 355.15039 370.57617 C 357.60498 366.3748 352.8412 361.9363 351.04492 361.67969 C 350.93265 361.66365 350.81401 361.65905 350.68945 361.66602 z M 332.38672 362.51953 C 329.86791 362.67866 328.88488 366.27613 328.80469 368.52148 C 328.71915 370.91652 330.68689 371.59129 333.5957 371.42969 C 336.67503 371.25862 336.84545 370.57518 338.04297 368.69336 C 339.24049 366.81154 335.81842 362.87731 332.91016 362.53516 C 332.72839 362.51377 332.55464 362.50892 332.38672 362.51953 z "
     id="path4222" />
  <path
     inkscape:connector-curvature="0"
     style="fill:#deeff0;fill-opacity:1;fill-rule:evenodd;stroke:none;stroke-width:4;stroke-linecap:butt;stroke-linejoin:miter;stroke-opacity:1"
     d="M 132.44063,95.365236 C 122.67141,95.695976 119.58049,106.31974 109.51643,115.50868 98.781426,125.31021 68.210317,136.74671 68.210317,136.74671 61.209224,150.04879 104.84935,171.98469 118.85152,168.48414 132.8537,164.98361 151.99061,159.14911 173.69399,161.01607 182.58801,161.78115 190.96841,155.21512 197.7674,147.20088 198.60834,137.66794 200.41686,124.31858 195.63098,119.70995 194.97427,119.07755 194.1522,118.45083 193.26284,117.8241 184.14414,116.10685 173.821,113.75527 166.22593,110.84208 149.18993,104.30773 145.92361,96.60555 134.4885,95.438709 133.77381,95.365787 133.09191,95.343186 132.44063,95.365236 Z"
     id="path4226"
     class="LAND"
     sodipodi:nodetypes="sscsscscsss" />
  <path
     style="fill:#c9b293;fill-opacity:1;fill-rule:evenodd;stroke:none;stroke-width:4;stroke-linecap:butt;stroke-linejoin:miter;stroke-opacity:1"
     d="M 245.05292,308.99201 C 243.61809,309.06627 241.89226,311.44515 242.72154,312.61843 243.59172,313.84958 246.63203,313.00717 247.1241,311.5821 247.48494,310.53712 246.15696,308.93488 245.05292,308.99201 Z M 236.03935,314.40724 C 235.93701,314.40224 235.83442,314.40924 235.73037,314.4309 234.3546,314.7174 232.63736,316.15451 232.88157,317.53842 233.30428,319.93392 236.97537,321.40761 239.35531,320.90465 240.43694,320.67606 241.53493,319.41636 241.42797,318.31603 241.28575,316.85284 239.30561,316.24842 238.06027,315.46723 237.43006,315.07191 236.75577,314.44229 236.03935,314.40724 Z M 239.87274,325.5674 C 238.90781,325.54643 237.43873,325.90975 237.28413,326.86244 237.14724,327.70599 239.28168,327.84061 239.0966,328.67491 238.87776,329.66136 236.62182,328.77259 236.2478,329.71124 235.67617,331.1458 237.00536,333.04175 238.31899,333.85362 239.71422,334.71592 241.61078,334.03921 243.24045,333.85362 244.38479,333.72329 246.38156,334.207 246.60667,333.07747 246.89698,331.62091 243.79668,331.72905 242.98173,330.48738 242.30352,329.45407 242.93967,327.85575 242.20412,326.86244 241.67519,326.14817 240.76131,325.58671 239.87274,325.5674 Z M 247.38429,326.34354 C 246.71456,326.2658 245.963,327.23499 246.08924,327.8973 246.29178,328.95983 248.15966,330.20213 248.93805,329.45106 249.77151,328.64684 248.53476,326.47706 247.38429,326.34354 Z M 235.51601,335.057 C 234.15402,335.03181 232.84439,335.36608 232.62138,336.4437 232.34475,337.78031 234.65569,338.48329 235.98908,338.77508 237.44486,339.09365 239.94363,339.41875 240.39165,337.99746 240.75868,336.8331 238.97001,335.76263 237.80156,335.40885 237.16961,335.21751 236.33321,335.07211 235.51601,335.057 Z M 238.62353,343.42156 C 237.47028,343.48205 236.04191,344.20077 235.98908,345.24883 235.92998,346.4215 237.66487,347.26963 238.83788,347.32149 239.84363,347.36595 241.30497,346.76691 241.42797,345.76772 241.56223,344.67721 240.18627,343.57735 239.0966,343.43635 238.94793,343.41712 238.78828,343.41293 238.62353,343.42156 Z M 234.43533,351.98276 C 233.22036,351.81183 231.48446,353.09146 231.58653,354.31414 231.70233,355.70128 233.82032,356.43323 235.21147,356.38532 235.83361,356.3639 236.64849,355.96046 236.76522,355.34899 237.02116,354.00827 235.78696,352.17291 234.43533,351.98276 Z M 297.88955,365.4181 C 297.62899,365.41957 297.36773,365.42909 297.1075,365.44916 294.60108,365.64246 292.26618,366.80683 289.85614,367.52182 288.73046,367.85577 287.45789,367.89354 286.48991,368.55814 285.22282,369.42811 283.18666,370.71482 283.6411,372.18309 284.57753,375.20863 289.55931,374.66343 292.70494,375.03189 295.11179,375.31382 298.30431,372.74153 299.9563,374.51446 300.78857,375.40766 298.69785,377.1692 299.43887,378.13941 301.55118,380.90493 306.80048,381.20258 309.79775,379.43445 310.99896,378.72584 310.70224,376.78362 311.35152,375.54932 311.93113,374.44745 312.28628,372.94704 313.42418,372.4418 315.5777,371.48563 319.74515,375.73706 320.41535,373.47814 321.71187,369.10825 312.22544,369.45327 307.98529,367.78053 306.46164,367.17944 304.92137,366.58909 303.32402,366.22677 301.54231,365.82263 299.71349,365.4079 297.88955,365.4181 Z M 234.21357,369.95816 C 232.21032,370.00675 230.4525,370.58147 229.77257,372.18309 228.42321,375.36159 232.92431,378.87992 235.98908,380.47078 238.51868,381.78385 241.73886,381.27886 244.53549,380.7295 246.20404,380.40173 248.95072,380.34085 249.19676,378.65832 249.77257,374.72073 243.94377,372.03412 240.13293,370.88805 238.46669,370.38694 236.21682,369.90956 234.21357,369.95816 Z M 272.14241,371.87706 C 271.83104,371.87512 271.51915,371.89039 271.20956,371.92437 270.05828,372.05075 269.08036,372.85821 268.10205,373.47814 265.50547,375.1235 263.49448,377.60735 260.85069,379.17573 259.71983,379.8466 257.12072,379.41882 257.22574,380.7295 257.33945,382.14868 259.98415,382.1 261.36812,381.76583 262.26015,381.55044 262.56464,380.22628 263.44078,379.95336 265.59791,379.2814 267.92741,380.49616 270.17471,380.7295 275.77966,381.31148 282.84364,386.08031 287.00734,382.28325 287.6452,381.70157 287.54588,380.36785 287.00734,379.69316 285.79232,378.17102 283.16391,378.99412 281.30973,378.39812 279.61543,377.85352 276.26712,378.10237 276.38974,376.32694 276.48208,374.98997 279.97718,376.59727 280.27488,375.2906 280.45168,374.51461 279.16805,374.10212 278.46093,373.73685 276.52399,372.73631 274.32207,371.89072 272.14241,371.87706 Z M 360.8914,376.88428 C 358.73459,376.92123 356.84913,377.45143 356.67364,379.17573 356.42689,381.60032 360.99031,381.70291 363.4061,382.02453 365.30608,382.27749 367.84323,382.69093 369.10369,381.24693 369.50107,380.79167 369.39847,379.96196 369.10369,379.43445 368.46091,378.28414 367.03457,377.59546 365.73747,377.36327 364.41051,377.12574 362.56893,376.85554 360.8914,376.88428 Z"
     class="LAND"
     id="path6449"
     inkscape:connector-curvature="0" />
  <circle
     class="LANDMARK"
     style="opacity:1;fill:#000000;fill-opacity:1;stroke:#000000;stroke-width:0.20791896;stroke-opacity:1"
     id="mt-silver"
     cx="143.71091"
     cy="180.31653"
     locationid="82"
     r="6.3215175" />
  <circle
     class="LANDMARK"
     style="opacity:1;fill:#000000;fill-opacity:1;stroke:#000000;stroke-width:0.20791896;stroke-opacity:1"
     id="cinnabar-island"
     cx="242.42848"
     cy="373.38785"
     locationid="71"
     r="6.3215175" />
  <circle
     r="6.3215175"
     locationid="82"
     cy="374.83945"
     cx="341.93198"
     id="seafoam-island"
     style="opacity:1;fill:#000000;fill-opacity:1;stroke:#000000;stroke-width:0.20791896;stroke-opacity:1"
     class="LANDMARK" />
  <circle
     class="LANDMARK"
     style="opacity:1;fill:#000000;fill-opacity:1;stroke:#000000;stroke-width:0.20791896;stroke-opacity:1"
     id="pallet-town"
     cx="242.42848"
     cy="266.93622"
     locationid="86"
     r="6.3215175" />
  <path
     class="ROUTE"
     style="opacity:1;fill:#000000;fill-opacity:1;stroke:#000000;stroke-width:0.20791896;stroke-opacity:1"
     d="M 242.42773,99.324219 A 6.3215175,6.3215175 0 0 0 236.10742,105.64648 6.3215175,6.3215175 0 0 0 242.42773,111.9668 6.3215175,6.3215175 0 0 0 248.75,105.64648 6.3215175,6.3215175 0 0 0 242.42773,99.324219 Z M 466.42773,225.99414 A 6.3215175,6.3215175 0 0 0 460.10742,232.31641 6.3215175,6.3215175 0 0 0 466.42773,238.63867 6.3215175,6.3215175 0 0 0 472.75,232.31641 6.3215175,6.3215175 0 0 0 466.42773,225.99414 Z"
     id="digletts-cave"
     locationid="73"
     inkscape:connector-curvature="0" />
  <circle
     class="LANDMARK"
     style="opacity:1;fill:#000000;fill-opacity:1;stroke:#000000;stroke-width:0.20791896;stroke-opacity:1"
     id="viridian-city"
     cx="242.42848"
     cy="180.31653"
     locationid="154"
     r="6.3215175" />
  <circle
     r="6.3215175"
     locationid="155"
     cy="132.58136"
     cx="242.42848"
     id="viridian-forest"
     style="opacity:1;fill:#000000;fill-opacity:1;stroke:#000000;stroke-width:0.20791896;stroke-opacity:1"
     class="LANDMARK" />
  <circle
     class="LANDMARK"
     style="opacity:1;fill:#000000;fill-opacity:1;stroke:#000000;stroke-width:0.20791896;stroke-opacity:1"
     id="pewter-city"
     cx="251.62202"
     cy="82.816391"
     locationid="231"
     r="6.3215175" />
  <circle
     r="6.3215175"
     locationid="233"
     cy="41.032974"
     cx="194.75806"
     id="indigo-plateau"
     style="opacity:1;fill:#000000;fill-opacity:1;stroke:#000000;stroke-width:0.20791896;stroke-opacity:1"
     class="LANDMARK" />
  <circle
     r="6.3215175"
     locationid="80"
     cy="70.33252"
     cx="342.42847"
     id="mt-moon"
     style="opacity:1;fill:#000000;fill-opacity:1;stroke:#000000;stroke-width:0.20791896;stroke-opacity:1"
     class="LANDMARK" />
  <circle
     class="LANDMARK"
     style="opacity:1;fill:#000000;fill-opacity:1;stroke:#000000;stroke-width:0.20791896;stroke-opacity:1"
     id="cerulean-city"
     cx="448.50668"
     cy="105.03297"
     locationid="68"
     r="6.3215175" />
  <circle
     r="6.3215175"
     locationid="234"
     cy="180.31653"
     cx="448.50668"
     id="saffron-city"
     style="opacity:1;fill:#000000;fill-opacity:1;stroke:#000000;stroke-width:0.20791896;stroke-opacity:1"
     class="LANDMARK" />
  <circle
     class="LANDMARK"
     style="opacity:1;fill:#000000;fill-opacity:1;stroke:#000000;stroke-width:0.20791896;stroke-opacity:1"
     id="lavender-town"
     cx="514.42847"
     cy="180.31653"
     locationid="232"
     r="6.3215175" />
  <circle
     r="6.3215175"
     locationid="158"
     cy="132.58136"
     cx="514.42847"
     id="power-plant"
     style="opacity:1;fill:#000000;fill-opacity:1;stroke:#000000;stroke-width:0.20791896;stroke-opacity:1"
     class="LANDMARK" />
  <circle
     class="LANDMARK"
     style="opacity:1;fill:#000000;fill-opacity:1;stroke:#000000;stroke-width:0.20791896;stroke-opacity:1"
     id="rock-tunnel"
     cx="504.69293"
     cy="105.03297"
     locationid="87"
     r="6.3215175" />
  <circle
     class="LANDMARK"
     style="opacity:1;fill:#000000;fill-opacity:1;stroke:#000000;stroke-width:0.20791896;stroke-opacity:1"
     id="celadon-city"
     cx="374.42847"
     cy="180.31653"
     locationid="67"
     r="6.3215175" />
  <circle
     class="LANDMARK"
     style="opacity:1;fill:#000000;fill-opacity:1;stroke:#000000;stroke-width:0.20791896;stroke-opacity:1"
     id="vermilion-city"
     cx="448.50668"
     cy="232.31653"
     locationid="151"
     r="6.3215175" />
  <circle
     class="LANDMARK"
     style="opacity:1;fill:#000000;fill-opacity:1;stroke:#000000;stroke-width:0.20791896;stroke-opacity:1"
     id="cerulean-cave"
     cx="433.3317"
     cy="70.33252"
     locationid="147"
     r="6.3215175" />
  <circle
     r="6.3215175"
     locationid="162"
     cy="324.76852"
     cx="356.6286"
     id="kanto-safari-zone"
     style="opacity:1;fill:#000000;fill-opacity:1;stroke:#000000;stroke-width:0.20791896;stroke-opacity:1"
     class="LANDMARK" />
  <circle
     class="LANDMARK"
     style="opacity:1;fill:#000000;fill-opacity:1;stroke:#000000;stroke-width:0.20791896;stroke-opacity:1"
     id="fuchsia-city"
     cx="374.42847"
     cy="324.76852"
     locationid="76"
     r="6.3215175" />
  <circle
     r="6.3215175"
     locationid="140"
     cy="300.32333"
     cx="120.80293"
     id="tohjo-falls"
     style="opacity:1;fill:#000000;fill-opacity:1;stroke:#000000;stroke-width:0.20791896;stroke-opacity:1"
     class="LANDMARK" />
  <path
     class="ROUTE"
     locationid="152"
     style="fill:none;fill-rule:evenodd;stroke:#000000;stroke-width:4;stroke-linecap:butt;stroke-linejoin:miter;stroke-opacity:1"
     d="M 194.75806,74.35484 194.75806,106.30175"
     id="kanto-victory-road-1"
     inkscape:connector-curvature="0" />
  <path
     class="ROUTE"
     locationid="159"
     style="fill:none;fill-rule:evenodd;stroke:#000000;stroke-width:4;stroke-linecap:butt;stroke-linejoin:miter;stroke-opacity:1"
     d="M 194.75806,106.30175 194.75806,180.65659"
     id="kanto-victory-road-2"
     inkscape:connector-curvature="0" />
  <circle
     r="6.3215175"
     locationid="160"
     cy="180.31653"
     cx="532.12848"
     id="pokemon-tower"
     style="opacity:1;fill:#000000;fill-opacity:1;stroke:#000000;stroke-width:0.20791896;stroke-opacity:1"
     class="LANDMARK" />
  <path
     class="ROUTE"
     locationid="88"
     style="fill:none;fill-rule:evenodd;stroke:#000000;stroke-width:4;stroke-linecap:butt;stroke-linejoin:miter;stroke-opacity:1"
     d="M 242.27152,265.99878 242.27152,180.77756"
     id="kanto-route-1"
     inkscape:connector-curvature="0"
     sodipodi:nodetypes="cc" />
  <path
     class="ROUTE"
     locationid="99"
     style="fill:none;fill-rule:evenodd;stroke:#000000;stroke-width:4;stroke-linecap:butt;stroke-linejoin:miter;stroke-opacity:1"
     d="M 249.59645,83.73 249.59645,94.475896 242.27152,94.596864 242.27152,180.77756"
     id="kanto-route-2"
     inkscape:connector-curvature="0"
     sodipodi:nodetypes="cccc" />
  <path
     class="ROUTE"
     style="fill:none;fill-rule:evenodd;stroke:#000000;stroke-width:4;stroke-linecap:butt;stroke-linejoin:miter;stroke-opacity:1"
     d="M 342.691,70.125962 331.52608,70.125962 331.52608,83.73 249.59645,83.73"
     id="kanto-route-3"
     locationid="109"
     inkscape:connector-curvature="0"
     sodipodi:nodetypes="cccc" />
  <path
     class="ROUTE"
     style="fill:none;fill-rule:evenodd;stroke:#000000;stroke-width:4;stroke-linecap:butt;stroke-linejoin:miter;stroke-opacity:1"
     d="M 342.691,70.125962 366.44098,70.125962 366.44098,94.475896 425.97481,94.475896 425.97481,105.41019 448.55661,105.41019"
     id="kanto-route-4"
     locationid="120"
     inkscape:connector-curvature="0"
     sodipodi:nodetypes="cccccc" />
  <path
     class="ROUTE"
     style="fill:none;fill-rule:evenodd;stroke:#000000;stroke-width:4;stroke-linecap:butt;stroke-linejoin:miter;stroke-opacity:1"
     d="M 448.12892,105.41019 448.12892,180.65659"
     id="kanto-route-5"
     locationid="130"
     inkscape:connector-curvature="0"
     sodipodi:nodetypes="cc" />
  <path
     class="ROUTE"
     style="fill:none;fill-rule:evenodd;stroke:#000000;stroke-width:4;stroke-linecap:butt;stroke-linejoin:miter;stroke-opacity:1"
     d="M 448.12892,232.68941 448.12892,180.65659"
     id="kanto-route-6"
     locationid="131"
     inkscape:connector-curvature="0"
     sodipodi:nodetypes="cc" />
  <path
     class="ROUTE"
     style="fill:none;fill-rule:evenodd;stroke:#000000;stroke-width:4;stroke-linecap:butt;stroke-linejoin:miter;stroke-opacity:1"
     d="M 376.36329,180.65659 448.12892,180.65659"
     id="kanto-route-7"
     locationid="132"
     inkscape:connector-curvature="0"
     sodipodi:nodetypes="cc" />
  <path
     class="ROUTE"
     style="fill:none;fill-rule:evenodd;stroke:#000000;stroke-width:4;stroke-linecap:butt;stroke-linejoin:miter;stroke-opacity:1"
     d="M 514.42018,180.65659 448.12892,180.65659"
     id="kanto-route-8"
     locationid="133"
     inkscape:connector-curvature="0"
     sodipodi:nodetypes="cc" />
  <path
     class="ROUTE"
     style="fill:none;fill-rule:evenodd;stroke:#000000;stroke-width:4;stroke-linecap:butt;stroke-linejoin:miter;stroke-opacity:1"
     d="M 514.632,135.1771 514.632,105.41019 448.55661,105.41019"
     id="kanto-route-9"
     locationid="134"
     inkscape:connector-curvature="0"
     sodipodi:nodetypes="ccc" />
  <path
     class="ROUTE"
     style="fill:none;fill-rule:evenodd;stroke:#000000;stroke-width:4;stroke-linecap:butt;stroke-linejoin:miter;stroke-opacity:1"
     d="M 514.632,131.75562 514.632,180.65659"
     id="kanto-route-10"
     locationid="89"
     inkscape:connector-curvature="0"
     sodipodi:nodetypes="cc" />
  <path
     class="ROUTE"
     style="fill:none;fill-rule:evenodd;stroke:#000000;stroke-width:4;stroke-linecap:butt;stroke-linejoin:miter;stroke-opacity:1"
     d="M 448.12892,232.68941 514.632,232.68941"
     id="kanto-route-11"
     locationid="90"
     inkscape:connector-curvature="0"
     sodipodi:nodetypes="cc" />
  <path
     class="ROUTE"
     style="fill:none;fill-rule:evenodd;stroke:#000000;stroke-width:4;stroke-linecap:butt;stroke-linejoin:miter;stroke-opacity:1"
     d="M 514.632,180.65659 514.632,283.32738"
     id="kanto-route-12"
     locationid="91"
     inkscape:connector-curvature="0"
     sodipodi:nodetypes="cc" />
  <path
     class="ROUTE"
     style="fill:none;fill-rule:evenodd;stroke:#000000;stroke-width:4;stroke-linecap:butt;stroke-linejoin:miter;stroke-opacity:1"
     d="M 469.76981,294.96042 469.76981,283.32738 514.632,283.32738"
     id="kanto-route-13"
     locationid="92"
     inkscape:connector-curvature="0"
     sodipodi:nodetypes="ccc" />
  <path
     class="ROUTE"
     style="fill:none;fill-rule:evenodd;stroke:#000000;stroke-width:4;stroke-linecap:butt;stroke-linejoin:miter;stroke-opacity:1"
     d="M 469.76981,324.89842 469.76981,294.96042"
     id="kanto-route-14"
     locationid="93"
     inkscape:connector-curvature="0"
     sodipodi:nodetypes="cc" />
  <path
     class="ROUTE"
     style="fill:none;fill-rule:evenodd;stroke:#000000;stroke-width:4;stroke-linecap:butt;stroke-linejoin:miter;stroke-opacity:1"
     d="M 374.224,324.89842 469.76981,324.89842"
     id="kanto-route-15"
     locationid="94"
     inkscape:connector-curvature="0"
     sodipodi:nodetypes="cc" />
  <path
     class="ROUTE"
     style="fill:none;fill-rule:evenodd;stroke:#000000;stroke-width:4;stroke-linecap:butt;stroke-linejoin:miter;stroke-opacity:1"
     d="M 369.52032,180.65659 311.01293,180.65659 311.01293,225.50429"
     id="kanto-route-16"
     locationid="95"
     inkscape:connector-curvature="0"
     sodipodi:nodetypes="ccc" />
  <path
     class="ROUTE"
     style="fill:none;fill-rule:evenodd;stroke:#000000;stroke-width:4;stroke-linecap:butt;stroke-linejoin:miter;stroke-opacity:1"
     d="M 311.01293,222.76711 311.01293,324.89842"
     id="kanto-route-17"
     locationid="96"
     inkscape:connector-curvature="0"
     sodipodi:nodetypes="cc" />
  <path
     class="ROUTE"
     locationid="97"
     style="fill:none;fill-rule:evenodd;stroke:#000000;stroke-width:4;stroke-linecap:butt;stroke-linejoin:miter;stroke-opacity:1"
     d="M 311.01293,324.89842 374.224,324.89842"
     id="kanto-route-18"
     inkscape:connector-curvature="0"
     sodipodi:nodetypes="cc" />
  <path
     class="ROUTE"
     locationid="98"
     style="fill:none;fill-rule:evenodd;stroke:#000000;stroke-width:4;stroke-linecap:butt;stroke-linejoin:miter;stroke-opacity:1"
     d="M 374.224,324.89842 374.224,372.28598"
     id="kanto-route-19"
     inkscape:connector-curvature="0"
     sodipodi:nodetypes="cc" />
  <path
     class="ROUTE"
     style="fill:none;fill-rule:evenodd;stroke:#000000;stroke-width:4;stroke-linecap:butt;stroke-linejoin:miter;stroke-opacity:1"
     d="M 240.57797,372.28598 374.224,372.28598"
     id="kanto-route-20"
     locationid="100"
     inkscape:connector-curvature="0"
     sodipodi:nodetypes="cc" />
  <path
     class="ROUTE"
     style="fill:none;fill-rule:evenodd;stroke:#000000;stroke-width:4;stroke-linecap:butt;stroke-linejoin:miter;stroke-opacity:1"
     d="M 242.27152,372.40695 242.27152,265.99878"
     id="kanto-route-21"
     locationid="101"
     inkscape:connector-curvature="0"
     sodipodi:nodetypes="cc" />
  <path
     class="ROUTE"
     style="fill:none;fill-rule:evenodd;stroke:#000000;stroke-width:4;stroke-linecap:butt;stroke-linejoin:miter;stroke-opacity:1"
     d="M 240.57797,180.65659 194.75806,180.65659"
     id="kanto-route-22"
     locationid="102"
     inkscape:connector-curvature="0"
     sodipodi:nodetypes="cc" />
  <path
     class="ROUTE"
     style="fill:none;fill-rule:evenodd;stroke:#000000;stroke-width:4;stroke-linecap:butt;stroke-linejoin:miter;stroke-opacity:1"
     d="M 194.75806,41.451614 194.75806,74.35484"
     id="kanto-route-23"
     locationid="103"
     inkscape:connector-curvature="0" />
  <path
     class="ROUTE"
     style="fill:none;fill-rule:evenodd;stroke:#000000;stroke-width:4;stroke-linecap:butt;stroke-linejoin:miter;stroke-opacity:1"
     d="M 448.12892,41.086285 448.12892,105.41019"
     id="kanto-route-24"
     locationid="104"
     inkscape:connector-curvature="0"
     sodipodi:nodetypes="cc" />
  <path
     class="ROUTE"
     style="fill:none;fill-rule:evenodd;stroke:#000000;stroke-width:4;stroke-linecap:butt;stroke-linejoin:miter;stroke-opacity:1"
     d="M 520.74993,41.086285 448.12892,41.086285"
     id="kanto-route-25"
     locationid="105"
     inkscape:connector-curvature="0"
     sodipodi:nodetypes="cc" />
  <path
     class="ROUTE"
     style="fill:none;fill-rule:evenodd;stroke:#000000;stroke-width:4;stroke-linecap:butt;stroke-linejoin:miter;stroke-opacity:1"
     d="M 164.6641,300.49955 164.6641,213.72717 194.75806,213.72717 194.75806,180.65659"
     id="kanto-route-26"
     locationid="106"
     inkscape:connector-curvature="0"
     sodipodi:nodetypes="cccc" />
  <path
     class="ROUTE"
     style="fill:none;fill-rule:evenodd;stroke:#000000;stroke-width:4;stroke-linecap:butt;stroke-linejoin:miter;stroke-opacity:1"
     d="M 120.72581,300.49955 164.6641,300.49955"
     id="kanto-route-27"
     locationid="107"
     inkscape:connector-curvature="0"
     sodipodi:nodetypes="cc" />
  <path
     class="ROUTE"
     style="fill:none;fill-rule:evenodd;stroke:#000000;stroke-width:4;stroke-linecap:butt;stroke-linejoin:miter;stroke-opacity:1"
     d="M 145.67742,180.65659 194.75806,180.65659"
     id="kanto-route-28"
     locationid="108"
     inkscape:connector-curvature="0"
     sodipodi:nodetypes="cc" />
</svg>
