<?xml version="1.0" encoding="UTF-8" standalone="no"?>
<svg
   xmlns:dc="http://purl.org/dc/elements/1.1/"
   xmlns:cc="http://creativecommons.org/ns#"
   xmlns:rdf="http://www.w3.org/1999/02/22-rdf-syntax-ns#"
   xmlns:svg="http://www.w3.org/2000/svg"
   xmlns="http://www.w3.org/2000/svg"
   xmlns:xlink="http://www.w3.org/1999/xlink"
   version="1.1"
   id="svg2"
   viewBox="0 0 685.27 472.48001"
   height="133.34436mm"
   width="193.39842mm">
  <defs
     id="defs4">
  </defs>
  <metadata
     id="metadata7">
    <rdf:RDF>
      <cc:Work
         rdf:about="">
        <dc:format>image/svg+xml</dc:format>
        <dc:type
           rdf:resource="http://purl.org/dc/dcmitype/StillImage" />
        <dc:title></dc:title>
      </cc:Work>
    </rdf:RDF>
  </metadata>
  <g
     transform="translate(30.132999,-288.07999)"
     id="layer12">
    <rect
       y="289.57999"
       x="-28.632999"
       height="469.48001"
       width="682.27002"
       id="rect225034"
       style="display:inline;opacity:1;fill:#167ca2;fill-opacity:1;fill-rule:evenodd;stroke:#167ca2;stroke-width:3;stroke-linecap:round;stroke-linejoin:round;stroke-miterlimit:4;stroke-dasharray:none;stroke-dashoffset:0;stroke-opacity:1" />
  </g>
  <g
     transform="translate(30.132999,-288.07999)"
     style="display:inline"
     id="layer8">
    <path
       id="path8339"
       d="M 259.87,546.01 C 261.68,546.55 265.92,545.29 266.6,547.82 267.34,550.34 268.89,555.03 272.66,555.15 276.36,555.27 287.87,558.04 289.82,552.87 291.77,547.7 293.65,546.38 296.82,546.86 299.91,547.34 300.79,543.85 304.15,543.61 307.52,543.37 311.96,543.02 313.04,539.65 313.85,537.26 313.98,531.83 310.75,529.07 307.52,526.31 292.91,526.07 290.42,522.82 287.87,519.58 283.42,516.93 281.54,516.09 279.59,515.25 279.12,515.85 275.15,510.92 271.17,506 264.92,508.88 264.31,515.01 263.77,521.14 264.71,527.15 259.8,529.67 254.82,532.2 249.91,537.6 253.14,541.69 256.43,545.78 257.98,545.48 259.87,546.01 Z"
       style="display:inline;fill:#94ca90;fill-opacity:1;fill-rule:evenodd;stroke:#94ca90;stroke-width:1;stroke-linecap:butt;stroke-linejoin:miter;stroke-miterlimit:4;stroke-dasharray:none;stroke-opacity:1" />
    <path
       id="path8341"
       d="M 313.24,695.89 C 315.53,699.01 321.45,698.9 322.73,697.09 324.08,695.29 326.1,692.28 329.12,692.28 332.15,692.28 335.72,690.49 335.52,686.88 335.25,683.27 335.38,679.31 332.62,677.62 329.86,675.94 323.94,673.05 317.48,673.66 310.95,674.26 307.65,676.85 305.57,680.27 303.48,683.69 302.54,689.85 305.57,692.23 308.6,694.6 310.95,692.77 313.24,695.89 Z"
       style="display:inline;fill:#276c35;fill-opacity:1;fill-rule:evenodd;stroke:#276c35;stroke-width:1;stroke-linecap:butt;stroke-linejoin:miter;stroke-miterlimit:4;stroke-dasharray:none;stroke-opacity:1" />
    <path
       id="path8343"
       d="M 437.01,609.74 C 437.01,609.74 443.95,606.34 444.62,604.55 445.29,602.77 450.27,601.41 455.46,602.01 460.64,602.6 458.75,606.25 460.17,606.34 461.65,606.42 464.21,607.78 463.53,610 462.79,612.2 466.02,610.92 467.23,613.05 468.45,615.18 468.51,619.94 470.4,621.38 472.28,622.82 465.89,622.31 465.82,623.93 465.69,625.54 466.49,627.25 466.22,628.44 465.96,629.62 459.02,628.69 460.1,629.96 461.18,631.24 464.27,633.28 471.41,631.92 478.54,630.56 485.07,633.36 486.89,637.11 488.64,640.84 490.93,650.7 489.65,652.74 488.37,654.78 485.14,656.99 484.46,658.27 483.79,659.54 477.53,659.79 474.77,660.56 472.08,661.32 460.3,656.65 457.27,651.72 454.31,646.79 445.63,650.96 434.79,648.32 423.89,645.69 431.63,646.7 420.26,644.75 408.88,642.8 406.52,622.49 408.41,616.28 410.29,610.08 411.91,605.83 417.63,604.38 423.28,602.94 429.41,603.02 432.03,605.83 434.66,608.64 433.92,606.93 437.01,609.74 Z"
       style="display:inline;fill:#986749;fill-opacity:1;fill-rule:evenodd;stroke:#986749;stroke-width:1;stroke-linecap:butt;stroke-linejoin:miter;stroke-miterlimit:4;stroke-dasharray:none;stroke-opacity:1" />
    <path
       id="path8345"
       d="M 434.05,578.7 C 434.05,578.7 432.57,581.83 426.58,581.96 420.59,582.07 415.07,583.03 414.33,578.59 413.59,574.14 415.21,568.01 417.43,566.33 419.72,564.64 429.95,565.24 432.84,567.65 435.74,570.06 438.23,570.66 440.04,570.18 441.86,569.69 443.88,569.21 446.3,570.66 448.73,572.1 451.62,571.86 453.37,571.5 455.19,571.13 454.72,573.78 457.95,573.9 461.18,574.02 468.51,577.39 466.63,577.75 464.68,578.11 460.1,575.82 456.26,575.82 452.43,575.82 449.4,577.51 446.44,575.1 443.41,572.7 439.1,575.7 442.94,576.07 446.77,576.42 446.77,579.91 450.88,580.51 454.98,581.11 457.61,584.36 453.37,583.87 449.2,583.4 445.09,582.91 443.27,581.23 441.52,579.55 438.97,579.7 437.42,579.31 435.87,578.92 434.79,577.63 434.05,578.7 Z"
       style="display:inline;fill:#986749;fill-opacity:1;fill-rule:evenodd;stroke:#986749;stroke-width:1;stroke-linecap:butt;stroke-linejoin:miter;stroke-miterlimit:4;stroke-dasharray:none;stroke-opacity:1" />
    <path
       d="M 480.43,466.57 C 480.43,466.57 479.48,465.49 480.56,464.41 481.64,463.33 481.37,461.76 483.19,462.13 485,462.49 485.14,464.05 486.08,464.05 487.02,464.05 485.74,465.73 486.82,466.33 487.9,466.93 487.9,468.74 485,468.49 482.11,468.26 482.71,468.38 480.43,466.57 Z M 490.32,473.78 C 490.32,473.78 489.31,476.06 490.66,476.91 492,477.75 490.52,478.83 486.08,478.11 481.64,477.39 478.14,474.38 476.93,474.62 475.78,474.87 477.33,471.62 475.51,470.42 473.7,469.22 471.27,469.46 472.15,466.93 472.96,464.41 475.65,465.01 475.38,462.25 475.18,459.48 478.74,458.76 479.35,457.8 479.95,456.84 483.45,453.59 485.34,453.59 487.29,453.59 491.13,455.64 491.73,457.2 492.34,458.76 493.55,461.41 494.02,462.6 494.49,463.81 497.12,464.65 495.37,467.77 493.55,470.9 492,471.62 490.32,473.78 Z"
       style="display:inline;fill:#986749;fill-opacity:1;fill-rule:evenodd;stroke:#986749;stroke-width:1;stroke-linecap:butt;stroke-linejoin:miter;stroke-miterlimit:4;stroke-dasharray:none;stroke-opacity:1"
       id="path8351" />
    <path
       d="M 498.8,506.72 C 498.8,506.72 498.46,503.23 500.15,500.71 501.83,498.18 504.39,499.14 505.46,502.15 506.54,505.15 507.35,506.59 507.35,506.59 507.35,506.59 501.49,508.4 498.8,506.72 Z M 483.45,497.9 C 483.45,497.9 487.36,493.99 489.24,486.85 490.25,484.13 496.24,480.3 502.7,480.28 507.89,480.26 513.54,483.19 515.76,487.53 520.67,497.22 522.76,503.34 524.44,504.7 526.13,506.06 521.89,508.43 521.68,510.13 521.55,511.83 520,515.92 516.97,517.96 513.88,519.99 509.3,523.39 505.6,523.39 501.83,523.39 500.15,524.41 497.72,523.05 495.37,521.69 495.03,519.32 489.58,518.64 484.13,517.96 478.88,505.71 483.45,497.9 Z"
       style="display:inline;fill:#f2efec;fill-opacity:1;fill-rule:evenodd;stroke:#f2efec;stroke-width:1;stroke-linecap:butt;stroke-linejoin:miter;stroke-miterlimit:4;stroke-dasharray:none;stroke-opacity:1"
       id="path8353" />
    <path
       id="path8355"
       d="M 547.87,431 C 549.21,430.46 550.63,430.03 553.52,430.4 556.41,430.76 564.22,430.28 564.83,431.48 565.43,432.68 566.51,445.78 569.74,445.78 572.97,445.78 573.85,449.03 577.88,447.58 581.99,446.14 585.69,447.7 584.75,442.41 583.81,437.13 581.99,436.05 589.33,436.64 596.66,437.25 601.84,438.93 603.66,436.28 603.66,436.28 604,433.76 604.94,433.4 605.88,433.04 609.52,433.4 608.44,429.91 607.36,426.43 610.86,407.8 603.73,400.83 596.66,393.86 591.61,393.14 586.09,397.82 580.58,402.51 574.18,403.83 570.68,403.23 567.18,402.64 553.25,405.04 550.02,404.92 546.79,404.8 544.03,411.65 547.53,415.49 550.96,419.34 550.89,422.46 549.08,421.86 547.26,421.27 544.5,418.26 542.35,419.82 540.19,421.38 539.32,423.3 540.8,424.99 542.21,426.67 541.27,430.76 544.16,431.24 546.99,431.72 546.59,431.54 547.87,431 Z"
       style="display:inline;fill:#94ca90;fill-opacity:1;fill-rule:evenodd;stroke:#94ca90;stroke-width:1;stroke-linecap:butt;stroke-linejoin:miter;stroke-miterlimit:4;stroke-dasharray:none;stroke-opacity:1" />
    <path
       id="path8357"
       d="M 600.77,530.39 C 600.77,530.39 605.55,534 607.7,533.76 609.85,533.52 606.49,537.6 609.65,537.6 612.75,537.6 607.7,532.55 615.64,532.55 623.58,532.55 622.84,535.2 623.85,535.2 624.8,535.2 621.9,542.65 627.89,547.7 633.95,552.75 635.36,550.1 639.94,549.14 644.52,548.18 639,546.74 642.83,542.65 646.67,538.56 641.15,532.32 641.35,529.43 641.62,526.54 635.36,527.51 634.42,524.86 633.41,522.22 632,519.34 628.63,515.01 625.27,510.68 626.01,503.23 628.16,499.86 630.31,496.5 627.42,484.48 628.63,482.8 629.84,481.11 625.94,469.58 622.37,466.69 622.37,466.69 621.16,465.49 620.49,462.85 619.75,460.2 609.38,457.32 605.82,460.92 602.18,464.53 605.55,468.14 603.12,470.54 600.77,472.94 601.98,476.55 603.12,477.03 604.33,477.51 602.65,479.91 601.24,483.28 599.76,486.65 603.39,490.73 603.12,495.54 602.92,500.35 602.45,519.34 602.45,521.5 602.45,523.66 600.57,525.59 600.77,530.39 Z"
       style="display:inline;fill:#c9b293;fill-opacity:1;fill-rule:evenodd;stroke:#c9b293;stroke-width:1;stroke-linecap:butt;stroke-linejoin:miter;stroke-miterlimit:4;stroke-dasharray:none;stroke-opacity:1" />
    <path
       id="path8359"
       d="M 506.74,392.18 C 506.74,392.18 507.01,393.62 510.11,394.1 513.27,394.58 510.38,401.79 515.42,402.51 520.47,403.23 519.26,406.84 522.63,405.88 525.99,404.92 526.46,399.63 527.2,401.79 527.94,403.95 524.78,412.13 528.15,413.33 531.51,414.53 535.14,415.25 535.14,411.17 535.14,407.08 534.88,402.76 537.3,403.95 539.72,405.16 539.72,400.59 543.09,400.11 546.45,399.63 538.71,391.21 534.88,390.98 531.04,390.74 527.67,393.62 525.25,390.49 522.9,387.37 524.58,385.45 517.31,385.69 510.11,385.93 507.48,384.01 507.01,386.89 506.54,389.77 505.06,390.49 506.74,392.18 Z"
       style="display:inline;fill:#986749;fill-opacity:1;fill-rule:evenodd;stroke:#986749;stroke-width:1;stroke-linecap:butt;stroke-linejoin:miter;stroke-miterlimit:4;stroke-dasharray:none;stroke-opacity:1" />
    <path
       id="path8361"
       d="M 546.18,396.75 C 546.18,396.75 550.02,402.27 553.86,400.35 557.69,398.43 557.02,393.38 558.43,391.93 559.91,390.49 555.54,380.88 553.18,381.12 550.76,381.36 545.91,384.48 545.91,386.17 545.91,387.85 544.77,388.09 543.29,390.02 541.88,391.93 541.88,393.86 546.18,396.75 Z"
       style="display:inline;fill:#c9b293;fill-opacity:1;fill-rule:evenodd;stroke:#c9b293;stroke-width:1;stroke-linecap:butt;stroke-linejoin:miter;stroke-miterlimit:4;stroke-dasharray:none;stroke-opacity:1" />
    <path
       id="path8363"
       d="M 578.62,368.14 C 578.62,368.14 569.47,373.91 573.37,376.07 577.21,378.24 579.1,374.87 581.52,376.55 583.94,378.24 586.3,378.24 587.31,375.35 588.25,372.47 587.98,370.3 590.2,369.34 592.35,368.38 586.3,360.69 582.93,362.13 579.57,363.57 580.1,364.53 578.62,368.14 Z"
       style="display:inline;fill:#c9b293;fill-opacity:1;fill-rule:evenodd;stroke:#c9b293;stroke-width:1;stroke-linecap:butt;stroke-linejoin:miter;stroke-miterlimit:4;stroke-dasharray:none;stroke-opacity:1" />
    <path
       id="path8383"
       d="M 523.9,450.13 C 523.9,450.13 527.34,449.28 526.8,446.23 526.33,443.17 525.12,438.92 527.67,437.73 530.23,436.54 529.56,435.86 532.25,435.86 534.94,435.86 536.15,435.35 539.39,435.52 542.62,435.69 546.72,435.86 549.41,436.03 552.11,436.2 552.31,435.69 555.87,438.58 559.44,441.46 562.13,439.09 562.13,444.01 562.13,448.95 561.46,445.72 559.31,447.41 557.09,449.12 555,448.95 556.08,450.13 557.09,451.32 557.42,453.36 555.34,454.72 553.32,456.08 552.85,454.72 555,458.3 557.22,461.86 559.78,462.2 558.77,464.07 557.76,465.94 557.09,463.22 556.08,466.28 555,469.34 552.31,468.49 549.28,468.49 546.18,468.49 546.52,471.89 543.49,471.55 540.39,471.21 540.93,470.02 540.6,472.91 540.26,475.8 538.04,479.71 536.83,480.05 535.68,480.39 534.81,484.98 533.8,485.83 532.79,486.68 531.71,488.04 530.7,485.66 529.69,483.28 530.9,484.13 529.36,481.07 527.81,478.01 528.68,475.46 526.33,474.78 523.9,474.1 523.23,473.59 522.42,472.4 521.55,471.21 519.33,472.4 518.32,469.85 517.31,467.3 514.89,459.14 517.65,457.78 520.34,456.43 520.34,452 523.9,450.13 Z"
       style="display:inline;fill:#986749;fill-opacity:1;fill-rule:evenodd;stroke:#986749;stroke-width:1;stroke-linecap:butt;stroke-linejoin:miter;stroke-miterlimit:4;stroke-dasharray:none;stroke-opacity:1" />
    <path
       id="path8385"
       d="M 566.11,375.17 C 566.11,375.17 565.57,376.2 563.55,377.05 561.46,377.89 560.12,380.62 562.87,380.62 565.57,380.62 565.9,377.89 568.12,378.41 570.35,378.92 568.93,375.35 566.11,375.17 Z"
       style="display:inline;fill:#c9b293;fill-opacity:1;fill-rule:evenodd;stroke:#c9b293;stroke-width:1;stroke-linecap:butt;stroke-linejoin:miter;stroke-miterlimit:4;stroke-dasharray:none;stroke-opacity:1" />
    <path
       id="path8387"
       d="M 574.38,383.84 C 577.48,385.03 581.85,383.84 581.18,382.66 580.51,381.47 578.69,380.79 577.28,380.79 575.93,380.79 571.35,382.66 574.38,383.84 Z"
       style="display:inline;fill:#c9b293;fill-opacity:1;fill-rule:evenodd;stroke:#c9b293;stroke-width:1;stroke-linecap:butt;stroke-linejoin:miter;stroke-miterlimit:4;stroke-dasharray:none;stroke-opacity:1" />
    <path
       id="path8389"
       d="M 109.71,704.75 C 115.5,702.71 124.85,713.25 120.07,718.69 118.8,720.13 112.4,728.89 101.7,727.53 86.557,725.14 50.078,711.1 53.106,697.44 55.462,688.6 61.385,680.2 67.24,679.43 73.096,678.65 78.817,678.61 96.451,682.83 114.08,687.05 95.576,710.84 109.71,704.75 Z"
       style="display:inline;fill:#e7e2dc;fill-opacity:1;fill-rule:evenodd;stroke:#e7e2dc;stroke-width:1;stroke-linecap:butt;stroke-linejoin:miter;stroke-miterlimit:4;stroke-dasharray:none;stroke-opacity:1" />
    <path
       id="path8391"
       d="M 48.866,583.9 C 48.866,583.9 46.443,594.27 46.847,598.35 47.184,602.43 49.337,600.56 49.203,596.48 49.001,592.4 49.001,592.57 50.212,590.19 51.424,587.81 49.876,582.03 48.866,583.9 Z"
       style="display:inline;fill:#986749;fill-opacity:1;fill-rule:evenodd;stroke:#986749;stroke-width:1;stroke-linecap:butt;stroke-linejoin:miter;stroke-miterlimit:4;stroke-dasharray:none;stroke-opacity:1" />
    <path
       id="path8393"
       d="M 46.443,581.01 C 46.443,581.01 48.866,582.2 50.078,581.35 51.222,580.5 51.222,576.93 47.991,577.1 44.761,577.27 42.876,578.46 46.443,581.01 Z"
       style="display:inline;fill:#986749;fill-opacity:1;fill-rule:evenodd;stroke:#986749;stroke-width:1;stroke-linecap:butt;stroke-linejoin:miter;stroke-miterlimit:4;stroke-dasharray:none;stroke-opacity:1" />
    <path
       id="path8395"
       d="M 59.5,620.78 C 57.818,619.74 54.52,619.59 53.981,623.17 53.443,626.74 54.116,629.28 56.001,629.28 57.885,629.28 63.269,628.44 62.26,624.86 61.25,621.29 61.25,621.82 59.5,620.78 Z"
       style="display:inline;fill:#986749;fill-opacity:1;fill-rule:evenodd;stroke:#986749;stroke-width:1;stroke-linecap:butt;stroke-linejoin:miter;stroke-miterlimit:4;stroke-dasharray:none;stroke-opacity:1" />
    <path
       id="path8397"
       d="M 52.433,658.35 C 51.558,656.56 51.895,654.61 53.106,654.1 54.318,653.59 56.674,649 55.799,646.96 54.991,644.92 52.77,642.54 52.77,640.33 52.77,638.12 52.231,633.2 49.337,634.72 46.443,636.25 47.991,642.71 46.309,645.77 44.626,648.83 45.972,649.51 44.424,650.36 42.876,651.21 45.097,653.76 45.636,656.48 46.107,659.2 45.972,661.58 47.318,664.3 48.664,667.02 47.52,669.06 49.539,670.59 51.558,672.12 49.876,667.36 52.097,666.85 54.318,666.34 56.337,666.5 58.02,662.43 59.702,658.35 61.25,661.41 61.923,659.54 62.193,658.76 64.279,656.29 62.798,654.71 61.52,653.34 60.173,651.89 59.231,654.44 58.289,656.99 57.212,660.74 54.991,660.56 52.77,660.39 53.106,659.89 52.433,658.35 Z"
       style="display:inline;fill:#e7e2dc;fill-opacity:1;fill-rule:evenodd;stroke:#e7e2dc;stroke-width:1;stroke-linecap:butt;stroke-linejoin:miter;stroke-miterlimit:4;stroke-dasharray:none;stroke-opacity:1" />
    <path
       id="path8399"
       d="M 87.163,616.54 C 86.826,615.82 84.807,615.18 84.874,618.06 84.942,620.95 85.413,625.71 83.932,627.41 82.451,629.12 84.74,635.23 85.749,633.53 86.759,631.83 85.817,627.25 87.095,626.22 88.374,625.2 87.499,617.26 87.163,616.54 Z"
       style="display:inline;fill:#986749;fill-opacity:1;fill-rule:evenodd;stroke:#986749;stroke-width:1;stroke-linecap:butt;stroke-linejoin:miter;stroke-miterlimit:4;stroke-dasharray:none;stroke-opacity:1" />
    <path
       id="path8401"
       d="M 90.326,613.22 C 90.326,613.22 92.345,609.48 90.865,608.8 89.317,608.12 88.105,608.8 88.105,611.52 88.105,614.24 89.047,614.92 90.326,613.22 Z"
       style="display:inline;fill:#986749;fill-opacity:1;fill-rule:evenodd;stroke:#986749;stroke-width:1;stroke-linecap:butt;stroke-linejoin:miter;stroke-miterlimit:4;stroke-dasharray:none;stroke-opacity:1" />
    <path
       id="path8403"
       d="M 162.54,676.96 C 161.13,676.03 160.05,665.35 163.82,664.46 168.2,663.46 181.93,667.23 184.55,668.63 186.3,669.57 187.04,670.41 187.25,672.11 187.38,673.81 184.22,676.88 179.24,677.13 170.76,677.56 164.03,677.89 162.54,676.96 Z"
       style="display:inline;fill:#94ca90;fill-opacity:1;fill-rule:evenodd;stroke:#94ca90;stroke-width:1;stroke-linecap:butt;stroke-linejoin:miter;stroke-miterlimit:4;stroke-dasharray:none;stroke-opacity:1" />
    <path
       id="path8405"
       d="M 215.45,680.79 C 215.45,680.79 219.69,679.94 218.68,678.4 217.67,676.88 211.88,675 211.54,677.89 211.21,680.79 211.21,682.31 213.02,682.83 214.91,683.34 214.44,681.8 215.45,680.79 Z"
       style="display:inline;fill:#e7e2dc;fill-opacity:1;fill-rule:evenodd;stroke:#e7e2dc;stroke-width:1;stroke-linecap:butt;stroke-linejoin:miter;stroke-miterlimit:4;stroke-dasharray:none;stroke-opacity:1" />
    <path
       id="path8407"
       d="M 233.95,684.35 C 229.85,683.44 230.79,688.43 230.19,689.62 227.96,693.88 231.06,693.53 233.95,692.69 236.85,691.84 237.19,691.83 236.98,688.78 236.85,685.71 235.91,684.78 233.95,684.35 Z"
       style="display:inline;fill:#e7e2dc;fill-opacity:1;fill-rule:evenodd;stroke:#e7e2dc;stroke-width:1;stroke-linecap:butt;stroke-linejoin:miter;stroke-miterlimit:4;stroke-dasharray:none;stroke-opacity:1" />
    <path
       id="path8409"
       d="M 236.18,664.98 C 236.18,664.98 234.83,658.86 231.4,661.41 228.03,663.96 232.27,666 232.74,668.89 233.28,671.77 236.18,669.23 236.18,664.98 Z"
       style="display:inline;fill:#e7e2dc;fill-opacity:1;fill-rule:evenodd;stroke:#e7e2dc;stroke-width:1;stroke-linecap:butt;stroke-linejoin:miter;stroke-miterlimit:4;stroke-dasharray:none;stroke-opacity:1" />
    <path
       id="path8411"
       d="M 217.94,692.17 C 217.94,692.17 215.58,690.98 215.24,695.06 214.91,699.14 216.59,699.14 218.68,698.29 220.7,697.44 222.92,698.29 221.91,695.57 220.9,692.85 220.36,693.7 217.94,692.17 Z"
       style="display:inline;fill:#e7e2dc;fill-opacity:1;fill-rule:evenodd;stroke:#e7e2dc;stroke-width:1;stroke-linecap:butt;stroke-linejoin:miter;stroke-miterlimit:4;stroke-dasharray:none;stroke-opacity:1" />
    <path
       id="path8413"
       d="M 268.82,584.12 C 268.82,584.12 268.21,581.23 270.23,582.07 272.25,582.91 271.58,585.68 273.33,585.2 275.15,584.72 276.02,586.16 278.78,587.36 281.54,588.57 286.18,587.96 288.88,585.08 291.5,582.19 297.29,581.59 296.82,584.24 296.28,586.88 298.1,591.09 287.19,590.85 276.22,590.6 276.36,590.85 275.55,588.92 274.67,587 271.44,588.69 270.57,586.52 269.76,584.36 269.9,586.16 268.82,584.12 Z"
       style="display:inline;fill:#e7e2dc;fill-opacity:1;fill-rule:evenodd;stroke:#e7e2dc;stroke-width:1;stroke-linecap:butt;stroke-linejoin:miter;stroke-miterlimit:4;stroke-dasharray:none;stroke-opacity:1" />
    <path
       id="path8415"
       d="M 300.25,588.92 C 300.25,588.92 302.54,587.96 302.07,585.92 301.6,583.87 302.34,581.59 303.62,582.31 304.96,583.03 303.88,584.96 306.38,584 308.93,583.03 320.11,581.96 320.71,584.36 321.32,586.76 314.25,586.4 313.04,588.2 311.83,590.01 308.8,589.53 307.25,591.45 305.7,593.37 297.42,591.57 300.25,588.92 Z"
       style="display:inline;fill:#e7e2dc;fill-opacity:1;fill-rule:evenodd;stroke:#e7e2dc;stroke-width:1;stroke-linecap:butt;stroke-linejoin:miter;stroke-miterlimit:4;stroke-dasharray:none;stroke-opacity:1" />
    <path
       id="path8417"
       d="M 319.16,595.42 C 319.16,595.42 322.39,592.41 327.31,592.29 332.22,592.17 335.38,596.14 337.2,594.81 338.95,593.49 337.81,591.32 333.43,588.8 329.12,586.28 323.74,586.88 320.71,589.04 317.68,591.21 316.4,595.89 319.16,595.42 Z"
       style="display:inline;fill:#e7e2dc;fill-opacity:1;fill-rule:evenodd;stroke:#e7e2dc;stroke-width:1;stroke-linecap:butt;stroke-linejoin:miter;stroke-miterlimit:4;stroke-dasharray:none;stroke-opacity:1" />
    <path
       id="path8419"
       d="M 324.21,603.22 C 324.21,603.22 328.79,597.82 334.44,597.7 340.03,597.58 341.51,598.54 341.51,600.58 341.51,602.63 342.25,605.15 338.75,605.03 335.25,604.91 329.6,606.59 328.38,605.51 327.17,604.43 327.31,603.1 326.03,603.47 324.68,603.83 323.61,604.55 324.21,603.22 Z"
       style="display:inline;fill:#e7e2dc;fill-opacity:1;fill-rule:evenodd;stroke:#e7e2dc;stroke-width:1;stroke-linecap:butt;stroke-linejoin:miter;stroke-miterlimit:4;stroke-dasharray:none;stroke-opacity:1" />
    <path
       id="path8421"
       d="M 383.78,592.17 C 383.78,592.17 387.28,592.65 389.7,590.37 392.12,588.08 391.11,587.12 386.67,585.56 382.23,584 382.97,586.52 381.42,588.44 379.87,590.37 381.62,591.93 383.78,592.17 Z"
       style="display:inline;fill:#e7e2dc;fill-opacity:1;fill-rule:evenodd;stroke:#e7e2dc;stroke-width:1;stroke-linecap:butt;stroke-linejoin:miter;stroke-miterlimit:4;stroke-dasharray:none;stroke-opacity:1" />
    <path
       id="path8423"
       d="M 375.36,602.94 C 375.36,602.94 378.66,606.19 383.24,605.47 387.75,604.75 390.78,603.9 387.14,603.42 383.57,602.94 377.58,601.62 381.76,599.82 386,598.02 389.36,597.77 387.88,597.17 386.47,596.58 382.09,595.13 379.87,596.58 377.58,598.02 376.1,598.37 375.9,599.7 375.63,601.02 374.69,601.86 375.36,602.94 Z"
       style="display:inline;fill:#e7e2dc;fill-opacity:1;fill-rule:evenodd;stroke:#e7e2dc;stroke-width:1;stroke-linecap:butt;stroke-linejoin:miter;stroke-miterlimit:4;stroke-dasharray:none;stroke-opacity:1" />
    <path
       id="path8425"
       d="M 458.69,585.2 C 458.69,585.2 462.05,584.72 462.99,585.8 464,586.88 466.16,585.2 468.04,585.2 469.99,585.2 467.1,583.27 464,582.19 460.84,581.11 458.82,582.19 457.14,581.96 455.46,581.71 456.53,586.76 458.69,585.2 Z"
       style="display:inline;fill:#986749;fill-opacity:1;fill-rule:evenodd;stroke:#986749;stroke-width:1;stroke-linecap:butt;stroke-linejoin:miter;stroke-miterlimit:4;stroke-dasharray:none;stroke-opacity:1" />
    <path
       id="path8427"
       d="M 468.18,580.15 C 468.04,580.7 469.86,582.31 470.94,582.55 472.01,582.79 470.6,586.52 474.1,586.16 477.53,585.8 481.5,584.96 478.54,581.59 475.51,578.23 476.79,578.23 472.15,578.11 467.44,577.99 468.51,578.89 468.18,580.15 Z"
       style="display:inline;fill:#986749;fill-opacity:1;fill-rule:evenodd;stroke:#986749;stroke-width:1;stroke-linecap:butt;stroke-linejoin:miter;stroke-miterlimit:4;stroke-dasharray:none;stroke-opacity:1" />
    <path
       d="M 489.24,574.72 C 488.64,573.96 486.01,573.02 485.68,576.26 485.34,579.49 486.48,581.36 489.92,581.36 493.28,581.36 495.03,582.71 495.91,581.69 496.71,580.67 496.92,579.31 493.48,577.95 490.12,576.59 489.85,575.49 489.24,574.72 Z M 472.42,575.91 C 472.42,575.91 475.11,576.59 477.67,576.42 480.22,576.26 479.89,576.08 480.76,578.46 481.57,580.85 479.75,586.79 488.23,586.28 496.71,585.77 496.71,586.79 498.93,587.98 501.16,589.17 498.4,585.26 504.18,584.24 509.97,583.22 512.19,585.6 512.53,583.39 512.87,581.18 511.52,579.49 513.54,578.97 515.63,578.46 513.88,576.59 518.66,573.87 518.66,573.87 519.87,573.36 518.12,572.18 516.43,570.99 511.86,570.82 511.18,568.95 510.51,567.07 512.53,562.65 501.96,563.16 491.46,563.68 491.8,561.29 483.79,567.59 475.85,573.87 474.3,570.82 473.09,573.19 471.95,575.58 471.41,575.23 472.42,575.91 Z"
       style="display:inline;fill:#c9b293;fill-opacity:1;fill-rule:evenodd;stroke:#c9b293;stroke-width:1;stroke-linecap:butt;stroke-linejoin:miter;stroke-miterlimit:4;stroke-dasharray:none;stroke-opacity:1"
       id="path8431" />
    <path
       d="M 551.77,542.43 C 550.76,542.25 550.29,542.94 550.29,544.98 550.29,547.02 552.98,547.19 553.65,545.83 554.33,544.47 552.78,542.6 551.77,542.43 Z M 550.96,538.52 C 549.35,538.69 545.85,539.2 545.85,543.11 545.85,547.02 546.52,549.06 549.75,549.74 552.98,550.42 556.88,550.26 557.56,546.68 558.23,543.11 557.42,541.58 555.87,540.39 554.33,539.2 552.58,538.35 550.96,538.52 Z"
       style="display:inline;fill:#e7e2dc;fill-opacity:1;fill-rule:evenodd;stroke:#e7e2dc;stroke-width:1;stroke-linecap:butt;stroke-linejoin:miter;stroke-miterlimit:4;stroke-dasharray:none;stroke-opacity:1"
       id="path8435" />
    <path
       d="M 556.88,611.6 C 556.88,611.6 554.87,606 559.31,606.34 563.68,606.68 563.21,608.55 565.57,608.2 567.92,607.87 572.57,605.66 572.57,605.66 572.57,605.66 573.71,604.64 575.06,606.68 576.47,608.72 575.93,609.23 577.82,610.59 579.7,611.95 572.16,613.31 565.57,612.29 558.97,611.27 560.12,613.47 556.88,611.6 Z M 566.91,575.58 C 566.91,575.58 568.93,576.93 572.36,576.76 575.8,576.59 577.48,579.31 577.28,582.54 577.14,585.77 580.37,586.62 581.38,587.13 582.39,587.64 580.04,589.34 583.27,591.21 586.5,593.08 581.18,596.99 582.06,600.73 582.93,604.47 583.4,604.98 581.18,605.15 578.96,605.32 579.84,599.71 569.67,599.88 559.44,600.05 557.56,598.35 553.18,603.11 548.74,607.87 545.17,613.14 547.19,614.83 549.28,616.54 550.09,616.54 549.95,619.26 549.75,621.98 553.86,624.01 558.77,623.5 563.68,622.99 562.67,624.36 567.25,622.66 571.83,620.95 572.36,620.95 572.9,624.69 573.37,628.44 576.81,629.28 582.39,628.09 587.98,626.9 584.95,627.08 588.85,624.18 592.76,621.3 587.31,622.82 592.62,615.69 592.62,615.69 592.76,613.14 591.55,606.17 590.4,599.2 591.88,591.72 592.62,590.02 593.3,588.32 590.74,586.11 588.65,582.54 586.63,578.97 587.84,579.82 584.61,578.12 581.38,576.42 581.38,574.55 578.96,574.55 576.6,574.55 576.13,570.82 576.94,569.28 577.82,567.75 576.81,565.04 572.57,565.72 568.26,566.39 568.8,568.95 570.35,569.63 571.83,570.31 571.02,572.34 568.6,572.68 566.24,573.02 565.36,574.56 566.91,575.58 Z"
       style="display:inline;fill:#c9b293;fill-opacity:1;fill-rule:evenodd;stroke:#c9b293;stroke-width:1;stroke-linecap:butt;stroke-linejoin:miter;stroke-miterlimit:4;stroke-dasharray:none;stroke-opacity:1"
       id="path8439" />
    <path
       id="path8443"
       d="M 572.7,500.95 C 572.7,500.95 571.49,504.35 572.03,506.9 572.57,509.45 569.67,510.13 568.93,511.66 568.26,513.2 566.91,514.72 568.12,516.42 569.34,518.12 570.82,521.18 569.47,523.05 568.12,524.92 570.01,528.32 568.12,527.64 566.24,526.96 565.9,524.41 566.78,522.71 567.59,521.01 567.92,519.82 566.24,518.8 564.56,517.78 560.12,521.52 559.44,523.05 558.77,524.58 556.88,529 562.34,531.38 567.79,533.76 571.83,536.31 577.61,534.27 583.4,532.23 583.6,531.72 587.98,530.53 592.42,529.34 589.39,528.15 591.41,525.26 593.43,522.37 587.84,519.99 585.62,520.33 583.4,520.67 583.4,519.32 582.06,519.14 580.71,518.97 578.62,520.16 577.61,521.35 576.6,522.54 575.06,523.05 575.06,521.01 575.06,518.97 575.06,516.76 576.27,514.56 577.48,512.34 575.06,509.11 575.06,505.54 575.06,501.98 574.25,500.62 572.7,500.95 Z"
       style="display:inline;fill:#e7e2dc;fill-opacity:1;fill-rule:evenodd;stroke:#e7e2dc;stroke-width:1;stroke-linecap:butt;stroke-linejoin:miter;stroke-miterlimit:4;stroke-dasharray:none;stroke-opacity:1" />
    <path
       id="path8441"
       d="M 574.92,478.52 C 574.92,478.52 571.49,480.22 573.24,482.6 574.92,484.98 572.57,489.23 567.92,486 563.35,482.77 561.66,485.15 562.87,487.36 564.02,489.57 565.23,490.25 565.03,493.31 564.89,496.36 568.12,498.58 571.35,497.9 574.59,497.22 580.04,492.12 582.73,496.88 585.42,501.63 585.83,504.53 587.64,501.98 589.53,499.43 589.73,497.9 587.51,493.31 585.29,488.72 585.83,482.94 582.73,480.56 579.7,478.18 577.48,479.2 574.92,478.52 Z"
       style="display:inline;fill:#e7e2dc;fill-opacity:1;fill-rule:evenodd;stroke:#e7e2dc;stroke-width:1;stroke-linecap:butt;stroke-linejoin:miter;stroke-miterlimit:4;stroke-dasharray:none;stroke-opacity:1" />
    <path
       id="path8445"
       d="M 479.42,392.34 C 479.42,392.34 480.76,393.87 482.31,393.87 483.79,393.87 488.57,394.55 488.57,392.51 488.57,390.47 487.02,385.88 484.33,386.56 481.57,387.24 479.42,388.78 479.42,392.34 Z"
       style="display:inline;fill:#c9b293;fill-opacity:1;fill-rule:evenodd;stroke:#c9b293;stroke-width:1;stroke-linecap:butt;stroke-linejoin:miter;stroke-miterlimit:4;stroke-dasharray:none;stroke-opacity:1" />
    <path
       d="M 230.12,541.6 230.32,519.1 221.23,519.05 221.1,525.22 225.74,525.22 225.61,533.4 223.12,533.4 223.05,541.77 Z M 221.77,506.72 233.55,506.53 233.89,495.64 C 234.7,496.55 235.5,497.3 235.37,498.42 235.17,500.35 234.43,506.84 237.05,505.15 239.68,503.47 241.63,497.7 242.57,497.22 243.58,496.74 243.04,491.45 247.62,490.01 252.19,488.57 253.14,487.61 253.14,483.28 253.14,478.95 256.5,480.88 256.77,476.55 257.04,472.22 248.36,464.77 256.3,456.6 264.24,448.42 265.45,446.74 268.82,445.78 272.18,444.82 273.87,442.65 276.69,441.93 279.59,441.21 278.17,432.32 281.07,425.11 283.96,417.9 278.91,402.76 275.01,398.19 271.17,393.62 272.18,366.94 270.5,362.85 268.82,358.77 269.76,356.36 276.69,357.08 283.69,357.8 273.33,366.46 274.34,371.74 275.28,377.03 277.23,396.26 280.33,397.94 283.42,399.63 285.11,404.67 284.9,411.17 284.64,417.66 283.22,426.55 283.96,430.63 284.64,434.73 288.74,438.57 288.27,441.21 287.8,443.86 283.69,445.54 280.6,445.54 277.43,445.54 253.14,455.15 258.72,469.82 264.24,484.48 264.92,478.95 264.44,483.52 263.97,488.09 267.61,486.16 269.49,490.01 271.44,493.85 281.27,494.82 283.42,493.85 283.42,493.85 290.42,495.78 293.79,495.3 297.15,494.82 295.47,500.83 300.52,501.07 305.57,501.3 311.36,500.35 313.04,501.55 314.72,502.75 317.35,499.39 318.76,500.58 320.24,501.79 314.72,505.87 313.98,507.31 313.24,508.76 312.03,506.35 309.67,509.48 307.25,512.6 306.51,515.25 306.51,515.25 306.51,515.25 310.62,518.13 313.04,517.89 315.39,517.65 319.5,516.21 320.71,517.65 321.92,519.09 330.07,516.93 332.76,512.6 335.38,508.28 334.64,507.08 337.07,507.8 339.49,508.52 338.28,512.85 342.85,510.92 347.36,509 348.58,504.67 349.79,504.67 351,504.67 354.09,504.43 354.09,502.99 354.09,501.55 357.26,502.51 359.68,500.35 362.04,498.18 399.79,498.18 401.48,499.62 403.16,501.07 411.1,502.03 412.78,501.3 414.47,500.58 408.68,498.67 410.63,498.42 412.52,498.18 428.87,498.9 430.08,501.07 431.29,503.23 434.39,500.83 436.34,502.99 438.23,505.15 441.86,509 444.75,505.63 447.65,502.27 451.69,500.11 453.17,497.94 454.58,495.78 452.9,490.97 453.64,488.33 454.38,485.68 451.96,483.52 451.96,479.91 451.96,476.31 448.86,477.03 452.23,473.18 455.59,469.33 464.68,462.37 464.47,458.76 464.21,455.15 458.69,440.73 448.59,442.41 438.49,444.09 432.5,446.26 433.45,448.42 434.39,450.59 434.86,459.72 432.98,459.97 431.02,460.2 416.62,462.6 414.67,465.25 412.78,467.89 402.69,466.21 400.53,463.57 398.38,460.92 385.12,459.48 376.51,459.72 367.82,459.97 366.95,461.96 361.83,461.16 356.71,460.36 346.89,454.68 346.89,447.94 346.89,441.21 343.8,432.8 352.95,429.19 362.04,425.59 367.56,421.27 375.3,420.78 382.97,420.3 386.33,419.34 394.01,420.3 401.75,421.27 420.46,420.3 423.82,418.38 427.19,416.45 431.29,418.62 430.35,422.22 429.34,425.83 429.34,428.72 432.71,428.72 436.07,428.72 447.18,431.12 446.17,428.95 445.23,426.79 444.01,421.27 447.65,421.74 451.22,422.22 451.48,422.46 451.01,429.91 451.01,429.91 451.22,432.56 459.16,432.08 467.1,431.6 483.19,434 484.19,430.63 485.14,427.27 486.55,421.99 482.51,420.78 478.41,419.58 470.94,416.94 476.25,413.09 476.25,413.09 479.15,408.03 476.99,398.42 474.84,388.8 472.01,387.25 469.99,385.45 467.97,383.64 469.72,371.74 453.64,366.22 437.55,360.69 428.87,360.21 424.76,356.12 420.73,352.04 411.57,358.05 403.16,350.11 394.75,342.18 383.44,337.13 369.78,337.37 L 338.48,338.33 C 338.48,338.33 336.12,333.28 324.08,333.04 312.03,332.81 302.2,332.56 298.84,335.21 298.84,335.21 288.74,334.97 284.16,339.29 284.16,339.29 283.69,340.98 279.12,339.54 274.54,338.09 260.41,340.73 257.71,340.26 255.09,339.77 252.67,338.09 239,339.29 239,339.29 229.85,335.45 217.13,338.09 204.34,340.73 188.73,334.72 186.1,332.56 183.48,330.4 165.44,325.83 151.04,328.96 136.56,332.09 131.79,332.56 131.79,332.56 131.79,332.56 117.58,330.88 114.02,334 110.38,337.13 110.11,339.29 105.07,339.29 100.02,339.29 83.932,350.11 81.038,370.06 78.144,390.02 77,379.68 76.259,395.3 75.519,410.93 73.634,408.76 76.73,414.29 76.73,414.29 74.779,425.11 78.884,428.72 82.99,432.32 70.703,441.57 76.613,446.42 82.522,451.26 82.617,449.8 82.617,453.64 82.617,457.49 80.567,459.24 73.836,458.28 67.106,457.32 68.048,470.54 72.154,471.26 76.259,471.98 78.144,472.46 76.461,474.38 74.779,476.31 76.461,482.56 74.308,482.56 74.308,482.56 66.298,480.3 63.539,482.56 60.779,484.82 59.635,492.17 61.587,492.89 63.539,493.62 65.894,494.34 65.894,497.7 65.894,501.07 66.5,513.35 64.548,513.59 62.664,513.84 53.914,523.42 49.337,528.71 44.761,534 46.712,553.71 48.597,559 50.549,564.29 53.645,567.65 57.481,568.85 61.318,570.06 61.856,571.02 61.856,576.07 61.856,581.11 70,581.83 70,581.83 70,581.83 69.529,585.92 71.211,587.84 72.894,589.76 66.298,593.89 72.894,599.86 79.49,605.83 85.144,603.94 91.403,603.47 91.403,603.47 95.509,607.07 98.605,607.07 101.7,607.07 106.55,612.36 100.29,615.24 94.028,618.13 87.297,617.89 97.864,630.39 108.43,642.89 122.63,634.96 126.74,635.19 130.84,635.44 133,634.47 131.79,638.08 130.57,641.69 128.35,651.48 131.92,653.35 135.42,655.21 140.2,655.87 142.35,659.24 144.51,662.6 151.98,659.71 156.29,661.15 160.59,662.6 163.28,651.06 167.86,650.1 172.37,649.14 163.76,638.08 166.38,628.71 169.01,619.33 166.25,615 170.69,615 175.13,615 170.96,623.18 176.95,628.46 176.95,628.46 176.61,634 180.11,634.6 183.54,635.19 183.81,639.76 189.94,636.16 196.06,632.55 193.77,631.71 196.06,630.51 198.35,629.3 194.78,627.62 199.9,623.54 205.08,619.45 199.23,602.63 198.15,601.06 197,599.5 198.69,595.53 199.43,592.41 200.17,589.29 200.5,588.57 201.99,588.8 203.4,589.04 204.74,597.7 203.87,610.08 203.06,622.45 203.67,623.42 207.37,623.66 211.07,623.9 209.39,645.29 216.86,652.63 224.33,659.96 228.77,657.43 231.67,653.23 234.56,649.02 242.84,635.91 242.7,622.57 242.57,609.23 242.23,610.56 242.23,610.56 L 237.05,609.95 236.31,601.78 225.61,602.03 226.01,598.78 230.46,598.66 230.59,600.59 239.88,600.34 239.68,591.81 230.19,592.05 230.12,593.97 225.27,594.09 225.54,590.37 237.93,590.25 237.93,585.56 235.17,585.2 235.17,580.75 236.85,580.87 236.85,573.66 240.15,573.18 240.08,562 231.4,562.31 231.53,551.55 228.17,551.43 223.72,547.78 236.85,547.7 236.85,539.28 235.64,538.81 235.37,532.8 237.52,532.55 237.05,512.85 221.5,512.81 Z M 217.4,525.22 215.18,525.28 214.84,533.4 218.41,533.52 218.21,541.38 214.71,541.42 C 214.71,541.42 216.59,540.39 214.5,537.78 213.56,536.61 210.47,535.95 210.4,532.31 210.13,523.42 203.2,520.78 203.4,516.45 203.67,512.13 199.56,508.76 199.29,506.59 199.09,504.43 192.09,508.52 190.41,509.72 188.73,510.92 186.84,518.86 184.42,521.26 182,523.66 181.32,528.47 179.84,530.64 178.43,532.8 174.32,536.88 176.01,541.93 177.69,546.98 176.95,546.98 175.06,551.31 173.11,555.63 167.32,558.51 167.32,554.19 167.32,549.86 166.85,548.18 166.85,545.29 166.85,542.41 172.37,519.09 174.79,518.13 177.22,517.17 178.9,516.45 180.58,515.01 182.26,513.57 182.26,512.6 185.83,509.96 189.47,507.31 187.04,503.95 189.47,502.75 191.89,501.55 195.73,496.98 199.83,495.06 203.87,493.13 211.07,493.38 211.07,493.38 L 209.73,519.15 217.6,519.14 Z M 357.86,462.49 C 357.86,462.49 353.08,461.47 352.75,463.68 352.41,465.89 352.95,467.59 354.83,467.42 356.65,467.25 359.21,467.42 359.41,466.06 359.55,464.7 359.75,463.34 357.86,462.49 Z M 367.49,363.81 C 366.21,363.48 365,365.25 363.72,364.9 362.1,364.45 361.9,360.99 360.22,361.17 358.6,361.34 356.38,360.69 355.71,361.77 354.7,363.43 356.25,366.12 357.86,367.18 360.29,368.77 363.85,367.73 366.61,366.82 367.49,366.53 368.83,366.18 368.9,365.25 368.97,364.59 368.16,363.98 367.49,363.81 Z M 118.19,344.58 C 118.19,344.58 112.74,343.22 110.38,345.6 108.03,347.98 109.71,346.62 111.06,349 112.4,351.38 108.03,353.76 108.03,353.76 108.03,353.76 104.26,353.08 103.92,354.78 103.59,356.48 104.26,359.2 104.26,359.2 104.26,359.2 106.41,360.33 112.07,360.28 117.72,360.23 126.4,363.15 132.46,359.94 135.82,358.15 137.17,354.35 135.22,354.01 131.85,351.99 120.61,353.31 119.2,350.45 118.39,348.24 118.19,344.58 118.19,344.58 Z M 187.5,477.51 C 187.5,477.51 183.79,473.48 181.43,474.5 179.01,475.52 178,477.56 181.1,478.58 184.13,479.6 186.82,479.89 187.5,477.51 Z M 182.47,461.26 C 182.47,461.26 179.71,463.64 181.79,465.68 183.81,467.72 185.5,469.76 187.58,469.76 189.6,469.76 189.6,465 186.84,462.96 184.15,460.92 186.84,460.24 182.47,461.26 Z M 217.47,441.81 C 217.47,441.81 210.67,443.5 209.66,446.57 208.65,449.63 213.02,452.68 215.11,452.68 217.13,452.68 218.81,452.35 218.81,450.64 218.81,448.95 215.11,449.63 215.78,447.59 216.46,445.55 220.16,445.21 217.47,441.81 Z M 113.82,569.96 C 113.82,569.96 110.38,574.72 112.74,575.4 115.16,576.08 116.84,573.36 115.5,572 114.15,570.64 116.17,569.63 113.82,569.96 Z M 104.26,584.24 C 104.26,584.24 102.24,581.18 101.57,584.58 100.89,587.98 100.89,591.04 104.26,594.1 107.69,597.16 110.72,592.06 109.71,591.38 108.7,590.7 105.27,589 105.27,589 105.27,589 104.59,585.6 104.26,584.24 Z M 67.914,546.85 C 67.914,546.85 68.587,541.07 73.298,539.71 78.077,538.35 83.865,540.39 86.557,539.37 89.317,538.35 93.018,538.01 93.018,540.05 93.018,542.09 93.018,547.19 93.355,549.57 93.759,551.94 82.519,548.21 78.75,548.89 75.048,549.57 69.596,549.57 67.914,546.85 Z M 215.92,512.85 216.39,495.06 229.98,494.95 229.85,501.9 218.47,502.08 217.87,512.87 Z M 212.15,562.6 212.28,547.94 217.94,547.8 217.94,551.73 221.77,552.03 227.56,555.99 227.56,562.3 Z"
       style="display:inline;fill:#94ca90;fill-opacity:1;fill-rule:evenodd;stroke:#94ca90;stroke-width:1;stroke-linecap:butt;stroke-linejoin:miter;stroke-miterlimit:4;stroke-dasharray:none;stroke-opacity:1"
       id="path8333" />
    <path
       id="path8728"
       d="M 402.08,434.23 C 402.08,434.23 395.35,439.53 397.1,443.42 398.92,447.29 402.76,448.71 406.32,448 409.82,447.29 413.32,449.06 416.22,446.94 419.04,444.82 420.05,438.12 416.55,434.94 412.99,431.76 405.92,432.47 402.08,434.23 Z"
       style="fill:#94ca90;fill-opacity:1;fill-rule:evenodd;stroke:#94ca90;stroke-width:1;stroke-linecap:butt;stroke-linejoin:miter;stroke-miterlimit:4;stroke-dasharray:none;stroke-opacity:1" />
  </g>
  <g
     transform="translate(30.132999,-288.07999)"
     style="display:inline"
     id="layer10">
    <path
       id="path8915"
       d="M 225.81,470.22 225.81,349.03"
       style="display:inline;fill:none;fill-opacity:1;fill-rule:evenodd;stroke:#000000;stroke-width:1;stroke-linecap:butt;stroke-linejoin:miter;stroke-miterlimit:4;stroke-dasharray:none;stroke-opacity:1" />
    <path
       id="path8917"
       d="M 145,349.03 225.81,349.03"
       style="display:inline;fill:none;fill-opacity:1;fill-rule:evenodd;stroke:#000000;stroke-width:1;stroke-linecap:butt;stroke-linejoin:miter;stroke-miterlimit:4;stroke-dasharray:none;stroke-opacity:1" />
    <path
       id="path8921"
       d="M 155,470.73 225.81,470.73"
       style="display:inline;fill:none;fill-opacity:1;fill-rule:evenodd;stroke:#000000;stroke-width:1;stroke-linecap:butt;stroke-linejoin:miter;stroke-miterlimit:4;stroke-dasharray:none;stroke-opacity:1" />
    <path
       style="display:inline;fill:none;fill-opacity:1;fill-rule:evenodd;stroke:#000000;stroke-width:1;stroke-linecap:butt;stroke-linejoin:miter;stroke-miterlimit:4;stroke-dasharray:none;stroke-opacity:1"
       d="M 125.21,349.03 143.81,349.03"
       id="path8923" />
    <path
       id="path8925"
       d="M 125.14,349.1 125.14,385.03"
       style="display:inline;fill:none;fill-opacity:1;fill-rule:evenodd;stroke:#000000;stroke-width:1;stroke-linecap:butt;stroke-linejoin:miter;stroke-miterlimit:4;stroke-dasharray:none;stroke-opacity:1" />
    <path
       style="display:inline;fill:none;fill-opacity:1;fill-rule:evenodd;stroke:#000000;stroke-width:1;stroke-linecap:butt;stroke-linejoin:miter;stroke-miterlimit:4;stroke-dasharray:none;stroke-opacity:1"
       d="M 83.905,514.22 83.905,385.03"
       id="path8927" />
    <path
       id="path8929"
       d="M 83.905,385.03 125.14,385.03"
       style="display:inline;fill:none;fill-opacity:1;fill-rule:evenodd;stroke:#000000;stroke-width:1;stroke-linecap:butt;stroke-linejoin:miter;stroke-miterlimit:4;stroke-dasharray:none;stroke-opacity:1" />
    <path
       id="path8931"
       d="M 153.81,470.73 125.21,470.91 125.21,513.03 83.905,513.03"
       style="display:inline;fill:none;fill-opacity:1;fill-rule:evenodd;stroke:#000000;stroke-width:1;stroke-linecap:butt;stroke-linejoin:miter;stroke-miterlimit:4;stroke-dasharray:none;stroke-opacity:1" />
    <path
       id="path8937"
       d="M 153.32,580.81 153.32,618.74"
       style="display:inline;fill:none;fill-opacity:1;fill-rule:evenodd;stroke:#000000;stroke-width:1;stroke-linecap:butt;stroke-linejoin:miter;stroke-miterlimit:4;stroke-dasharray:none;stroke-opacity:1" />
    <path
       style="display:inline;fill:none;fill-opacity:1;fill-rule:evenodd;stroke:#000000;stroke-width:1;stroke-linecap:butt;stroke-linejoin:miter;stroke-miterlimit:4;stroke-dasharray:none;stroke-opacity:1"
       d="M 152.29,581.55 112.36,581.55"
       id="path8939" />
    <path
       id="path8945"
       d="M 83.98,515.06 83.98,581.59"
       style="display:inline;fill:none;fill-opacity:1;fill-rule:evenodd;stroke:#000000;stroke-width:1;stroke-linecap:butt;stroke-linejoin:miter;stroke-miterlimit:4;stroke-dasharray:none;stroke-opacity:1" />
    <path
       id="path8947"
       d="M 111.21,581.55 83.98,581.55"
       style="display:inline;fill:none;fill-opacity:1;fill-rule:evenodd;stroke:#000000;stroke-width:1;stroke-linecap:butt;stroke-linejoin:miter;stroke-miterlimit:4;stroke-dasharray:none;stroke-opacity:1" />
    <path
       id="path8951"
       d="M 205.29,544.85 153.32,544.83 153.32,580.74"
       style="display:inline;fill:none;fill-opacity:1;fill-rule:evenodd;stroke:#000000;stroke-width:1;stroke-linecap:butt;stroke-linejoin:miter;stroke-miterlimit:4;stroke-dasharray:none;stroke-opacity:1" />
    <path
       id="path8957"
       d="M 217.42,594.44 217.31,580.18 205.32,580.14 205.32,544.71"
       style="display:inline;fill:none;fill-opacity:1;fill-rule:evenodd;stroke:#000000;stroke-width:1;stroke-linecap:butt;stroke-linejoin:miter;stroke-miterlimit:4;stroke-dasharray:none;stroke-opacity:1" />
    <path
       style="display:inline;fill:none;fill-opacity:1;fill-rule:evenodd;stroke:#000000;stroke-width:1;stroke-linecap:butt;stroke-linejoin:miter;stroke-miterlimit:4;stroke-dasharray:none;stroke-opacity:1"
       d="M 229,470.73 299.81,470.73"
       id="path8963" />
    <path
       style="display:inline;fill:none;fill-opacity:1;fill-rule:evenodd;stroke:#000000;stroke-width:1;stroke-linecap:butt;stroke-linejoin:miter;stroke-miterlimit:4;stroke-dasharray:none;stroke-opacity:1"
       d="M 291,470.22 291,351.75 311.81,351.75"
       id="path8965" />
    <path
       style="display:inline;fill:none;fill-opacity:1;fill-rule:evenodd;stroke:#000000;stroke-width:1;stroke-linecap:butt;stroke-linejoin:miter;stroke-miterlimit:4;stroke-dasharray:none;stroke-opacity:1"
       d="M 313,351.75 326.31,351.68 326.31,412.34"
       id="path8969" />
    <path
       id="path8973"
       d="M 326.31,412.34 454.96,412.34"
       style="display:inline;fill:none;fill-opacity:1;fill-rule:evenodd;stroke:#000000;stroke-width:1;stroke-linecap:butt;stroke-linejoin:miter;stroke-miterlimit:4;stroke-dasharray:none;stroke-opacity:1" />
    <path
       style="display:inline;fill:none;fill-opacity:1;fill-rule:evenodd;stroke:#000000;stroke-width:1;stroke-linecap:butt;stroke-linejoin:miter;stroke-miterlimit:4;stroke-dasharray:none;stroke-opacity:1"
       d="M 299.81,470.73 407.8,470.73"
       id="path8975" />
    <path
       style="display:inline;fill:none;fill-opacity:1;fill-rule:evenodd;stroke:#000000;stroke-width:1;stroke-linecap:butt;stroke-linejoin:miter;stroke-miterlimit:4;stroke-dasharray:none;stroke-opacity:1"
       d="M 391.8,412.34 391.8,455.23 407.8,455.23 407.8,471.23"
       id="path8997" />
    <g
       id="g115334">
      <path
         id="path8919"
         d="M 171,404.78 225.81,404.78"
         style="display:inline;fill:none;fill-opacity:1;fill-rule:evenodd;stroke:#000000;stroke-width:1;stroke-linecap:butt;stroke-linejoin:miter;stroke-miterlimit:4;stroke-dasharray:none;stroke-opacity:1" />
      <path
         style="display:inline;fill:none;fill-opacity:1;fill-rule:evenodd;stroke:#000000;stroke-width:1;stroke-linecap:butt;stroke-linejoin:miter;stroke-miterlimit:4;stroke-dasharray:none;stroke-opacity:1"
         d="M 201,405.11 201,391.36 225.77,391.36"
         id="path9001" />
    </g>
    <g
       style="fill:none"
       id="g115330">
      <path
         style="display:inline;fill:none;fill-opacity:1;fill-rule:evenodd;stroke:#000000;stroke-width:1;stroke-linecap:butt;stroke-linejoin:miter;stroke-miterlimit:4;stroke-dasharray:none;stroke-opacity:1"
         d="M 502.23,498.79 502.23,412.34"
         id="path9007" />
      <path
         style="display:inline;fill:none;fill-opacity:1;fill-rule:evenodd;stroke:#000000;stroke-width:1;stroke-linecap:butt;stroke-linejoin:miter;stroke-miterlimit:4;stroke-dasharray:none;stroke-opacity:1"
         d="M 562,417.36 518,417.36 518,412.34 500,412.34 454.86,412.34"
         id="path9009" />
    </g>
    <path
       id="path9019"
       d="M 562,418.08 562,513.08"
       style="display:inline;fill:none;fill-opacity:1;fill-rule:evenodd;stroke:#000000;stroke-width:1;stroke-linecap:butt;stroke-linejoin:miter;stroke-miterlimit:4;stroke-dasharray:none;stroke-opacity:1" />
    <path
       id="path9021"
       d="M 562,545.36 618.1,545.36"
       style="display:inline;fill:none;fill-opacity:1;fill-rule:evenodd;stroke:#000000;stroke-width:1;stroke-linecap:butt;stroke-linejoin:miter;stroke-miterlimit:4;stroke-dasharray:none;stroke-opacity:1" />
    <path
       id="path9023"
       d="M 618.1,522.36 618.1,545.36"
       style="display:inline;fill:none;fill-opacity:1;fill-rule:evenodd;stroke:#000000;stroke-width:1;stroke-linecap:butt;stroke-linejoin:miter;stroke-miterlimit:4;stroke-dasharray:none;stroke-opacity:1" />
    <path
       id="path9025"
       d="M 562,513.08 562,545.36 562,576.65"
       style="display:inline;fill:none;fill-opacity:1;fill-rule:evenodd;stroke:#000000;stroke-width:1;stroke-linecap:butt;stroke-linejoin:miter;stroke-miterlimit:4;stroke-dasharray:none;stroke-opacity:1" />
    <path
       id="path9039"
       d="M 453.57,594.47 491.43,594.47"
       style="display:inline;fill:none;fill-opacity:1;fill-rule:evenodd;stroke:#000000;stroke-width:1;stroke-linecap:butt;stroke-linejoin:miter;stroke-miterlimit:4;stroke-dasharray:none;stroke-opacity:1" />
    <path
       id="path9037"
       d="M 491.43,594.47 531.43,594.47"
       style="display:inline;fill:none;fill-opacity:1;fill-rule:evenodd;stroke:#000000;stroke-width:1;stroke-linecap:butt;stroke-linejoin:miter;stroke-miterlimit:4;stroke-dasharray:none;stroke-opacity:1" />
    <path
       id="path9027"
       d="M 531.43,594.47 562,594.47"
       style="display:inline;fill:none;fill-opacity:1;fill-rule:evenodd;stroke:#000000;stroke-width:1;stroke-linecap:butt;stroke-linejoin:miter;stroke-miterlimit:4;stroke-dasharray:none;stroke-opacity:1" />
    <path
       id="path9029"
       d="M 562,576.65 562,594.47"
       style="display:inline;fill:none;fill-opacity:1;fill-rule:evenodd;stroke:#000000;stroke-width:1;stroke-linecap:butt;stroke-linejoin:miter;stroke-miterlimit:4;stroke-dasharray:none;stroke-opacity:1" />
    <path
       id="path9031"
       d="M 503.57,501.12 562,501.12"
       style="display:inline;fill:none;fill-opacity:1;fill-rule:evenodd;stroke:#000000;stroke-width:1;stroke-linecap:butt;stroke-linejoin:miter;stroke-miterlimit:4;stroke-dasharray:none;stroke-opacity:1" />
    <path
       id="path9045"
       d="M 217.14,594.47 294.25,594.47"
       style="display:inline;fill:none;fill-opacity:1;fill-rule:evenodd;stroke:#000000;stroke-width:1;stroke-linecap:butt;stroke-linejoin:miter;stroke-miterlimit:4;stroke-dasharray:none;stroke-opacity:1" />
    <path
       id="path9043"
       d="M 294.25,594.47 378.28,594.47"
       style="display:inline;fill:none;fill-opacity:1;fill-rule:evenodd;stroke:#000000;stroke-width:1;stroke-linecap:butt;stroke-linejoin:miter;stroke-miterlimit:4;stroke-dasharray:none;stroke-opacity:1" />
    <path
       id="path9033"
       d="M 378.28,594.47 452.86,594.47"
       style="display:inline;fill:none;fill-opacity:1;fill-rule:evenodd;stroke:#000000;stroke-width:1;stroke-linecap:butt;stroke-linejoin:miter;stroke-miterlimit:4;stroke-dasharray:none;stroke-opacity:1" />
    <path
       id="path9051"
       d="M 217.32,595.77 217.32,690.36"
       style="display:inline;fill:none;fill-opacity:1;fill-rule:evenodd;stroke:#000000;stroke-width:1;stroke-linecap:butt;stroke-linejoin:miter;stroke-miterlimit:4;stroke-dasharray:none;stroke-opacity:1" />
    <path
       id="path9053"
       d="M 156.07,690.36 217.32,690.36"
       style="display:inline;fill:none;fill-opacity:1;fill-rule:evenodd;stroke:#000000;stroke-width:1;stroke-linecap:butt;stroke-linejoin:miter;stroke-miterlimit:4;stroke-dasharray:none;stroke-opacity:1" />
    <path
       id="path9071"
       d="M 100.28,695.92 146,695.85 146,690.29 156.57,690.36"
       style="display:inline;fill:none;fill-opacity:1;fill-rule:evenodd;stroke:#000000;stroke-width:1;stroke-linecap:butt;stroke-linejoin:miter;stroke-miterlimit:4;stroke-dasharray:none;stroke-opacity:1" />
    <path
       id="path9065"
       d="M 100.28,696.79 100.28,672.36 83.98,672.36"
       style="display:inline;fill:none;fill-opacity:1;fill-rule:evenodd;stroke:#000000;stroke-width:1;stroke-linecap:butt;stroke-linejoin:miter;stroke-miterlimit:4;stroke-dasharray:none;stroke-opacity:1" />
    <path
       id="path9061"
       d="M 83.98,582.64 83.98,672.36"
       style="display:inline;fill:none;fill-opacity:1;fill-rule:evenodd;stroke:#000000;stroke-width:1;stroke-linecap:butt;stroke-linejoin:miter;stroke-miterlimit:4;stroke-dasharray:none;stroke-opacity:1" />
    <path
       id="path9073"
       d="M 618.1,507.36 613.32,507.36"
       style="display:inline;fill:none;fill-opacity:1;fill-rule:evenodd;stroke:#000000;stroke-width:1;stroke-linecap:butt;stroke-linejoin:miter;stroke-miterlimit:4;stroke-dasharray:none;stroke-opacity:1" />
    <path
       id="path9075"
       d="M 613.32,484.15 613.32,507.36"
       style="display:inline;fill:none;fill-opacity:1;fill-rule:evenodd;stroke:#000000;stroke-width:1;stroke-linecap:butt;stroke-linejoin:miter;stroke-miterlimit:4;stroke-dasharray:none;stroke-opacity:1" />
    <path
       id="path9077"
       d="M 617.79,520.93 618.1,507.36"
       style="display:inline;fill:none;fill-opacity:1;fill-rule:evenodd;stroke:#000000;stroke-width:1;stroke-linecap:butt;stroke-linejoin:miter;stroke-miterlimit:4;stroke-dasharray:none;stroke-opacity:1" />
  </g>
  <g
     transform="translate(30.132999,-288.07999)"
     style="display:inline"
     id="layer11">
    <circle
       r="2.8090999"
       cy="618.59998"
       cx="153.32001"
       id="path8718"
       style="display:inline;opacity:1;fill:#000000;fill-opacity:1;fill-rule:evenodd;stroke:#000000;stroke-width:1;stroke-linecap:round;stroke-linejoin:round;stroke-miterlimit:4;stroke-dasharray:none;stroke-dashoffset:0;stroke-opacity:1" />
    <circle
       style="display:inline;opacity:1;fill:#000000;fill-opacity:1;fill-rule:evenodd;stroke:#000000;stroke-width:1;stroke-linecap:round;stroke-linejoin:round;stroke-miterlimit:4;stroke-dasharray:none;stroke-dashoffset:0;stroke-opacity:1"
       id="circle8720"
       cx="153.32001"
       cy="581.54999"
       r="2.8090999" />
    <circle
       r="2.8090999"
       cy="581.54999"
       cx="111.19"
       id="circle8722"
       style="display:inline;opacity:1;fill:#000000;fill-opacity:1;fill-rule:evenodd;stroke:#000000;stroke-width:1;stroke-linecap:round;stroke-linejoin:round;stroke-miterlimit:4;stroke-dasharray:none;stroke-dashoffset:0;stroke-opacity:1" />
    <circle
       style="display:inline;opacity:1;fill:#000000;fill-opacity:1;fill-rule:evenodd;stroke:#000000;stroke-width:1;stroke-linecap:round;stroke-linejoin:round;stroke-miterlimit:4;stroke-dasharray:none;stroke-dashoffset:0;stroke-opacity:1"
       id="circle8724"
       cx="83.904999"
       cy="514.23999"
       r="2.8090999" />
    <circle
       style="display:inline;opacity:1;fill:#000000;fill-opacity:1;fill-rule:evenodd;stroke:#000000;stroke-width:1;stroke-linecap:round;stroke-linejoin:round;stroke-miterlimit:4;stroke-dasharray:none;stroke-dashoffset:0;stroke-opacity:1"
       id="circle8730"
       cx="171.42999"
       cy="404.78"
       r="2.8090999" />
    <circle
       style="display:inline;opacity:1;fill:#000000;fill-opacity:1;fill-rule:evenodd;stroke:#000000;stroke-width:1;stroke-linecap:round;stroke-linejoin:round;stroke-miterlimit:4;stroke-dasharray:none;stroke-dashoffset:0;stroke-opacity:1"
       id="circle8734"
       cx="312.84"
       cy="351.75"
       r="2.8090999" />
    <circle
       r="2.8090999"
       cy="412.34"
       cx="455.59"
       id="circle8736"
       style="display:inline;opacity:1;fill:#000000;fill-opacity:1;fill-rule:evenodd;stroke:#000000;stroke-width:1;stroke-linecap:round;stroke-linejoin:round;stroke-miterlimit:4;stroke-dasharray:none;stroke-dashoffset:0;stroke-opacity:1" />
    <circle
       style="display:inline;opacity:1;fill:#000000;fill-opacity:1;fill-rule:evenodd;stroke:#000000;stroke-width:1;stroke-linecap:round;stroke-linejoin:round;stroke-miterlimit:4;stroke-dasharray:none;stroke-dashoffset:0;stroke-opacity:1"
       id="circle8738"
       cx="452.16"
       cy="594.46997"
       r="2.8090999" />
    <circle
       r="2.8090999"
       cy="417.01999"
       cx="562"
       id="circle8740"
       style="display:inline;opacity:1;fill:#000000;fill-opacity:1;fill-rule:evenodd;stroke:#000000;stroke-width:1;stroke-linecap:round;stroke-linejoin:round;stroke-miterlimit:4;stroke-dasharray:none;stroke-dashoffset:0;stroke-opacity:1" />
    <circle
       style="display:inline;opacity:1;fill:#000000;fill-opacity:1;fill-rule:evenodd;stroke:#000000;stroke-width:1;stroke-linecap:round;stroke-linejoin:round;stroke-miterlimit:4;stroke-dasharray:none;stroke-dashoffset:0;stroke-opacity:1"
       id="circle8742"
       cx="613.32001"
       cy="482.95999"
       r="2.8090999" />
    <circle
       r="2.8090999"
       cy="521.71997"
       cx="617.95001"
       id="circle8744"
       style="display:inline;opacity:1;fill:#000000;fill-opacity:1;fill-rule:evenodd;stroke:#000000;stroke-width:1;stroke-linecap:round;stroke-linejoin:round;stroke-miterlimit:4;stroke-dasharray:none;stroke-dashoffset:0;stroke-opacity:1" />
    <circle
       r="2.8090999"
       cy="501.12"
       cx="502.23001"
       id="circle8746"
       style="display:inline;opacity:1;fill:#000000;fill-opacity:1;fill-rule:evenodd;stroke:#000000;stroke-width:1;stroke-linecap:round;stroke-linejoin:round;stroke-miterlimit:4;stroke-dasharray:none;stroke-dashoffset:0;stroke-opacity:1" />
    <circle
       r="2.8090999"
       cy="695.91998"
       cx="100.28"
       id="circle8748"
       style="display:inline;opacity:1;fill:#000000;fill-opacity:1;fill-rule:evenodd;stroke:#000000;stroke-width:1;stroke-linecap:round;stroke-linejoin:round;stroke-miterlimit:4;stroke-dasharray:none;stroke-dashoffset:0;stroke-opacity:1" />
    <circle
       r="2.8090999"
       cy="470.73001"
       cx="154.06"
       id="circle8762"
       style="display:inline;opacity:1;fill:#000000;fill-opacity:1;fill-rule:evenodd;stroke:#000000;stroke-width:1;stroke-linecap:round;stroke-linejoin:round;stroke-miterlimit:4;stroke-dasharray:none;stroke-dashoffset:0;stroke-opacity:1" />
    <circle
       r="2.8090999"
       cy="594.46997"
       cx="217.32001"
       id="circle8949"
       style="display:inline;opacity:1;fill:#000000;fill-opacity:1;fill-rule:evenodd;stroke:#000000;stroke-width:1;stroke-linecap:round;stroke-linejoin:round;stroke-miterlimit:4;stroke-dasharray:none;stroke-dashoffset:0;stroke-opacity:1" />
    <circle
       r="2.8090999"
       cy="470.73001"
       cx="225.81"
       id="circle8726"
       style="display:inline;opacity:1;fill:#000000;fill-opacity:1;fill-rule:evenodd;stroke:#000000;stroke-width:1;stroke-linecap:round;stroke-linejoin:round;stroke-miterlimit:4;stroke-dasharray:none;stroke-dashoffset:0;stroke-opacity:1" />
    <circle
       r="2.8090999"
       cy="349.03"
       cx="145.58"
       id="circle8732"
       style="display:inline;opacity:1;fill:#000000;fill-opacity:1;fill-rule:evenodd;stroke:#000000;stroke-width:1;stroke-linecap:round;stroke-linejoin:round;stroke-miterlimit:4;stroke-dasharray:none;stroke-dashoffset:0;stroke-opacity:1" />
    <circle
       style="display:inline;opacity:1;fill:#000000;fill-opacity:1;fill-rule:evenodd;stroke:#000000;stroke-width:1;stroke-linecap:round;stroke-linejoin:round;stroke-miterlimit:4;stroke-dasharray:none;stroke-dashoffset:0;stroke-opacity:1"
       id="circle115338"
       cx="83.980003"
       cy="581.54999"
       r="2.8090999" />
  </g>
</svg>
